<svg width="379" height="336" viewBox="0 0 379 336" fill="none" xmlns="http://www.w3.org/2000/svg">
<g filter="url(#filter0_f_240_4809)">
<path d="M228.15 248.255C228.15 248.255 298.276 250.415 326.176 242.313C355.857 233.693 355.819 188.955 326.176 177.927C296.533 166.899 286.402 206.318 286.402 206.318" stroke="#D0D0D0" stroke-width="20" stroke-linecap="round"/>
<path d="M184.85 291.917C184.85 291.917 215.038 286.547 259.391 295.636C303.744 304.725 289.621 330.803 268.601 331.995C247.581 333.187 228.184 319.375 228.184 319.375" stroke="#D0D0D0" stroke-width="20" stroke-linecap="round"/>
<path d="M328.566 295.569H368.566" stroke="#D0D0D0" stroke-width="20" stroke-linecap="round"/>
<path d="M127.865 225.842C125.669 225.871 103.389 260.653 103.389 274.171C103.389 280.662 105.968 286.888 110.558 291.478C115.148 296.068 121.373 298.647 127.865 298.647C134.356 298.647 140.582 296.068 145.172 291.478C149.762 286.888 152.341 280.662 152.341 274.171C152.341 260.653 130.061 225.818 127.865 225.842Z" fill="#42A0F0"/>
<path d="M141.498 266.871C139.052 267.619 138.195 271.907 139.583 276.449C140.972 280.991 144.08 284.067 146.526 283.32C148.972 282.572 149.829 278.283 148.441 273.741C147.052 269.199 143.943 266.123 141.498 266.871Z" fill="white"/>
<path d="M61.9209 274.928C60.1089 274.948 41.7209 303.657 41.7209 314.815C41.7209 320.173 43.8492 325.311 47.6374 329.099C51.4256 332.887 56.5636 335.015 61.9209 335.015C67.2783 335.015 72.4163 332.887 76.2045 329.099C79.9927 325.311 82.1209 320.173 82.1209 314.815C82.1209 303.657 63.7339 274.908 61.9209 274.928Z" fill="#42A0F0"/>
<path d="M73.173 308.792C71.1544 309.409 70.447 312.948 71.5929 316.697C72.7389 320.445 75.3043 322.983 77.3229 322.366C79.3415 321.749 80.0489 318.21 78.9029 314.462C77.757 310.713 75.1916 308.175 73.173 308.792Z" fill="white"/>
<path d="M96.544 5.3486C103.097 5.34721 109.633 6.00958 116.053 7.32559C128.443 9.87761 140.207 14.8529 150.668 21.9656C165.161 31.7889 176.74 45.3349 184.189 61.18C191.638 77.0251 194.681 94.5841 192.998 112.012C191.315 129.439 184.969 146.091 174.626 160.219C164.283 174.346 150.326 185.426 134.221 192.295C128.366 194.782 122.279 196.681 116.049 197.964C102.539 200.704 88.6007 200.534 75.1619 197.465C61.7231 194.396 49.0926 188.498 38.112 180.165C27.1314 171.831 18.0528 161.253 11.481 149.136C4.90932 137.018 0.995377 123.639 -3.05176e-05 109.891C5.63318 111.211 11.4 111.877 17.186 111.875C32.0883 111.898 46.6547 107.449 59 99.1016C71.0248 90.9864 80.4383 79.5582 86.1 66.2016C89.9976 56.9922 91.9965 47.0908 91.977 37.0906C91.9777 31.6599 91.3907 26.245 90.226 20.9406C89.0922 15.8007 87.4162 10.7957 85.226 6.0096C88.9827 5.57053 92.7617 5.34982 96.544 5.3486Z" fill="#713FFD"/>
<g filter="url(#filter1_f_240_4809)">
<path d="M162.048 35.4272C140.318 15.8613 111.85 12.0517 98.4646 26.9182C85.0787 41.7847 91.8431 69.6977 113.573 89.2636C135.303 108.829 163.77 112.639 177.156 97.7725C190.542 82.906 183.778 54.993 162.048 35.4272Z" fill="#A586FC"/>
</g>
<g filter="url(#filter2_d_240_4809)">
<path d="M288.066 272.069H96.634C78.0636 272.054 60.2185 264.857 46.8346 251.983C33.4507 239.11 25.5657 221.558 24.8302 203.002C24.0946 184.446 30.5657 166.325 42.8886 152.432C55.2116 138.54 72.431 129.952 90.942 128.469C93.5818 109.829 101.999 92.4852 115.01 78.8785C128.02 65.2718 144.969 56.0865 163.473 52.6149C181.976 49.1433 201.102 51.5601 218.16 59.5253C235.218 67.4904 249.349 80.6031 258.566 97.0185C275.471 91.1666 293.736 90.4828 311.032 95.0545C328.327 99.6262 343.869 109.246 355.674 122.687C367.479 136.128 375.014 152.781 377.315 170.522C379.617 188.263 376.582 206.287 368.598 222.296C363.912 236.759 354.765 249.366 342.47 258.308C330.174 267.251 315.362 272.068 300.158 272.069H288.066Z" fill="url(#paint0_linear_240_4809)"/>
<path d="M300.158 271.068C307.877 271.068 315.467 269.836 322.717 267.405C329.727 265.054 336.308 261.623 342.278 257.209C348.179 252.845 353.352 247.617 357.653 241.671C362.008 235.651 365.37 229.029 367.646 221.988L367.67 221.916L367.704 221.848C370.731 215.8 373.062 209.402 374.632 202.832C376.247 196.071 377.066 189.085 377.066 182.068C377.066 176.029 376.458 169.994 375.258 164.131C374.089 158.417 372.344 152.796 370.073 147.426C367.842 142.152 365.081 137.066 361.867 132.308C358.683 127.595 355.026 123.163 350.999 119.136C346.971 115.108 342.539 111.451 337.826 108.267C333.068 105.053 327.982 102.292 322.709 100.062C317.338 97.7902 311.718 96.0455 306.004 94.8763C300.14 93.6765 294.105 93.0681 288.066 93.0681C278.067 93.0681 268.251 94.7137 258.893 97.9593L258.104 98.2331L257.694 97.5047C250.078 83.9628 239 72.5902 225.658 64.6164C218.91 60.5838 211.661 57.4676 204.112 55.3543C196.323 53.1741 188.233 52.0686 180.066 52.0686C169.082 52.0686 158.359 54.0456 148.196 57.9446C138.378 61.7113 129.371 67.1523 121.426 74.1166C113.527 81.0408 106.972 89.2108 101.942 98.3994C96.7895 107.814 93.4215 117.976 91.9322 128.604L91.8208 129.399L91.02 129.462C82.0617 130.163 73.4429 132.521 65.4027 136.472C57.5903 140.31 50.6141 145.502 44.6679 151.903C32.4498 165.055 25.7209 182.192 25.7209 200.155C25.7209 209.729 27.5957 219.016 31.2932 227.757C33.0704 231.959 35.2701 236.012 37.8312 239.803C40.3681 243.558 43.2817 247.089 46.4909 250.298C49.7 253.507 53.2313 256.421 56.9865 258.958C60.7774 261.519 64.8299 263.719 69.0316 265.496C77.7734 269.193 87.0601 271.068 96.6336 271.068H288.066H300.158ZM300.158 272.068H288.066H96.6336C56.9175 272.068 24.7209 239.872 24.7209 200.155C24.7209 162.354 53.8856 131.365 90.9419 128.465C97.0714 84.726 134.638 51.0686 180.066 51.0686C213.768 51.0686 243.143 69.5917 258.565 97.0145C267.808 93.8092 277.733 92.0681 288.066 92.0681C337.772 92.0681 378.066 132.363 378.066 182.068C378.066 196.527 374.657 210.189 368.598 222.295C359.261 251.177 332.148 272.068 300.158 272.068Z" fill="white" fill-opacity="0.5"/>
</g>
</g>
<defs>
<filter id="filter0_f_240_4809" x="-4" y="1.34863" width="386.566" height="344.719" filterUnits="userSpaceOnUse" color-interpolation-filters="sRGB">
<feFlood flood-opacity="0" result="BackgroundImageFix"/>
<feBlend mode="normal" in="SourceGraphic" in2="BackgroundImageFix" result="shape"/>
<feGaussianBlur stdDeviation="2" result="effect1_foregroundBlur_240_4809"/>
</filter>
<filter id="filter1_f_240_4809" x="71.592" y="-2.15063" width="132.437" height="128.992" filterUnits="userSpaceOnUse" color-interpolation-filters="sRGB">
<feFlood flood-opacity="0" result="BackgroundImageFix"/>
<feBlend mode="normal" in="SourceGraphic" in2="BackgroundImageFix" result="shape"/>
<feGaussianBlur stdDeviation="10" result="effect1_foregroundBlur_240_4809"/>
</filter>
<filter id="filter2_d_240_4809" x="4.72095" y="23.0686" width="413.345" height="281" filterUnits="userSpaceOnUse" color-interpolation-filters="sRGB">
<feFlood flood-opacity="0" result="BackgroundImageFix"/>
<feColorMatrix in="SourceAlpha" type="matrix" values="0 0 0 0 0 0 0 0 0 0 0 0 0 0 0 0 0 0 127 0" result="hardAlpha"/>
<feOffset dx="10" dy="2"/>
<feGaussianBlur stdDeviation="15"/>
<feColorMatrix type="matrix" values="0 0 0 0 0.258824 0 0 0 0 0.627451 0 0 0 0 0.941176 0 0 0 0.596 0"/>
<feBlend mode="normal" in2="BackgroundImageFix" result="effect1_dropShadow_240_4809"/>
<feBlend mode="normal" in="SourceGraphic" in2="effect1_dropShadow_240_4809" result="shape"/>
</filter>
<linearGradient id="paint0_linear_240_4809" x1="201.419" y1="51.071" x2="304.062" y2="299.235" gradientUnits="userSpaceOnUse">
<stop stop-color="white" stop-opacity="0.604"/>
<stop offset="1" stop-color="white" stop-opacity="0.2"/>
</linearGradient>
</defs>
</svg>
