<svg width="379" height="331" viewBox="0 0 379 331" fill="none" xmlns="http://www.w3.org/2000/svg">
<g filter="url(#filter0_f_240_5448)">
<path d="M103.148 213.763C157.548 213.763 201.648 169.439 201.648 114.763C201.648 60.0868 157.548 15.763 103.148 15.763C48.7479 15.763 4.64795 60.0868 4.64795 114.763C4.64795 169.439 48.7479 213.763 103.148 213.763Z" fill="#FA9E42"/>
<g filter="url(#filter1_f_240_5448)">
<path d="M96.0304 100.684C128.767 83.2963 147.077 53.7096 136.928 34.6003C126.778 15.4911 92.0115 14.0956 59.2749 31.4835C26.5383 48.8713 8.22801 78.4581 18.3778 97.5673C28.5275 116.677 63.2938 118.072 96.0304 100.684Z" fill="#F8E36F"/>
</g>
<path d="M315.8 214.314C315.8 214.314 297.038 231.206 282.374 230.647C263.992 229.93 260.844 215.208 243.81 214.314C225.981 214.491 224.162 229.761 204.837 230.647C187.522 230.441 180.187 214.59 163.683 214.314C147.179 214.038 129.583 230.647 129.583 230.647" stroke="white" stroke-width="20" stroke-linecap="round"/>
<path d="M251.8 268.314C251.8 268.314 233.038 285.206 218.374 284.647C199.992 283.93 196.844 269.208 179.81 268.314C161.981 268.491 160.162 283.761 140.837 284.647C123.522 284.441 116.187 268.59 99.683 268.314C83.179 268.038 65.583 284.647 65.583 284.647" stroke="white" stroke-width="20" stroke-linecap="round"/>
<path d="M349.8 314.314C349.8 314.314 331.038 331.206 316.374 330.647C297.992 329.93 294.844 315.208 277.81 314.314C259.981 314.491 258.162 329.761 238.837 330.647C221.522 330.441 214.187 314.59 197.683 314.314C181.179 314.038 163.583 330.647 163.583 330.647" stroke="white" stroke-width="20" stroke-linecap="round"/>
<g filter="url(#filter2_d_240_5448)">
<path d="M288.345 283.937H96.913C78.3426 283.923 60.4976 276.726 47.1137 263.852C33.7298 250.978 25.8447 233.426 25.1092 214.87C24.3737 196.314 30.8448 178.193 43.1677 164.301C55.4906 150.408 72.71 141.821 91.221 140.337C93.8608 121.697 102.278 104.354 115.289 90.747C128.299 77.1403 145.248 67.955 163.752 64.4834C182.255 61.0118 201.381 63.4286 218.439 71.3937C235.497 79.3589 249.628 92.4716 258.845 108.887C275.75 103.035 294.015 102.351 311.311 106.923C328.606 111.495 344.148 121.115 355.953 134.556C367.759 147.997 375.293 164.65 377.594 182.39C379.896 200.131 376.861 218.155 368.877 234.164C364.192 248.627 355.045 261.235 342.749 270.177C330.453 279.119 315.641 283.936 300.437 283.937H288.345Z" fill="url(#paint0_linear_240_5448)"/>
<path d="M300.437 282.937C308.156 282.937 315.746 281.704 322.996 279.273C330.006 276.922 336.587 273.492 342.557 269.077C348.458 264.713 353.631 259.485 357.932 253.539C362.287 247.519 365.649 240.897 367.925 233.856L367.949 233.784L367.983 233.716C371.01 227.668 373.341 221.27 374.911 214.7C376.526 207.94 377.345 200.954 377.345 193.937C377.345 187.897 376.737 181.862 375.537 175.999C374.368 170.285 372.623 164.665 370.352 159.294C368.121 154.021 365.36 148.935 362.146 144.177C358.962 139.464 355.305 135.032 351.278 131.004C347.25 126.976 342.818 123.32 338.105 120.136C333.347 116.921 328.261 114.161 322.988 111.93C317.617 109.659 311.997 107.914 306.283 106.745C300.42 105.545 294.384 104.937 288.345 104.937C278.346 104.937 268.531 106.582 259.172 109.828L258.383 110.102L257.973 109.373C250.357 95.8312 239.279 84.4586 225.937 76.4848C219.189 72.4522 211.94 69.336 204.391 67.2227C196.602 65.0425 188.512 63.937 180.345 63.937C169.361 63.937 158.638 65.914 148.475 69.8131C138.657 73.5797 129.65 79.0207 121.705 85.985C113.806 92.9092 107.251 101.079 102.221 110.268C97.0685 119.682 93.7006 129.844 92.2113 140.472L92.0998 141.267L91.299 141.33C82.3408 142.031 73.7219 144.39 65.6818 148.34C57.8694 152.179 50.8932 157.371 44.947 163.771C32.7289 176.924 26 194.06 26 212.024C26 221.597 27.8748 230.884 31.5723 239.626C33.3495 243.828 35.5491 247.88 38.1102 251.671C40.6472 255.426 43.5607 258.957 46.7699 262.167C49.9791 265.376 53.5104 268.289 57.2655 270.826C61.0565 273.387 65.109 275.587 69.3106 277.364C78.0525 281.062 87.3391 282.937 96.9127 282.937H288.345H300.437ZM300.437 283.937H288.345H96.9127C57.1966 283.937 25 251.74 25 212.024C25 174.223 54.1646 143.234 91.221 140.333C97.3504 96.5944 134.917 62.937 180.345 62.937C214.048 62.937 243.422 81.4601 258.845 108.883C268.087 105.678 278.012 103.937 288.345 103.937C338.051 103.937 378.345 144.231 378.345 193.937C378.345 208.396 374.936 222.058 368.877 234.164C359.54 263.046 332.427 283.937 300.437 283.937Z" fill="white" fill-opacity="0.5"/>
</g>
</g>
<defs>
<filter id="filter0_f_240_5448" x="0.647949" y="11.763" width="381.697" height="332.897" filterUnits="userSpaceOnUse" color-interpolation-filters="sRGB">
<feFlood flood-opacity="0" result="BackgroundImageFix"/>
<feBlend mode="normal" in="SourceGraphic" in2="BackgroundImageFix" result="shape"/>
<feGaussianBlur stdDeviation="2" result="effect1_foregroundBlur_240_5448"/>
</filter>
<filter id="filter1_f_240_5448" x="-4.42236" y="-0.696777" width="164.15" height="133.561" filterUnits="userSpaceOnUse" color-interpolation-filters="sRGB">
<feFlood flood-opacity="0" result="BackgroundImageFix"/>
<feBlend mode="normal" in="SourceGraphic" in2="BackgroundImageFix" result="shape"/>
<feGaussianBlur stdDeviation="10" result="effect1_foregroundBlur_240_5448"/>
</filter>
<filter id="filter2_d_240_5448" x="5" y="34.937" width="413.345" height="281" filterUnits="userSpaceOnUse" color-interpolation-filters="sRGB">
<feFlood flood-opacity="0" result="BackgroundImageFix"/>
<feColorMatrix in="SourceAlpha" type="matrix" values="0 0 0 0 0 0 0 0 0 0 0 0 0 0 0 0 0 0 127 0" result="hardAlpha"/>
<feOffset dx="10" dy="2"/>
<feGaussianBlur stdDeviation="15"/>
<feColorMatrix type="matrix" values="0 0 0 0 0.258824 0 0 0 0 0.627451 0 0 0 0 0.941176 0 0 0 0.596 0"/>
<feBlend mode="normal" in2="BackgroundImageFix" result="effect1_dropShadow_240_5448"/>
<feBlend mode="normal" in="SourceGraphic" in2="effect1_dropShadow_240_5448" result="shape"/>
</filter>
<linearGradient id="paint0_linear_240_5448" x1="201.698" y1="62.9395" x2="304.341" y2="311.103" gradientUnits="userSpaceOnUse">
<stop stop-color="white" stop-opacity="0.604"/>
<stop offset="1" stop-color="white" stop-opacity="0.2"/>
</linearGradient>
</defs>
</svg>
