<svg width="393" height="363" viewBox="0 0 393 363" fill="none" xmlns="http://www.w3.org/2000/svg">
<g filter="url(#filter0_f_240_5359)">
<path d="M146.044 220.773L212.727 327.466" stroke="#42A0F0" stroke-width="9" stroke-linecap="round"/>
<path d="M162.132 246.988L168.652 216.535" stroke="#42A0F0" stroke-width="9" stroke-linecap="round"/>
<path d="M162.132 246.988L131.309 239.875" stroke="#42A0F0" stroke-width="9" stroke-linecap="round"/>
<path d="M197.696 303.89L227.927 311.374" stroke="#42A0F0" stroke-width="9" stroke-linecap="round"/>
<path d="M197.696 303.89L190.583 334.713" stroke="#42A0F0" stroke-width="9" stroke-linecap="round"/>
<path d="M208.936 219.172L149.879 330.268" stroke="#42A0F0" stroke-width="9" stroke-linecap="round"/>
<path d="M194.278 246.212L223.911 236.632" stroke="#42A0F0" stroke-width="9" stroke-linecap="round"/>
<path d="M194.278 246.212L185.026 215.962" stroke="#42A0F0" stroke-width="9" stroke-linecap="round"/>
<path d="M162.781 305.462L171.415 335.384" stroke="#42A0F0" stroke-width="9" stroke-linecap="round"/>
<path d="M162.781 305.462L132.531 314.714" stroke="#42A0F0" stroke-width="9" stroke-linecap="round"/>
<path d="M241.768 272.838L116.028 277.24" stroke="#42A0F0" stroke-width="9" stroke-linecap="round"/>
<path d="M211.022 273.663L234.134 294.536" stroke="#42A0F0" stroke-width="9" stroke-linecap="round"/>
<path d="M211.022 273.663L232.594 250.526" stroke="#42A0F0" stroke-width="9" stroke-linecap="round"/>
<path d="M143.961 276.011L122.365 298.45" stroke="#42A0F0" stroke-width="9" stroke-linecap="round"/>
<path d="M143.961 276.011L120.824 254.44" stroke="#42A0F0" stroke-width="9" stroke-linecap="round"/>
<path d="M312.38 288.187L287.007 345.166" stroke="#42A0F0" stroke-width="6.00313" stroke-linecap="round"/>
<path d="M306.063 302.065L320.387 296.304" stroke="#42A0F0" stroke-width="6.00313" stroke-linecap="round"/>
<path d="M306.063 302.065L300.444 287.424" stroke="#42A0F0" stroke-width="6.00313" stroke-linecap="round"/>
<path d="M292.531 332.453L297.833 346.953" stroke="#42A0F0" stroke-width="6.00313" stroke-linecap="round"/>
<path d="M292.531 332.454L277.891 338.073" stroke="#42A0F0" stroke-width="6.00313" stroke-linecap="round"/>
<path d="M330.468 313.594L268.437 320.11" stroke="#42A0F0" stroke-width="6.00313" stroke-linecap="round"/>
<path d="M315.291 315.063L327.442 324.587" stroke="#42A0F0" stroke-width="6.00313" stroke-linecap="round"/>
<path d="M315.291 315.063L325.161 302.876" stroke="#42A0F0" stroke-width="6.00313" stroke-linecap="round"/>
<path d="M282.208 318.538L272.302 330.379" stroke="#42A0F0" stroke-width="6.00313" stroke-linecap="round"/>
<path d="M282.208 318.538L270.021 308.668" stroke="#42A0F0" stroke-width="6.00313" stroke-linecap="round"/>
<path d="M317.509 341.962L280.85 291.5" stroke="#42A0F0" stroke-width="6.00313" stroke-linecap="round"/>
<path d="M308.649 329.553L306.476 344.838" stroke="#42A0F0" stroke-width="6.00313" stroke-linecap="round"/>
<path d="M308.649 329.553L324.138 332.007" stroke="#42A0F0" stroke-width="6.00313" stroke-linecap="round"/>
<path d="M289.098 302.64L273.89 299.982" stroke="#42A0F0" stroke-width="6.00313" stroke-linecap="round"/>
<path d="M289.098 302.64L291.552 287.151" stroke="#42A0F0" stroke-width="6.00313" stroke-linecap="round"/>
<path d="M103.268 5.72324C110.278 5.72148 117.27 6.42975 124.137 7.83723C137.391 10.5669 149.974 15.8889 161.164 23.4972C176.667 34.0049 189.053 48.4947 197.021 65.4437C204.989 82.3927 208.244 101.175 206.444 119.817C204.645 138.459 197.857 156.271 186.793 171.383C175.73 186.495 160.801 198.347 143.574 205.695C137.312 208.356 130.8 210.388 124.136 211.76C109.685 214.69 94.7755 214.508 80.4007 211.224C66.0258 207.941 52.5156 201.632 40.7701 192.718C29.0246 183.804 19.3133 172.489 12.2833 159.528C5.25331 146.566 1.0659 132.256 4.57764e-05 117.549C11.3315 120.201 23.1025 120.372 34.506 118.049C44.7391 115.954 54.4593 111.863 63.112 106.012C75.9743 97.329 86.0423 85.1018 92.0961 70.8122C94.1416 65.9727 95.7028 60.9425 96.7571 55.7952C99.0041 44.7666 98.921 33.3899 96.5131 22.3952C95.3017 16.8975 93.5104 11.5439 91.1691 6.42424C95.1851 5.95689 99.2249 5.72282 103.268 5.72324Z" fill="#713FFD"/>
<g filter="url(#filter1_f_240_5359)">
<path d="M173.339 37.8963C150.095 16.9668 119.644 12.8915 105.325 28.7939C91.0065 44.6964 98.2424 74.5545 121.487 95.484C144.732 116.414 175.182 120.489 189.501 104.586C203.82 88.6839 196.584 58.8258 173.339 37.8963Z" fill="#A586FC"/>
</g>
<g filter="url(#filter2_d_240_5359)">
<path d="M302.345 281.002H110.913C92.3426 280.988 74.4975 273.791 61.1136 260.917C47.7297 248.043 39.8447 230.491 39.1092 211.936C38.3736 193.38 44.8447 175.259 57.1676 161.366C69.4906 147.473 86.7099 138.886 105.221 137.402C107.861 118.762 116.278 101.419 129.289 87.8122C142.299 74.2055 159.248 65.0202 177.752 61.5486C196.255 58.077 215.381 60.4938 232.439 68.459C249.497 76.4242 263.628 89.5368 272.845 105.952C289.75 100.1 308.015 99.4165 325.31 103.988C342.605 108.559 358.146 118.179 369.952 131.619C381.757 145.06 389.292 161.712 391.594 179.452C393.896 197.192 390.862 215.216 382.879 231.225C378.194 245.69 369.047 258.299 356.751 267.242C344.455 276.184 329.641 281.002 314.437 281.002H302.345Z" fill="url(#paint0_linear_240_5359)"/>
<path d="M314.437 280.002C322.157 280.002 329.748 278.769 336.998 276.338C344.009 273.987 350.59 270.556 356.56 266.141C362.462 261.777 367.635 256.549 371.936 250.603C376.29 244.582 379.652 237.959 381.928 230.917L381.951 230.845L381.985 230.777C385.011 224.73 387.341 218.333 388.911 211.763C390.526 205.002 391.345 198.017 391.345 191.002C391.345 184.963 390.737 178.928 389.537 173.064C388.368 167.35 386.623 161.73 384.352 156.359C382.121 151.086 379.361 146 376.146 141.242C372.962 136.529 369.306 132.097 365.278 128.069C361.25 124.042 356.819 120.385 352.106 117.201C347.348 113.987 342.261 111.226 336.988 108.995C331.617 106.724 325.997 104.979 320.283 103.81C314.42 102.61 308.385 102.002 302.345 102.002C292.346 102.002 282.531 103.647 273.172 106.893L272.383 107.167L271.973 106.438C264.357 92.8965 253.279 81.5239 239.937 73.5501C233.189 69.5175 225.94 66.4012 218.391 64.2879C210.602 62.1077 202.512 61.0022 194.345 61.0022C183.361 61.0022 172.638 62.9792 162.475 66.8782C152.657 70.6449 143.65 76.0859 135.705 83.0502C127.806 89.9744 121.251 98.1444 116.221 107.333C111.069 116.747 107.701 126.909 106.211 137.537L106.1 138.333L105.299 138.395C96.3408 139.096 87.7219 141.455 79.6818 145.405C71.8694 149.244 64.8932 154.436 58.947 160.837C46.7289 173.989 40 191.125 40 209.089C40 218.663 41.8748 227.949 45.5723 236.691C47.3495 240.893 49.5491 244.945 52.1102 248.736C54.6472 252.491 57.5607 256.023 60.7699 259.232C63.9791 262.441 67.5104 265.355 71.2655 267.892C75.0565 270.453 79.109 272.652 83.3106 274.429C92.0525 278.127 101.339 280.002 110.913 280.002H302.345H314.437ZM314.437 281.002H302.345H110.913C71.1966 281.002 39 248.805 39 209.089C39 171.288 68.1646 140.299 105.221 137.398C111.35 93.6596 148.917 60.0022 194.345 60.0022C228.048 60.0022 257.422 78.5254 272.845 105.948C282.087 102.743 292.012 101.002 302.345 101.002C352.051 101.002 392.345 141.297 392.345 191.002C392.345 205.458 388.936 219.121 382.879 231.225C373.544 260.11 346.431 281.002 314.437 281.002Z" fill="white" fill-opacity="0.5"/>
</g>
</g>
<defs>
<filter id="filter0_f_240_5359" x="-3.99994" y="1.72327" width="400.345" height="352.232" filterUnits="userSpaceOnUse" color-interpolation-filters="sRGB">
<feFlood flood-opacity="0" result="BackgroundImageFix"/>
<feBlend mode="normal" in="SourceGraphic" in2="BackgroundImageFix" result="shape"/>
<feGaussianBlur stdDeviation="2" result="effect1_foregroundBlur_240_5359"/>
</filter>
<filter id="filter1_f_240_5359" x="77.9738" y="-0.906616" width="138.879" height="135.194" filterUnits="userSpaceOnUse" color-interpolation-filters="sRGB">
<feFlood flood-opacity="0" result="BackgroundImageFix"/>
<feBlend mode="normal" in="SourceGraphic" in2="BackgroundImageFix" result="shape"/>
<feGaussianBlur stdDeviation="10" result="effect1_foregroundBlur_240_5359"/>
</filter>
<filter id="filter2_d_240_5359" x="19" y="32.0022" width="413.345" height="281" filterUnits="userSpaceOnUse" color-interpolation-filters="sRGB">
<feFlood flood-opacity="0" result="BackgroundImageFix"/>
<feColorMatrix in="SourceAlpha" type="matrix" values="0 0 0 0 0 0 0 0 0 0 0 0 0 0 0 0 0 0 127 0" result="hardAlpha"/>
<feOffset dx="10" dy="2"/>
<feGaussianBlur stdDeviation="15"/>
<feColorMatrix type="matrix" values="0 0 0 0 0.258824 0 0 0 0 0.627451 0 0 0 0 0.941176 0 0 0 0.596 0"/>
<feBlend mode="normal" in2="BackgroundImageFix" result="effect1_dropShadow_240_5359"/>
<feBlend mode="normal" in="SourceGraphic" in2="effect1_dropShadow_240_5359" result="shape"/>
</filter>
<linearGradient id="paint0_linear_240_5359" x1="215.698" y1="60.0048" x2="318.341" y2="308.169" gradientUnits="userSpaceOnUse">
<stop stop-color="white" stop-opacity="0.604"/>
<stop offset="1" stop-color="white" stop-opacity="0.2"/>
</linearGradient>
</defs>
</svg>
