<svg width="399" height="278" viewBox="0 0 399 278" fill="none" xmlns="http://www.w3.org/2000/svg">
<g filter="url(#filter0_f_240_5927)">
<path d="M103.268 5.72321C110.278 5.72145 117.27 6.42972 124.137 7.8372C137.39 10.5669 149.974 15.8889 161.164 23.4972C176.667 34.0049 189.053 48.4946 197.021 65.4436C204.989 82.3927 208.244 101.175 206.444 119.817C204.644 138.459 197.856 156.271 186.793 171.383C175.73 186.495 160.801 198.347 143.574 205.695C137.312 208.356 130.8 210.388 124.136 211.76C109.685 214.69 94.7754 214.508 80.4005 211.224C66.0257 207.941 52.5155 201.632 40.77 192.718C29.0244 183.804 19.3132 172.489 12.2832 159.528C5.25319 146.566 1.06578 132.256 -7.62939e-05 117.549C11.3314 120.201 23.1023 120.372 34.5059 118.049C44.7389 115.954 54.4592 111.863 63.1119 106.012C75.9742 97.3289 86.0422 85.1017 92.0959 70.8122C94.1414 65.9727 95.7027 60.9424 96.7569 55.7952C99.004 44.7665 98.9209 33.3899 96.5129 22.3952C95.3016 16.8975 93.5102 11.5438 91.1689 6.42421C95.185 5.95686 99.2248 5.72279 103.268 5.72321Z" fill="#713FFD"/>
<g filter="url(#filter1_f_240_5927)">
<path d="M173.339 37.8962C150.095 16.9667 119.644 12.8915 105.325 28.7939C91.0067 44.6963 98.2426 74.5545 121.487 95.484C144.732 116.413 175.183 120.489 189.501 104.586C203.82 88.6839 196.584 58.8257 173.339 37.8962Z" fill="#A586FC"/>
</g>
<g filter="url(#filter2_d_240_5927)">
<path d="M308.345 278H116.913C98.3426 277.986 80.4976 270.789 67.1137 257.915C53.7298 245.041 45.8447 227.489 45.1092 208.933C44.3737 190.377 50.8448 172.256 63.1677 158.364C75.4906 144.471 92.71 135.884 111.221 134.4C113.861 115.76 122.278 98.4167 135.289 84.81C148.299 71.2033 165.248 62.018 183.752 58.5464C202.255 55.0748 221.381 57.4916 238.439 65.4567C255.497 73.4219 269.628 86.5346 278.845 102.95C295.75 97.098 314.015 96.4143 331.311 100.986C348.606 105.558 364.148 115.178 375.953 128.619C387.759 142.06 395.293 158.713 397.594 176.453C399.896 194.194 396.861 212.218 388.877 228.227C384.192 242.69 375.045 255.298 362.749 264.24C350.453 273.182 335.641 277.999 320.437 278H308.345Z" fill="url(#paint0_linear_240_5927)"/>
<path d="M320.437 277C328.156 277 335.746 275.767 342.996 273.336C350.006 270.985 356.587 267.555 362.557 263.14C368.458 258.776 373.631 253.548 377.932 247.602C382.287 241.582 385.649 234.96 387.925 227.919L387.949 227.847L387.983 227.779C391.01 221.731 393.341 215.333 394.911 208.763C396.526 202.003 397.345 195.017 397.345 187.999C397.345 181.96 396.737 175.925 395.537 170.062C394.368 164.348 392.623 158.728 390.352 153.357C388.121 148.084 385.36 142.997 382.146 138.24C378.962 133.527 375.305 129.095 371.278 125.067C367.25 121.039 362.818 117.383 358.105 114.199C353.347 110.984 348.261 108.224 342.988 105.993C337.617 103.722 331.997 101.977 326.283 100.808C320.42 99.6078 314.384 98.9995 308.345 98.9995C298.346 98.9995 288.531 100.645 279.172 103.891L278.383 104.165L277.973 103.436C270.357 89.8942 259.279 78.5216 245.937 70.5478C239.189 66.5152 231.94 63.399 224.391 61.2857C216.602 59.1054 208.512 58 200.345 58C189.361 58 178.638 59.977 168.475 63.876C158.657 67.6427 149.65 73.0837 141.705 80.048C133.806 86.9722 127.251 95.1422 122.221 104.331C117.069 113.745 113.701 123.907 112.211 134.535L112.1 135.33L111.299 135.393C102.341 136.094 93.7219 138.453 85.6818 142.403C77.8694 146.242 70.8932 151.434 64.947 157.834C52.7289 170.987 46 188.123 46 206.087C46 215.66 47.8748 224.947 51.5723 233.689C53.3495 237.89 55.5491 241.943 58.1102 245.734C60.6472 249.489 63.5607 253.02 66.7699 256.23C69.9791 259.439 73.5104 262.352 77.2655 264.889C81.0565 267.45 85.109 269.65 89.3106 271.427C98.0525 275.125 107.339 277 116.913 277H308.345H320.437ZM320.437 278H308.345H116.913C77.1966 278 45 245.803 45 206.087C45 168.286 74.1646 137.297 111.221 134.396C117.35 90.6573 154.917 57 200.345 57C234.048 57 263.422 75.5231 278.845 102.946C288.087 99.7406 298.012 97.9995 308.345 97.9995C358.051 97.9995 398.345 138.294 398.345 187.999C398.345 202.459 394.936 216.121 388.877 228.227C379.54 257.109 352.427 278 320.437 278Z" fill="white" fill-opacity="0.5"/>
</g>
</g>
<defs>
<filter id="filter0_f_240_5927" x="-4" y="1.72321" width="406.345" height="280.277" filterUnits="userSpaceOnUse" color-interpolation-filters="sRGB">
<feFlood flood-opacity="0" result="BackgroundImageFix"/>
<feBlend mode="normal" in="SourceGraphic" in2="BackgroundImageFix" result="shape"/>
<feGaussianBlur stdDeviation="2" result="effect1_foregroundBlur_240_5927"/>
</filter>
<filter id="filter1_f_240_5927" x="77.9741" y="-0.906708" width="138.878" height="135.194" filterUnits="userSpaceOnUse" color-interpolation-filters="sRGB">
<feFlood flood-opacity="0" result="BackgroundImageFix"/>
<feBlend mode="normal" in="SourceGraphic" in2="BackgroundImageFix" result="shape"/>
<feGaussianBlur stdDeviation="10" result="effect1_foregroundBlur_240_5927"/>
</filter>
<filter id="filter2_d_240_5927" x="25" y="29" width="413.345" height="281" filterUnits="userSpaceOnUse" color-interpolation-filters="sRGB">
<feFlood flood-opacity="0" result="BackgroundImageFix"/>
<feColorMatrix in="SourceAlpha" type="matrix" values="0 0 0 0 0 0 0 0 0 0 0 0 0 0 0 0 0 0 127 0" result="hardAlpha"/>
<feOffset dx="10" dy="2"/>
<feGaussianBlur stdDeviation="15"/>
<feColorMatrix type="matrix" values="0 0 0 0 0.258824 0 0 0 0 0.627451 0 0 0 0 0.941176 0 0 0 0.596 0"/>
<feBlend mode="normal" in2="BackgroundImageFix" result="effect1_dropShadow_240_5927"/>
<feBlend mode="normal" in="SourceGraphic" in2="effect1_dropShadow_240_5927" result="shape"/>
</filter>
<linearGradient id="paint0_linear_240_5927" x1="221.698" y1="57.0025" x2="324.341" y2="305.166" gradientUnits="userSpaceOnUse">
<stop stop-color="white" stop-opacity="0.604"/>
<stop offset="1" stop-color="white" stop-opacity="0.2"/>
</linearGradient>
</defs>
</svg>
