<svg width="354" height="333" viewBox="0 0 354 333" fill="none" xmlns="http://www.w3.org/2000/svg">
<g filter="url(#filter0_f_240_5021)">
<path d="M144.37 159.357C145.086 159.375 152.352 184.605 152.352 194.409C152.352 204.213 148.778 212.162 144.37 212.162C139.962 212.162 136.388 204.214 136.388 194.41C136.388 184.606 143.654 159.34 144.37 159.357Z" fill="#42A0F0"/>
<path d="M140.513 197.409C141.679 197.766 143.215 196.123 143.944 193.74C144.672 191.357 144.318 189.136 143.151 188.779C141.985 188.423 140.449 190.066 139.721 192.449C138.992 194.832 139.347 197.053 140.513 197.409Z" fill="white"/>
<path d="M203.796 159.357C204.512 159.375 211.778 184.605 211.778 194.409C211.778 204.213 208.204 212.162 203.796 212.162C199.388 212.162 195.814 204.214 195.814 194.41C195.814 184.606 203.08 159.34 203.796 159.357Z" fill="#42A0F0"/>
<path d="M199.939 197.409C201.105 197.766 202.641 196.123 203.37 193.74C204.098 191.357 203.744 189.136 202.578 188.779C201.411 188.423 199.875 190.066 199.147 192.449C198.418 194.832 198.773 197.053 199.939 197.409Z" fill="white"/>
<path d="M258.683 156.357C259.399 156.375 266.665 181.605 266.665 191.409C266.665 201.213 263.091 209.162 258.683 209.162C254.275 209.162 250.701 201.214 250.701 191.41C250.701 181.606 257.967 156.34 258.683 156.357Z" fill="#42A0F0"/>
<path d="M254.826 194.409C255.992 194.766 257.528 193.123 258.257 190.74C258.985 188.357 258.631 186.136 257.464 185.779C256.298 185.423 254.762 187.066 254.034 189.449C253.305 191.832 253.66 194.053 254.826 194.409Z" fill="white"/>
<path d="M172.335 226.357C173.051 226.375 180.317 251.605 180.317 261.409C180.317 271.213 176.743 279.162 172.335 279.162C167.927 279.162 164.353 271.214 164.353 261.41C164.353 251.606 171.619 226.34 172.335 226.357Z" fill="#42A0F0"/>
<path d="M168.478 264.409C169.644 264.766 171.18 263.123 171.909 260.74C172.637 258.357 172.283 256.136 171.117 255.779C169.95 255.423 168.414 257.066 167.686 259.449C166.957 261.832 167.312 264.053 168.478 264.409Z" fill="white"/>
<path d="M231.761 226.357C232.477 226.375 239.743 251.605 239.743 261.409C239.743 271.213 236.169 279.162 231.761 279.162C227.353 279.162 223.779 271.214 223.779 261.41C223.779 251.606 231.045 226.34 231.761 226.357Z" fill="#42A0F0"/>
<path d="M227.904 264.409C229.07 264.766 230.606 263.123 231.335 260.74C232.063 258.357 231.709 256.136 230.542 255.779C229.376 255.423 227.84 257.066 227.112 259.449C226.383 261.832 226.738 264.053 227.904 264.409Z" fill="white"/>
<path d="M294.683 226.357C295.399 226.375 302.665 251.605 302.665 261.409C302.665 271.213 299.091 279.162 294.683 279.162C290.275 279.162 286.701 271.214 286.701 261.41C286.701 251.606 293.967 226.34 294.683 226.357Z" fill="#42A0F0"/>
<path d="M290.826 264.409C291.992 264.766 293.528 263.123 294.257 260.74C294.985 258.357 294.631 256.136 293.464 255.779C292.298 255.423 290.762 257.066 290.034 259.449C289.305 261.832 289.66 264.053 290.826 264.409Z" fill="white"/>
<path d="M144.37 279.357C145.086 279.375 152.352 304.605 152.352 314.409C152.352 324.213 148.778 332.162 144.37 332.162C139.962 332.162 136.388 324.214 136.388 314.41C136.388 304.606 143.654 279.34 144.37 279.357Z" fill="#42A0F0"/>
<path d="M140.513 317.409C141.679 317.766 143.215 316.123 143.944 313.74C144.672 311.357 144.318 309.136 143.151 308.779C141.985 308.423 140.449 310.066 139.721 312.449C138.992 314.832 139.347 317.053 140.513 317.409Z" fill="white"/>
<path d="M203.796 279.357C204.512 279.375 211.778 304.605 211.778 314.409C211.778 324.213 208.204 332.162 203.796 332.162C199.388 332.162 195.814 324.214 195.814 314.41C195.814 304.606 203.08 279.34 203.796 279.357Z" fill="#42A0F0"/>
<path d="M199.939 317.409C201.105 317.766 202.641 316.123 203.37 313.74C204.098 311.357 203.744 309.136 202.578 308.779C201.411 308.423 199.875 310.066 199.147 312.449C198.418 314.832 198.773 317.053 199.939 317.409Z" fill="white"/>
<path d="M258.683 279.357C259.399 279.375 266.665 304.605 266.665 314.409C266.665 324.213 263.091 332.162 258.683 332.162C254.275 332.162 250.701 324.214 250.701 314.41C250.701 304.606 257.967 279.34 258.683 279.357Z" fill="#42A0F0"/>
<path d="M254.826 317.409C255.992 317.766 257.528 316.123 258.257 313.74C258.985 311.357 258.631 309.136 257.464 308.779C256.298 308.423 254.762 310.066 254.034 312.449C253.305 314.832 253.66 317.053 254.826 317.409Z" fill="white"/>
<path d="M72.53 194.482H119.176L92.361 233.86L123.714 234.454L57.906 312.342L73.851 252.958H44.66L72.53 194.482Z" fill="url(#paint0_linear_240_5021)"/>
<g filter="url(#filter1_d_240_5021)">
<path d="M263.345 221H71.913C53.3426 220.986 35.4975 213.789 22.1136 200.915C8.72973 188.041 0.844671 170.489 0.109156 151.933C-0.626359 133.378 5.84469 115.257 18.1676 101.364C30.4906 87.4712 47.7099 78.884 66.221 77.4001C68.8608 58.7601 77.278 41.4167 90.2887 27.81C103.299 14.2033 120.248 5.01804 138.752 1.54644C157.255 -1.92516 176.381 0.491629 193.439 8.45679C210.497 16.422 224.628 29.5346 233.845 45.9501C250.75 40.0982 269.015 39.4144 286.31 43.9857C303.605 48.5571 319.146 58.1765 330.952 71.617C342.757 85.0575 350.292 101.71 352.594 119.45C354.896 137.19 351.862 155.214 343.879 171.223C339.194 185.688 330.047 198.296 317.751 207.239C305.455 216.182 290.641 221 275.437 221H263.345Z" fill="url(#paint1_linear_240_5021)"/>
<path d="M275.437 220C283.157 220 290.748 218.767 297.998 216.336C305.009 213.985 311.59 210.554 317.56 206.139C323.462 201.775 328.635 196.547 332.936 190.6C337.29 184.58 340.652 177.957 342.928 170.915L342.951 170.843L342.985 170.775C346.011 164.728 348.341 158.33 349.911 151.761C351.526 145 352.345 138.015 352.345 130.999C352.345 124.96 351.737 118.925 350.537 113.062C349.368 107.348 347.623 101.728 345.352 96.3572C343.121 91.0838 340.361 85.9975 337.146 81.2396C333.962 76.5267 330.306 72.0949 326.278 68.0672C322.25 64.0395 317.819 60.3828 313.106 57.1988C308.348 53.9845 303.262 51.2237 297.988 48.9932C292.617 46.7216 286.997 44.9769 281.283 43.8077C275.42 42.6079 269.385 41.9995 263.345 41.9995C253.346 41.9995 243.531 43.6452 234.172 46.8908L233.383 47.1646L232.973 46.4362C225.357 32.8943 214.279 21.5217 200.937 13.5479C194.189 9.51527 186.94 6.39905 179.391 4.28573C171.602 2.10545 163.512 1 155.345 1C144.361 1 133.638 2.977 123.475 6.87605C113.657 10.6427 104.65 16.0837 96.7053 23.048C88.806 29.9722 82.2507 38.1422 77.2214 47.3308C72.0685 56.7451 68.7006 66.9073 67.2113 77.5349L67.0999 78.3304L66.299 78.3931C57.3408 79.0943 48.7219 81.4529 40.6818 85.4032C32.8694 89.2417 25.8932 94.4335 19.947 100.834C7.72889 113.987 1.00003 131.123 1.00003 149.087C1.00003 158.66 2.8748 167.947 6.5723 176.689C8.34949 180.891 10.5492 184.943 13.1103 188.734C15.6472 192.489 18.5608 196.02 21.7699 199.23C24.9791 202.439 28.5104 205.352 32.2655 207.889C36.0565 210.45 40.109 212.65 44.3107 214.427C53.0525 218.125 62.3392 220 71.9127 220H263.345H275.437ZM275.437 221H263.345H71.9127C32.1966 221 3.05176e-05 188.803 3.05176e-05 149.087C3.05176e-05 111.286 29.1647 80.2967 66.221 77.3961C72.3504 33.6574 109.917 0 155.345 0C189.048 0 218.422 18.5232 233.845 45.946C243.087 42.7407 253.012 40.9995 263.345 40.9995C313.052 40.9995 353.345 81.2943 353.345 130.999C353.345 145.456 349.936 159.118 343.879 171.223C334.544 200.108 307.431 221 275.437 221Z" fill="white" fill-opacity="0.5"/>
</g>
</g>
<defs>
<filter id="filter0_f_240_5021" x="-3.99997" y="-4" width="361.345" height="340.162" filterUnits="userSpaceOnUse" color-interpolation-filters="sRGB">
<feFlood flood-opacity="0" result="BackgroundImageFix"/>
<feBlend mode="normal" in="SourceGraphic" in2="BackgroundImageFix" result="shape"/>
<feGaussianBlur stdDeviation="2" result="effect1_foregroundBlur_240_5021"/>
</filter>
<filter id="filter1_d_240_5021" x="-20" y="-28" width="413.345" height="281" filterUnits="userSpaceOnUse" color-interpolation-filters="sRGB">
<feFlood flood-opacity="0" result="BackgroundImageFix"/>
<feColorMatrix in="SourceAlpha" type="matrix" values="0 0 0 0 0 0 0 0 0 0 0 0 0 0 0 0 0 0 127 0" result="hardAlpha"/>
<feOffset dx="10" dy="2"/>
<feGaussianBlur stdDeviation="15"/>
<feColorMatrix type="matrix" values="0 0 0 0 0.258824 0 0 0 0 0.627451 0 0 0 0 0.941176 0 0 0 0.596 0"/>
<feBlend mode="normal" in2="BackgroundImageFix" result="effect1_dropShadow_240_5021"/>
<feBlend mode="normal" in="SourceGraphic" in2="effect1_dropShadow_240_5021" result="shape"/>
</filter>
<linearGradient id="paint0_linear_240_5021" x1="76.914" y1="253.412" x2="39.9875" y2="239.874" gradientUnits="userSpaceOnUse">
<stop stop-color="#FFD100"/>
<stop offset="1" stop-color="#FFF0AA"/>
</linearGradient>
<linearGradient id="paint1_linear_240_5021" x1="176.698" y1="0.00256348" x2="279.341" y2="248.166" gradientUnits="userSpaceOnUse">
<stop stop-color="white" stop-opacity="0.604"/>
<stop offset="1" stop-color="white" stop-opacity="0.2"/>
</linearGradient>
</defs>
</svg>
