<svg width="387" height="328" viewBox="0 0 387 328" fill="none" xmlns="http://www.w3.org/2000/svg">
<g filter="url(#filter0_f_240_5084)">
<path d="M323.801 211.378C323.801 211.378 305.039 228.27 290.375 227.711C271.993 226.994 268.845 212.272 251.811 211.378C233.982 211.555 232.163 226.825 212.838 227.711C195.523 227.505 188.188 211.654 171.684 211.378C155.18 211.102 137.584 227.711 137.584 227.711" stroke="white" stroke-width="20" stroke-linecap="round"/>
<path d="M259.801 265.378C259.801 265.378 241.039 282.27 226.375 281.711C207.993 280.994 204.845 266.272 187.811 265.378C169.982 265.555 168.163 280.825 148.838 281.711C131.523 281.505 124.188 265.654 107.684 265.378C91.18 265.102 73.584 281.711 73.584 281.711" stroke="white" stroke-width="20" stroke-linecap="round"/>
<path d="M357.801 311.378C357.801 311.378 339.039 328.27 324.375 327.711C305.993 326.994 302.845 312.272 285.811 311.378C267.982 311.555 266.163 326.825 246.838 327.711C229.523 327.505 222.188 311.654 205.684 311.378C189.18 311.102 171.584 327.711 171.584 327.711" stroke="white" stroke-width="20" stroke-linecap="round"/>
<path d="M103.268 5.72324C110.278 5.72148 117.27 6.42975 124.137 7.83723C137.39 10.5669 149.974 15.8889 161.164 23.4972C176.667 34.0049 189.053 48.4947 197.021 65.4437C204.989 82.3927 208.244 101.175 206.444 119.817C204.644 138.459 197.856 156.271 186.793 171.383C175.73 186.495 160.801 198.347 143.574 205.695C137.312 208.356 130.8 210.388 124.136 211.76C109.685 214.69 94.7754 214.508 80.4005 211.224C66.0257 207.941 52.5155 201.632 40.77 192.718C29.0244 183.804 19.3132 172.489 12.2832 159.528C5.25319 146.566 1.06578 132.256 -7.62939e-05 117.549C11.3314 120.201 23.1023 120.372 34.5059 118.049C44.7389 115.954 54.4592 111.863 63.1119 106.012C75.9742 97.329 86.0422 85.1018 92.0959 70.8122C94.1414 65.9727 95.7027 60.9425 96.7569 55.7952C99.004 44.7666 98.9209 33.3899 96.5129 22.3952C95.3016 16.8975 93.5102 11.5439 91.1689 6.42424C95.185 5.95689 99.2248 5.72282 103.268 5.72324Z" fill="#713FFD"/>
<g filter="url(#filter1_f_240_5084)">
<path d="M173.339 37.8963C150.095 16.9668 119.644 12.8915 105.325 28.7939C91.0067 44.6964 98.2426 74.5545 121.487 95.484C144.732 116.414 175.183 120.489 189.501 104.586C203.82 88.6839 196.584 58.8258 173.339 37.8963Z" fill="#A586FC"/>
</g>
<g filter="url(#filter2_d_240_5084)">
<path d="M296.346 281.002H104.914C86.3436 280.988 68.4986 273.791 55.1147 260.917C41.7308 248.043 33.8457 230.491 33.1102 211.936C32.3747 193.38 38.8457 175.259 51.1687 161.366C63.4916 147.473 80.711 138.886 99.222 137.402C101.862 118.762 110.279 101.419 123.29 87.8122C136.3 74.2055 153.249 65.0202 171.753 61.5486C190.256 58.077 209.382 60.4938 226.44 68.459C243.498 76.4242 257.629 89.5368 266.846 105.952C283.751 100.1 302.016 99.4165 319.312 103.988C336.607 108.56 352.149 118.18 363.954 131.621C375.76 145.062 383.294 161.715 385.595 179.456C387.897 197.196 384.862 215.221 376.878 231.229C372.193 245.693 363.046 258.3 350.75 267.242C338.454 276.184 323.642 281.001 308.438 281.002H296.346Z" fill="url(#paint0_linear_240_5084)"/>
<path d="M308.438 280.002C316.157 280.002 323.747 278.769 330.997 276.338C338.007 273.987 344.588 270.557 350.558 266.142C356.459 261.778 361.632 256.55 365.933 250.605C370.288 244.585 373.65 237.962 375.926 230.921L375.95 230.849L375.984 230.781C379.011 224.733 381.342 218.335 382.912 211.765C384.527 205.005 385.346 198.019 385.346 191.002C385.346 184.963 384.738 178.928 383.538 173.064C382.369 167.35 380.624 161.73 378.353 156.359C376.122 151.086 373.361 146 370.147 141.242C366.963 136.529 363.306 132.097 359.279 128.069C355.251 124.042 350.819 120.385 346.106 117.201C341.348 113.987 336.262 111.226 330.989 108.995C325.618 106.724 319.998 104.979 314.284 103.81C308.421 102.61 302.385 102.002 296.346 102.002C286.347 102.002 276.531 103.647 267.173 106.893L266.384 107.167L265.974 106.438C258.358 92.8964 247.28 81.5238 233.938 73.55C227.19 69.5174 219.941 66.4012 212.392 64.2879C204.603 62.1077 196.513 61.0022 188.346 61.0022C177.362 61.0022 166.639 62.9792 156.476 66.8782C146.658 70.6449 137.651 76.0859 129.706 83.0502C121.807 89.9744 115.252 98.1444 110.222 107.333C105.069 116.747 101.702 126.909 100.212 137.537L100.101 138.333L99.3 138.395C90.3418 139.096 81.7229 141.455 73.6828 145.405C65.8703 149.244 58.8942 154.436 52.948 160.837C40.7298 173.989 34.001 191.125 34.001 209.089C34.001 218.663 35.8757 227.949 39.5732 236.691C41.3504 240.893 43.5501 244.945 46.1112 248.736C48.6482 252.491 51.5617 256.023 54.7709 259.232C57.9801 262.441 61.5113 265.355 65.2665 267.892C69.0574 270.453 73.11 272.652 77.3116 274.429C86.0534 278.127 95.3401 280.002 104.914 280.002H296.346H308.438ZM308.438 281.002H296.346H104.914C65.1976 281.002 33.001 248.805 33.001 209.089C33.001 171.288 62.1656 140.299 99.2219 137.398C105.351 93.6596 142.918 60.0022 188.346 60.0022C222.048 60.0022 251.423 78.5253 266.846 105.948C276.088 102.743 286.013 101.002 296.346 101.002C346.052 101.002 386.346 141.297 386.346 191.002C386.346 205.461 382.937 219.123 376.878 231.229C367.541 260.111 340.428 281.002 308.438 281.002Z" fill="white" fill-opacity="0.5"/>
</g>
</g>
<defs>
<filter id="filter0_f_240_5084" x="-4" y="1.72327" width="394.346" height="340.001" filterUnits="userSpaceOnUse" color-interpolation-filters="sRGB">
<feFlood flood-opacity="0" result="BackgroundImageFix"/>
<feBlend mode="normal" in="SourceGraphic" in2="BackgroundImageFix" result="shape"/>
<feGaussianBlur stdDeviation="2" result="effect1_foregroundBlur_240_5084"/>
</filter>
<filter id="filter1_f_240_5084" x="77.9741" y="-0.906616" width="138.878" height="135.194" filterUnits="userSpaceOnUse" color-interpolation-filters="sRGB">
<feFlood flood-opacity="0" result="BackgroundImageFix"/>
<feBlend mode="normal" in="SourceGraphic" in2="BackgroundImageFix" result="shape"/>
<feGaussianBlur stdDeviation="10" result="effect1_foregroundBlur_240_5084"/>
</filter>
<filter id="filter2_d_240_5084" x="13.001" y="32.0022" width="413.345" height="281" filterUnits="userSpaceOnUse" color-interpolation-filters="sRGB">
<feFlood flood-opacity="0" result="BackgroundImageFix"/>
<feColorMatrix in="SourceAlpha" type="matrix" values="0 0 0 0 0 0 0 0 0 0 0 0 0 0 0 0 0 0 127 0" result="hardAlpha"/>
<feOffset dx="10" dy="2"/>
<feGaussianBlur stdDeviation="15"/>
<feColorMatrix type="matrix" values="0 0 0 0 0.258824 0 0 0 0 0.627451 0 0 0 0 0.941176 0 0 0 0.596 0"/>
<feBlend mode="normal" in2="BackgroundImageFix" result="effect1_dropShadow_240_5084"/>
<feBlend mode="normal" in="SourceGraphic" in2="effect1_dropShadow_240_5084" result="shape"/>
</filter>
<linearGradient id="paint0_linear_240_5084" x1="209.699" y1="60.0048" x2="312.342" y2="308.169" gradientUnits="userSpaceOnUse">
<stop stop-color="white" stop-opacity="0.604"/>
<stop offset="1" stop-color="white" stop-opacity="0.2"/>
</linearGradient>
</defs>
</svg>
