<svg width="393" height="347" viewBox="0 0 393 347" fill="none" xmlns="http://www.w3.org/2000/svg">
<g filter="url(#filter0_f_240_5224)">
<path d="M309.173 293.882V346.5" stroke="#42A0F0" stroke-width="4" stroke-linecap="round"/>
<path d="M309.067 306.744L318.129 297.39" stroke="#42A0F0" stroke-width="4" stroke-linecap="round"/>
<path d="M309.067 306.744L299.713 297.39" stroke="#42A0F0" stroke-width="4" stroke-linecap="round"/>
<path d="M309.067 334.807L318.129 344.161" stroke="#42A0F0" stroke-width="4" stroke-linecap="round"/>
<path d="M309.067 334.807L299.713 344.161" stroke="#42A0F0" stroke-width="4" stroke-linecap="round"/>
<path d="M331.832 307.255L286.263 333.564" stroke="#42A0F0" stroke-width="4" stroke-linecap="round"/>
<path d="M320.64 313.594L333.272 316.765" stroke="#42A0F0" stroke-width="4" stroke-linecap="round"/>
<path d="M320.64 313.594L324.064 300.816" stroke="#42A0F0" stroke-width="4" stroke-linecap="round"/>
<path d="M296.337 327.626L292.767 340.151" stroke="#42A0F0" stroke-width="4" stroke-linecap="round"/>
<path d="M296.337 327.626L283.559 324.202" stroke="#42A0F0" stroke-width="4" stroke-linecap="round"/>
<path d="M331.58 333.564L286.011 307.255" stroke="#42A0F0" stroke-width="4" stroke-linecap="round"/>
<path d="M320.494 327.041L324.064 339.566" stroke="#42A0F0" stroke-width="4" stroke-linecap="round"/>
<path d="M320.494 327.041L333.272 323.617" stroke="#42A0F0" stroke-width="4" stroke-linecap="round"/>
<path d="M296.191 313.01L283.559 316.18" stroke="#42A0F0" stroke-width="4" stroke-linecap="round"/>
<path d="M296.191 313.009L292.767 300.232" stroke="#42A0F0" stroke-width="4" stroke-linecap="round"/>
<path d="M216.008 293.882V346.5" stroke="#42A0F0" stroke-width="4" stroke-linecap="round"/>
<path d="M215.902 306.744L224.964 297.39" stroke="#42A0F0" stroke-width="4" stroke-linecap="round"/>
<path d="M215.902 306.744L206.548 297.39" stroke="#42A0F0" stroke-width="4" stroke-linecap="round"/>
<path d="M215.902 334.807L224.964 344.161" stroke="#42A0F0" stroke-width="4" stroke-linecap="round"/>
<path d="M215.902 334.807L206.548 344.161" stroke="#42A0F0" stroke-width="4" stroke-linecap="round"/>
<path d="M238.667 307.255L193.098 333.564" stroke="#42A0F0" stroke-width="4" stroke-linecap="round"/>
<path d="M227.475 313.594L240.107 316.765" stroke="#42A0F0" stroke-width="4" stroke-linecap="round"/>
<path d="M227.475 313.594L230.899 300.816" stroke="#42A0F0" stroke-width="4" stroke-linecap="round"/>
<path d="M203.172 327.626L199.602 340.151" stroke="#42A0F0" stroke-width="4" stroke-linecap="round"/>
<path d="M203.172 327.626L190.394 324.202" stroke="#42A0F0" stroke-width="4" stroke-linecap="round"/>
<path d="M238.415 333.564L192.846 307.255" stroke="#42A0F0" stroke-width="4" stroke-linecap="round"/>
<path d="M227.329 327.041L230.899 339.566" stroke="#42A0F0" stroke-width="4" stroke-linecap="round"/>
<path d="M227.329 327.041L240.107 323.617" stroke="#42A0F0" stroke-width="4" stroke-linecap="round"/>
<path d="M203.026 313.01L190.394 316.18" stroke="#42A0F0" stroke-width="4" stroke-linecap="round"/>
<path d="M203.026 313.009L199.602 300.232" stroke="#42A0F0" stroke-width="4" stroke-linecap="round"/>
<path d="M123.008 293.882V346.5" stroke="#42A0F0" stroke-width="4" stroke-linecap="round"/>
<path d="M122.902 306.744L131.964 297.39" stroke="#42A0F0" stroke-width="4" stroke-linecap="round"/>
<path d="M122.902 306.744L113.548 297.39" stroke="#42A0F0" stroke-width="4" stroke-linecap="round"/>
<path d="M122.902 334.807L131.964 344.161" stroke="#42A0F0" stroke-width="4" stroke-linecap="round"/>
<path d="M122.902 334.807L113.548 344.161" stroke="#42A0F0" stroke-width="4" stroke-linecap="round"/>
<path d="M145.667 307.255L100.098 333.564" stroke="#42A0F0" stroke-width="4" stroke-linecap="round"/>
<path d="M134.475 313.594L147.107 316.765" stroke="#42A0F0" stroke-width="4" stroke-linecap="round"/>
<path d="M134.475 313.594L137.899 300.816" stroke="#42A0F0" stroke-width="4" stroke-linecap="round"/>
<path d="M110.172 327.626L106.602 340.151" stroke="#42A0F0" stroke-width="4" stroke-linecap="round"/>
<path d="M110.172 327.626L97.3939 324.202" stroke="#42A0F0" stroke-width="4" stroke-linecap="round"/>
<path d="M145.415 333.564L99.8464 307.255" stroke="#42A0F0" stroke-width="4" stroke-linecap="round"/>
<path d="M134.329 327.041L137.899 339.566" stroke="#42A0F0" stroke-width="4" stroke-linecap="round"/>
<path d="M134.329 327.041L147.107 323.617" stroke="#42A0F0" stroke-width="4" stroke-linecap="round"/>
<path d="M110.026 313.01L97.394 316.18" stroke="#42A0F0" stroke-width="4" stroke-linecap="round"/>
<path d="M110.026 313.009L106.602 300.232" stroke="#42A0F0" stroke-width="4" stroke-linecap="round"/>
<path d="M168.008 214.882V267.5" stroke="#42A0F0" stroke-width="4" stroke-linecap="round"/>
<path d="M167.902 227.744L176.964 218.39" stroke="#42A0F0" stroke-width="4" stroke-linecap="round"/>
<path d="M167.902 227.744L158.548 218.39" stroke="#42A0F0" stroke-width="4" stroke-linecap="round"/>
<path d="M167.902 255.807L176.964 265.161" stroke="#42A0F0" stroke-width="4" stroke-linecap="round"/>
<path d="M167.902 255.807L158.548 265.161" stroke="#42A0F0" stroke-width="4" stroke-linecap="round"/>
<path d="M190.667 228.255L145.098 254.564" stroke="#42A0F0" stroke-width="4" stroke-linecap="round"/>
<path d="M179.475 234.594L192.107 237.765" stroke="#42A0F0" stroke-width="4" stroke-linecap="round"/>
<path d="M179.475 234.594L182.899 221.816" stroke="#42A0F0" stroke-width="4" stroke-linecap="round"/>
<path d="M155.172 248.626L151.602 261.151" stroke="#42A0F0" stroke-width="4" stroke-linecap="round"/>
<path d="M155.172 248.626L142.394 245.202" stroke="#42A0F0" stroke-width="4" stroke-linecap="round"/>
<path d="M190.415 254.564L144.846 228.255" stroke="#42A0F0" stroke-width="4" stroke-linecap="round"/>
<path d="M179.329 248.041L182.899 260.566" stroke="#42A0F0" stroke-width="4" stroke-linecap="round"/>
<path d="M179.329 248.041L192.107 244.617" stroke="#42A0F0" stroke-width="4" stroke-linecap="round"/>
<path d="M155.026 234.01L142.394 237.18" stroke="#42A0F0" stroke-width="4" stroke-linecap="round"/>
<path d="M155.026 234.009L151.602 221.232" stroke="#42A0F0" stroke-width="4" stroke-linecap="round"/>
<path d="M271.008 214.882V267.5" stroke="#42A0F0" stroke-width="4" stroke-linecap="round"/>
<path d="M270.902 227.744L279.964 218.39" stroke="#42A0F0" stroke-width="4" stroke-linecap="round"/>
<path d="M270.902 227.744L261.548 218.39" stroke="#42A0F0" stroke-width="4" stroke-linecap="round"/>
<path d="M270.902 255.807L279.964 265.161" stroke="#42A0F0" stroke-width="4" stroke-linecap="round"/>
<path d="M270.902 255.807L261.548 265.161" stroke="#42A0F0" stroke-width="4" stroke-linecap="round"/>
<path d="M293.667 228.255L248.098 254.564" stroke="#42A0F0" stroke-width="4" stroke-linecap="round"/>
<path d="M282.475 234.594L295.107 237.765" stroke="#42A0F0" stroke-width="4" stroke-linecap="round"/>
<path d="M282.475 234.594L285.899 221.816" stroke="#42A0F0" stroke-width="4" stroke-linecap="round"/>
<path d="M258.172 248.626L254.602 261.151" stroke="#42A0F0" stroke-width="4" stroke-linecap="round"/>
<path d="M258.172 248.626L245.394 245.202" stroke="#42A0F0" stroke-width="4" stroke-linecap="round"/>
<path d="M293.415 254.564L247.846 228.255" stroke="#42A0F0" stroke-width="4" stroke-linecap="round"/>
<path d="M282.329 248.041L285.899 260.566" stroke="#42A0F0" stroke-width="4" stroke-linecap="round"/>
<path d="M282.329 248.041L295.107 244.617" stroke="#42A0F0" stroke-width="4" stroke-linecap="round"/>
<path d="M258.026 234.01L245.394 237.18" stroke="#42A0F0" stroke-width="4" stroke-linecap="round"/>
<path d="M258.026 234.009L254.602 221.232" stroke="#42A0F0" stroke-width="4" stroke-linecap="round"/>
<path d="M103.268 5.72324C110.278 5.72148 117.27 6.42975 124.137 7.83723C137.391 10.5669 149.974 15.8889 161.164 23.4972C176.667 34.0049 189.053 48.4947 197.021 65.4437C204.989 82.3927 208.244 101.175 206.444 119.817C204.645 138.459 197.857 156.271 186.793 171.383C175.73 186.495 160.801 198.347 143.574 205.695C137.312 208.356 130.8 210.388 124.136 211.76C109.685 214.69 94.7755 214.508 80.4007 211.224C66.0258 207.941 52.5156 201.632 40.7701 192.718C29.0246 183.804 19.3133 172.489 12.2833 159.528C5.25331 146.566 1.0659 132.256 4.57764e-05 117.549C11.3315 120.201 23.1025 120.372 34.506 118.049C44.7391 115.954 54.4593 111.863 63.112 106.012C75.9743 97.329 86.0423 85.1018 92.0961 70.8122C94.1416 65.9727 95.7028 60.9425 96.7571 55.7952C99.0041 44.7666 98.921 33.3899 96.5131 22.3952C95.3017 16.8975 93.5104 11.5439 91.1691 6.42424C95.1851 5.95689 99.2249 5.72282 103.268 5.72324Z" fill="#713FFD"/>
<g filter="url(#filter1_f_240_5224)">
<path d="M173.339 37.8963C150.095 16.9668 119.644 12.8915 105.325 28.7939C91.0065 44.6964 98.2424 74.5545 121.487 95.484C144.732 116.414 175.182 120.489 189.501 104.586C203.82 88.6839 196.584 58.8258 173.339 37.8963Z" fill="#A586FC"/>
</g>
<g filter="url(#filter2_d_240_5224)">
<path d="M302.345 281.002H110.913C92.3426 280.988 74.4976 273.791 61.1137 260.917C47.7298 248.043 39.8447 230.491 39.1092 211.936C38.3737 193.38 44.8448 175.259 57.1677 161.366C69.4906 147.473 86.71 138.886 105.221 137.402C107.861 118.762 116.278 101.419 129.289 87.8122C142.299 74.2055 159.248 65.0202 177.752 61.5486C196.255 58.077 215.381 60.4938 232.439 68.459C249.497 76.4242 263.628 89.5368 272.845 105.952C289.75 100.1 308.015 99.4165 325.31 103.988C342.605 108.559 358.146 118.179 369.952 131.619C381.757 145.06 389.292 161.712 391.594 179.452C393.896 197.192 390.862 215.216 382.879 231.225C378.194 245.69 369.047 258.299 356.751 267.242C344.455 276.184 329.641 281.002 314.437 281.002H302.345Z" fill="url(#paint0_linear_240_5224)"/>
<path d="M314.437 280.002C322.157 280.002 329.748 278.769 336.998 276.338C344.009 273.987 350.59 270.556 356.56 266.141C362.462 261.777 367.635 256.549 371.936 250.603C376.29 244.582 379.652 237.959 381.928 230.917L381.951 230.845L381.985 230.777C385.011 224.73 387.341 218.333 388.911 211.763C390.526 205.002 391.345 198.017 391.345 191.002C391.345 184.963 390.737 178.928 389.537 173.064C388.368 167.35 386.623 161.73 384.352 156.359C382.121 151.086 379.361 146 376.146 141.242C372.962 136.529 369.306 132.097 365.278 128.069C361.25 124.042 356.819 120.385 352.106 117.201C347.348 113.987 342.261 111.226 336.988 108.995C331.617 106.724 325.997 104.979 320.283 103.81C314.42 102.61 308.385 102.002 302.345 102.002C292.346 102.002 282.531 103.647 273.172 106.893L272.383 107.167L271.973 106.438C264.357 92.8965 253.279 81.5239 239.937 73.5501C233.189 69.5175 225.94 66.4012 218.391 64.2879C210.602 62.1077 202.512 61.0022 194.345 61.0022C183.361 61.0022 172.638 62.9792 162.475 66.8782C152.657 70.6449 143.65 76.0859 135.705 83.0502C127.806 89.9744 121.251 98.1444 116.221 107.333C111.069 116.747 107.701 126.909 106.211 137.537L106.1 138.333L105.299 138.395C96.3408 139.096 87.7219 141.455 79.6818 145.405C71.8694 149.244 64.8932 154.436 58.947 160.837C46.7289 173.989 40 191.125 40 209.089C40 218.663 41.8748 227.949 45.5723 236.691C47.3495 240.893 49.5491 244.945 52.1102 248.736C54.6472 252.491 57.5607 256.023 60.7699 259.232C63.9791 262.441 67.5104 265.355 71.2655 267.892C75.0565 270.453 79.109 272.652 83.3106 274.429C92.0525 278.127 101.339 280.002 110.913 280.002H302.345H314.437ZM314.437 281.002H302.345H110.913C71.1966 281.002 39 248.805 39 209.089C39 171.288 68.1646 140.299 105.221 137.398C111.35 93.6596 148.917 60.0022 194.345 60.0022C228.048 60.0022 257.422 78.5254 272.845 105.948C282.087 102.743 292.012 101.002 302.345 101.002C352.051 101.002 392.345 141.297 392.345 191.002C392.345 205.458 388.936 219.121 382.879 231.225C373.544 260.11 346.431 281.002 314.437 281.002Z" fill="white" fill-opacity="0.5"/>
</g>
</g>
<defs>
<filter id="filter0_f_240_5224" x="-4" y="1.72327" width="400.345" height="350.777" filterUnits="userSpaceOnUse" color-interpolation-filters="sRGB">
<feFlood flood-opacity="0" result="BackgroundImageFix"/>
<feBlend mode="normal" in="SourceGraphic" in2="BackgroundImageFix" result="shape"/>
<feGaussianBlur stdDeviation="2" result="effect1_foregroundBlur_240_5224"/>
</filter>
<filter id="filter1_f_240_5224" x="77.9738" y="-0.906616" width="138.879" height="135.194" filterUnits="userSpaceOnUse" color-interpolation-filters="sRGB">
<feFlood flood-opacity="0" result="BackgroundImageFix"/>
<feBlend mode="normal" in="SourceGraphic" in2="BackgroundImageFix" result="shape"/>
<feGaussianBlur stdDeviation="10" result="effect1_foregroundBlur_240_5224"/>
</filter>
<filter id="filter2_d_240_5224" x="19" y="32.0022" width="413.345" height="281" filterUnits="userSpaceOnUse" color-interpolation-filters="sRGB">
<feFlood flood-opacity="0" result="BackgroundImageFix"/>
<feColorMatrix in="SourceAlpha" type="matrix" values="0 0 0 0 0 0 0 0 0 0 0 0 0 0 0 0 0 0 127 0" result="hardAlpha"/>
<feOffset dx="10" dy="2"/>
<feGaussianBlur stdDeviation="15"/>
<feColorMatrix type="matrix" values="0 0 0 0 0.258824 0 0 0 0 0.627451 0 0 0 0 0.941176 0 0 0 0.596 0"/>
<feBlend mode="normal" in2="BackgroundImageFix" result="effect1_dropShadow_240_5224"/>
<feBlend mode="normal" in="SourceGraphic" in2="effect1_dropShadow_240_5224" result="shape"/>
</filter>
<linearGradient id="paint0_linear_240_5224" x1="215.698" y1="60.0048" x2="318.341" y2="308.169" gradientUnits="userSpaceOnUse">
<stop stop-color="white" stop-opacity="0.604"/>
<stop offset="1" stop-color="white" stop-opacity="0.2"/>
</linearGradient>
</defs>
</svg>
