<svg width="379" height="377" viewBox="0 0 379 377" fill="none" xmlns="http://www.w3.org/2000/svg">
<g filter="url(#filter0_f_240_5461)">
<path d="M103.148 213.763C157.548 213.763 201.648 169.439 201.648 114.763C201.648 60.0868 157.548 15.763 103.148 15.763C48.7479 15.763 4.64795 60.0868 4.64795 114.763C4.64795 169.439 48.7479 213.763 103.148 213.763Z" fill="#FA9E42"/>
<g filter="url(#filter1_f_240_5461)">
<path d="M96.0304 100.684C128.767 83.2963 147.077 53.7096 136.928 34.6003C126.778 15.4911 92.0115 14.0956 59.2749 31.4835C26.5383 48.8713 8.22801 78.4581 18.3778 97.5673C28.5275 116.677 63.2938 118.072 96.0304 100.684Z" fill="#F8E36F"/>
</g>
<path d="M121.978 203.294C122.694 203.312 129.96 228.542 129.96 238.346C129.96 248.15 126.386 256.099 121.978 256.099C117.57 256.099 113.996 248.151 113.996 238.347C113.996 228.543 121.262 203.277 121.978 203.294Z" fill="#42A0F0"/>
<path d="M118.121 241.346C119.288 241.703 120.823 240.06 121.552 237.677C122.281 235.294 121.926 233.073 120.76 232.717C119.594 232.36 118.058 234.003 117.329 236.386C116.6 238.769 116.955 240.99 118.121 241.346Z" fill="white"/>
<path d="M177.369 203.294C178.085 203.312 185.351 228.542 185.351 238.346C185.351 248.15 181.777 256.099 177.369 256.099C172.961 256.099 169.387 248.151 169.387 238.347C169.387 228.543 176.653 203.277 177.369 203.294Z" fill="#42A0F0"/>
<path d="M173.512 241.346C174.679 241.703 176.215 240.06 176.943 237.677C177.672 235.294 177.317 233.073 176.151 232.717C174.985 232.36 173.449 234.003 172.72 236.386C171.992 238.769 172.346 240.99 173.512 241.346Z" fill="white"/>
<path d="M236.796 203.294C237.512 203.312 244.778 228.542 244.778 238.346C244.778 248.15 241.204 256.099 236.796 256.099C232.388 256.099 228.814 248.151 228.814 238.347C228.814 228.543 236.08 203.277 236.796 203.294Z" fill="#42A0F0"/>
<path d="M232.939 241.346C234.105 241.703 235.641 240.06 236.37 237.677C237.098 235.294 236.744 233.073 235.578 232.717C234.411 232.36 232.875 234.003 232.147 236.386C231.418 238.769 231.773 240.99 232.939 241.346Z" fill="white"/>
<path d="M291.683 200.294C292.399 200.312 299.665 225.542 299.665 235.346C299.665 245.15 296.091 253.099 291.683 253.099C287.275 253.099 283.701 245.151 283.701 235.347C283.701 225.543 290.967 200.277 291.683 200.294Z" fill="#42A0F0"/>
<path d="M287.826 238.346C288.993 238.703 290.529 237.06 291.257 234.677C291.986 232.294 291.631 230.073 290.465 229.717C289.299 229.36 287.763 231.003 287.034 233.386C286.306 235.769 286.66 237.99 287.826 238.346Z" fill="white"/>
<path d="M205.335 270.294C206.051 270.312 213.317 295.542 213.317 305.346C213.317 315.15 209.743 323.099 205.335 323.099C200.927 323.099 197.353 315.151 197.353 305.347C197.353 295.543 204.619 270.277 205.335 270.294Z" fill="#42A0F0"/>
<path d="M201.478 308.346C202.644 308.703 204.18 307.06 204.909 304.677C205.638 302.294 205.283 300.073 204.117 299.717C202.95 299.36 201.415 301.003 200.686 303.386C199.957 305.769 200.312 307.99 201.478 308.346Z" fill="white"/>
<path d="M264.761 270.294C265.477 270.312 272.743 295.542 272.743 305.346C272.743 315.15 269.169 323.099 264.761 323.099C260.353 323.099 256.779 315.151 256.779 305.347C256.779 295.543 264.045 270.277 264.761 270.294Z" fill="#42A0F0"/>
<path d="M260.904 308.346C262.07 308.703 263.606 307.06 264.335 304.677C265.064 302.294 264.709 300.073 263.543 299.717C262.377 299.36 260.841 301.003 260.112 303.386C259.383 305.769 259.738 307.99 260.904 308.346Z" fill="white"/>
<path d="M327.683 270.294C328.399 270.312 335.665 295.542 335.665 305.346C335.665 315.15 332.091 323.099 327.683 323.099C323.275 323.099 319.701 315.151 319.701 305.347C319.701 295.543 326.967 270.277 327.683 270.294Z" fill="#42A0F0"/>
<path d="M323.826 308.346C324.993 308.703 326.529 307.06 327.257 304.677C327.986 302.294 327.631 300.073 326.465 299.717C325.299 299.36 323.763 301.003 323.034 303.386C322.306 305.769 322.66 307.99 323.826 308.346Z" fill="white"/>
<path d="M145.909 273.294C146.625 273.312 153.891 298.542 153.891 308.346C153.891 318.15 150.317 326.099 145.909 326.099C141.501 326.099 137.927 318.151 137.927 308.347C137.927 298.543 145.193 273.277 145.909 273.294Z" fill="#42A0F0"/>
<path d="M142.052 311.346C143.218 311.703 144.754 310.06 145.483 307.677C146.212 305.294 145.857 303.073 144.691 302.717C143.524 302.36 141.988 304.003 141.26 306.386C140.531 308.769 140.886 310.99 142.052 311.346Z" fill="white"/>
<path d="M89.9781 270.294C90.6941 270.312 97.9601 295.542 97.9601 305.346C97.9601 315.15 94.3861 323.099 89.9781 323.099C85.5701 323.099 81.9961 315.151 81.9961 305.347C81.9961 295.543 89.2621 270.277 89.9781 270.294Z" fill="#42A0F0"/>
<path d="M86.1214 308.346C87.2875 308.703 88.8235 307.06 89.5521 304.677C90.2806 302.294 89.9259 300.073 88.7597 299.717C87.5936 299.36 86.0576 301.003 85.329 303.386C84.6004 305.769 84.9552 307.99 86.1214 308.346Z" fill="white"/>
<path d="M121.978 323.294C122.694 323.312 129.96 348.542 129.96 358.346C129.96 368.15 126.386 376.099 121.978 376.099C117.57 376.099 113.996 368.151 113.996 358.347C113.996 348.543 121.262 323.277 121.978 323.294Z" fill="#42A0F0"/>
<path d="M118.121 361.346C119.288 361.703 120.823 360.06 121.552 357.677C122.281 355.294 121.926 353.073 120.76 352.717C119.594 352.36 118.058 354.003 117.329 356.386C116.6 358.769 116.955 360.99 118.121 361.346Z" fill="white"/>
<path d="M177.369 323.294C178.085 323.312 185.351 348.542 185.351 358.346C185.351 368.15 181.777 376.099 177.369 376.099C172.961 376.099 169.387 368.151 169.387 358.347C169.387 348.543 176.653 323.277 177.369 323.294Z" fill="#42A0F0"/>
<path d="M173.512 361.346C174.679 361.703 176.215 360.06 176.943 357.677C177.672 355.294 177.317 353.073 176.151 352.717C174.985 352.36 173.449 354.003 172.72 356.386C171.992 358.769 172.346 360.99 173.512 361.346Z" fill="white"/>
<path d="M236.796 323.294C237.512 323.312 244.778 348.542 244.778 358.346C244.778 368.15 241.204 376.099 236.796 376.099C232.388 376.099 228.814 368.151 228.814 358.347C228.814 348.543 236.08 323.277 236.796 323.294Z" fill="#42A0F0"/>
<path d="M232.939 361.346C234.105 361.703 235.641 360.06 236.37 357.677C237.098 355.294 236.744 353.073 235.578 352.717C234.411 352.36 232.875 354.003 232.147 356.386C231.418 358.769 231.773 360.99 232.939 361.346Z" fill="white"/>
<path d="M291.683 323.294C292.399 323.312 299.665 348.542 299.665 358.346C299.665 368.15 296.091 376.099 291.683 376.099C287.275 376.099 283.701 368.151 283.701 358.347C283.701 348.543 290.967 323.277 291.683 323.294Z" fill="#42A0F0"/>
<path d="M287.826 361.346C288.993 361.703 290.529 360.06 291.257 357.677C291.986 355.294 291.631 353.073 290.465 352.717C289.299 352.36 287.763 354.003 287.034 356.386C286.306 358.769 286.66 360.99 287.826 361.346Z" fill="white"/>
<g filter="url(#filter2_d_240_5461)">
<path d="M288.345 280.937H96.913C78.3426 280.923 60.4976 273.726 47.1137 260.852C33.7298 247.978 25.8447 230.426 25.1092 211.87C24.3737 193.314 30.8448 175.193 43.1677 161.301C55.4906 147.408 72.71 138.821 91.221 137.337C93.8608 118.697 102.278 101.354 115.289 87.747C128.299 74.1403 145.248 64.955 163.752 61.4834C182.255 58.0118 201.381 60.4286 218.439 68.3937C235.497 76.3589 249.628 89.4716 258.845 105.887C275.75 100.035 294.015 99.3513 311.31 103.923C328.605 108.494 344.146 118.113 355.952 131.554C367.757 144.994 375.292 161.647 377.594 179.387C379.896 197.127 376.862 215.151 368.879 231.16C364.194 245.625 355.047 258.233 342.751 267.176C330.455 276.119 315.641 280.937 300.437 280.937H288.345Z" fill="url(#paint0_linear_240_5461)"/>
<path d="M300.437 279.937C308.157 279.937 315.748 278.704 322.998 276.273C330.009 273.922 336.59 270.491 342.56 266.076C348.462 261.712 353.635 256.484 357.936 250.537C362.29 244.517 365.652 237.894 367.928 230.852L367.951 230.78L367.985 230.712C371.011 224.665 373.341 218.267 374.911 211.698C376.526 204.937 377.345 197.952 377.345 190.937C377.345 184.897 376.737 178.862 375.537 172.999C374.368 167.285 372.623 161.665 370.352 156.294C368.121 151.021 365.361 145.935 362.146 141.177C358.962 136.464 355.306 132.032 351.278 128.004C347.25 123.976 342.819 120.32 338.106 117.136C333.348 113.921 328.261 111.161 322.988 108.93C317.617 106.659 311.997 104.914 306.283 103.745C300.42 102.545 294.385 101.937 288.345 101.937C278.346 101.937 268.531 103.582 259.172 106.828L258.383 107.102L257.973 106.373C250.357 92.8313 239.279 81.4587 225.937 73.4849C219.189 69.4523 211.94 66.3361 204.391 64.2227C196.602 62.0425 188.512 60.937 180.345 60.937C169.361 60.937 158.638 62.914 148.475 66.8131C138.657 70.5797 129.65 76.0207 121.705 82.985C113.806 89.9092 107.251 98.0792 102.221 107.268C97.0685 116.682 93.7006 126.844 92.2113 137.472L92.0998 138.267L91.299 138.33C82.3408 139.031 73.7219 141.39 65.6818 145.34C57.8694 149.179 50.8932 154.371 44.947 160.771C32.7289 173.924 26 191.06 26 209.024C26 218.597 27.8748 227.884 31.5723 236.626C33.3495 240.828 35.5491 244.88 38.1102 248.671C40.6472 252.426 43.5607 255.957 46.7699 259.167C49.9791 262.376 53.5104 265.289 57.2655 267.826C61.0565 270.387 65.109 272.587 69.3106 274.364C78.0525 278.062 87.3391 279.937 96.9127 279.937H288.345H300.437ZM300.437 280.937H288.345H96.9127C57.1966 280.937 25 248.74 25 209.024C25 171.223 54.1646 140.234 91.221 137.333C97.3504 93.5944 134.917 59.937 180.345 59.937C214.048 59.937 243.422 78.4602 258.845 105.883C268.087 102.678 278.012 100.937 288.345 100.937C338.051 100.937 378.345 141.231 378.345 190.937C378.345 205.393 374.936 219.055 368.879 231.16C359.544 260.045 332.431 280.937 300.437 280.937Z" fill="white" fill-opacity="0.5"/>
</g>
</g>
<defs>
<filter id="filter0_f_240_5461" x="0.647949" y="11.763" width="381.698" height="368.336" filterUnits="userSpaceOnUse" color-interpolation-filters="sRGB">
<feFlood flood-opacity="0" result="BackgroundImageFix"/>
<feBlend mode="normal" in="SourceGraphic" in2="BackgroundImageFix" result="shape"/>
<feGaussianBlur stdDeviation="2" result="effect1_foregroundBlur_240_5461"/>
</filter>
<filter id="filter1_f_240_5461" x="-4.42236" y="-0.696777" width="164.15" height="133.561" filterUnits="userSpaceOnUse" color-interpolation-filters="sRGB">
<feFlood flood-opacity="0" result="BackgroundImageFix"/>
<feBlend mode="normal" in="SourceGraphic" in2="BackgroundImageFix" result="shape"/>
<feGaussianBlur stdDeviation="10" result="effect1_foregroundBlur_240_5461"/>
</filter>
<filter id="filter2_d_240_5461" x="5" y="31.937" width="413.345" height="281" filterUnits="userSpaceOnUse" color-interpolation-filters="sRGB">
<feFlood flood-opacity="0" result="BackgroundImageFix"/>
<feColorMatrix in="SourceAlpha" type="matrix" values="0 0 0 0 0 0 0 0 0 0 0 0 0 0 0 0 0 0 127 0" result="hardAlpha"/>
<feOffset dx="10" dy="2"/>
<feGaussianBlur stdDeviation="15"/>
<feColorMatrix type="matrix" values="0 0 0 0 0.258824 0 0 0 0 0.627451 0 0 0 0 0.941176 0 0 0 0.596 0"/>
<feBlend mode="normal" in2="BackgroundImageFix" result="effect1_dropShadow_240_5461"/>
<feBlend mode="normal" in="SourceGraphic" in2="effect1_dropShadow_240_5461" result="shape"/>
</filter>
<linearGradient id="paint0_linear_240_5461" x1="201.698" y1="59.9395" x2="304.341" y2="308.103" gradientUnits="userSpaceOnUse">
<stop stop-color="white" stop-opacity="0.604"/>
<stop offset="1" stop-color="white" stop-opacity="0.2"/>
</linearGradient>
</defs>
</svg>
