<svg width="354" height="317" viewBox="0 0 354 317" fill="none" xmlns="http://www.w3.org/2000/svg">
<g filter="url(#filter0_f_240_5837)">
<path d="M96.978 143.357C97.694 143.375 104.96 168.605 104.96 178.409C104.96 188.213 101.386 196.162 96.978 196.162C92.57 196.162 88.996 188.214 88.996 178.41C88.996 168.606 96.262 143.34 96.978 143.357Z" fill="#42A0F0"/>
<path d="M93.1212 181.409C94.2873 181.766 95.8233 180.123 96.5519 177.74C97.2804 175.357 96.9257 173.136 95.7595 172.78C94.5934 172.423 93.0574 174.066 92.3288 176.449C91.6003 178.832 91.955 181.053 93.1212 181.409Z" fill="white"/>
<path d="M152.369 143.357C153.085 143.375 160.351 168.605 160.351 178.409C160.351 188.213 156.777 196.162 152.369 196.162C147.961 196.162 144.387 188.214 144.387 178.41C144.387 168.606 151.653 143.34 152.369 143.357Z" fill="#42A0F0"/>
<path d="M148.512 181.409C149.678 181.766 151.214 180.123 151.943 177.74C152.671 175.357 152.317 173.136 151.151 172.78C149.984 172.423 148.448 174.066 147.72 176.449C146.991 178.832 147.346 181.053 148.512 181.409Z" fill="white"/>
<path d="M211.796 143.357C212.512 143.375 219.778 168.605 219.778 178.409C219.778 188.213 216.204 196.162 211.796 196.162C207.388 196.162 203.814 188.214 203.814 178.41C203.814 168.606 211.08 143.34 211.796 143.357Z" fill="#42A0F0"/>
<path d="M207.939 181.409C209.105 181.766 210.641 180.123 211.37 177.74C212.098 175.357 211.744 173.136 210.577 172.78C209.411 172.423 207.875 174.066 207.147 176.449C206.418 178.832 206.773 181.053 207.939 181.409Z" fill="white"/>
<path d="M266.683 140.357C267.399 140.375 274.665 165.605 274.665 175.409C274.665 185.213 271.091 193.162 266.683 193.162C262.275 193.162 258.701 185.214 258.701 175.41C258.701 165.606 265.967 140.34 266.683 140.357Z" fill="#42A0F0"/>
<path d="M262.826 178.409C263.992 178.766 265.528 177.123 266.257 174.74C266.985 172.357 266.631 170.136 265.464 169.78C264.298 169.423 262.762 171.066 262.034 173.449C261.305 175.832 261.66 178.053 262.826 178.409Z" fill="white"/>
<path d="M180.335 210.357C181.051 210.375 188.317 235.605 188.317 245.409C188.317 255.213 184.743 263.162 180.335 263.162C175.927 263.162 172.353 255.214 172.353 245.41C172.353 235.606 179.619 210.34 180.335 210.357Z" fill="#42A0F0"/>
<path d="M176.478 248.409C177.644 248.766 179.18 247.123 179.909 244.74C180.637 242.357 180.283 240.136 179.117 239.78C177.95 239.423 176.414 241.066 175.686 243.449C174.957 245.832 175.312 248.053 176.478 248.409Z" fill="white"/>
<path d="M239.761 210.357C240.477 210.375 247.743 235.605 247.743 245.409C247.743 255.213 244.169 263.162 239.761 263.162C235.353 263.162 231.779 255.214 231.779 245.41C231.779 235.606 239.045 210.34 239.761 210.357Z" fill="#42A0F0"/>
<path d="M235.904 248.409C237.07 248.766 238.606 247.123 239.335 244.74C240.063 242.357 239.709 240.136 238.542 239.78C237.376 239.423 235.84 241.066 235.112 243.449C234.383 245.832 234.738 248.053 235.904 248.409Z" fill="white"/>
<path d="M302.683 210.357C303.399 210.375 310.665 235.605 310.665 245.409C310.665 255.213 307.091 263.162 302.683 263.162C298.275 263.162 294.701 255.214 294.701 245.41C294.701 235.606 301.967 210.34 302.683 210.357Z" fill="#42A0F0"/>
<path d="M298.826 248.409C299.992 248.766 301.528 247.123 302.257 244.74C302.985 242.357 302.631 240.136 301.464 239.78C300.298 239.423 298.762 241.066 298.034 243.449C297.305 245.832 297.66 248.053 298.826 248.409Z" fill="white"/>
<path d="M120.909 213.357C121.625 213.375 128.891 238.605 128.891 248.409C128.891 258.213 125.317 266.162 120.909 266.162C116.501 266.162 112.927 258.214 112.927 248.41C112.927 238.606 120.193 213.34 120.909 213.357Z" fill="#42A0F0"/>
<path d="M117.052 251.409C118.218 251.766 119.754 250.123 120.483 247.74C121.211 245.357 120.857 243.136 119.691 242.78C118.524 242.423 116.988 244.066 116.26 246.449C115.531 248.832 115.886 251.053 117.052 251.409Z" fill="white"/>
<path d="M64.978 210.357C65.694 210.375 72.96 235.605 72.96 245.409C72.96 255.213 69.386 263.162 64.978 263.162C60.57 263.162 56.996 255.214 56.996 245.41C56.996 235.606 64.262 210.34 64.978 210.357Z" fill="#42A0F0"/>
<path d="M61.1212 248.409C62.2873 248.766 63.8233 247.123 64.5519 244.74C65.2804 242.357 64.9257 240.136 63.7595 239.78C62.5934 239.423 61.0574 241.066 60.3288 243.449C59.6003 245.832 59.955 248.053 61.1212 248.409Z" fill="white"/>
<path d="M96.978 263.357C97.694 263.375 104.96 288.605 104.96 298.409C104.96 308.213 101.386 316.162 96.978 316.162C92.57 316.162 88.996 308.214 88.996 298.41C88.996 288.606 96.262 263.34 96.978 263.357Z" fill="#42A0F0"/>
<path d="M93.1212 301.409C94.2873 301.766 95.8233 300.123 96.5519 297.74C97.2804 295.357 96.9257 293.136 95.7595 292.78C94.5934 292.423 93.0574 294.066 92.3288 296.449C91.6003 298.832 91.955 301.053 93.1212 301.409Z" fill="white"/>
<path d="M152.369 263.357C153.085 263.375 160.351 288.605 160.351 298.409C160.351 308.213 156.777 316.162 152.369 316.162C147.961 316.162 144.387 308.214 144.387 298.41C144.387 288.606 151.653 263.34 152.369 263.357Z" fill="#42A0F0"/>
<path d="M148.512 301.409C149.678 301.766 151.214 300.123 151.943 297.74C152.671 295.357 152.317 293.136 151.151 292.78C149.984 292.423 148.448 294.066 147.72 296.449C146.991 298.832 147.346 301.053 148.512 301.409Z" fill="white"/>
<path d="M211.796 263.357C212.512 263.375 219.778 288.605 219.778 298.409C219.778 308.213 216.204 316.162 211.796 316.162C207.388 316.162 203.814 308.214 203.814 298.41C203.814 288.606 211.08 263.34 211.796 263.357Z" fill="#42A0F0"/>
<path d="M207.939 301.409C209.105 301.766 210.641 300.123 211.37 297.74C212.098 295.357 211.744 293.136 210.577 292.78C209.411 292.423 207.875 294.066 207.147 296.449C206.418 298.832 206.773 301.053 207.939 301.409Z" fill="white"/>
<path d="M266.683 263.357C267.399 263.375 274.665 288.605 274.665 298.409C274.665 308.213 271.091 316.162 266.683 316.162C262.275 316.162 258.701 308.214 258.701 298.41C258.701 288.606 265.967 263.34 266.683 263.357Z" fill="#42A0F0"/>
<path d="M262.826 301.409C263.992 301.766 265.528 300.123 266.257 297.74C266.985 295.357 266.631 293.136 265.464 292.78C264.298 292.423 262.762 294.066 262.034 296.449C261.305 298.832 261.66 301.053 262.826 301.409Z" fill="white"/>
<g filter="url(#filter1_d_240_5837)">
<path d="M263.345 221H71.913C53.3426 220.986 35.4975 213.789 22.1136 200.915C8.72973 188.041 0.844671 170.489 0.109156 151.933C-0.626359 133.377 5.84469 115.256 18.1676 101.364C30.4906 87.4711 47.7099 78.884 66.221 77.4C68.8608 58.76 77.278 41.4167 90.2887 27.81C103.299 14.2033 120.248 5.01799 138.752 1.54639C157.255 -1.92521 176.381 0.491575 193.439 8.45674C210.497 16.4219 224.628 29.5346 233.845 45.95C250.75 40.0981 269.015 39.4143 286.31 43.9857C303.605 48.5571 319.146 58.1765 330.952 71.617C342.757 85.0574 350.292 101.71 352.594 119.45C354.896 137.19 351.862 155.214 343.879 171.223C339.194 185.688 330.047 198.296 317.751 207.239C305.455 216.182 290.641 221 275.437 221H263.345Z" fill="url(#paint0_linear_240_5837)"/>
<path d="M275.437 220C283.157 220 290.748 218.767 297.998 216.336C305.009 213.985 311.59 210.554 317.56 206.139C323.462 201.775 328.635 196.547 332.936 190.6C337.29 184.58 340.652 177.957 342.928 170.915L342.951 170.843L342.985 170.775C346.011 164.728 348.341 158.33 349.911 151.761C351.526 145 352.345 138.015 352.345 130.999C352.345 124.96 351.737 118.925 350.537 113.062C349.368 107.348 347.623 101.728 345.352 96.3572C343.121 91.0838 340.361 85.9975 337.146 81.2396C333.962 76.5267 330.306 72.0948 326.278 68.0672C322.25 64.0394 317.819 60.3828 313.106 57.1988C308.348 53.9844 303.262 51.2237 297.988 48.9932C292.617 46.7216 286.997 44.9769 281.283 43.8077C275.42 42.6078 269.385 41.9995 263.345 41.9995C253.346 41.9995 243.531 43.6452 234.172 46.8908L233.383 47.1646L232.973 46.4362C225.357 32.8943 214.279 21.5217 200.937 13.5478C194.189 9.51526 186.94 6.39903 179.391 4.28571C171.602 2.10544 163.512 0.999985 155.345 0.999985C144.361 0.999985 133.638 2.97698 123.475 6.87603C113.657 10.6427 104.65 16.0837 96.7053 23.048C88.806 29.9722 82.2507 38.1422 77.2214 47.3308C72.0685 56.7451 68.7006 66.9073 67.2113 77.5349L67.0999 78.3304L66.299 78.3931C57.3408 79.0943 48.7219 81.4529 40.6818 85.4032C32.8694 89.2417 25.8932 94.4335 19.947 100.834C7.72889 113.987 1.00003 131.123 1.00003 149.087C1.00003 158.66 2.8748 167.947 6.5723 176.689C8.34949 180.89 10.5492 184.943 13.1103 188.734C15.6472 192.489 18.5608 196.02 21.7699 199.23C24.9791 202.439 28.5104 205.352 32.2655 207.889C36.0565 210.45 40.109 212.65 44.3107 214.427C53.0525 218.125 62.3392 220 71.9127 220H263.345H275.437ZM275.437 221H263.345H71.9127C32.1966 221 3.05176e-05 188.803 3.05176e-05 149.087C3.05176e-05 111.286 29.1647 80.2967 66.221 77.3961C72.3504 33.6573 109.917 -1.52588e-05 155.345 -1.52588e-05C189.048 -1.52588e-05 218.422 18.5232 233.845 45.946C243.087 42.7407 253.012 40.9995 263.345 40.9995C313.052 40.9995 353.345 81.2943 353.345 130.999C353.345 145.456 349.936 159.118 343.879 171.223C334.544 200.108 307.431 221 275.437 221Z" fill="white" fill-opacity="0.5"/>
</g>
</g>
<defs>
<filter id="filter0_f_240_5837" x="-3.99997" y="-4.00002" width="361.345" height="324.162" filterUnits="userSpaceOnUse" color-interpolation-filters="sRGB">
<feFlood flood-opacity="0" result="BackgroundImageFix"/>
<feBlend mode="normal" in="SourceGraphic" in2="BackgroundImageFix" result="shape"/>
<feGaussianBlur stdDeviation="2" result="effect1_foregroundBlur_240_5837"/>
</filter>
<filter id="filter1_d_240_5837" x="-20" y="-28" width="413.345" height="281" filterUnits="userSpaceOnUse" color-interpolation-filters="sRGB">
<feFlood flood-opacity="0" result="BackgroundImageFix"/>
<feColorMatrix in="SourceAlpha" type="matrix" values="0 0 0 0 0 0 0 0 0 0 0 0 0 0 0 0 0 0 127 0" result="hardAlpha"/>
<feOffset dx="10" dy="2"/>
<feGaussianBlur stdDeviation="15"/>
<feColorMatrix type="matrix" values="0 0 0 0 0.258824 0 0 0 0 0.627451 0 0 0 0 0.941176 0 0 0 0.596 0"/>
<feBlend mode="normal" in2="BackgroundImageFix" result="effect1_dropShadow_240_5837"/>
<feBlend mode="normal" in="SourceGraphic" in2="effect1_dropShadow_240_5837" result="shape"/>
</filter>
<linearGradient id="paint0_linear_240_5837" x1="176.698" y1="0.00251007" x2="279.341" y2="248.166" gradientUnits="userSpaceOnUse">
<stop stop-color="white" stop-opacity="0.604"/>
<stop offset="1" stop-color="white" stop-opacity="0.2"/>
</linearGradient>
</defs>
</svg>
