<svg width="218" height="195" viewBox="0 0 218 195" fill="none" xmlns="http://www.w3.org/2000/svg">
<g filter="url(#filter0_f_240_6312)">
<path d="M178.339 118V194.792" stroke="#42A0F0" stroke-width="6" stroke-linecap="round"/>
<path d="M178.185 136.771L191.41 123.119" stroke="#42A0F0" stroke-width="6" stroke-linecap="round"/>
<path d="M178.185 136.771L164.533 123.119" stroke="#42A0F0" stroke-width="6" stroke-linecap="round"/>
<path d="M178.185 177.727L191.41 191.379" stroke="#42A0F0" stroke-width="6" stroke-linecap="round"/>
<path d="M178.185 177.727L164.533 191.379" stroke="#42A0F0" stroke-width="6" stroke-linecap="round"/>
<path d="M211.407 137.516L144.903 175.912" stroke="#42A0F0" stroke-width="6" stroke-linecap="round"/>
<path d="M195.074 146.769L213.51 151.396" stroke="#42A0F0" stroke-width="6" stroke-linecap="round"/>
<path d="M195.074 146.768L200.071 128.12" stroke="#42A0F0" stroke-width="6" stroke-linecap="round"/>
<path d="M159.605 167.247L154.395 185.526" stroke="#42A0F0" stroke-width="6" stroke-linecap="round"/>
<path d="M159.605 167.247L140.956 162.25" stroke="#42A0F0" stroke-width="6" stroke-linecap="round"/>
<path d="M211.039 175.912L144.536 137.516" stroke="#42A0F0" stroke-width="6" stroke-linecap="round"/>
<path d="M194.86 166.394L200.071 184.673" stroke="#42A0F0" stroke-width="6" stroke-linecap="round"/>
<path d="M194.86 166.394L213.509 161.397" stroke="#42A0F0" stroke-width="6" stroke-linecap="round"/>
<path d="M159.391 145.916L140.956 150.543" stroke="#42A0F0" stroke-width="6" stroke-linecap="round"/>
<path d="M159.391 145.916L154.394 127.267" stroke="#42A0F0" stroke-width="6" stroke-linecap="round"/>
<path d="M104.339 0V76.792" stroke="#42A0F0" stroke-width="6" stroke-linecap="round"/>
<path d="M104.185 18.771L117.41 5.11902" stroke="#42A0F0" stroke-width="6" stroke-linecap="round"/>
<path d="M104.185 18.771L90.5333 5.11902" stroke="#42A0F0" stroke-width="6" stroke-linecap="round"/>
<path d="M104.185 59.7271L117.41 73.3791" stroke="#42A0F0" stroke-width="6" stroke-linecap="round"/>
<path d="M104.185 59.7271L90.5333 73.3791" stroke="#42A0F0" stroke-width="6" stroke-linecap="round"/>
<path d="M137.407 19.5164L70.9034 57.9124" stroke="#42A0F0" stroke-width="6" stroke-linecap="round"/>
<path d="M121.074 28.7685L139.51 33.3957" stroke="#42A0F0" stroke-width="6" stroke-linecap="round"/>
<path d="M121.074 28.7685L126.071 10.1195" stroke="#42A0F0" stroke-width="6" stroke-linecap="round"/>
<path d="M85.6052 49.2466L80.3947 67.5258" stroke="#42A0F0" stroke-width="6" stroke-linecap="round"/>
<path d="M85.6052 49.2466L66.9562 44.2496" stroke="#42A0F0" stroke-width="6" stroke-linecap="round"/>
<path d="M137.039 57.9124L70.5356 19.5164" stroke="#42A0F0" stroke-width="6" stroke-linecap="round"/>
<path d="M120.86 48.3936L126.071 66.6728" stroke="#42A0F0" stroke-width="6" stroke-linecap="round"/>
<path d="M120.86 48.3936L139.509 43.3966" stroke="#42A0F0" stroke-width="6" stroke-linecap="round"/>
<path d="M85.3912 27.9155L66.9558 32.5427" stroke="#42A0F0" stroke-width="6" stroke-linecap="round"/>
<path d="M85.3913 27.9155L80.3943 9.26653" stroke="#42A0F0" stroke-width="6" stroke-linecap="round"/>
<path d="M40.3394 118L40.3394 194.792" stroke="#42A0F0" stroke-width="6" stroke-linecap="round"/>
<path d="M40.1853 136.771L53.4103 123.119" stroke="#42A0F0" stroke-width="6" stroke-linecap="round"/>
<path d="M40.1853 136.771L26.5333 123.119" stroke="#42A0F0" stroke-width="6" stroke-linecap="round"/>
<path d="M40.1853 177.727L53.4103 191.379" stroke="#42A0F0" stroke-width="6" stroke-linecap="round"/>
<path d="M40.1853 177.727L26.5333 191.379" stroke="#42A0F0" stroke-width="6" stroke-linecap="round"/>
<path d="M73.4072 137.516L6.90341 175.912" stroke="#42A0F0" stroke-width="6" stroke-linecap="round"/>
<path d="M57.0741 146.769L75.5096 151.396" stroke="#42A0F0" stroke-width="6" stroke-linecap="round"/>
<path d="M57.0741 146.768L62.071 128.12" stroke="#42A0F0" stroke-width="6" stroke-linecap="round"/>
<path d="M21.6052 167.247L16.3947 185.526" stroke="#42A0F0" stroke-width="6" stroke-linecap="round"/>
<path d="M21.6052 167.247L2.9562 162.25" stroke="#42A0F0" stroke-width="6" stroke-linecap="round"/>
<path d="M73.0394 175.912L6.53561 137.516" stroke="#42A0F0" stroke-width="6" stroke-linecap="round"/>
<path d="M56.8601 166.394L62.0706 184.673" stroke="#42A0F0" stroke-width="6" stroke-linecap="round"/>
<path d="M56.8602 166.394L75.5092 161.397" stroke="#42A0F0" stroke-width="6" stroke-linecap="round"/>
<path d="M21.3912 145.916L2.95576 150.543" stroke="#42A0F0" stroke-width="6" stroke-linecap="round"/>
<path d="M21.3913 145.916L16.3943 127.267" stroke="#42A0F0" stroke-width="6" stroke-linecap="round"/>
</g>
<defs>
<filter id="filter0_f_240_6312" x="-3.04492" y="-6" width="222.555" height="206.792" filterUnits="userSpaceOnUse" color-interpolation-filters="sRGB">
<feFlood flood-opacity="0" result="BackgroundImageFix"/>
<feBlend mode="normal" in="SourceGraphic" in2="BackgroundImageFix" result="shape"/>
<feGaussianBlur stdDeviation="1.5" result="effect1_foregroundBlur_240_6312"/>
</filter>
</defs>
</svg>
