<svg width="379" height="367" viewBox="0 0 379 367" fill="none" xmlns="http://www.w3.org/2000/svg">
<g filter="url(#filter0_f_240_5723)">
<path d="M132.044 224.535L198.727 331.228" stroke="#42A0F0" stroke-width="9" stroke-linecap="round"/>
<path d="M148.132 250.749L154.652 220.297" stroke="#42A0F0" stroke-width="9" stroke-linecap="round"/>
<path d="M148.132 250.749L117.309 243.636" stroke="#42A0F0" stroke-width="9" stroke-linecap="round"/>
<path d="M183.696 307.652L213.927 315.135" stroke="#42A0F0" stroke-width="9" stroke-linecap="round"/>
<path d="M183.696 307.652L176.583 338.475" stroke="#42A0F0" stroke-width="9" stroke-linecap="round"/>
<path d="M194.936 222.934L135.879 334.03" stroke="#42A0F0" stroke-width="9" stroke-linecap="round"/>
<path d="M180.278 249.974L209.911 240.394" stroke="#42A0F0" stroke-width="9" stroke-linecap="round"/>
<path d="M180.278 249.974L171.026 219.724" stroke="#42A0F0" stroke-width="9" stroke-linecap="round"/>
<path d="M148.781 309.224L157.415 339.146" stroke="#42A0F0" stroke-width="9" stroke-linecap="round"/>
<path d="M148.781 309.224L118.531 318.476" stroke="#42A0F0" stroke-width="9" stroke-linecap="round"/>
<path d="M227.768 276.599L102.028 281.002" stroke="#42A0F0" stroke-width="9" stroke-linecap="round"/>
<path d="M197.022 277.425L220.135 298.298" stroke="#42A0F0" stroke-width="9" stroke-linecap="round"/>
<path d="M197.022 277.425L218.594 254.288" stroke="#42A0F0" stroke-width="9" stroke-linecap="round"/>
<path d="M129.961 279.773L108.365 302.212" stroke="#42A0F0" stroke-width="9" stroke-linecap="round"/>
<path d="M129.961 279.773L106.824 258.201" stroke="#42A0F0" stroke-width="9" stroke-linecap="round"/>
<path d="M298.38 291.949L273.007 348.928" stroke="#42A0F0" stroke-width="6.00313" stroke-linecap="round"/>
<path d="M292.063 305.827L306.387 300.066" stroke="#42A0F0" stroke-width="6.00313" stroke-linecap="round"/>
<path d="M292.063 305.827L286.444 291.186" stroke="#42A0F0" stroke-width="6.00313" stroke-linecap="round"/>
<path d="M278.531 336.215L283.833 350.715" stroke="#42A0F0" stroke-width="6.00313" stroke-linecap="round"/>
<path d="M278.531 336.215L263.891 341.834" stroke="#42A0F0" stroke-width="6.00313" stroke-linecap="round"/>
<path d="M316.468 317.356L254.437 323.872" stroke="#42A0F0" stroke-width="6.00313" stroke-linecap="round"/>
<path d="M301.291 318.824L313.442 328.349" stroke="#42A0F0" stroke-width="6.00313" stroke-linecap="round"/>
<path d="M301.291 318.824L311.161 306.638" stroke="#42A0F0" stroke-width="6.00313" stroke-linecap="round"/>
<path d="M268.208 322.3L258.302 334.141" stroke="#42A0F0" stroke-width="6.00313" stroke-linecap="round"/>
<path d="M268.208 322.3L256.021 312.43" stroke="#42A0F0" stroke-width="6.00313" stroke-linecap="round"/>
<path d="M303.509 345.724L266.85 295.261" stroke="#42A0F0" stroke-width="6.00313" stroke-linecap="round"/>
<path d="M294.649 333.315L292.476 348.599" stroke="#42A0F0" stroke-width="6.00313" stroke-linecap="round"/>
<path d="M294.649 333.315L310.138 335.769" stroke="#42A0F0" stroke-width="6.00313" stroke-linecap="round"/>
<path d="M275.098 306.401L259.89 303.743" stroke="#42A0F0" stroke-width="6.00313" stroke-linecap="round"/>
<path d="M275.098 306.401L277.552 290.913" stroke="#42A0F0" stroke-width="6.00313" stroke-linecap="round"/>
<path d="M103.148 213.763C157.548 213.763 201.648 169.439 201.648 114.763C201.648 60.0868 157.548 15.763 103.148 15.763C48.748 15.763 4.64801 60.0868 4.64801 114.763C4.64801 169.439 48.748 213.763 103.148 213.763Z" fill="#FA9E42"/>
<g filter="url(#filter1_f_240_5723)">
<path d="M96.0304 100.684C128.767 83.2963 147.077 53.7096 136.928 34.6003C126.778 15.4911 92.0115 14.0956 59.2749 31.4835C26.5383 48.8713 8.22801 78.4581 18.3778 97.5673C28.5275 116.677 63.2938 118.072 96.0304 100.684Z" fill="#F8E36F"/>
</g>
<g filter="url(#filter2_d_240_5723)">
<path d="M288.345 284.763H96.913C78.3426 284.749 60.4975 277.552 47.1136 264.678C33.7297 251.804 25.8447 234.252 25.1092 215.696C24.3736 197.14 30.8447 179.019 43.1676 165.127C55.4906 151.234 72.7099 142.647 91.221 141.163C93.8608 122.523 102.278 105.18 115.289 91.573C128.299 77.9663 145.248 68.781 163.752 65.3094C182.255 61.8378 201.381 64.2546 218.439 72.2197C235.497 80.1849 249.628 93.2976 258.845 109.713C275.75 103.861 294.015 103.177 311.31 107.749C328.605 112.32 344.146 121.939 355.952 135.38C367.757 148.82 375.292 165.473 377.594 183.213C379.896 200.953 376.862 218.977 368.879 234.986C364.194 249.451 355.047 262.059 342.751 271.002C330.455 279.945 315.641 284.763 300.437 284.763H288.345Z" fill="url(#paint0_linear_240_5723)"/>
<path d="M300.437 283.763C308.157 283.763 315.748 282.53 322.998 280.099C330.009 277.748 336.59 274.317 342.56 269.902C348.462 265.538 353.635 260.31 357.936 254.363C362.29 248.343 365.652 241.72 367.928 234.678L367.951 234.606L367.985 234.538C371.011 228.491 373.341 222.093 374.911 215.524C376.526 208.763 377.345 201.778 377.345 194.762C377.345 188.723 376.737 182.688 375.537 176.825C374.368 171.111 372.623 165.491 370.352 160.12C368.121 154.847 365.361 149.76 362.146 145.003C358.962 140.29 355.306 135.858 351.278 131.83C347.25 127.802 342.819 124.146 338.106 120.962C333.348 117.747 328.261 114.987 322.988 112.756C317.617 110.485 311.997 108.74 306.283 107.571C300.42 106.371 294.385 105.763 288.345 105.763C278.346 105.763 268.531 107.408 259.172 110.654L258.383 110.928L257.973 110.199C250.357 96.6573 239.279 85.2847 225.937 77.3109C219.189 73.2783 211.94 70.162 204.391 68.0487C196.602 65.8685 188.512 64.763 180.345 64.763C169.361 64.763 158.638 66.74 148.475 70.639C138.657 74.4057 129.65 79.8467 121.705 86.811C113.806 93.7352 107.251 101.905 102.221 111.094C97.0685 120.508 93.7006 130.67 92.2113 141.298L92.0998 142.093L91.299 142.156C82.3408 142.857 73.7219 145.216 65.6818 149.166C57.8694 153.005 50.8932 158.197 44.947 164.597C32.7289 177.75 26 194.886 26 212.85C26 222.423 27.8748 231.71 31.5723 240.452C33.3495 244.654 35.5491 248.706 38.1102 252.497C40.6472 256.252 43.5607 259.783 46.7699 262.993C49.9791 266.202 53.5104 269.115 57.2655 271.652C61.0565 274.213 65.109 276.413 69.3106 278.19C78.0525 281.888 87.3391 283.763 96.9127 283.763H288.345H300.437ZM300.437 284.763H288.345H96.9127C57.1966 284.763 25 252.566 25 212.85C25 175.049 54.1646 144.06 91.221 141.159C97.3504 97.4204 134.917 63.763 180.345 63.763C214.048 63.763 243.422 82.2862 258.845 109.709C268.087 106.504 278.012 104.763 288.345 104.763C338.051 104.763 378.345 145.057 378.345 194.762C378.345 209.219 374.936 222.881 368.879 234.986C359.544 263.871 332.431 284.763 300.437 284.763Z" fill="white" fill-opacity="0.5"/>
</g>
</g>
<defs>
<filter id="filter0_f_240_5723" x="0.64801" y="11.763" width="381.697" height="345.954" filterUnits="userSpaceOnUse" color-interpolation-filters="sRGB">
<feFlood flood-opacity="0" result="BackgroundImageFix"/>
<feBlend mode="normal" in="SourceGraphic" in2="BackgroundImageFix" result="shape"/>
<feGaussianBlur stdDeviation="2" result="effect1_foregroundBlur_240_5723"/>
</filter>
<filter id="filter1_f_240_5723" x="-4.42236" y="-0.696777" width="164.15" height="133.561" filterUnits="userSpaceOnUse" color-interpolation-filters="sRGB">
<feFlood flood-opacity="0" result="BackgroundImageFix"/>
<feBlend mode="normal" in="SourceGraphic" in2="BackgroundImageFix" result="shape"/>
<feGaussianBlur stdDeviation="10" result="effect1_foregroundBlur_240_5723"/>
</filter>
<filter id="filter2_d_240_5723" x="5" y="35.763" width="413.345" height="281" filterUnits="userSpaceOnUse" color-interpolation-filters="sRGB">
<feFlood flood-opacity="0" result="BackgroundImageFix"/>
<feColorMatrix in="SourceAlpha" type="matrix" values="0 0 0 0 0 0 0 0 0 0 0 0 0 0 0 0 0 0 127 0" result="hardAlpha"/>
<feOffset dx="10" dy="2"/>
<feGaussianBlur stdDeviation="15"/>
<feColorMatrix type="matrix" values="0 0 0 0 0.258824 0 0 0 0 0.627451 0 0 0 0 0.941176 0 0 0 0.596 0"/>
<feBlend mode="normal" in2="BackgroundImageFix" result="effect1_dropShadow_240_5723"/>
<feBlend mode="normal" in="SourceGraphic" in2="effect1_dropShadow_240_5723" result="shape"/>
</filter>
<linearGradient id="paint0_linear_240_5723" x1="201.698" y1="63.7655" x2="304.341" y2="311.929" gradientUnits="userSpaceOnUse">
<stop stop-color="white" stop-opacity="0.604"/>
<stop offset="1" stop-color="white" stop-opacity="0.2"/>
</linearGradient>
</defs>
</svg>
