<svg width="303" height="202" viewBox="0 0 303 202" fill="none" xmlns="http://www.w3.org/2000/svg">
<g filter="url(#filter0_df_240_6553)">
<path d="M82.112 126.964C82.112 119.805 86.437 113.078 94.025 107.239C68.298 96.311 52.09 80.39 52.09 62.665C52.09 29.713 108.09 3 177.174 3C246.258 3 302.258 29.713 302.258 62.665C302.258 80.565 285.74 96.619 259.575 107.555C266.911 113.32 271.082 119.933 271.082 126.964C271.082 149.364 228.782 167.513 176.598 167.513C124.414 167.513 82.112 149.359 82.112 126.964Z" fill="url(#paint0_linear_240_6553)"/>
<path d="M176.597 166.513C189.292 166.513 201.606 165.446 213.196 163.342C224.373 161.313 234.405 158.412 243.013 154.717C247.24 152.904 251.074 150.91 254.409 148.791C257.757 146.664 260.629 144.394 262.944 142.046C267.68 137.24 270.081 132.166 270.081 126.964C270.081 123.7 269.119 120.449 267.223 117.3C265.352 114.195 262.571 111.181 258.957 108.341L257.618 107.289L259.189 106.632C265.673 103.922 271.58 100.883 276.746 97.6001C281.934 94.3028 286.397 90.7445 290.011 87.0238C293.669 83.2579 296.479 79.3029 298.362 75.2687C300.283 71.1524 301.258 66.9119 301.258 62.6648C301.258 58.753 300.43 54.84 298.798 51.0345C297.196 47.3022 294.802 43.6246 291.68 40.104C288.596 36.6261 284.773 33.2678 280.319 30.1225C275.89 26.9957 270.8 24.0536 265.191 21.378C259.571 18.6971 253.384 16.2624 246.803 14.1416C240.151 11.9982 233.04 10.1569 225.664 8.669C210.308 5.57088 193.994 4 177.174 4C160.354 4 144.039 5.57088 128.683 8.669C121.308 10.1569 114.196 11.9982 107.545 14.1416C100.964 16.2624 94.777 18.6971 89.1567 21.378C83.5473 24.0536 78.4577 26.9957 74.0291 30.1225C69.5742 33.2678 65.7518 36.6261 62.6679 40.104C59.5461 43.6246 57.1514 47.3022 55.5502 51.0345C53.9177 54.84 53.09 58.753 53.09 62.6648C53.09 66.871 54.0462 71.0719 55.9321 75.1509C57.7804 79.1487 60.5388 83.0707 64.1306 86.808C67.679 90.5001 72.0627 94.0355 77.1598 97.3159C82.2337 100.582 88.0394 103.611 94.4154 106.319L95.9908 106.988L94.6342 108.032C90.8934 110.91 88.0137 113.971 86.0748 117.129C84.1087 120.332 83.1117 123.641 83.1117 126.964C83.1117 132.166 85.5131 137.24 90.2491 142.046C92.5641 144.394 95.4358 146.664 98.7846 148.791C102.12 150.91 105.954 152.904 110.18 154.717C118.788 158.412 128.82 161.313 139.998 163.342C151.588 165.446 163.901 166.513 176.597 166.513ZM176.597 167.513C124.414 167.513 82.1117 149.359 82.1117 126.964C82.1117 119.804 86.4364 113.077 94.0244 107.239C68.2975 96.3112 52.09 80.3898 52.09 62.6648C52.09 29.7127 108.092 3 177.174 3C246.256 3 302.258 29.7127 302.258 62.6648C302.258 80.5628 285.74 96.6188 259.574 107.555C266.911 113.319 271.081 119.933 271.081 126.964C271.081 149.359 228.779 167.513 176.597 167.513Z" fill="white" fill-opacity="0.5"/>
</g>
<g filter="url(#filter1_f_240_6553)">
<path d="M63.262 109.391C63.262 109.391 47.255 127.414 50.101 138.201C52.947 148.988 60.668 158.416 100.313 165.625C139.958 172.834 209.783 165.625 209.783 165.625" stroke="#B2B2B2" stroke-width="8"/>
<path d="M93.536 166.278C93.536 166.278 83.6941 175.77 86.5031 183.278C89.3121 190.786 100.567 196.186 110.327 197.914C121.193 200.003 132.225 201.108 143.289 201.214C160.982 201.328 178.573 196.455 178.573 196.455" stroke="#B2B2B2" stroke-width="8" stroke-linecap="round"/>
<path d="M152.22 122.812C223.536 122.812 281.349 96.215 281.349 63.406C281.349 30.597 223.536 4 152.22 4C80.904 4 23.091 30.597 23.091 63.406C23.091 96.215 80.904 122.812 152.22 122.812Z" stroke="#B2B2B2" stroke-width="8"/>
</g>
<g filter="url(#filter2_f_240_6553)">
<path d="M59.265 181.5L54.245 186.52" stroke="#FFD100" stroke-width="4" stroke-linecap="round"/>
<path d="M54.245 181.5L59.265 186.52" stroke="#FFD100" stroke-width="4" stroke-linecap="round"/>
<path d="M293.265 98.5L288.245 103.52" stroke="#FFD100" stroke-width="4" stroke-linecap="round"/>
<path d="M288.245 98.5L293.265 103.52" stroke="#FFD100" stroke-width="4" stroke-linecap="round"/>
</g>
<g filter="url(#filter3_f_240_6553)">
<path d="M15.329 100.296H40.985L26.24 121.954L43.484 122.28L7.284 165.12L16.054 132.458H0L15.329 100.296Z" fill="url(#paint1_linear_240_6553)"/>
<path d="M251.329 130.296H276.985L262.24 151.954L279.484 152.28L243.284 195.12L252.054 162.458H236L251.329 130.296Z" fill="url(#paint2_linear_240_6553)"/>
</g>
<defs>
<filter id="filter0_df_240_6553" x="32.09" y="-25" width="310.168" height="224.513" filterUnits="userSpaceOnUse" color-interpolation-filters="sRGB">
<feFlood flood-opacity="0" result="BackgroundImageFix"/>
<feColorMatrix in="SourceAlpha" type="matrix" values="0 0 0 0 0 0 0 0 0 0 0 0 0 0 0 0 0 0 127 0" result="hardAlpha"/>
<feOffset dx="10" dy="2"/>
<feGaussianBlur stdDeviation="15"/>
<feColorMatrix type="matrix" values="0 0 0 0 0.258824 0 0 0 0 0.627451 0 0 0 0 0.941176 0 0 0 0.596 0"/>
<feBlend mode="normal" in2="BackgroundImageFix" result="effect1_dropShadow_240_6553"/>
<feBlend mode="normal" in="SourceGraphic" in2="effect1_dropShadow_240_6553" result="shape"/>
<feGaussianBlur stdDeviation="2" result="effect2_foregroundBlur_240_6553"/>
</filter>
<filter id="filter1_f_240_6553" x="15.091" y="-4" width="274.258" height="213.216" filterUnits="userSpaceOnUse" color-interpolation-filters="sRGB">
<feFlood flood-opacity="0" result="BackgroundImageFix"/>
<feBlend mode="normal" in="SourceGraphic" in2="BackgroundImageFix" result="shape"/>
<feGaussianBlur stdDeviation="2" result="effect1_foregroundBlur_240_6553"/>
</filter>
<filter id="filter2_f_240_6553" x="50.245" y="94.5" width="247.02" height="96.02" filterUnits="userSpaceOnUse" color-interpolation-filters="sRGB">
<feFlood flood-opacity="0" result="BackgroundImageFix"/>
<feBlend mode="normal" in="SourceGraphic" in2="BackgroundImageFix" result="shape"/>
<feGaussianBlur stdDeviation="1" result="effect1_foregroundBlur_240_6553"/>
</filter>
<filter id="filter3_f_240_6553" x="-2" y="98.2959" width="283.484" height="98.824" filterUnits="userSpaceOnUse" color-interpolation-filters="sRGB">
<feFlood flood-opacity="0" result="BackgroundImageFix"/>
<feBlend mode="normal" in="SourceGraphic" in2="BackgroundImageFix" result="shape"/>
<feGaussianBlur stdDeviation="1" result="effect1_foregroundBlur_240_6553"/>
</filter>
<linearGradient id="paint0_linear_240_6553" x1="153.408" y1="23.7286" x2="208.488" y2="174.53" gradientUnits="userSpaceOnUse">
<stop stop-color="white" stop-opacity="0.596"/>
<stop offset="1" stop-color="#F7F7F7" stop-opacity="0.204"/>
</linearGradient>
<linearGradient id="paint1_linear_240_6553" x1="17.7415" y1="132.708" x2="-2.56973" y2="125.261" gradientUnits="userSpaceOnUse">
<stop stop-color="#FFD100"/>
<stop offset="1" stop-color="#FFF0AA"/>
</linearGradient>
<linearGradient id="paint2_linear_240_6553" x1="253.741" y1="162.708" x2="233.43" y2="155.261" gradientUnits="userSpaceOnUse">
<stop stop-color="#FFD100"/>
<stop offset="1" stop-color="#FFF0AA"/>
</linearGradient>
</defs>
</svg>
