<svg width="251" height="259" viewBox="0 0 251 259" fill="none" xmlns="http://www.w3.org/2000/svg">
<g filter="url(#filter0_f_240_6388)">
<path d="M125.891 39.2209L125.891 235.324" stroke="#42A0F0" stroke-width="10" stroke-linecap="round"/>
<path d="M125.499 87.1579L159.272 52.2949" stroke="#42A0F0" stroke-width="10" stroke-linecap="round"/>
<path d="M125.499 87.1579L90.6356 52.2949" stroke="#42A0F0" stroke-width="10" stroke-linecap="round"/>
<path d="M125.499 191.746L159.272 226.609" stroke="#42A0F0" stroke-width="10" stroke-linecap="round"/>
<path d="M125.499 191.746L90.6356 226.609" stroke="#42A0F0" stroke-width="10" stroke-linecap="round"/>
<path d="M210.337 89.0577L40.5069 187.109" stroke="#42A0F0" stroke-width="10" stroke-linecap="round"/>
<path d="M168.626 112.687L215.705 124.504" stroke="#42A0F0" stroke-width="10" stroke-linecap="round"/>
<path d="M168.626 112.687L181.387 65.063" stroke="#42A0F0" stroke-width="10" stroke-linecap="round"/>
<path d="M78.0506 164.981L64.7449 211.66" stroke="#42A0F0" stroke-width="10" stroke-linecap="round"/>
<path d="M78.0506 164.981L30.4268 152.22" stroke="#42A0F0" stroke-width="10" stroke-linecap="round"/>
<path d="M209.401 187.11L39.5709 89.0582" stroke="#42A0F0" stroke-width="10" stroke-linecap="round"/>
<path d="M168.082 162.802L181.388 209.482" stroke="#42A0F0" stroke-width="10" stroke-linecap="round"/>
<path d="M168.082 162.802L215.706 150.041" stroke="#42A0F0" stroke-width="10" stroke-linecap="round"/>
<path d="M77.5065 110.508L30.4278 122.325" stroke="#42A0F0" stroke-width="10" stroke-linecap="round"/>
<path d="M77.5065 110.508L64.7458 62.8841" stroke="#42A0F0" stroke-width="10" stroke-linecap="round"/>
</g>
<g filter="url(#filter1_f_240_6388)">
<path d="M53.8836 0V13.394" stroke="#42A0F0" stroke-linecap="round"/>
<path d="M53.5936 3.26796L55.7726 2.17896" stroke="#42A0F0" stroke-linecap="round"/>
<path d="M53.5936 3.26796L50.3256 2.17896" stroke="#42A0F0" stroke-linecap="round"/>
<path d="M53.5936 10.895L55.7726 11.984" stroke="#42A0F0" stroke-linecap="round"/>
<path d="M53.5936 10.895L50.3256 11.984" stroke="#42A0F0" stroke-linecap="round"/>
<path d="M59.6516 3.40442L48.0521 10.1014" stroke="#42A0F0" stroke-linecap="round"/>
<path d="M56.8027 5.01801L60.0182 5.82544" stroke="#42A0F0" stroke-linecap="round"/>
<path d="M56.8027 5.01801L57.6743 1.7655" stroke="#42A0F0" stroke-linecap="round"/>
<path d="M50.6158 8.58997L49.7073 11.7784" stroke="#42A0F0" stroke-linecap="round"/>
<path d="M50.6159 8.58996L47.3633 7.71845" stroke="#42A0F0" stroke-linecap="round"/>
<path d="M59.5876 10.1014L47.9881 3.40444" stroke="#42A0F0" stroke-linecap="round"/>
<path d="M56.7658 8.44097L57.6743 11.6294" stroke="#42A0F0" stroke-linecap="round"/>
<path d="M56.7657 8.44096L60.0182 7.56946" stroke="#42A0F0" stroke-linecap="round"/>
<path d="M50.5789 4.86902L47.3634 5.67644" stroke="#42A0F0" stroke-linecap="round"/>
<path d="M50.5788 4.86901L49.7073 1.61651" stroke="#42A0F0" stroke-linecap="round"/>
</g>
<g filter="url(#filter2_f_240_6388)">
<path d="M238.67 29.655V52.615" stroke="#42A0F0" stroke-linecap="round"/>
<path d="M237.713 34.863L242.071 33.774" stroke="#42A0F0" stroke-linecap="round"/>
<path d="M237.713 34.863L232.266 33.774" stroke="#42A0F0" stroke-linecap="round"/>
<path d="M237.713 47.937L242.071 50.116" stroke="#42A0F0" stroke-linecap="round"/>
<path d="M237.713 47.937L232.266 50.116" stroke="#42A0F0" stroke-linecap="round"/>
<path d="M248.557 35.49L228.673 46.97" stroke="#42A0F0" stroke-linecap="round"/>
<path d="M243.673 38.2567L249.185 39.64" stroke="#42A0F0" stroke-linecap="round"/>
<path d="M243.673 38.2567L245.167 32.6805" stroke="#42A0F0" stroke-linecap="round"/>
<path d="M233.068 44.3792L231.51 49.8444" stroke="#42A0F0" stroke-linecap="round"/>
<path d="M233.068 44.3791L227.492 42.885" stroke="#42A0F0" stroke-linecap="round"/>
<path d="M248.447 46.9709L228.563 35.4909" stroke="#42A0F0" stroke-linecap="round"/>
<path d="M243.609 44.1246L245.167 49.5899" stroke="#42A0F0" stroke-linecap="round"/>
<path d="M243.609 44.1246L249.185 42.6305" stroke="#42A0F0" stroke-linecap="round"/>
<path d="M233.004 38.0022L227.492 39.3855" stroke="#42A0F0" stroke-linecap="round"/>
<path d="M233.004 38.0022L231.51 32.426" stroke="#42A0F0" stroke-linecap="round"/>
</g>
<g filter="url(#filter3_f_240_6388)">
<path d="M224.526 198.522V217.372" stroke="#42A0F0" stroke-linecap="round"/>
<path d="M223.55 202.64L226.818 201.551" stroke="#42A0F0" stroke-linecap="round"/>
<path d="M223.55 202.64L219.192 201.551" stroke="#42A0F0" stroke-linecap="round"/>
<path d="M223.55 213.535L226.818 215.714" stroke="#42A0F0" stroke-linecap="round"/>
<path d="M223.55 213.535L219.192 215.714" stroke="#42A0F0" stroke-linecap="round"/>
<path d="M232.644 203.313L216.319 212.738" stroke="#42A0F0" stroke-linecap="round"/>
<path d="M228.634 205.584L233.159 206.72" stroke="#42A0F0" stroke-linecap="round"/>
<path d="M228.634 205.584L229.861 201.006" stroke="#42A0F0" stroke-linecap="round"/>
<path d="M219.928 210.61L218.649 215.097" stroke="#42A0F0" stroke-linecap="round"/>
<path d="M219.928 210.61L215.351 209.384" stroke="#42A0F0" stroke-linecap="round"/>
<path d="M232.554 212.738L216.229 203.313" stroke="#42A0F0" stroke-linecap="round"/>
<path d="M228.582 210.401L229.861 214.888" stroke="#42A0F0" stroke-linecap="round"/>
<path d="M228.582 210.401L233.16 209.174" stroke="#42A0F0" stroke-linecap="round"/>
<path d="M219.876 205.375L215.351 206.51" stroke="#42A0F0" stroke-linecap="round"/>
<path d="M219.876 205.375L218.65 200.797" stroke="#42A0F0" stroke-linecap="round"/>
</g>
<g filter="url(#filter4_f_240_6388)">
<path d="M69.7326 242.1V258.705" stroke="#42A0F0" stroke-linecap="round"/>
<path d="M68.8456 246.218L72.1136 245.129" stroke="#42A0F0" stroke-linecap="round"/>
<path d="M68.8456 246.218L65.5776 245.129" stroke="#42A0F0" stroke-linecap="round"/>
<path d="M68.8456 254.934L72.1136 257.113" stroke="#42A0F0" stroke-linecap="round"/>
<path d="M68.8456 254.934L65.5776 257.113" stroke="#42A0F0" stroke-linecap="round"/>
<path d="M76.8831 246.32L62.5028 254.623" stroke="#42A0F0" stroke-linecap="round"/>
<path d="M73.3515 248.321L77.338 249.322" stroke="#42A0F0" stroke-linecap="round"/>
<path d="M73.3514 248.321L74.4319 244.288" stroke="#42A0F0" stroke-linecap="round"/>
<path d="M65.6819 252.749L64.5554 256.702" stroke="#42A0F0" stroke-linecap="round"/>
<path d="M65.6819 252.749L61.6494 251.669" stroke="#42A0F0" stroke-linecap="round"/>
<path d="M76.8041 254.622L62.4238 246.32" stroke="#42A0F0" stroke-linecap="round"/>
<path d="M73.3054 252.564L74.4319 256.517" stroke="#42A0F0" stroke-linecap="round"/>
<path d="M73.3054 252.564L77.338 251.484" stroke="#42A0F0" stroke-linecap="round"/>
<path d="M65.6359 248.136L61.6494 249.137" stroke="#42A0F0" stroke-linecap="round"/>
<path d="M65.6359 248.136L64.5554 244.103" stroke="#42A0F0" stroke-linecap="round"/>
</g>
<g filter="url(#filter5_f_240_6388)">
<path d="M7.07562 172.374L7.07562 185.842" stroke="#42A0F0" stroke-linecap="round"/>
<path d="M6.74664 175.403L8.92564 174.314" stroke="#42A0F0" stroke-linecap="round"/>
<path d="M6.74664 175.403L3.47864 174.314" stroke="#42A0F0" stroke-linecap="round"/>
<path d="M6.74664 183.029L8.92564 184.118" stroke="#42A0F0" stroke-linecap="round"/>
<path d="M6.74664 183.029L3.47864 184.118" stroke="#42A0F0" stroke-linecap="round"/>
<path d="M12.8741 175.797L1.21052 182.531" stroke="#42A0F0" stroke-linecap="round"/>
<path d="M10.0097 177.419L13.2424 178.231" stroke="#42A0F0" stroke-linecap="round"/>
<path d="M10.0097 177.419L10.8859 174.149" stroke="#42A0F0" stroke-linecap="round"/>
<path d="M3.78906 181.011L2.8753 184.216" stroke="#42A0F0" stroke-linecap="round"/>
<path d="M3.78904 181.011L0.518776 180.135" stroke="#42A0F0" stroke-linecap="round"/>
<path d="M12.8101 182.531L1.14649 175.797" stroke="#42A0F0" stroke-linecap="round"/>
<path d="M9.97263 180.861L10.8864 184.067" stroke="#42A0F0" stroke-linecap="round"/>
<path d="M9.97266 180.861L13.2429 179.985" stroke="#42A0F0" stroke-linecap="round"/>
<path d="M3.75201 177.27L0.519249 178.081" stroke="#42A0F0" stroke-linecap="round"/>
<path d="M3.75204 177.27L2.87577 174" stroke="#42A0F0" stroke-linecap="round"/>
</g>
<defs>
<filter id="filter0_f_240_6388" x="21.4256" y="30.2209" width="203.282" height="214.103" filterUnits="userSpaceOnUse" color-interpolation-filters="sRGB">
<feFlood flood-opacity="0" result="BackgroundImageFix"/>
<feBlend mode="normal" in="SourceGraphic" in2="BackgroundImageFix" result="shape"/>
<feGaussianBlur stdDeviation="2" result="effect1_foregroundBlur_240_6388"/>
</filter>
<filter id="filter1_f_240_6388" x="45.8632" y="-1.5" width="15.6552" height="16.394" filterUnits="userSpaceOnUse" color-interpolation-filters="sRGB">
<feFlood flood-opacity="0" result="BackgroundImageFix"/>
<feBlend mode="normal" in="SourceGraphic" in2="BackgroundImageFix" result="shape"/>
<feGaussianBlur stdDeviation="0.5" result="effect1_foregroundBlur_240_6388"/>
</filter>
<filter id="filter2_f_240_6388" x="225.992" y="28.155" width="24.693" height="25.96" filterUnits="userSpaceOnUse" color-interpolation-filters="sRGB">
<feFlood flood-opacity="0" result="BackgroundImageFix"/>
<feBlend mode="normal" in="SourceGraphic" in2="BackgroundImageFix" result="shape"/>
<feGaussianBlur stdDeviation="0.5" result="effect1_foregroundBlur_240_6388"/>
</filter>
<filter id="filter3_f_240_6388" x="213.851" y="197.022" width="20.8094" height="21.85" filterUnits="userSpaceOnUse" color-interpolation-filters="sRGB">
<feFlood flood-opacity="0" result="BackgroundImageFix"/>
<feBlend mode="normal" in="SourceGraphic" in2="BackgroundImageFix" result="shape"/>
<feGaussianBlur stdDeviation="0.5" result="effect1_foregroundBlur_240_6388"/>
</filter>
<filter id="filter4_f_240_6388" x="60.1493" y="240.6" width="18.6888" height="19.605" filterUnits="userSpaceOnUse" color-interpolation-filters="sRGB">
<feFlood flood-opacity="0" result="BackgroundImageFix"/>
<feBlend mode="normal" in="SourceGraphic" in2="BackgroundImageFix" result="shape"/>
<feGaussianBlur stdDeviation="0.5" result="effect1_foregroundBlur_240_6388"/>
</filter>
<filter id="filter5_f_240_6388" x="-0.981323" y="170.874" width="15.7244" height="16.468" filterUnits="userSpaceOnUse" color-interpolation-filters="sRGB">
<feFlood flood-opacity="0" result="BackgroundImageFix"/>
<feBlend mode="normal" in="SourceGraphic" in2="BackgroundImageFix" result="shape"/>
<feGaussianBlur stdDeviation="0.5" result="effect1_foregroundBlur_240_6388"/>
</filter>
</defs>
</svg>
