<svg width="378" height="342" viewBox="0 0 378 342" fill="none" xmlns="http://www.w3.org/2000/svg">
<g filter="url(#filter0_f_240_5547)">
<path d="M103.148 213.763C157.548 213.763 201.648 169.439 201.648 114.763C201.648 60.0868 157.548 15.763 103.148 15.763C48.7479 15.763 4.64795 60.0868 4.64795 114.763C4.64795 169.439 48.7479 213.763 103.148 213.763Z" fill="#FA9E42"/>
<g filter="url(#filter1_f_240_5547)">
<path d="M96.0304 100.684C128.767 83.2963 147.077 53.7096 136.928 34.6003C126.778 15.4911 92.0115 14.0956 59.2749 31.4835C26.5383 48.8713 8.22801 78.4581 18.3778 97.5673C28.5275 116.677 63.2938 118.072 96.0304 100.684Z" fill="#F8E36F"/>
</g>
<path d="M102.818 288.937C104.418 288.955 120.636 314.278 120.636 324.119C120.636 328.845 118.759 333.377 115.417 336.718C112.076 340.06 107.544 341.937 102.818 341.937C98.0924 341.937 93.5603 340.06 90.2188 336.718C86.8772 333.377 85 328.845 85 324.119C85 314.279 101.219 288.919 102.818 288.937Z" fill="#42A0F0"/>
<path d="M89.2331 330.779C91.0135 331.323 93.2763 329.084 94.2871 325.778C95.2979 322.471 94.674 319.35 92.8936 318.806C91.1132 318.261 88.8505 320.5 87.8397 323.806C86.8289 327.113 87.4527 330.234 89.2331 330.779Z" fill="white"/>
<path d="M195.818 288.937C197.418 288.955 213.636 314.278 213.636 324.119C213.636 328.845 211.759 333.377 208.417 336.718C205.076 340.06 200.544 341.937 195.818 341.937C191.092 341.937 186.56 340.06 183.219 336.718C179.877 333.377 178 328.845 178 324.119C178 314.279 194.219 288.919 195.818 288.937Z" fill="#42A0F0"/>
<path d="M182.233 330.779C184.014 331.323 186.276 329.084 187.287 325.778C188.298 322.471 187.674 319.35 185.894 318.806C184.113 318.261 181.85 320.5 180.84 323.806C179.829 327.113 180.453 330.234 182.233 330.779Z" fill="white"/>
<path d="M288.818 288.937C290.418 288.955 306.636 314.278 306.636 324.119C306.636 328.845 304.759 333.377 301.417 336.718C298.076 340.06 293.544 341.937 288.818 341.937C284.092 341.937 279.56 340.06 276.219 336.718C272.877 333.377 271 328.845 271 324.119C271 314.279 287.219 288.919 288.818 288.937Z" fill="#42A0F0"/>
<path d="M275.233 330.779C277.014 331.323 279.276 329.084 280.287 325.778C281.298 322.471 280.674 319.35 278.894 318.806C277.113 318.261 274.85 320.5 273.84 323.806C272.829 327.113 273.453 330.234 275.233 330.779Z" fill="white"/>
<path d="M149.818 210.937C151.418 210.955 167.636 236.278 167.636 246.119C167.636 250.845 165.759 255.377 162.417 258.718C159.076 262.06 154.544 263.937 149.818 263.937C145.092 263.937 140.56 262.06 137.219 258.718C133.877 255.377 132 250.845 132 246.119C132 236.279 148.219 210.919 149.818 210.937Z" fill="#42A0F0"/>
<path d="M136.233 252.779C138.014 253.323 140.276 251.084 141.287 247.778C142.298 244.471 141.674 241.35 139.894 240.806C138.113 240.261 135.85 242.5 134.84 245.806C133.829 249.113 134.453 252.234 136.233 252.779Z" fill="white"/>
<path d="M247.818 210.937C249.418 210.955 265.636 236.278 265.636 246.119C265.636 250.845 263.759 255.377 260.417 258.718C257.076 262.06 252.544 263.937 247.818 263.937C243.092 263.937 238.56 262.06 235.219 258.718C231.877 255.377 230 250.845 230 246.119C230 236.279 246.219 210.919 247.818 210.937Z" fill="#42A0F0"/>
<path d="M234.233 252.779C236.014 253.323 238.276 251.084 239.287 247.778C240.298 244.471 239.674 241.35 237.894 240.806C236.113 240.261 233.85 242.5 232.84 245.806C231.829 249.113 232.453 252.234 234.233 252.779Z" fill="white"/>
<g filter="url(#filter2_d_240_5547)">
<path d="M287.998 277.937H96.5661C77.9957 277.923 60.1507 270.726 46.7668 257.852C33.3829 244.978 25.4978 227.426 24.7623 208.87C24.0268 190.314 30.4978 172.193 42.8208 158.301C55.1437 144.408 72.3631 135.821 90.8741 134.337C93.5139 115.697 101.931 98.3537 114.942 84.747C127.952 71.1403 144.902 61.955 163.405 58.4834C181.908 55.0118 201.034 57.4286 218.092 65.3937C235.15 73.3589 249.281 86.4716 258.498 102.887C275.403 97.035 293.668 96.3513 310.964 100.923C328.259 105.495 343.801 115.115 355.606 128.556C367.412 141.997 374.946 158.65 377.248 176.39C379.549 194.131 376.515 212.155 368.53 228.164C363.845 242.627 354.698 255.235 342.402 264.177C330.106 273.119 315.294 277.936 300.09 277.937H287.998Z" fill="url(#paint0_linear_240_5547)"/>
<path d="M300.09 276.937C307.809 276.937 315.399 275.704 322.649 273.273C329.659 270.922 336.241 267.492 342.21 263.077C348.112 258.713 353.284 253.485 357.586 247.539C361.94 241.519 365.302 234.897 367.578 227.856L367.602 227.784L367.636 227.716C370.663 221.668 372.994 215.27 374.564 208.7C376.179 201.94 376.998 194.954 376.998 187.937C376.998 181.897 376.39 175.862 375.19 169.999C374.021 164.285 372.276 158.665 370.005 153.294C367.774 148.021 365.014 142.935 361.799 138.177C358.615 133.464 354.959 129.032 350.931 125.004C346.903 120.976 342.471 117.32 337.758 114.136C333 110.921 327.914 108.161 322.641 105.93C317.27 103.659 311.65 101.914 305.936 100.745C300.073 99.5449 294.038 98.9365 287.998 98.9365C277.999 98.9365 268.184 100.582 258.825 103.828L258.036 104.102L257.626 103.373C250.01 89.8312 238.932 78.4586 225.59 70.4848C218.842 66.4522 211.593 63.336 204.044 61.2227C196.255 59.0425 188.165 57.937 179.998 57.937C169.014 57.937 158.291 59.914 148.128 63.8131C138.31 67.5797 129.303 73.0207 121.358 79.985C113.459 86.9092 106.904 95.0792 101.874 104.268C96.7216 113.682 93.3537 123.844 91.8643 134.472L91.7529 135.267L90.9521 135.33C81.9939 136.031 73.375 138.39 65.3349 142.34C57.5224 146.179 50.5463 151.371 44.6001 157.771C32.3819 170.924 25.6531 188.06 25.6531 206.024C25.6531 215.597 27.5278 224.884 31.2253 233.626C33.0025 237.828 35.2022 241.88 37.7633 245.671C40.3003 249.426 43.2138 252.957 46.423 256.167C49.6322 259.376 53.1634 262.289 56.9186 264.826C60.7095 267.387 64.7621 269.587 68.9637 271.364C77.7055 275.062 86.9922 276.937 96.5658 276.937H287.998H300.09ZM300.09 277.937H287.998H96.5658C56.8497 277.937 24.6531 245.74 24.6531 206.024C24.6531 168.223 53.8177 137.234 90.874 134.333C97.0035 90.5944 134.57 56.937 179.998 56.937C213.701 56.937 243.075 75.4601 258.498 102.883C267.74 99.6776 277.665 97.9365 287.998 97.9365C337.704 97.9365 377.998 138.231 377.998 187.937C377.998 202.396 374.589 216.058 368.53 228.164C359.193 257.046 332.081 277.937 300.09 277.937Z" fill="white" fill-opacity="0.5"/>
</g>
</g>
<defs>
<filter id="filter0_f_240_5547" x="0.647949" y="11.763" width="381.351" height="334.174" filterUnits="userSpaceOnUse" color-interpolation-filters="sRGB">
<feFlood flood-opacity="0" result="BackgroundImageFix"/>
<feBlend mode="normal" in="SourceGraphic" in2="BackgroundImageFix" result="shape"/>
<feGaussianBlur stdDeviation="2" result="effect1_foregroundBlur_240_5547"/>
</filter>
<filter id="filter1_f_240_5547" x="-4.42236" y="-0.696777" width="164.15" height="133.561" filterUnits="userSpaceOnUse" color-interpolation-filters="sRGB">
<feFlood flood-opacity="0" result="BackgroundImageFix"/>
<feBlend mode="normal" in="SourceGraphic" in2="BackgroundImageFix" result="shape"/>
<feGaussianBlur stdDeviation="10" result="effect1_foregroundBlur_240_5547"/>
</filter>
<filter id="filter2_d_240_5547" x="4.65308" y="28.937" width="413.345" height="281" filterUnits="userSpaceOnUse" color-interpolation-filters="sRGB">
<feFlood flood-opacity="0" result="BackgroundImageFix"/>
<feColorMatrix in="SourceAlpha" type="matrix" values="0 0 0 0 0 0 0 0 0 0 0 0 0 0 0 0 0 0 127 0" result="hardAlpha"/>
<feOffset dx="10" dy="2"/>
<feGaussianBlur stdDeviation="15"/>
<feColorMatrix type="matrix" values="0 0 0 0 0.258824 0 0 0 0 0.627451 0 0 0 0 0.941176 0 0 0 0.596 0"/>
<feBlend mode="normal" in2="BackgroundImageFix" result="effect1_dropShadow_240_5547"/>
<feBlend mode="normal" in="SourceGraphic" in2="effect1_dropShadow_240_5547" result="shape"/>
</filter>
<linearGradient id="paint0_linear_240_5547" x1="201.351" y1="56.9395" x2="303.994" y2="305.103" gradientUnits="userSpaceOnUse">
<stop stop-color="white" stop-opacity="0.604"/>
<stop offset="1" stop-color="white" stop-opacity="0.2"/>
</linearGradient>
</defs>
</svg>
