<svg width="379" height="342" viewBox="0 0 379 342" fill="none" xmlns="http://www.w3.org/2000/svg">
<g filter="url(#filter0_f_240_5799)">
<path d="M134.686 259.313C134.686 259.313 271.775 260.627 301.456 252.007C331.137 243.387 331.099 198.649 301.456 187.621C271.813 176.593 261.682 216.012 261.682 216.012" stroke="#D0D0D0" stroke-width="20" stroke-linecap="round"/>
<path d="M89.709 305.33C89.709 305.33 190.317 296.24 234.67 305.33C279.023 314.42 264.9 340.497 243.88 341.689C222.86 342.881 203.463 329.069 203.463 329.069" stroke="#D0D0D0" stroke-width="20" stroke-linecap="round"/>
<path d="M303.846 305.263H343.846" stroke="#D0D0D0" stroke-width="20" stroke-linecap="round"/>
<path d="M103.148 213.763C157.548 213.763 201.648 169.439 201.648 114.763C201.648 60.0868 157.548 15.763 103.148 15.763C48.7479 15.763 4.64799 60.0868 4.64799 114.763C4.64799 169.439 48.7479 213.763 103.148 213.763Z" fill="#FA9E42"/>
<g filter="url(#filter1_f_240_5799)">
<path d="M96.0304 100.684C128.767 83.2963 147.077 53.7096 136.928 34.6003C126.778 15.4911 92.0115 14.0956 59.2749 31.4835C26.5383 48.8713 8.22801 78.4581 18.3778 97.5673C28.5275 116.677 63.2938 118.072 96.0304 100.684Z" fill="#F8E36F"/>
</g>
<g filter="url(#filter2_d_240_5799)">
<path d="M288.345 280.764H96.913C78.3426 280.75 60.4975 273.553 47.1136 260.679C33.7297 247.805 25.8447 230.253 25.1092 211.697C24.3737 193.141 30.8447 175.02 43.1676 161.128C55.4906 147.235 72.71 138.648 91.221 137.164C93.8608 118.524 102.278 101.181 115.289 87.5739C128.299 73.9672 145.248 64.782 163.752 61.3104C182.255 57.8388 201.381 60.2555 218.439 68.2207C235.497 76.1859 249.628 89.2986 258.845 105.714C275.75 99.862 294.015 99.1782 311.311 103.75C328.606 108.322 344.148 117.942 355.953 131.383C367.758 144.824 375.293 161.477 377.594 179.217C379.896 196.958 376.861 214.982 368.877 230.991C364.191 245.454 355.044 258.062 342.749 267.004C330.453 275.946 315.641 280.763 300.437 280.764H288.345Z" fill="url(#paint0_linear_240_5799)"/>
<path d="M300.437 279.764C308.156 279.764 315.746 278.531 322.996 276.1C330.006 273.749 336.588 270.319 342.557 265.904C348.458 261.54 353.631 256.312 357.932 250.366C362.287 244.346 365.649 237.724 367.925 230.683L367.949 230.611L367.983 230.543C371.01 224.495 373.341 218.097 374.911 211.527C376.526 204.767 377.345 197.781 377.345 190.763C377.345 184.724 376.737 178.689 375.537 172.826C374.368 167.112 372.623 161.492 370.352 156.121C368.121 150.848 365.36 145.761 362.146 141.004C358.962 136.291 355.305 131.859 351.278 127.831C347.25 123.803 342.818 120.147 338.105 116.963C333.347 113.748 328.261 110.988 322.988 108.757C317.617 106.486 311.997 104.741 306.283 103.572C300.42 102.372 294.385 101.763 288.345 101.763C278.346 101.763 268.531 103.409 259.172 106.655L258.383 106.929L257.973 106.2C250.357 92.6582 239.279 81.2856 225.937 73.3118C219.189 69.2792 211.94 66.163 204.391 64.0497C196.602 61.8694 188.512 60.764 180.345 60.764C169.361 60.764 158.638 62.741 148.475 66.64C138.657 70.4067 129.65 75.8477 121.705 82.812C113.806 89.7362 107.251 97.9062 102.221 107.095C97.0685 116.509 93.7006 126.671 92.2113 137.299L92.0998 138.094L91.299 138.157C82.3408 138.858 73.7219 141.217 65.6818 145.167C57.8694 149.006 50.8932 154.198 44.947 160.598C32.7289 173.751 26 190.887 26 208.851C26 218.424 27.8748 227.711 31.5723 236.453C33.3495 240.654 35.5492 244.707 38.1102 248.498C40.6472 252.253 43.5607 255.784 46.7699 258.994C49.9791 262.203 53.5104 265.116 57.2655 267.653C61.0565 270.214 65.109 272.414 69.3107 274.191C78.0525 277.889 87.3392 279.764 96.9127 279.764H288.345H300.437ZM300.437 280.764H288.345H96.9127C57.1966 280.764 25 248.567 25 208.851C25 171.05 54.1647 140.061 91.221 137.16C97.3504 93.4213 134.917 59.764 180.345 59.764C214.048 59.764 243.422 78.2871 258.845 105.71C268.087 102.505 278.012 100.763 288.345 100.763C338.051 100.763 378.345 141.058 378.345 190.763C378.345 205.223 374.936 218.885 368.877 230.991C359.54 259.873 332.427 280.764 300.437 280.764Z" fill="white" fill-opacity="0.5"/>
</g>
</g>
<defs>
<filter id="filter0_f_240_5799" x="0.647995" y="11.763" width="381.697" height="343.999" filterUnits="userSpaceOnUse" color-interpolation-filters="sRGB">
<feFlood flood-opacity="0" result="BackgroundImageFix"/>
<feBlend mode="normal" in="SourceGraphic" in2="BackgroundImageFix" result="shape"/>
<feGaussianBlur stdDeviation="2" result="effect1_foregroundBlur_240_5799"/>
</filter>
<filter id="filter1_f_240_5799" x="-4.42236" y="-0.696777" width="164.15" height="133.561" filterUnits="userSpaceOnUse" color-interpolation-filters="sRGB">
<feFlood flood-opacity="0" result="BackgroundImageFix"/>
<feBlend mode="normal" in="SourceGraphic" in2="BackgroundImageFix" result="shape"/>
<feGaussianBlur stdDeviation="10" result="effect1_foregroundBlur_240_5799"/>
</filter>
<filter id="filter2_d_240_5799" x="5.00002" y="31.764" width="413.345" height="281" filterUnits="userSpaceOnUse" color-interpolation-filters="sRGB">
<feFlood flood-opacity="0" result="BackgroundImageFix"/>
<feColorMatrix in="SourceAlpha" type="matrix" values="0 0 0 0 0 0 0 0 0 0 0 0 0 0 0 0 0 0 127 0" result="hardAlpha"/>
<feOffset dx="10" dy="2"/>
<feGaussianBlur stdDeviation="15"/>
<feColorMatrix type="matrix" values="0 0 0 0 0.258824 0 0 0 0 0.627451 0 0 0 0 0.941176 0 0 0 0.596 0"/>
<feBlend mode="normal" in2="BackgroundImageFix" result="effect1_dropShadow_240_5799"/>
<feBlend mode="normal" in="SourceGraphic" in2="effect1_dropShadow_240_5799" result="shape"/>
</filter>
<linearGradient id="paint0_linear_240_5799" x1="201.698" y1="59.7665" x2="304.341" y2="307.93" gradientUnits="userSpaceOnUse">
<stop stop-color="white" stop-opacity="0.604"/>
<stop offset="1" stop-color="white" stop-opacity="0.2"/>
</linearGradient>
</defs>
</svg>
