<svg width="393" height="341" viewBox="0 0 393 341" fill="none" xmlns="http://www.w3.org/2000/svg">
<g filter="url(#filter0_f_240_5146)">
<path d="M123.701 217.359C124.332 217.377 130.736 242.607 130.736 252.411C130.736 262.215 127.586 270.164 123.701 270.164C119.816 270.164 116.666 262.216 116.666 252.412C116.666 242.608 123.066 217.342 123.701 217.359Z" fill="#42A0F0"/>
<path d="M122.628 246.781C123.656 247.138 123.968 249.358 123.326 251.742C122.684 254.125 121.33 255.767 120.302 255.411C119.274 255.055 118.961 252.833 119.604 250.45C120.247 248.067 121.599 246.425 122.628 246.781Z" fill="white"/>
<path d="M183.632 217.359C184.263 217.377 190.667 242.607 190.667 252.411C190.667 262.215 187.517 270.164 183.632 270.164C179.747 270.164 176.597 262.216 176.597 252.412C176.597 242.608 182.997 217.342 183.632 217.359Z" fill="#42A0F0"/>
<path d="M182.559 246.781C183.587 247.138 183.899 249.358 183.257 251.742C182.615 254.125 181.261 255.767 180.233 255.411C179.206 255.055 178.892 252.833 179.535 250.45C180.178 248.067 181.53 246.425 182.559 246.781Z" fill="white"/>
<path d="M243.563 217.359C244.194 217.377 250.598 242.607 250.598 252.411C250.598 262.215 247.448 270.164 243.563 270.164C239.678 270.164 236.528 262.216 236.528 252.412C236.528 242.608 242.928 217.342 243.563 217.359Z" fill="#42A0F0"/>
<path d="M242.49 246.781C243.518 247.138 243.83 249.358 243.188 251.742C242.546 254.125 241.192 255.767 240.164 255.411C239.137 255.055 238.823 252.833 239.466 250.45C240.109 248.067 241.461 246.425 242.49 246.781Z" fill="white"/>
<path d="M303.494 214.359C304.125 214.377 310.529 239.607 310.529 249.411C310.529 259.215 307.379 267.164 303.494 267.164C299.609 267.164 296.459 259.216 296.459 249.412C296.459 239.608 302.859 214.342 303.494 214.359Z" fill="#42A0F0"/>
<path d="M302.421 243.781C303.449 244.138 303.761 246.358 303.119 248.742C302.477 251.125 301.123 252.767 300.095 252.411C299.068 252.055 298.755 249.833 299.397 247.45C300.04 245.067 301.393 243.425 302.421 243.781Z" fill="white"/>
<path d="M211.834 284.359C212.465 284.377 218.869 309.607 218.869 319.411C218.869 329.215 215.719 337.164 211.834 337.164C207.949 337.164 204.799 329.216 204.799 319.412C204.799 309.608 211.199 284.342 211.834 284.359Z" fill="#42A0F0"/>
<path d="M210.761 313.781C211.789 314.138 212.101 316.358 211.459 318.742C210.817 321.125 209.463 322.767 208.435 322.411C207.408 322.055 207.094 319.833 207.737 317.45C208.38 315.067 209.732 313.425 210.761 313.781Z" fill="white"/>
<path d="M271.765 284.359C272.396 284.377 278.8 309.607 278.8 319.411C278.8 329.215 275.65 337.164 271.765 337.164C267.88 337.164 264.73 329.216 264.73 319.412C264.73 309.608 271.13 284.342 271.765 284.359Z" fill="#42A0F0"/>
<path d="M270.692 313.781C271.72 314.138 272.032 316.358 271.39 318.742C270.748 321.125 269.394 322.767 268.366 322.411C267.339 322.055 267.026 319.833 267.668 317.45C268.311 315.067 269.664 313.425 270.692 313.781Z" fill="white"/>
<path d="M335.222 284.359C335.853 284.377 342.257 309.607 342.257 319.411C342.257 329.215 339.107 337.164 335.222 337.164C331.337 337.164 328.187 329.216 328.187 319.412C328.187 309.608 334.587 284.342 335.222 284.359Z" fill="#42A0F0"/>
<path d="M334.149 313.781C335.177 314.138 335.489 316.358 334.847 318.742C334.206 321.125 332.851 322.767 331.824 322.411C330.796 322.055 330.483 319.833 331.125 317.45C331.768 315.067 333.121 313.425 334.149 313.781Z" fill="white"/>
<path d="M151.904 287.359C152.535 287.377 158.939 312.607 158.939 322.411C158.939 332.215 155.789 340.164 151.904 340.164C148.019 340.164 144.869 332.216 144.869 322.412C144.869 312.608 151.269 287.342 151.904 287.359Z" fill="#42A0F0"/>
<path d="M150.831 316.781C151.859 317.138 152.171 319.358 151.529 321.742C150.887 324.125 149.533 325.767 148.505 325.411C147.478 325.055 147.164 322.833 147.807 320.45C148.45 318.067 149.802 316.425 150.831 316.781Z" fill="white"/>
<path d="M95.4979 284.359C96.1289 284.377 102.533 309.607 102.533 319.411C102.533 329.215 99.3829 337.164 95.4979 337.164C91.6129 337.164 88.4629 329.216 88.4629 319.412C88.4629 309.608 94.8629 284.342 95.4979 284.359Z" fill="#42A0F0"/>
<path d="M94.4252 313.781C95.4527 314.138 95.7652 316.358 95.1233 318.742C94.4814 321.125 93.1272 322.767 92.0994 322.411C91.0716 322.055 90.7584 319.833 91.4013 317.45C92.0442 315.067 93.3964 313.425 94.4252 313.781Z" fill="white"/>
<path d="M103.268 5.72324C110.278 5.72148 117.27 6.42975 124.137 7.83723C137.39 10.5669 149.974 15.8889 161.164 23.4972C176.667 34.0049 189.053 48.4947 197.021 65.4437C204.989 82.3927 208.244 101.175 206.444 119.817C204.644 138.459 197.856 156.271 186.793 171.383C175.73 186.495 160.801 198.347 143.574 205.695C137.312 208.356 130.8 210.388 124.136 211.76C109.685 214.69 94.7754 214.508 80.4005 211.224C66.0257 207.941 52.5155 201.632 40.77 192.718C29.0244 183.804 19.3132 172.489 12.2832 159.528C5.25319 146.566 1.06578 132.256 -7.62939e-05 117.549C11.3314 120.201 23.1023 120.372 34.5059 118.049C44.7389 115.954 54.4592 111.863 63.1119 106.012C75.9742 97.329 86.0422 85.1018 92.0959 70.8122C94.1414 65.9727 95.7027 60.9425 96.7569 55.7952C99.004 44.7666 98.9209 33.3899 96.5129 22.3952C95.3016 16.8975 93.5102 11.5439 91.1689 6.42424C95.185 5.95689 99.2248 5.72282 103.268 5.72324Z" fill="#713FFD"/>
<g filter="url(#filter1_f_240_5146)">
<path d="M173.339 37.8963C150.095 16.9668 119.644 12.8915 105.325 28.7939C91.0065 44.6964 98.2424 74.5545 121.487 95.484C144.732 116.414 175.182 120.489 189.501 104.586C203.82 88.6839 196.584 58.8258 173.339 37.8963Z" fill="#A586FC"/>
</g>
<g filter="url(#filter2_d_240_5146)">
<path d="M302.345 277.002H110.913C92.3426 276.988 74.4976 269.791 61.1137 256.917C47.7298 244.043 39.8447 226.491 39.1092 207.936C38.3737 189.38 44.8448 171.259 57.1677 157.366C69.4906 143.473 86.71 134.886 105.221 133.402C107.861 114.762 116.278 97.4189 129.289 83.8122C142.299 70.2055 159.248 61.0202 177.752 57.5486C196.255 54.077 215.381 56.4938 232.439 64.459C249.497 72.4242 263.628 85.5368 272.845 101.952C289.75 96.1004 308.015 95.4165 325.31 99.9879C342.605 104.559 358.146 114.179 369.952 127.619C381.757 141.06 389.292 157.712 391.594 175.452C393.896 193.192 390.862 211.216 382.879 227.225C378.194 241.69 369.047 254.299 356.751 263.242C344.455 272.184 329.641 277.002 314.437 277.002H302.345Z" fill="url(#paint0_linear_240_5146)"/>
<path d="M314.437 276.002C322.157 276.002 329.748 274.769 336.998 272.338C344.009 269.987 350.59 266.556 356.56 262.141C362.462 257.777 367.635 252.549 371.936 246.603C376.29 240.582 379.652 233.959 381.928 226.917L381.951 226.845L381.985 226.777C385.011 220.73 387.341 214.333 388.911 207.763C390.526 201.002 391.345 194.017 391.345 187.002C391.345 180.963 390.737 174.928 389.537 169.064C388.368 163.35 386.623 157.73 384.352 152.359C382.121 147.086 379.361 142 376.146 137.242C372.962 132.529 369.306 128.097 365.278 124.069C361.25 120.042 356.819 116.385 352.106 113.201C347.348 109.987 342.261 107.226 336.988 104.995C331.617 102.724 325.997 100.979 320.283 99.8099C314.42 98.6101 308.385 98.0017 302.345 98.0017C292.346 98.0017 282.531 99.6474 273.172 102.893L272.383 103.167L271.973 102.438C264.357 88.8965 253.279 77.5239 239.937 69.5501C233.189 65.5175 225.94 62.4012 218.391 60.2879C210.602 58.1077 202.512 57.0022 194.345 57.0022C183.361 57.0022 172.638 58.9792 162.475 62.8782C152.657 66.6449 143.65 72.0859 135.705 79.0502C127.806 85.9744 121.251 94.1444 116.221 103.333C111.069 112.747 107.701 122.909 106.211 133.537L106.1 134.333L105.299 134.395C96.3408 135.096 87.7219 137.455 79.6818 141.405C71.8694 145.244 64.8932 150.436 58.947 156.837C46.7289 169.989 40 187.125 40 205.089C40 214.663 41.8748 223.949 45.5723 232.691C47.3495 236.893 49.5491 240.945 52.1102 244.736C54.6472 248.491 57.5607 252.023 60.7699 255.232C63.9791 258.441 67.5104 261.355 71.2655 263.892C75.0565 266.453 79.109 268.652 83.3106 270.429C92.0525 274.127 101.339 276.002 110.913 276.002H302.345H314.437ZM314.437 277.002H302.345H110.913C71.1966 277.002 39 244.805 39 205.089C39 167.288 68.1646 136.299 105.221 133.398C111.35 89.6596 148.917 56.0022 194.345 56.0022C228.048 56.0022 257.422 74.5254 272.845 101.948C282.087 98.7429 292.012 97.0017 302.345 97.0017C352.051 97.0017 392.345 137.297 392.345 187.002C392.345 201.458 388.936 215.121 382.879 227.225C373.544 256.11 346.431 277.002 314.437 277.002Z" fill="white" fill-opacity="0.5"/>
</g>
</g>
<defs>
<filter id="filter0_f_240_5146" x="-4" y="1.72327" width="400.345" height="342.441" filterUnits="userSpaceOnUse" color-interpolation-filters="sRGB">
<feFlood flood-opacity="0" result="BackgroundImageFix"/>
<feBlend mode="normal" in="SourceGraphic" in2="BackgroundImageFix" result="shape"/>
<feGaussianBlur stdDeviation="2" result="effect1_foregroundBlur_240_5146"/>
</filter>
<filter id="filter1_f_240_5146" x="77.9736" y="-0.906616" width="138.879" height="135.194" filterUnits="userSpaceOnUse" color-interpolation-filters="sRGB">
<feFlood flood-opacity="0" result="BackgroundImageFix"/>
<feBlend mode="normal" in="SourceGraphic" in2="BackgroundImageFix" result="shape"/>
<feGaussianBlur stdDeviation="10" result="effect1_foregroundBlur_240_5146"/>
</filter>
<filter id="filter2_d_240_5146" x="19" y="28.0022" width="413.345" height="281" filterUnits="userSpaceOnUse" color-interpolation-filters="sRGB">
<feFlood flood-opacity="0" result="BackgroundImageFix"/>
<feColorMatrix in="SourceAlpha" type="matrix" values="0 0 0 0 0 0 0 0 0 0 0 0 0 0 0 0 0 0 127 0" result="hardAlpha"/>
<feOffset dx="10" dy="2"/>
<feGaussianBlur stdDeviation="15"/>
<feColorMatrix type="matrix" values="0 0 0 0 0.258824 0 0 0 0 0.627451 0 0 0 0 0.941176 0 0 0 0.596 0"/>
<feBlend mode="normal" in2="BackgroundImageFix" result="effect1_dropShadow_240_5146"/>
<feBlend mode="normal" in="SourceGraphic" in2="effect1_dropShadow_240_5146" result="shape"/>
</filter>
<linearGradient id="paint0_linear_240_5146" x1="215.698" y1="56.0048" x2="318.341" y2="304.169" gradientUnits="userSpaceOnUse">
<stop stop-color="white" stop-opacity="0.604"/>
<stop offset="1" stop-color="white" stop-opacity="0.2"/>
</linearGradient>
</defs>
</svg>
