<svg width="379" height="338" viewBox="0 0 379 338" fill="none" xmlns="http://www.w3.org/2000/svg">
<g filter="url(#filter0_f_240_4898)">
<path d="M228.429 250.955C228.429 250.955 298.555 253.115 326.455 245.013C356.136 236.393 356.098 191.655 326.455 180.627C296.812 169.599 286.681 209.018 286.681 209.018" stroke="#D0D0D0" stroke-width="20" stroke-linecap="round"/>
<path d="M185.129 294.617C185.129 294.617 215.317 289.247 259.67 298.336C304.023 307.425 289.9 333.503 268.88 334.695C247.86 335.887 228.463 322.075 228.463 322.075" stroke="#D0D0D0" stroke-width="20" stroke-linecap="round"/>
<path d="M328.845 298.269H368.845" stroke="#D0D0D0" stroke-width="20" stroke-linecap="round"/>
<path d="M128.144 228.542C125.948 228.571 103.668 263.353 103.668 276.871C103.668 283.362 106.247 289.588 110.837 294.178C115.427 298.768 121.653 301.347 128.144 301.347C134.635 301.347 140.861 298.768 145.451 294.178C150.041 289.588 152.62 283.362 152.62 276.871C152.62 263.353 130.34 228.518 128.144 228.542Z" fill="#42A0F0"/>
<path d="M141.777 269.572C139.331 270.319 138.474 274.608 139.862 279.15C141.251 283.692 144.359 286.768 146.805 286.02C149.251 285.272 150.108 280.984 148.72 276.442C147.331 271.9 144.222 268.824 141.777 269.572Z" fill="white"/>
<path d="M62.2 277.629C60.388 277.649 42 306.358 42 317.516C42 322.873 44.1282 328.011 47.9164 331.799C51.7047 335.588 56.8426 337.716 62.2 337.716C67.5574 337.716 72.6953 335.588 76.4836 331.799C80.2718 328.011 82.4 322.873 82.4 317.516C82.4 306.358 64.013 277.609 62.2 277.629Z" fill="#42A0F0"/>
<path d="M73.4521 311.493C71.4335 312.11 70.7261 315.649 71.872 319.397C73.018 323.145 75.5834 325.684 77.602 325.066C79.6206 324.449 80.328 320.91 79.182 317.162C78.0361 313.414 75.4707 310.875 73.4521 311.493Z" fill="white"/>
<path d="M94.698 196.252C144.642 196.252 185.129 155.559 185.129 105.362C185.129 55.1648 144.642 14.4719 94.698 14.4719C44.7543 14.4719 4.267 55.1648 4.267 105.362C4.267 155.559 44.7543 196.252 94.698 196.252Z" fill="#FA9E42"/>
<g filter="url(#filter1_f_240_4898)">
<path d="M88.1638 92.4362C118.219 76.4727 135.029 49.3097 125.711 31.7658C116.393 14.222 84.4742 12.9409 54.4193 28.9044C24.3643 44.8679 7.55397 72.0309 16.8723 89.5748C26.1906 107.119 58.1089 108.4 88.1638 92.4362Z" fill="#F8E36F"/>
</g>
<g filter="url(#filter2_d_240_4898)">
<path d="M288.344 274.769H96.912C78.3416 274.755 60.4965 267.558 47.1126 254.684C33.7287 241.81 25.8437 224.258 25.1082 205.702C24.3726 187.146 30.8437 169.025 43.1666 155.133C55.4896 141.24 72.709 132.653 91.22 131.169C93.8598 112.529 102.277 95.1856 115.288 81.5789C128.298 67.9722 145.247 58.787 163.751 55.3154C182.254 51.8438 201.38 54.2605 218.438 62.2257C235.496 70.1909 249.627 83.3036 258.844 99.719C275.749 93.867 294.014 93.1833 311.31 97.7549C328.605 102.327 344.147 111.947 355.952 125.388C367.757 138.829 375.292 155.482 377.593 173.222C379.895 190.963 376.86 208.987 368.876 224.996C364.19 239.459 355.043 252.067 342.748 261.009C330.452 269.951 315.64 274.768 300.436 274.769H288.344Z" fill="url(#paint0_linear_240_4898)"/>
<path d="M300.436 273.769C308.155 273.769 315.745 272.536 322.995 270.105C330.005 267.754 336.587 264.324 342.556 259.909C348.457 255.545 353.63 250.317 357.931 244.371C362.286 238.351 365.648 231.729 367.924 224.688L367.948 224.616L367.982 224.548C371.009 218.5 373.34 212.102 374.91 205.532C376.525 198.772 377.344 191.786 377.344 184.769C377.344 178.729 376.736 172.694 375.536 166.831C374.367 161.117 372.622 155.497 370.351 150.126C368.12 144.853 365.359 139.767 362.145 135.009C358.961 130.296 355.304 125.864 351.277 121.836C347.249 117.808 342.817 114.152 338.104 110.968C333.346 107.753 328.26 104.993 322.987 102.762C317.616 100.491 311.996 98.7459 306.282 97.5767C300.419 96.3769 294.383 95.7685 288.344 95.7685C278.345 95.7685 268.53 97.4142 259.171 100.66L258.382 100.934L257.972 100.205C250.356 86.6633 239.278 75.2907 225.936 67.3169C219.188 63.2843 211.939 60.168 204.39 58.0547C196.601 55.8745 188.511 54.769 180.344 54.769C169.36 54.769 158.637 56.746 148.474 60.6451C138.656 64.4117 129.649 69.8528 121.704 76.817C113.805 83.7413 107.25 91.9112 102.22 101.1C97.0675 110.514 93.6996 120.676 92.2103 131.304L92.0988 132.099L91.298 132.162C82.3398 132.863 73.7209 135.222 65.6808 139.172C57.8684 143.011 50.8922 148.203 44.946 154.603C32.7279 167.756 25.999 184.892 25.999 202.856C25.999 212.429 27.8738 221.716 31.5713 230.458C33.3485 234.66 35.5481 238.712 38.1092 242.503C40.6462 246.258 43.5597 249.789 46.7689 252.999C49.9781 256.208 53.5094 259.121 57.2645 261.658C61.0555 264.219 65.108 266.419 69.3096 268.196C78.0515 271.894 87.3381 273.769 96.9117 273.769H288.344H300.436ZM300.436 274.769H288.344H96.9117C57.1956 274.769 24.999 242.572 24.999 202.856C24.999 165.055 54.1636 134.066 91.22 131.165C97.3494 87.4264 134.916 53.769 180.344 53.769C214.047 53.769 243.421 72.2922 258.844 99.715C268.086 96.5096 278.011 94.7685 288.344 94.7685C338.05 94.7685 378.344 135.063 378.344 184.769C378.344 199.228 374.935 212.89 368.876 224.996C359.539 253.878 332.426 274.769 300.436 274.769Z" fill="white" fill-opacity="0.5"/>
</g>
</g>
<defs>
<filter id="filter0_f_240_4898" x="0.266998" y="10.4719" width="382.578" height="338.296" filterUnits="userSpaceOnUse" color-interpolation-filters="sRGB">
<feFlood flood-opacity="0" result="BackgroundImageFix"/>
<feBlend mode="normal" in="SourceGraphic" in2="BackgroundImageFix" result="shape"/>
<feGaussianBlur stdDeviation="2" result="effect1_foregroundBlur_240_4898"/>
</filter>
<filter id="filter1_f_240_4898" x="-5.69847" y="-2.27808" width="153.98" height="125.897" filterUnits="userSpaceOnUse" color-interpolation-filters="sRGB">
<feFlood flood-opacity="0" result="BackgroundImageFix"/>
<feBlend mode="normal" in="SourceGraphic" in2="BackgroundImageFix" result="shape"/>
<feGaussianBlur stdDeviation="10" result="effect1_foregroundBlur_240_4898"/>
</filter>
<filter id="filter2_d_240_4898" x="4.99901" y="25.769" width="413.345" height="281" filterUnits="userSpaceOnUse" color-interpolation-filters="sRGB">
<feFlood flood-opacity="0" result="BackgroundImageFix"/>
<feColorMatrix in="SourceAlpha" type="matrix" values="0 0 0 0 0 0 0 0 0 0 0 0 0 0 0 0 0 0 127 0" result="hardAlpha"/>
<feOffset dx="10" dy="2"/>
<feGaussianBlur stdDeviation="15"/>
<feColorMatrix type="matrix" values="0 0 0 0 0.258824 0 0 0 0 0.627451 0 0 0 0 0.941176 0 0 0 0.596 0"/>
<feBlend mode="normal" in2="BackgroundImageFix" result="effect1_dropShadow_240_4898"/>
<feBlend mode="normal" in="SourceGraphic" in2="effect1_dropShadow_240_4898" result="shape"/>
</filter>
<linearGradient id="paint0_linear_240_4898" x1="201.697" y1="53.7715" x2="304.34" y2="301.935" gradientUnits="userSpaceOnUse">
<stop stop-color="white" stop-opacity="0.604"/>
<stop offset="1" stop-color="white" stop-opacity="0.2"/>
</linearGradient>
</defs>
</svg>
