<svg width="270" height="187" viewBox="0 0 270 187" fill="none" xmlns="http://www.w3.org/2000/svg">
<g filter="url(#filter0_f_240_6197)">
<path d="M137.908 48.6799C137.908 48.6799 128.144 61.9159 120.513 61.4799C110.947 60.9179 109.313 49.3799 100.445 48.6799C91.167 48.8189 90.22 60.7799 80.164 61.4799C71.154 61.3189 67.337 48.8979 58.748 48.6799C50.159 48.4619 41.004 61.4799 41.004 61.4799" stroke="white" stroke-width="16" stroke-linecap="round"/>
<path d="M145.919 122.68C145.919 122.68 131.219 135.916 119.726 135.48C105.326 134.918 102.855 123.38 89.508 122.68C75.538 122.819 74.108 134.78 58.969 135.48C45.403 135.317 39.655 122.897 26.719 122.68C13.783 122.463 0 135.48 0 135.48" stroke="white" stroke-width="16" stroke-linecap="round"/>
<path d="M227.919 173.68C227.919 173.68 213.219 186.916 201.726 186.48C187.326 185.918 184.855 174.38 171.508 173.68C157.538 173.819 156.108 185.78 140.969 186.48C127.403 186.317 121.655 173.897 108.719 173.68C95.783 173.463 82 186.48 82 186.48" stroke="white" stroke-width="16" stroke-linecap="round"/>
<path d="M205.391 3.28188C217.233 3.26607 228.805 6.81882 238.598 13.4769C247.489 19.5042 254.593 27.8151 259.162 37.5363C263.732 47.2575 265.598 58.0301 264.566 68.722C263.534 79.4138 259.641 89.6303 253.296 98.2978C246.951 106.965 238.389 113.764 228.509 117.979C217.944 122.454 206.307 123.764 195.011 121.749C183.716 119.734 173.249 114.482 164.883 106.63C153.935 96.3785 147.251 82.3793 146.162 67.4209C149.618 68.2309 153.156 68.6393 156.705 68.6379C164.389 68.6343 171.949 66.7019 178.693 63.0179C185.436 59.334 191.147 54.0163 195.301 47.5523C199.456 41.0883 201.922 33.6848 202.472 26.0206C203.023 18.3563 201.641 10.6764 198.453 3.68488C200.756 3.41659 203.073 3.28203 205.391 3.28188Z" fill="#713FFD"/>
<g filter="url(#filter1_f_240_6197)">
<path d="M245.582 21.736C232.25 9.73156 214.784 7.39398 206.572 16.5149C198.359 25.6358 202.51 42.7614 215.842 54.7659C229.174 66.7703 246.64 69.1079 254.852 59.987C263.065 50.8661 258.914 33.7405 245.582 21.736Z" fill="#A586FC"/>
</g>
</g>
<defs>
<filter id="filter0_f_240_6197" x="-12" y="-0.718201" width="280.843" height="199.208" filterUnits="userSpaceOnUse" color-interpolation-filters="sRGB">
<feFlood flood-opacity="0" result="BackgroundImageFix"/>
<feBlend mode="normal" in="SourceGraphic" in2="BackgroundImageFix" result="shape"/>
<feGaussianBlur stdDeviation="2" result="effect1_foregroundBlur_240_6197"/>
</filter>
<filter id="filter1_f_240_6197" x="182.355" y="-9.04883" width="96.7134" height="94.5995" filterUnits="userSpaceOnUse" color-interpolation-filters="sRGB">
<feFlood flood-opacity="0" result="BackgroundImageFix"/>
<feBlend mode="normal" in="SourceGraphic" in2="BackgroundImageFix" result="shape"/>
<feGaussianBlur stdDeviation="10" result="effect1_foregroundBlur_240_6197"/>
</filter>
</defs>
</svg>
