<svg width="387" height="373" viewBox="0 0 387 373" fill="none" xmlns="http://www.w3.org/2000/svg">
<g filter="url(#filter0_f_240_5783)">
<path d="M192.333 200.763H260.405L221.272 258.229L267.027 259.095L170.99 372.763L194.26 286.1H151.66L192.333 200.763Z" fill="url(#paint0_linear_240_5783)"/>
<path d="M297.518 261.246H327.405L310.224 286.477L330.313 286.857L288.147 336.763L298.364 298.714H279.664L297.518 261.246Z" fill="url(#paint1_linear_240_5783)"/>
<path d="M90.518 286.763H120.405L103.224 311.994L123.313 312.374L81.147 362.28L91.364 324.231H72.664L90.518 286.763Z" fill="url(#paint2_linear_240_5783)"/>
<path d="M103.148 213.763C157.548 213.763 201.648 169.439 201.648 114.763C201.648 60.0868 157.548 15.763 103.148 15.763C48.748 15.763 4.64801 60.0868 4.64801 114.763C4.64801 169.439 48.748 213.763 103.148 213.763Z" fill="#FA9E42"/>
<g filter="url(#filter1_f_240_5783)">
<path d="M96.0304 100.684C128.767 83.2963 147.077 53.7096 136.928 34.6003C126.778 15.4911 92.0115 14.0956 59.2749 31.4835C26.5383 48.8713 8.22801 78.4581 18.3778 97.5673C28.5275 116.677 63.2938 118.072 96.0304 100.684Z" fill="#F8E36F"/>
</g>
<g filter="url(#filter2_d_240_5783)">
<path d="M296.345 274.764H104.913C86.3426 274.75 68.4975 267.553 55.1136 254.679C41.7297 241.805 33.8447 224.253 33.1092 205.697C32.3736 187.141 38.8447 169.02 51.1676 155.128C63.4906 141.235 80.7099 132.648 99.221 131.164C101.861 112.524 110.278 95.1806 123.289 81.5739C136.299 67.9672 153.248 58.782 171.752 55.3104C190.255 51.8388 209.381 54.2555 226.439 62.2207C243.497 70.1859 257.628 83.2986 266.845 99.714C283.75 93.862 302.015 93.1782 319.311 97.7499C336.606 102.322 352.148 111.942 363.953 125.383C375.758 138.824 383.293 155.477 385.594 173.217C387.896 190.958 384.861 208.982 376.877 224.991C372.191 239.454 363.044 252.062 350.749 261.004C338.453 269.946 323.641 274.763 308.437 274.764H296.345Z" fill="url(#paint3_linear_240_5783)"/>
<path d="M308.437 273.764C316.156 273.764 323.746 272.531 330.996 270.1C338.006 267.749 344.588 264.319 350.557 259.904C356.458 255.54 361.631 250.312 365.932 244.366C370.287 238.346 373.649 231.724 375.925 224.683L375.949 224.611L375.983 224.543C379.01 218.495 381.341 212.097 382.911 205.527C384.526 198.767 385.345 191.781 385.345 184.763C385.345 178.724 384.737 172.689 383.537 166.826C382.368 161.112 380.623 155.492 378.352 150.121C376.121 144.848 373.36 139.761 370.146 135.004C366.962 130.291 363.305 125.859 359.278 121.831C355.25 117.803 350.818 114.147 346.105 110.963C341.347 107.748 336.261 104.988 330.988 102.757C325.617 100.486 319.997 98.7409 314.283 97.5717C308.42 96.3718 302.385 95.7635 296.345 95.7635C286.346 95.7635 276.531 97.4091 267.172 100.655L266.383 100.929L265.973 100.2C258.357 86.6582 247.279 75.2856 233.937 67.3118C227.189 63.2792 219.94 60.163 212.391 58.0497C204.602 55.8694 196.512 54.764 188.345 54.764C177.361 54.764 166.638 56.741 156.475 60.64C146.657 64.4067 137.65 69.8477 129.705 76.812C121.806 83.7362 115.251 91.9062 110.221 101.095C105.069 110.509 101.701 120.671 100.211 131.299L100.1 132.094L99.299 132.157C90.3408 132.858 81.7219 135.217 73.6818 139.167C65.8694 143.006 58.8932 148.198 52.947 154.598C40.7289 167.751 34 184.887 34 202.851C34 212.424 35.8748 221.711 39.5723 230.453C41.3495 234.654 43.5492 238.707 46.1103 242.498C48.6472 246.253 51.5608 249.784 54.7699 252.994C57.9791 256.203 61.5104 259.116 65.2655 261.653C69.0565 264.214 73.109 266.414 77.3107 268.191C86.0525 271.889 95.3392 273.764 104.913 273.764H296.345H308.437ZM308.437 274.764H296.345H104.913C65.1966 274.764 33 242.567 33 202.851C33 165.05 62.1647 134.061 99.221 131.16C105.35 87.4213 142.917 53.764 188.345 53.764C222.048 53.764 251.422 72.2871 266.845 99.7099C276.087 96.5046 286.012 94.7635 296.345 94.7635C346.051 94.7635 386.345 135.058 386.345 184.763C386.345 199.223 382.936 212.885 376.877 224.991C367.54 253.873 340.427 274.764 308.437 274.764Z" fill="white" fill-opacity="0.5"/>
</g>
</g>
<defs>
<filter id="filter0_f_240_5783" x="0.64801" y="11.763" width="389.697" height="365" filterUnits="userSpaceOnUse" color-interpolation-filters="sRGB">
<feFlood flood-opacity="0" result="BackgroundImageFix"/>
<feBlend mode="normal" in="SourceGraphic" in2="BackgroundImageFix" result="shape"/>
<feGaussianBlur stdDeviation="2" result="effect1_foregroundBlur_240_5783"/>
</filter>
<filter id="filter1_f_240_5783" x="-4.42236" y="-0.696777" width="164.15" height="133.561" filterUnits="userSpaceOnUse" color-interpolation-filters="sRGB">
<feFlood flood-opacity="0" result="BackgroundImageFix"/>
<feBlend mode="normal" in="SourceGraphic" in2="BackgroundImageFix" result="shape"/>
<feGaussianBlur stdDeviation="10" result="effect1_foregroundBlur_240_5783"/>
</filter>
<filter id="filter2_d_240_5783" x="13" y="25.764" width="413.345" height="281" filterUnits="userSpaceOnUse" color-interpolation-filters="sRGB">
<feFlood flood-opacity="0" result="BackgroundImageFix"/>
<feColorMatrix in="SourceAlpha" type="matrix" values="0 0 0 0 0 0 0 0 0 0 0 0 0 0 0 0 0 0 127 0" result="hardAlpha"/>
<feOffset dx="10" dy="2"/>
<feGaussianBlur stdDeviation="15"/>
<feColorMatrix type="matrix" values="0 0 0 0 0.258824 0 0 0 0 0.627451 0 0 0 0 0.941176 0 0 0 0.596 0"/>
<feBlend mode="normal" in2="BackgroundImageFix" result="effect1_dropShadow_240_5783"/>
<feBlend mode="normal" in="SourceGraphic" in2="effect1_dropShadow_240_5783" result="shape"/>
</filter>
<linearGradient id="paint0_linear_240_5783" x1="198.73" y1="286.763" x2="144.841" y2="267.007" gradientUnits="userSpaceOnUse">
<stop stop-color="#FFD100"/>
<stop offset="1" stop-color="#FFF0AA"/>
</linearGradient>
<linearGradient id="paint1_linear_240_5783" x1="300.329" y1="299.004" x2="276.67" y2="290.332" gradientUnits="userSpaceOnUse">
<stop stop-color="#FFD100"/>
<stop offset="1" stop-color="#FFF0AA"/>
</linearGradient>
<linearGradient id="paint2_linear_240_5783" x1="93.3288" y1="324.522" x2="69.67" y2="315.849" gradientUnits="userSpaceOnUse">
<stop stop-color="#FFD100"/>
<stop offset="1" stop-color="#FFF0AA"/>
</linearGradient>
<linearGradient id="paint3_linear_240_5783" x1="209.698" y1="53.7665" x2="312.341" y2="301.93" gradientUnits="userSpaceOnUse">
<stop stop-color="white" stop-opacity="0.604"/>
<stop offset="1" stop-color="white" stop-opacity="0.2"/>
</linearGradient>
</defs>
</svg>
