<svg width="378" height="340" viewBox="0 0 378 340" fill="none" xmlns="http://www.w3.org/2000/svg">
<g filter="url(#filter0_f_240_5435)">
<path d="M133.686 257.552C133.686 257.552 270.775 258.866 300.456 250.246C330.137 241.626 330.099 196.888 300.456 185.86C270.813 174.832 260.682 214.251 260.682 214.251" stroke="#D0D0D0" stroke-width="20" stroke-linecap="round"/>
<path d="M88.709 303.569C88.709 303.569 189.317 294.479 233.67 303.569C278.023 312.659 263.9 338.736 242.88 339.928C221.86 341.12 202.463 327.308 202.463 327.308" stroke="#D0D0D0" stroke-width="20" stroke-linecap="round"/>
<path d="M302.846 303.502H342.846" stroke="#D0D0D0" stroke-width="20" stroke-linecap="round"/>
<path d="M103.268 5.72324C110.278 5.72148 117.27 6.42975 124.137 7.83723C137.39 10.5669 149.974 15.8889 161.164 23.4972C176.667 34.0049 189.053 48.4947 197.021 65.4437C204.989 82.3927 208.244 101.175 206.444 119.817C204.645 138.459 197.856 156.271 186.793 171.383C175.73 186.495 160.801 198.347 143.574 205.695C137.312 208.356 130.8 210.388 124.136 211.76C109.685 214.69 94.7755 214.508 80.4006 211.224C66.0257 207.941 52.5156 201.632 40.77 192.718C29.0245 183.804 19.3133 172.489 12.2833 159.528C5.25327 146.566 1.06586 132.256 0 117.549C11.3315 120.201 23.1024 120.372 34.506 118.049C44.739 115.954 54.4592 111.863 63.112 106.012C75.9743 97.329 86.0423 85.1018 92.096 70.8122C94.1415 65.9727 95.7028 60.9425 96.757 55.7952C99.0041 44.7666 98.921 33.3899 96.513 22.3952C95.3017 16.8975 93.5103 11.5439 91.169 6.42424C95.1851 5.95689 99.2248 5.72282 103.268 5.72324Z" fill="#713FFD"/>
<g filter="url(#filter1_f_240_5435)">
<path d="M173.339 37.8963C150.095 16.9668 119.644 12.8915 105.325 28.7939C91.0065 44.6964 98.2424 74.5545 121.487 95.484C144.732 116.414 175.183 120.489 189.501 104.586C203.82 88.6839 196.584 58.8258 173.339 37.8963Z" fill="#A586FC"/>
</g>
<g filter="url(#filter2_d_240_5435)">
<path d="M287.345 279.002H95.913C77.3426 278.988 59.4975 271.791 46.1136 258.917C32.7297 246.043 24.8447 228.491 24.1092 209.936C23.3737 191.38 29.8447 173.259 42.1676 159.366C54.4906 145.473 71.71 136.886 90.221 135.402C92.8608 116.762 101.278 99.4189 114.289 85.8122C127.299 72.2055 144.248 63.0202 162.752 59.5486C181.255 56.077 200.381 58.4938 217.439 66.459C234.497 74.4242 248.628 87.5368 257.845 103.952C274.75 98.1003 293.015 97.4165 310.311 101.988C327.606 106.56 343.148 116.18 354.953 129.621C366.758 143.062 374.293 159.715 376.594 177.456C378.896 195.196 375.861 213.221 367.877 229.229C363.191 243.693 354.044 256.3 341.749 265.242C329.453 274.184 314.641 279.001 299.437 279.002H287.345Z" fill="url(#paint0_linear_240_5435)"/>
<path d="M299.437 278.002C307.156 278.002 314.746 276.769 321.996 274.338C329.006 271.987 335.588 268.557 341.557 264.142C347.458 259.778 352.631 254.55 356.932 248.605C361.287 242.585 364.649 235.962 366.925 228.921L366.949 228.849L366.983 228.781C370.01 222.733 372.341 216.335 373.911 209.765C375.526 203.005 376.345 196.019 376.345 189.002C376.345 182.963 375.737 176.928 374.537 171.064C373.368 165.35 371.623 159.73 369.352 154.359C367.121 149.086 364.36 144 361.146 139.242C357.962 134.529 354.305 130.097 350.278 126.069C346.25 122.042 341.818 118.385 337.105 115.201C332.347 111.987 327.261 109.226 321.988 106.995C316.617 104.724 310.997 102.979 305.283 101.81C299.42 100.61 293.385 100.002 287.345 100.002C277.346 100.002 267.531 101.647 258.172 104.893L257.383 105.167L256.973 104.438C249.357 90.8964 238.279 79.5238 224.937 71.55C218.189 67.5174 210.94 64.4012 203.391 62.2879C195.602 60.1077 187.512 59.0022 179.345 59.0022C168.361 59.0022 157.638 60.9792 147.475 64.8782C137.657 68.6449 128.65 74.0859 120.705 81.0502C112.806 87.9744 106.251 96.1444 101.221 105.333C96.0685 114.747 92.7006 124.909 91.2113 135.537L91.0998 136.333L90.299 136.395C81.3408 137.096 72.7219 139.455 64.6818 143.405C56.8694 147.244 49.8932 152.436 43.947 158.837C31.7289 171.989 25 189.125 25 207.089C25 216.663 26.8748 225.949 30.5723 234.691C32.3495 238.893 34.5492 242.945 37.1102 246.736C39.6472 250.491 42.5607 254.023 45.7699 257.232C48.9791 260.441 52.5104 263.355 56.2655 265.892C60.0565 268.453 64.109 270.652 68.3107 272.429C77.0525 276.127 86.3392 278.002 95.9127 278.002H287.345H299.437ZM299.437 279.002H287.345H95.9127C56.1966 279.002 24 246.805 24 207.089C24 169.288 53.1647 138.299 90.221 135.398C96.3504 91.6596 133.917 58.0022 179.345 58.0022C213.048 58.0022 242.422 76.5253 257.845 103.948C267.087 100.743 277.012 99.0017 287.345 99.0017C337.051 99.0017 377.345 139.297 377.345 189.002C377.345 203.461 373.936 217.123 367.877 229.229C358.54 258.111 331.427 279.002 299.437 279.002Z" fill="white" fill-opacity="0.5"/>
</g>
</g>
<defs>
<filter id="filter0_f_240_5435" x="-4" y="1.72327" width="385.345" height="352.278" filterUnits="userSpaceOnUse" color-interpolation-filters="sRGB">
<feFlood flood-opacity="0" result="BackgroundImageFix"/>
<feBlend mode="normal" in="SourceGraphic" in2="BackgroundImageFix" result="shape"/>
<feGaussianBlur stdDeviation="2" result="effect1_foregroundBlur_240_5435"/>
</filter>
<filter id="filter1_f_240_5435" x="77.9738" y="-0.906616" width="138.879" height="135.194" filterUnits="userSpaceOnUse" color-interpolation-filters="sRGB">
<feFlood flood-opacity="0" result="BackgroundImageFix"/>
<feBlend mode="normal" in="SourceGraphic" in2="BackgroundImageFix" result="shape"/>
<feGaussianBlur stdDeviation="10" result="effect1_foregroundBlur_240_5435"/>
</filter>
<filter id="filter2_d_240_5435" x="4.00002" y="30.0022" width="413.345" height="281" filterUnits="userSpaceOnUse" color-interpolation-filters="sRGB">
<feFlood flood-opacity="0" result="BackgroundImageFix"/>
<feColorMatrix in="SourceAlpha" type="matrix" values="0 0 0 0 0 0 0 0 0 0 0 0 0 0 0 0 0 0 127 0" result="hardAlpha"/>
<feOffset dx="10" dy="2"/>
<feGaussianBlur stdDeviation="15"/>
<feColorMatrix type="matrix" values="0 0 0 0 0.258824 0 0 0 0 0.627451 0 0 0 0 0.941176 0 0 0 0.596 0"/>
<feBlend mode="normal" in2="BackgroundImageFix" result="effect1_dropShadow_240_5435"/>
<feBlend mode="normal" in="SourceGraphic" in2="effect1_dropShadow_240_5435" result="shape"/>
</filter>
<linearGradient id="paint0_linear_240_5435" x1="200.698" y1="58.0048" x2="303.341" y2="306.169" gradientUnits="userSpaceOnUse">
<stop stop-color="white" stop-opacity="0.604"/>
<stop offset="1" stop-color="white" stop-opacity="0.2"/>
</linearGradient>
</defs>
</svg>
