<svg width="380" height="345" viewBox="0 0 380 345" fill="none" xmlns="http://www.w3.org/2000/svg">
<g filter="url(#filter0_f_240_5183)">
<path d="M104.819 292.001C106.419 292.019 122.637 317.342 122.637 327.183C122.637 331.909 120.76 336.441 117.418 339.782C114.077 343.124 109.545 345.001 104.819 345.001C100.093 345.001 95.5613 343.124 92.2197 339.782C88.8782 336.441 87.001 331.909 87.001 327.183C87.001 317.343 103.22 291.983 104.819 292.001Z" fill="#42A0F0"/>
<path d="M91.2341 333.843C93.0145 334.387 95.2772 332.148 96.2881 328.842C97.2989 325.536 96.675 322.414 94.8946 321.87C93.1142 321.326 90.8515 323.565 89.8407 326.871C88.8298 330.177 89.4537 333.298 91.2341 333.843Z" fill="white"/>
<path d="M197.819 292.001C199.419 292.019 215.637 317.342 215.637 327.183C215.637 331.909 213.76 336.441 210.418 339.782C207.077 343.124 202.545 345.001 197.819 345.001C193.093 345.001 188.561 343.124 185.22 339.782C181.878 336.441 180.001 331.909 180.001 327.183C180.001 317.343 196.22 291.983 197.819 292.001Z" fill="#42A0F0"/>
<path d="M184.234 333.843C186.015 334.387 188.277 332.148 189.288 328.842C190.299 325.536 189.675 322.414 187.895 321.87C186.114 321.326 183.851 323.565 182.841 326.871C181.83 330.177 182.454 333.298 184.234 333.843Z" fill="white"/>
<path d="M290.819 292.001C292.419 292.019 308.637 317.342 308.637 327.183C308.637 331.909 306.76 336.441 303.418 339.782C300.077 343.124 295.545 345.001 290.819 345.001C286.093 345.001 281.561 343.124 278.22 339.782C274.878 336.441 273.001 331.909 273.001 327.183C273.001 317.343 289.22 291.983 290.819 292.001Z" fill="#42A0F0"/>
<path d="M277.234 333.843C279.015 334.387 281.277 332.148 282.288 328.842C283.299 325.536 282.675 322.414 280.895 321.87C279.114 321.326 276.851 323.565 275.841 326.871C274.83 330.177 275.454 333.298 277.234 333.843Z" fill="white"/>
<path d="M151.819 214.001C153.419 214.019 169.637 239.342 169.637 249.183C169.637 253.909 167.76 258.441 164.418 261.782C161.077 265.124 156.545 267.001 151.819 267.001C147.093 267.001 142.561 265.124 139.22 261.782C135.878 258.441 134.001 253.909 134.001 249.183C134.001 239.343 150.22 213.983 151.819 214.001Z" fill="#42A0F0"/>
<path d="M138.234 255.843C140.015 256.387 142.277 254.148 143.288 250.842C144.299 247.536 143.675 244.414 141.895 243.87C140.114 243.326 137.851 245.565 136.841 248.871C135.83 252.177 136.454 255.298 138.234 255.843Z" fill="white"/>
<path d="M249.819 214.001C251.419 214.019 267.637 239.342 267.637 249.183C267.637 253.909 265.76 258.441 262.418 261.782C259.077 265.124 254.545 267.001 249.819 267.001C245.093 267.001 240.561 265.124 237.22 261.782C233.878 258.441 232.001 253.909 232.001 249.183C232.001 239.343 248.22 213.983 249.819 214.001Z" fill="#42A0F0"/>
<path d="M236.234 255.843C238.015 256.387 240.277 254.148 241.288 250.842C242.299 247.536 241.675 244.414 239.895 243.87C238.114 243.326 235.851 245.565 234.841 248.871C233.83 252.177 234.454 255.298 236.234 255.843Z" fill="white"/>
<path d="M103.268 5.72324C110.278 5.72148 117.27 6.42975 124.137 7.83723C137.39 10.5669 149.974 15.8889 161.164 23.4972C176.667 34.0049 189.053 48.4947 197.021 65.4437C204.989 82.3927 208.244 101.175 206.444 119.817C204.644 138.459 197.856 156.271 186.793 171.383C175.73 186.495 160.801 198.347 143.574 205.695C137.312 208.356 130.8 210.388 124.136 211.76C109.685 214.69 94.7754 214.508 80.4005 211.224C66.0257 207.941 52.5155 201.632 40.77 192.718C29.0244 183.804 19.3132 172.489 12.2832 159.528C5.25319 146.566 1.06578 132.256 -7.62939e-05 117.549C11.3314 120.201 23.1023 120.372 34.5059 118.049C44.7389 115.954 54.4592 111.863 63.1119 106.012C75.9742 97.329 86.0422 85.1018 92.0959 70.8122C94.1414 65.9727 95.7027 60.9425 96.7569 55.7952C99.004 44.7666 98.9209 33.3899 96.5129 22.3952C95.3016 16.8975 93.5102 11.5439 91.1689 6.42424C95.185 5.95689 99.2248 5.72282 103.268 5.72324Z" fill="#713FFD"/>
<g filter="url(#filter1_f_240_5183)">
<path d="M173.339 37.8963C150.095 16.9668 119.644 12.8915 105.325 28.7939C91.0065 44.6964 98.2424 74.5545 121.487 95.484C144.732 116.414 175.182 120.489 189.501 104.586C203.82 88.6839 196.584 58.8258 173.339 37.8963Z" fill="#A586FC"/>
</g>
<g filter="url(#filter2_d_240_5183)">
<path d="M289.999 281.002H98.5671C79.9967 280.988 62.1516 273.791 48.7677 260.917C35.3838 248.043 27.4988 230.491 26.7633 211.936C26.0278 193.38 32.4988 175.259 44.8217 161.366C57.1447 147.473 74.3641 138.886 92.8751 137.402C95.5149 118.762 103.932 101.419 116.943 87.8122C129.953 74.2055 146.902 65.0202 165.406 61.5486C183.909 58.077 203.035 60.4938 220.093 68.459C237.151 76.4242 251.282 89.5368 260.499 105.952C277.404 100.1 295.669 99.4165 312.965 103.988C330.26 108.56 345.802 118.18 357.607 131.621C369.413 145.062 376.947 161.715 379.249 179.456C381.55 197.196 378.516 215.221 370.531 231.229C365.846 245.693 356.699 258.3 344.403 267.242C332.107 276.184 317.295 281.001 302.091 281.002H289.999Z" fill="url(#paint0_linear_240_5183)"/>
<path d="M302.091 280.002C309.81 280.002 317.4 278.769 324.65 276.338C331.66 273.987 338.242 270.557 344.211 266.142C350.112 261.778 355.285 256.55 359.586 250.605C363.941 244.585 367.303 237.962 369.579 230.921L369.603 230.849L369.637 230.781C372.664 224.733 374.995 218.335 376.565 211.765C378.18 205.005 378.999 198.019 378.999 191.002C378.999 184.963 378.391 178.928 377.191 173.064C376.022 167.35 374.277 161.73 372.006 156.359C369.775 151.086 367.014 146 363.8 141.242C360.616 136.529 356.96 132.097 352.932 128.069C348.904 124.042 344.472 120.385 339.759 117.201C335.001 113.987 329.915 111.226 324.642 108.995C319.271 106.724 313.651 104.979 307.937 103.81C302.074 102.61 296.039 102.002 289.999 102.002C280 102.002 270.185 103.647 260.826 106.893L260.037 107.167L259.627 106.438C252.011 92.8964 240.933 81.5238 227.591 73.55C220.843 69.5174 213.594 66.4012 206.045 64.2879C198.256 62.1077 190.166 61.0022 181.999 61.0022C171.015 61.0022 160.292 62.9792 150.129 66.8782C140.311 70.6449 131.304 76.0859 123.359 83.0502C115.46 89.9744 108.905 98.1444 103.875 107.333C98.7226 116.747 95.3546 126.909 93.8653 137.537L93.7539 138.333L92.9531 138.395C83.9948 139.096 75.376 141.455 67.3358 145.405C59.5234 149.244 52.5472 154.436 46.6011 160.837C34.3829 173.989 27.6541 191.125 27.6541 209.089C27.6541 218.663 29.5288 227.949 33.2263 236.691C35.0035 240.893 37.2032 244.945 39.7643 248.736C42.3012 252.491 45.2148 256.023 48.424 259.232C51.6331 262.441 55.1644 265.355 58.9196 267.892C62.7105 270.453 66.7631 272.652 70.9647 274.429C79.7065 278.127 88.9932 280.002 98.5667 280.002H289.999H302.091ZM302.091 281.002H289.999H98.5667C58.8506 281.002 26.6541 248.805 26.6541 209.089C26.6541 171.288 55.8187 140.299 92.875 137.398C99.0045 93.6596 136.571 60.0022 181.999 60.0022C215.702 60.0022 245.076 78.5253 260.499 105.948C269.741 102.743 279.666 101.002 289.999 101.002C339.705 101.002 379.999 141.297 379.999 191.002C379.999 205.461 376.59 219.123 370.531 231.229C361.194 260.111 334.081 281.002 302.091 281.002Z" fill="white" fill-opacity="0.5"/>
</g>
</g>
<defs>
<filter id="filter0_f_240_5183" x="-4" y="1.72327" width="388" height="347.278" filterUnits="userSpaceOnUse" color-interpolation-filters="sRGB">
<feFlood flood-opacity="0" result="BackgroundImageFix"/>
<feBlend mode="normal" in="SourceGraphic" in2="BackgroundImageFix" result="shape"/>
<feGaussianBlur stdDeviation="2" result="effect1_foregroundBlur_240_5183"/>
</filter>
<filter id="filter1_f_240_5183" x="77.9736" y="-0.906616" width="138.879" height="135.194" filterUnits="userSpaceOnUse" color-interpolation-filters="sRGB">
<feFlood flood-opacity="0" result="BackgroundImageFix"/>
<feBlend mode="normal" in="SourceGraphic" in2="BackgroundImageFix" result="shape"/>
<feGaussianBlur stdDeviation="10" result="effect1_foregroundBlur_240_5183"/>
</filter>
<filter id="filter2_d_240_5183" x="6.65405" y="32.0022" width="413.345" height="281" filterUnits="userSpaceOnUse" color-interpolation-filters="sRGB">
<feFlood flood-opacity="0" result="BackgroundImageFix"/>
<feColorMatrix in="SourceAlpha" type="matrix" values="0 0 0 0 0 0 0 0 0 0 0 0 0 0 0 0 0 0 127 0" result="hardAlpha"/>
<feOffset dx="10" dy="2"/>
<feGaussianBlur stdDeviation="15"/>
<feColorMatrix type="matrix" values="0 0 0 0 0.258824 0 0 0 0 0.627451 0 0 0 0 0.941176 0 0 0 0.596 0"/>
<feBlend mode="normal" in2="BackgroundImageFix" result="effect1_dropShadow_240_5183"/>
<feBlend mode="normal" in="SourceGraphic" in2="effect1_dropShadow_240_5183" result="shape"/>
</filter>
<linearGradient id="paint0_linear_240_5183" x1="203.352" y1="60.0048" x2="305.995" y2="308.169" gradientUnits="userSpaceOnUse">
<stop stop-color="white" stop-opacity="0.604"/>
<stop offset="1" stop-color="white" stop-opacity="0.2"/>
</linearGradient>
</defs>
</svg>
