<svg width="354" height="284" viewBox="0 0 354 284" fill="none" xmlns="http://www.w3.org/2000/svg">
<g filter="url(#filter0_f_240_5004)">
<path d="M203.43 197.186C203.43 197.186 273.556 199.346 301.456 191.244C331.137 182.624 331.099 137.886 301.456 126.858C271.813 115.83 261.682 155.249 261.682 155.249" stroke="#D0D0D0" stroke-width="20" stroke-linecap="round"/>
<path d="M160.13 240.848C160.13 240.848 190.318 235.478 234.671 244.567C279.024 253.656 264.901 279.734 243.881 280.926C222.861 282.118 203.464 268.306 203.464 268.306" stroke="#D0D0D0" stroke-width="20" stroke-linecap="round"/>
<path d="M303.846 244.5H343.846" stroke="#D0D0D0" stroke-width="20" stroke-linecap="round"/>
<path d="M103.144 174.773C100.948 174.802 78.668 209.584 78.668 223.102C78.668 229.593 81.2467 235.819 85.8368 240.409C90.427 244.999 96.6525 247.578 103.144 247.578C109.635 247.578 115.861 244.999 120.451 240.409C125.041 235.819 127.62 229.593 127.62 223.102C127.62 209.584 105.34 174.749 103.144 174.773Z" fill="#42A0F0"/>
<path d="M116.777 215.803C114.331 216.55 113.474 220.839 114.862 225.381C116.251 229.923 119.359 232.999 121.805 232.251C124.251 231.503 125.108 227.215 123.72 222.673C122.331 218.131 119.222 215.055 116.777 215.803Z" fill="white"/>
<path d="M37.2 223.86C35.388 223.88 17 252.589 17 263.747C17 269.104 19.1282 274.242 22.9164 278.031C26.7047 281.819 31.8426 283.947 37.2 283.947C42.5574 283.947 47.6953 281.819 51.4836 278.031C55.2718 274.242 57.4 269.104 57.4 263.747C57.4 252.589 39.013 223.84 37.2 223.86Z" fill="#42A0F0"/>
<path d="M48.4521 257.724C46.4335 258.341 45.7261 261.88 46.8721 265.628C48.018 269.376 50.5834 271.915 52.602 271.297C54.6206 270.68 55.328 267.141 54.1821 263.393C53.0361 259.645 50.4707 257.106 48.4521 257.724Z" fill="white"/>
<g filter="url(#filter1_d_240_5004)">
<path d="M263.345 221H71.913C53.3426 220.986 35.4975 213.789 22.1136 200.915C8.72973 188.041 0.844671 170.489 0.109156 151.933C-0.626359 133.378 5.84469 115.257 18.1676 101.364C30.4906 87.4712 47.7099 78.884 66.221 77.4001C68.8608 58.7601 77.278 41.4167 90.2887 27.81C103.299 14.2033 120.248 5.01804 138.752 1.54644C157.255 -1.92516 176.381 0.491629 193.439 8.45679C210.497 16.422 224.628 29.5346 233.845 45.9501C250.75 40.0981 269.015 39.4143 286.311 43.986C303.606 48.5577 319.148 58.1776 330.953 71.6187C342.758 85.0598 350.293 101.713 352.594 119.453C354.896 137.194 351.861 155.218 343.877 171.227C339.191 185.691 330.044 198.298 317.749 207.24C305.453 216.182 290.641 220.999 275.437 221H263.345Z" fill="url(#paint0_linear_240_5004)"/>
<path d="M275.437 220C283.156 220 290.746 218.767 297.996 216.336C305.006 213.985 311.587 210.555 317.557 206.14C323.458 201.776 328.631 196.548 332.932 190.602C337.287 184.582 340.649 177.96 342.925 170.919L342.949 170.847L342.983 170.779C346.01 164.731 348.341 158.333 349.911 151.763C351.526 145.003 352.345 138.017 352.345 130.999C352.345 124.96 351.737 118.925 350.537 113.062C349.368 107.348 347.623 101.728 345.352 96.3572C343.121 91.0838 340.36 85.9975 337.146 81.2396C333.962 76.5267 330.305 72.0949 326.278 68.0672C322.25 64.0395 317.818 60.3828 313.105 57.1988C308.347 53.9845 303.261 51.2237 297.988 48.9932C292.617 46.7216 286.997 44.9769 281.283 43.8077C275.42 42.6079 269.384 41.9995 263.345 41.9995C253.346 41.9995 243.531 43.6451 234.172 46.8907L233.383 47.1645L232.973 46.4361C225.357 32.8942 214.279 21.5216 200.937 13.5478C194.189 9.51523 186.94 6.399 179.391 4.28568C171.602 2.10545 163.512 1 155.345 1C144.361 1 133.638 2.977 123.475 6.87605C113.657 10.6427 104.65 16.0837 96.7052 23.048C88.806 29.9722 82.2507 38.1422 77.2213 47.3308C72.0685 56.7451 68.7006 66.9073 67.2113 77.5349L67.0998 78.3304L66.299 78.3931C57.3408 79.0943 48.7219 81.4529 40.6818 85.4032C32.8694 89.2417 25.8932 94.4335 19.947 100.834C7.72886 113.987 1 131.123 1 149.087C1 158.66 2.87477 167.947 6.57227 176.689C8.34945 180.891 10.5491 184.943 13.1102 188.734C15.6472 192.489 18.5607 196.02 21.7699 199.23C24.9791 202.439 28.5104 205.352 32.2655 207.889C36.0565 210.45 40.109 212.65 44.3106 214.427C53.0525 218.125 62.3391 220 71.9127 220H263.345H275.437ZM275.437 221H263.345H71.9127C32.1966 221 0 188.803 0 149.087C0 111.286 29.1646 80.2967 66.221 77.3961C72.3504 33.6574 109.917 0 155.345 0C189.048 0 218.422 18.5231 233.845 45.9459C243.087 42.7406 253.012 40.9995 263.345 40.9995C313.051 40.9995 353.345 81.2943 353.345 130.999C353.345 145.459 349.936 159.121 343.877 171.227C334.54 200.109 307.427 221 275.437 221Z" fill="white" fill-opacity="0.5"/>
</g>
</g>
<defs>
<filter id="filter0_f_240_5004" x="-4" y="-4" width="361.846" height="298.999" filterUnits="userSpaceOnUse" color-interpolation-filters="sRGB">
<feFlood flood-opacity="0" result="BackgroundImageFix"/>
<feBlend mode="normal" in="SourceGraphic" in2="BackgroundImageFix" result="shape"/>
<feGaussianBlur stdDeviation="2" result="effect1_foregroundBlur_240_5004"/>
</filter>
<filter id="filter1_d_240_5004" x="-20" y="-28" width="413.345" height="281" filterUnits="userSpaceOnUse" color-interpolation-filters="sRGB">
<feFlood flood-opacity="0" result="BackgroundImageFix"/>
<feColorMatrix in="SourceAlpha" type="matrix" values="0 0 0 0 0 0 0 0 0 0 0 0 0 0 0 0 0 0 127 0" result="hardAlpha"/>
<feOffset dx="10" dy="2"/>
<feGaussianBlur stdDeviation="15"/>
<feColorMatrix type="matrix" values="0 0 0 0 0.258824 0 0 0 0 0.627451 0 0 0 0 0.941176 0 0 0 0.596 0"/>
<feBlend mode="normal" in2="BackgroundImageFix" result="effect1_dropShadow_240_5004"/>
<feBlend mode="normal" in="SourceGraphic" in2="effect1_dropShadow_240_5004" result="shape"/>
</filter>
<linearGradient id="paint0_linear_240_5004" x1="176.698" y1="0.00256348" x2="279.341" y2="248.166" gradientUnits="userSpaceOnUse">
<stop stop-color="white" stop-opacity="0.604"/>
<stop offset="1" stop-color="white" stop-opacity="0.2"/>
</linearGradient>
</defs>
</svg>
