<svg width="379" height="347" viewBox="0 0 379 347" fill="none" xmlns="http://www.w3.org/2000/svg">
<g filter="url(#filter0_f_240_5588)">
<path d="M103.148 213.763C157.548 213.763 201.648 169.439 201.648 114.763C201.648 60.0868 157.548 15.763 103.148 15.763C48.7479 15.763 4.64795 60.0868 4.64795 114.763C4.64795 169.439 48.7479 213.763 103.148 213.763Z" fill="#FA9E42"/>
<g filter="url(#filter1_f_240_5588)">
<path d="M96.0304 100.684C128.767 83.2963 147.077 53.7096 136.928 34.6003C126.778 15.4911 92.0115 14.0956 59.2749 31.4835C26.5383 48.8713 8.22801 78.4581 18.3778 97.5673C28.5275 116.677 63.2938 118.072 96.0304 100.684Z" fill="#F8E36F"/>
</g>
<path d="M295.173 293.818V346.436" stroke="#42A0F0" stroke-width="4" stroke-linecap="round"/>
<path d="M295.067 306.68L304.129 297.326" stroke="#42A0F0" stroke-width="4" stroke-linecap="round"/>
<path d="M295.067 306.68L285.713 297.326" stroke="#42A0F0" stroke-width="4" stroke-linecap="round"/>
<path d="M295.067 334.743L304.129 344.097" stroke="#42A0F0" stroke-width="4" stroke-linecap="round"/>
<path d="M295.067 334.743L285.713 344.097" stroke="#42A0F0" stroke-width="4" stroke-linecap="round"/>
<path d="M317.832 307.191L272.263 333.5" stroke="#42A0F0" stroke-width="4" stroke-linecap="round"/>
<path d="M306.64 313.53L319.272 316.701" stroke="#42A0F0" stroke-width="4" stroke-linecap="round"/>
<path d="M306.64 313.53L310.064 300.752" stroke="#42A0F0" stroke-width="4" stroke-linecap="round"/>
<path d="M282.337 327.561L278.767 340.086" stroke="#42A0F0" stroke-width="4" stroke-linecap="round"/>
<path d="M282.337 327.561L269.559 324.138" stroke="#42A0F0" stroke-width="4" stroke-linecap="round"/>
<path d="M317.58 333.5L272.011 307.191" stroke="#42A0F0" stroke-width="4" stroke-linecap="round"/>
<path d="M306.494 326.977L310.064 339.502" stroke="#42A0F0" stroke-width="4" stroke-linecap="round"/>
<path d="M306.494 326.977L319.272 323.553" stroke="#42A0F0" stroke-width="4" stroke-linecap="round"/>
<path d="M282.191 312.945L269.559 316.116" stroke="#42A0F0" stroke-width="4" stroke-linecap="round"/>
<path d="M282.191 312.945L278.767 300.167" stroke="#42A0F0" stroke-width="4" stroke-linecap="round"/>
<path d="M202.008 293.818V346.436" stroke="#42A0F0" stroke-width="4" stroke-linecap="round"/>
<path d="M201.902 306.68L210.964 297.326" stroke="#42A0F0" stroke-width="4" stroke-linecap="round"/>
<path d="M201.902 306.68L192.548 297.326" stroke="#42A0F0" stroke-width="4" stroke-linecap="round"/>
<path d="M201.902 334.743L210.964 344.097" stroke="#42A0F0" stroke-width="4" stroke-linecap="round"/>
<path d="M201.902 334.743L192.548 344.097" stroke="#42A0F0" stroke-width="4" stroke-linecap="round"/>
<path d="M224.667 307.191L179.098 333.5" stroke="#42A0F0" stroke-width="4" stroke-linecap="round"/>
<path d="M213.475 313.53L226.107 316.701" stroke="#42A0F0" stroke-width="4" stroke-linecap="round"/>
<path d="M213.475 313.53L216.899 300.752" stroke="#42A0F0" stroke-width="4" stroke-linecap="round"/>
<path d="M189.172 327.561L185.602 340.086" stroke="#42A0F0" stroke-width="4" stroke-linecap="round"/>
<path d="M189.172 327.561L176.394 324.138" stroke="#42A0F0" stroke-width="4" stroke-linecap="round"/>
<path d="M224.415 333.5L178.846 307.191" stroke="#42A0F0" stroke-width="4" stroke-linecap="round"/>
<path d="M213.329 326.977L216.899 339.502" stroke="#42A0F0" stroke-width="4" stroke-linecap="round"/>
<path d="M213.329 326.977L226.107 323.553" stroke="#42A0F0" stroke-width="4" stroke-linecap="round"/>
<path d="M189.026 312.945L176.394 316.116" stroke="#42A0F0" stroke-width="4" stroke-linecap="round"/>
<path d="M189.026 312.945L185.602 300.167" stroke="#42A0F0" stroke-width="4" stroke-linecap="round"/>
<path d="M109.008 293.818V346.436" stroke="#42A0F0" stroke-width="4" stroke-linecap="round"/>
<path d="M108.902 306.68L117.964 297.326" stroke="#42A0F0" stroke-width="4" stroke-linecap="round"/>
<path d="M108.902 306.68L99.548 297.326" stroke="#42A0F0" stroke-width="4" stroke-linecap="round"/>
<path d="M108.902 334.743L117.964 344.097" stroke="#42A0F0" stroke-width="4" stroke-linecap="round"/>
<path d="M108.902 334.743L99.548 344.097" stroke="#42A0F0" stroke-width="4" stroke-linecap="round"/>
<path d="M131.667 307.191L86.0983 333.5" stroke="#42A0F0" stroke-width="4" stroke-linecap="round"/>
<path d="M120.475 313.53L133.107 316.701" stroke="#42A0F0" stroke-width="4" stroke-linecap="round"/>
<path d="M120.475 313.53L123.899 300.752" stroke="#42A0F0" stroke-width="4" stroke-linecap="round"/>
<path d="M96.1718 327.561L92.602 340.086" stroke="#42A0F0" stroke-width="4" stroke-linecap="round"/>
<path d="M96.1718 327.561L83.3939 324.138" stroke="#42A0F0" stroke-width="4" stroke-linecap="round"/>
<path d="M131.415 333.5L85.8464 307.191" stroke="#42A0F0" stroke-width="4" stroke-linecap="round"/>
<path d="M120.329 326.977L123.899 339.502" stroke="#42A0F0" stroke-width="4" stroke-linecap="round"/>
<path d="M120.329 326.977L133.107 323.553" stroke="#42A0F0" stroke-width="4" stroke-linecap="round"/>
<path d="M96.0258 312.945L83.394 316.116" stroke="#42A0F0" stroke-width="4" stroke-linecap="round"/>
<path d="M96.0258 312.945L92.602 300.167" stroke="#42A0F0" stroke-width="4" stroke-linecap="round"/>
<path d="M154.008 214.818V267.436" stroke="#42A0F0" stroke-width="4" stroke-linecap="round"/>
<path d="M153.902 227.68L162.964 218.326" stroke="#42A0F0" stroke-width="4" stroke-linecap="round"/>
<path d="M153.902 227.68L144.548 218.326" stroke="#42A0F0" stroke-width="4" stroke-linecap="round"/>
<path d="M153.902 255.743L162.964 265.097" stroke="#42A0F0" stroke-width="4" stroke-linecap="round"/>
<path d="M153.902 255.743L144.548 265.097" stroke="#42A0F0" stroke-width="4" stroke-linecap="round"/>
<path d="M176.667 228.191L131.098 254.5" stroke="#42A0F0" stroke-width="4" stroke-linecap="round"/>
<path d="M165.475 234.53L178.107 237.701" stroke="#42A0F0" stroke-width="4" stroke-linecap="round"/>
<path d="M165.475 234.53L168.899 221.752" stroke="#42A0F0" stroke-width="4" stroke-linecap="round"/>
<path d="M141.172 248.561L137.602 261.086" stroke="#42A0F0" stroke-width="4" stroke-linecap="round"/>
<path d="M141.172 248.561L128.394 245.138" stroke="#42A0F0" stroke-width="4" stroke-linecap="round"/>
<path d="M176.415 254.5L130.846 228.191" stroke="#42A0F0" stroke-width="4" stroke-linecap="round"/>
<path d="M165.329 247.977L168.899 260.502" stroke="#42A0F0" stroke-width="4" stroke-linecap="round"/>
<path d="M165.329 247.977L178.107 244.553" stroke="#42A0F0" stroke-width="4" stroke-linecap="round"/>
<path d="M141.026 233.945L128.394 237.116" stroke="#42A0F0" stroke-width="4" stroke-linecap="round"/>
<path d="M141.026 233.945L137.602 221.167" stroke="#42A0F0" stroke-width="4" stroke-linecap="round"/>
<path d="M257.008 214.818V267.436" stroke="#42A0F0" stroke-width="4" stroke-linecap="round"/>
<path d="M256.902 227.68L265.964 218.326" stroke="#42A0F0" stroke-width="4" stroke-linecap="round"/>
<path d="M256.902 227.68L247.548 218.326" stroke="#42A0F0" stroke-width="4" stroke-linecap="round"/>
<path d="M256.902 255.743L265.964 265.097" stroke="#42A0F0" stroke-width="4" stroke-linecap="round"/>
<path d="M256.902 255.743L247.548 265.097" stroke="#42A0F0" stroke-width="4" stroke-linecap="round"/>
<path d="M279.667 228.191L234.098 254.5" stroke="#42A0F0" stroke-width="4" stroke-linecap="round"/>
<path d="M268.475 234.53L281.107 237.701" stroke="#42A0F0" stroke-width="4" stroke-linecap="round"/>
<path d="M268.475 234.53L271.899 221.752" stroke="#42A0F0" stroke-width="4" stroke-linecap="round"/>
<path d="M244.172 248.561L240.602 261.086" stroke="#42A0F0" stroke-width="4" stroke-linecap="round"/>
<path d="M244.172 248.561L231.394 245.138" stroke="#42A0F0" stroke-width="4" stroke-linecap="round"/>
<path d="M279.415 254.5L233.846 228.191" stroke="#42A0F0" stroke-width="4" stroke-linecap="round"/>
<path d="M268.329 247.977L271.899 260.502" stroke="#42A0F0" stroke-width="4" stroke-linecap="round"/>
<path d="M268.329 247.977L281.107 244.553" stroke="#42A0F0" stroke-width="4" stroke-linecap="round"/>
<path d="M244.026 233.945L231.394 237.116" stroke="#42A0F0" stroke-width="4" stroke-linecap="round"/>
<path d="M244.026 233.945L240.602 221.167" stroke="#42A0F0" stroke-width="4" stroke-linecap="round"/>
<g filter="url(#filter2_d_240_5588)">
<path d="M288.345 280.937H96.913C78.3426 280.923 60.4976 273.726 47.1137 260.852C33.7298 247.978 25.8447 230.426 25.1092 211.87C24.3737 193.314 30.8448 175.193 43.1677 161.301C55.4906 147.408 72.71 138.821 91.221 137.337C93.8608 118.697 102.278 101.354 115.289 87.747C128.299 74.1403 145.248 64.955 163.752 61.4834C182.255 58.0118 201.381 60.4286 218.439 68.3937C235.497 76.3589 249.628 89.4716 258.845 105.887C275.75 100.035 294.015 99.3513 311.31 103.923C328.605 108.494 344.146 118.113 355.952 131.554C367.757 144.994 375.292 161.647 377.594 179.387C379.896 197.127 376.862 215.151 368.879 231.16C364.194 245.625 355.047 258.233 342.751 267.176C330.455 276.119 315.641 280.937 300.437 280.937H288.345Z" fill="url(#paint0_linear_240_5588)"/>
<path d="M300.437 279.937C308.157 279.937 315.748 278.704 322.998 276.273C330.009 273.922 336.59 270.491 342.56 266.076C348.462 261.712 353.635 256.484 357.936 250.537C362.29 244.517 365.652 237.894 367.928 230.852L367.951 230.78L367.985 230.712C371.011 224.665 373.341 218.267 374.911 211.698C376.526 204.937 377.345 197.952 377.345 190.937C377.345 184.897 376.737 178.862 375.537 172.999C374.368 167.285 372.623 161.665 370.352 156.294C368.121 151.021 365.361 145.935 362.146 141.177C358.962 136.464 355.306 132.032 351.278 128.004C347.25 123.976 342.819 120.32 338.106 117.136C333.348 113.921 328.261 111.161 322.988 108.93C317.617 106.659 311.997 104.914 306.283 103.745C300.42 102.545 294.385 101.937 288.345 101.937C278.346 101.937 268.531 103.582 259.172 106.828L258.383 107.102L257.973 106.373C250.357 92.8313 239.279 81.4587 225.937 73.4849C219.189 69.4523 211.94 66.3361 204.391 64.2227C196.602 62.0425 188.512 60.937 180.345 60.937C169.361 60.937 158.638 62.914 148.475 66.8131C138.657 70.5797 129.65 76.0207 121.705 82.985C113.806 89.9092 107.251 98.0792 102.221 107.268C97.0685 116.682 93.7006 126.844 92.2113 137.472L92.0998 138.267L91.299 138.33C82.3408 139.031 73.7219 141.39 65.6818 145.34C57.8694 149.179 50.8932 154.371 44.947 160.771C32.7289 173.924 26 191.06 26 209.024C26 218.597 27.8748 227.884 31.5723 236.626C33.3495 240.828 35.5491 244.88 38.1102 248.671C40.6472 252.426 43.5607 255.957 46.7699 259.167C49.9791 262.376 53.5104 265.289 57.2655 267.826C61.0565 270.387 65.109 272.587 69.3106 274.364C78.0525 278.062 87.3391 279.937 96.9127 279.937H288.345H300.437ZM300.437 280.937H288.345H96.9127C57.1966 280.937 25 248.74 25 209.024C25 171.223 54.1646 140.234 91.221 137.333C97.3504 93.5944 134.917 59.937 180.345 59.937C214.048 59.937 243.422 78.4602 258.845 105.883C268.087 102.678 278.012 100.937 288.345 100.937C338.051 100.937 378.345 141.231 378.345 190.937C378.345 205.393 374.936 219.055 368.879 231.16C359.544 260.045 332.431 280.937 300.437 280.937Z" fill="white" fill-opacity="0.5"/>
</g>
</g>
<defs>
<filter id="filter0_f_240_5588" x="0.647949" y="11.763" width="381.698" height="340.673" filterUnits="userSpaceOnUse" color-interpolation-filters="sRGB">
<feFlood flood-opacity="0" result="BackgroundImageFix"/>
<feBlend mode="normal" in="SourceGraphic" in2="BackgroundImageFix" result="shape"/>
<feGaussianBlur stdDeviation="2" result="effect1_foregroundBlur_240_5588"/>
</filter>
<filter id="filter1_f_240_5588" x="-4.42236" y="-0.696777" width="164.15" height="133.561" filterUnits="userSpaceOnUse" color-interpolation-filters="sRGB">
<feFlood flood-opacity="0" result="BackgroundImageFix"/>
<feBlend mode="normal" in="SourceGraphic" in2="BackgroundImageFix" result="shape"/>
<feGaussianBlur stdDeviation="10" result="effect1_foregroundBlur_240_5588"/>
</filter>
<filter id="filter2_d_240_5588" x="5" y="31.937" width="413.345" height="281" filterUnits="userSpaceOnUse" color-interpolation-filters="sRGB">
<feFlood flood-opacity="0" result="BackgroundImageFix"/>
<feColorMatrix in="SourceAlpha" type="matrix" values="0 0 0 0 0 0 0 0 0 0 0 0 0 0 0 0 0 0 127 0" result="hardAlpha"/>
<feOffset dx="10" dy="2"/>
<feGaussianBlur stdDeviation="15"/>
<feColorMatrix type="matrix" values="0 0 0 0 0.258824 0 0 0 0 0.627451 0 0 0 0 0.941176 0 0 0 0.596 0"/>
<feBlend mode="normal" in2="BackgroundImageFix" result="effect1_dropShadow_240_5588"/>
<feBlend mode="normal" in="SourceGraphic" in2="effect1_dropShadow_240_5588" result="shape"/>
</filter>
<linearGradient id="paint0_linear_240_5588" x1="201.698" y1="59.9395" x2="304.341" y2="308.103" gradientUnits="userSpaceOnUse">
<stop stop-color="white" stop-opacity="0.604"/>
<stop offset="1" stop-color="white" stop-opacity="0.2"/>
</linearGradient>
</defs>
</svg>
