<svg width="376" height="347" viewBox="0 0 376 347" fill="none" xmlns="http://www.w3.org/2000/svg">
<g filter="url(#filter0_f_240_4779)">
<path d="M162.352 217.426C162.983 217.444 169.387 242.674 169.387 252.478C169.387 262.282 166.237 270.231 162.352 270.231C158.467 270.231 155.317 262.283 155.317 252.479C155.317 242.675 161.717 217.409 162.352 217.426Z" fill="#42A0F0"/>
<path d="M161.279 246.847C162.307 247.204 162.619 249.424 161.977 251.808C161.335 254.191 159.981 255.833 158.953 255.477C157.926 255.121 157.612 252.899 158.255 250.516C158.898 248.133 160.25 246.491 161.279 246.847Z" fill="white"/>
<path d="M222.283 217.426C222.914 217.444 229.318 242.674 229.318 252.478C229.318 262.282 226.168 270.231 222.283 270.231C218.398 270.231 215.248 262.283 215.248 252.479C215.248 242.675 221.648 217.409 222.283 217.426Z" fill="#42A0F0"/>
<path d="M221.21 246.847C222.238 247.204 222.55 249.424 221.908 251.808C221.266 254.191 219.912 255.833 218.884 255.477C217.856 255.121 217.543 252.899 218.186 250.516C218.829 248.133 220.181 246.491 221.21 246.847Z" fill="white"/>
<path d="M282.214 214.426C282.845 214.444 289.249 239.674 289.249 249.478C289.249 259.282 286.099 267.231 282.214 267.231C278.329 267.231 275.179 259.283 275.179 249.479C275.179 239.675 281.579 214.409 282.214 214.426Z" fill="#42A0F0"/>
<path d="M281.141 243.847C282.169 244.204 282.481 246.424 281.839 248.808C281.197 251.191 279.843 252.833 278.815 252.477C277.788 252.121 277.475 249.899 278.117 247.516C278.76 245.133 280.113 243.491 281.141 243.847Z" fill="white"/>
<path d="M190.555 284.426C191.186 284.444 197.59 309.674 197.59 319.478C197.59 329.282 194.44 337.231 190.555 337.231C186.67 337.231 183.52 329.283 183.52 319.479C183.52 309.675 189.92 284.409 190.555 284.426Z" fill="#42A0F0"/>
<path d="M189.482 313.847C190.51 314.204 190.822 316.424 190.18 318.808C189.538 321.191 188.184 322.833 187.156 322.477C186.128 322.121 185.815 319.899 186.458 317.516C187.101 315.133 188.453 313.491 189.482 313.847Z" fill="white"/>
<path d="M250.486 284.426C251.117 284.444 257.521 309.674 257.521 319.478C257.521 329.282 254.371 337.231 250.486 337.231C246.601 337.231 243.451 329.283 243.451 319.479C243.451 309.675 249.851 284.409 250.486 284.426Z" fill="#42A0F0"/>
<path d="M249.413 313.847C250.441 314.204 250.753 316.424 250.111 318.808C249.469 321.191 248.115 322.833 247.087 322.477C246.06 322.121 245.746 319.899 246.389 317.516C247.032 315.133 248.384 313.491 249.413 313.847Z" fill="white"/>
<path d="M313.942 284.426C314.573 284.444 320.977 309.674 320.977 319.478C320.977 329.282 317.827 337.231 313.942 337.231C310.057 337.231 306.907 329.283 306.907 319.479C306.907 309.675 313.307 284.409 313.942 284.426Z" fill="#42A0F0"/>
<path d="M312.869 313.847C313.897 314.204 314.209 316.424 313.567 318.808C312.925 321.191 311.571 322.833 310.543 322.477C309.516 322.121 309.203 319.899 309.845 317.516C310.488 315.133 311.841 313.491 312.869 313.847Z" fill="white"/>
<path d="M96.544 5.3486C103.097 5.34721 109.633 6.00958 116.053 7.32559C128.443 9.87761 140.207 14.8529 150.668 21.9656C165.161 31.7889 176.74 45.3349 184.189 61.18C191.638 77.0251 194.681 94.5841 192.998 112.012C191.315 129.439 184.969 146.091 174.626 160.219C164.283 174.346 150.326 185.426 134.221 192.295C128.366 194.782 122.279 196.681 116.049 197.964C102.539 200.704 88.6007 200.534 75.1619 197.465C61.7231 194.396 49.0926 188.498 38.112 180.165C27.1314 171.831 18.0528 161.253 11.481 149.136C4.90932 137.018 0.995377 123.639 -3.05176e-05 109.891C5.63318 111.211 11.4 111.877 17.186 111.875C32.0883 111.898 46.6547 107.449 59 99.1016C71.0248 90.9864 80.4383 79.5582 86.1 66.2016C89.9976 56.9922 91.9965 47.0908 91.977 37.0906C91.9777 31.6599 91.3907 26.245 90.226 20.9406C89.0922 15.8007 87.4162 10.7957 85.226 6.0096C88.9827 5.57053 92.7617 5.34982 96.544 5.3486Z" fill="#713FFD"/>
<g filter="url(#filter1_f_240_4779)">
<path d="M162.048 35.4272C140.318 15.8613 111.85 12.0517 98.4646 26.9182C85.0787 41.7847 91.8431 69.6977 113.573 89.2636C135.303 108.829 163.77 112.639 177.156 97.7725C190.542 82.906 183.778 54.993 162.048 35.4272Z" fill="#A586FC"/>
</g>
<path d="M90.5211 244.551H130.932L107.703 278.662L134.863 279.176L77.8551 346.651L91.6681 295.207H66.3811L90.5211 244.551Z" fill="url(#paint0_linear_240_4779)"/>
<g filter="url(#filter2_d_240_4779)">
<path d="M285.066 276.069H93.634C75.0636 276.054 57.2185 268.857 43.8346 255.983C30.4507 243.11 22.5657 225.558 21.8302 207.002C21.0946 188.446 27.5657 170.325 39.8886 156.432C52.2116 142.54 69.431 133.952 87.942 132.469C90.5818 113.829 98.9991 96.4852 112.01 82.8785C125.02 69.2718 141.969 60.0865 160.473 56.6149C178.976 53.1433 198.102 55.5601 215.16 63.5253C232.218 71.4904 246.349 84.6031 255.566 101.019C272.471 95.1667 290.736 94.4828 308.031 99.0542C325.326 103.626 340.867 113.245 352.673 126.685C364.478 140.126 372.013 156.778 374.315 174.519C376.617 192.259 373.583 210.283 365.6 226.292C360.915 240.756 351.768 253.365 339.472 262.308C327.176 271.251 312.362 276.068 297.158 276.069H285.066Z" fill="url(#paint1_linear_240_4779)"/>
<path d="M297.158 275.068C304.878 275.068 312.469 273.836 319.719 271.404C326.729 269.054 333.311 265.623 339.281 261.208C345.183 256.843 350.356 251.615 354.657 245.669C359.011 239.648 362.373 233.025 364.648 225.984L364.672 225.912L364.706 225.844C367.732 219.796 370.062 213.399 371.632 206.829C373.247 200.069 374.066 193.084 374.066 186.068C374.066 180.029 373.458 173.994 372.258 168.131C371.089 162.417 369.344 156.796 367.073 151.426C364.842 146.152 362.082 141.066 358.867 136.308C355.683 131.595 352.027 127.163 347.999 123.136C343.971 119.108 339.539 115.451 334.827 112.267C330.069 109.053 324.982 106.292 319.709 104.062C314.338 101.79 308.718 100.046 303.004 98.8763C297.141 97.6765 291.106 97.0681 285.066 97.0681C275.067 97.0681 265.252 98.7138 255.893 101.959L255.104 102.233L254.694 101.505C247.078 87.9629 236 76.5903 222.658 68.6165C215.91 64.5839 208.661 61.4676 201.112 59.3543C193.323 57.1741 185.233 56.0686 177.066 56.0686C166.082 56.0686 155.359 58.0456 145.196 61.9446C135.378 65.7113 126.371 71.1523 118.426 78.1166C110.527 85.0408 103.972 93.2108 98.9423 102.399C93.7895 111.814 90.4215 121.976 88.9322 132.604L88.8208 133.399L88.02 133.462C79.0617 134.163 70.4429 136.521 62.4027 140.472C54.5903 144.31 47.6141 149.502 41.6679 155.903C29.4498 169.055 22.7209 186.192 22.7209 204.155C22.7209 213.729 24.5957 223.016 28.2932 231.757C30.0704 235.959 32.2701 240.012 34.8312 243.803C37.3681 247.558 40.2817 251.089 43.4909 254.298C46.7 257.507 50.2313 260.421 53.9865 262.958C57.7774 265.519 61.8299 267.719 66.0316 269.496C74.7734 273.193 84.0601 275.068 93.6336 275.068H285.066H297.158ZM297.158 276.068H285.066H93.6336C53.9175 276.068 21.7209 243.872 21.7209 204.155C21.7209 166.354 50.8856 135.365 87.9419 132.465C94.0714 88.726 131.638 55.0686 177.066 55.0686C210.768 55.0686 240.143 73.5918 255.566 101.015C264.808 97.8093 274.733 96.0681 285.066 96.0681C334.772 96.0681 375.066 136.363 375.066 186.068C375.066 200.524 371.657 214.187 365.6 226.291C356.265 255.177 329.152 276.068 297.158 276.068Z" fill="white" fill-opacity="0.5"/>
</g>
</g>
<defs>
<filter id="filter0_f_240_4779" x="-4" y="1.34863" width="383.066" height="349.302" filterUnits="userSpaceOnUse" color-interpolation-filters="sRGB">
<feFlood flood-opacity="0" result="BackgroundImageFix"/>
<feBlend mode="normal" in="SourceGraphic" in2="BackgroundImageFix" result="shape"/>
<feGaussianBlur stdDeviation="2" result="effect1_foregroundBlur_240_4779"/>
</filter>
<filter id="filter1_f_240_4779" x="71.592" y="-2.15063" width="132.437" height="128.992" filterUnits="userSpaceOnUse" color-interpolation-filters="sRGB">
<feFlood flood-opacity="0" result="BackgroundImageFix"/>
<feBlend mode="normal" in="SourceGraphic" in2="BackgroundImageFix" result="shape"/>
<feGaussianBlur stdDeviation="10" result="effect1_foregroundBlur_240_4779"/>
</filter>
<filter id="filter2_d_240_4779" x="1.72095" y="27.0686" width="413.345" height="281" filterUnits="userSpaceOnUse" color-interpolation-filters="sRGB">
<feFlood flood-opacity="0" result="BackgroundImageFix"/>
<feColorMatrix in="SourceAlpha" type="matrix" values="0 0 0 0 0 0 0 0 0 0 0 0 0 0 0 0 0 0 127 0" result="hardAlpha"/>
<feOffset dx="10" dy="2"/>
<feGaussianBlur stdDeviation="15"/>
<feColorMatrix type="matrix" values="0 0 0 0 0.258824 0 0 0 0 0.627451 0 0 0 0 0.941176 0 0 0 0.596 0"/>
<feBlend mode="normal" in2="BackgroundImageFix" result="effect1_dropShadow_240_4779"/>
<feBlend mode="normal" in="SourceGraphic" in2="effect1_dropShadow_240_4779" result="shape"/>
</filter>
<linearGradient id="paint0_linear_240_4779" x1="94.3218" y1="295.601" x2="62.3333" y2="283.874" gradientUnits="userSpaceOnUse">
<stop stop-color="#FFD100"/>
<stop offset="1" stop-color="#FFF0AA"/>
</linearGradient>
<linearGradient id="paint1_linear_240_4779" x1="198.419" y1="55.071" x2="301.062" y2="303.235" gradientUnits="userSpaceOnUse">
<stop stop-color="white" stop-opacity="0.604"/>
<stop offset="1" stop-color="white" stop-opacity="0.2"/>
</linearGradient>
</defs>
</svg>
