<svg width="379" height="374" viewBox="0 0 379 374" fill="none" xmlns="http://www.w3.org/2000/svg">
<g filter="url(#filter0_f_240_5572)">
<path d="M103.148 213.763C157.548 213.763 201.648 169.439 201.648 114.763C201.648 60.0868 157.548 15.763 103.148 15.763C48.7479 15.763 4.64795 60.0868 4.64795 114.763C4.64795 169.439 48.7479 213.763 103.148 213.763Z" fill="#FA9E42"/>
<g filter="url(#filter1_f_240_5572)">
<path d="M96.0304 100.684C128.767 83.2963 147.077 53.7096 136.928 34.6003C126.778 15.4911 92.0115 14.0956 59.2749 31.4835C26.5383 48.8713 8.22801 78.4581 18.3778 97.5673C28.5275 116.677 63.2938 118.072 96.0304 100.684Z" fill="#F8E36F"/>
</g>
<path d="M158.613 210.403C162.526 210.447 202.226 272.432 202.226 296.519C202.226 308.086 197.631 319.179 189.452 327.358C181.273 335.537 170.18 340.132 158.613 340.132C147.046 340.132 135.953 335.537 127.774 327.358C119.595 319.179 115 308.086 115 296.519C115 272.432 154.7 210.36 158.613 210.403Z" fill="#42A0F0"/>
<path d="M125.36 312.822C129.718 314.155 135.256 308.674 137.731 300.58C140.205 292.487 138.678 284.846 134.32 283.513C129.963 282.181 124.424 287.662 121.95 295.755C119.475 303.849 121.002 311.49 125.36 312.822Z" fill="white"/>
<path d="M261.359 292.145C263.824 292.174 288.839 331.229 288.839 346.406C288.795 353.666 285.881 360.613 280.732 365.731C275.583 370.849 268.618 373.721 261.358 373.721C254.099 373.721 247.134 370.849 241.985 365.731C236.836 360.613 233.922 353.666 233.878 346.406C233.878 331.229 258.893 292.118 261.359 292.145Z" fill="#42A0F0"/>
<path d="M240.406 356.678C243.152 357.518 246.642 354.065 248.201 348.965C249.76 343.866 248.798 339.052 246.052 338.212C243.306 337.373 239.816 340.826 238.257 345.925C236.698 351.024 237.66 355.839 240.406 356.678Z" fill="white"/>
<g filter="url(#filter2_d_240_5572)">
<path d="M288.345 282.937H96.913C78.3426 282.923 60.4976 275.726 47.1137 262.852C33.7298 249.978 25.8447 232.426 25.1092 213.87C24.3737 195.314 30.8448 177.193 43.1677 163.301C55.4906 149.408 72.71 140.821 91.221 139.337C93.8608 120.697 102.278 103.354 115.289 89.747C128.299 76.1403 145.248 66.955 163.752 63.4834C182.255 60.0118 201.381 62.4286 218.439 70.3937C235.497 78.3589 249.628 91.4716 258.845 107.887C275.75 102.035 294.015 101.351 311.31 105.923C328.605 110.494 344.146 120.113 355.952 133.554C367.757 146.994 375.292 163.647 377.594 181.387C379.896 199.127 376.862 217.151 368.879 233.16C364.194 247.625 355.047 260.233 342.751 269.176C330.455 278.119 315.641 282.937 300.437 282.937H288.345Z" fill="url(#paint0_linear_240_5572)"/>
<path d="M300.437 281.937C308.157 281.937 315.748 280.704 322.998 278.273C330.009 275.922 336.59 272.491 342.56 268.076C348.462 263.712 353.635 258.484 357.936 252.537C362.29 246.517 365.652 239.894 367.928 232.852L367.951 232.78L367.985 232.712C371.011 226.665 373.341 220.267 374.911 213.698C376.526 206.937 377.345 199.952 377.345 192.937C377.345 186.897 376.737 180.862 375.537 174.999C374.368 169.285 372.623 163.665 370.352 158.294C368.121 153.021 365.361 147.935 362.146 143.177C358.962 138.464 355.306 134.032 351.278 130.004C347.25 125.976 342.819 122.32 338.106 119.136C333.348 115.921 328.261 113.161 322.988 110.93C317.617 108.659 311.997 106.914 306.283 105.745C300.42 104.545 294.385 103.937 288.345 103.937C278.346 103.937 268.531 105.582 259.172 108.828L258.383 109.102L257.973 108.373C250.357 94.8313 239.279 83.4587 225.937 75.4849C219.189 71.4523 211.94 68.3361 204.391 66.2227C196.602 64.0425 188.512 62.937 180.345 62.937C169.361 62.937 158.638 64.914 148.475 68.8131C138.657 72.5797 129.65 78.0207 121.705 84.985C113.806 91.9092 107.251 100.079 102.221 109.268C97.0685 118.682 93.7006 128.844 92.2113 139.472L92.0998 140.267L91.299 140.33C82.3408 141.031 73.7219 143.39 65.6818 147.34C57.8694 151.179 50.8932 156.371 44.947 162.771C32.7289 175.924 26 193.06 26 211.024C26 220.597 27.8748 229.884 31.5723 238.626C33.3495 242.828 35.5491 246.88 38.1102 250.671C40.6472 254.426 43.5607 257.957 46.7699 261.167C49.9791 264.376 53.5104 267.289 57.2655 269.826C61.0565 272.387 65.109 274.587 69.3106 276.364C78.0525 280.062 87.3391 281.937 96.9127 281.937H288.345H300.437ZM300.437 282.937H288.345H96.9127C57.1966 282.937 25 250.74 25 211.024C25 173.223 54.1646 142.234 91.221 139.333C97.3504 95.5944 134.917 61.937 180.345 61.937C214.048 61.937 243.422 80.4602 258.845 107.883C268.087 104.678 278.012 102.937 288.345 102.937C338.051 102.937 378.345 143.231 378.345 192.937C378.345 207.393 374.936 221.055 368.879 233.16C359.544 262.045 332.431 282.937 300.437 282.937Z" fill="white" fill-opacity="0.5"/>
</g>
</g>
<defs>
<filter id="filter0_f_240_5572" x="0.647949" y="11.763" width="381.698" height="365.958" filterUnits="userSpaceOnUse" color-interpolation-filters="sRGB">
<feFlood flood-opacity="0" result="BackgroundImageFix"/>
<feBlend mode="normal" in="SourceGraphic" in2="BackgroundImageFix" result="shape"/>
<feGaussianBlur stdDeviation="2" result="effect1_foregroundBlur_240_5572"/>
</filter>
<filter id="filter1_f_240_5572" x="-4.42236" y="-0.696777" width="164.15" height="133.561" filterUnits="userSpaceOnUse" color-interpolation-filters="sRGB">
<feFlood flood-opacity="0" result="BackgroundImageFix"/>
<feBlend mode="normal" in="SourceGraphic" in2="BackgroundImageFix" result="shape"/>
<feGaussianBlur stdDeviation="10" result="effect1_foregroundBlur_240_5572"/>
</filter>
<filter id="filter2_d_240_5572" x="5" y="33.937" width="413.345" height="281" filterUnits="userSpaceOnUse" color-interpolation-filters="sRGB">
<feFlood flood-opacity="0" result="BackgroundImageFix"/>
<feColorMatrix in="SourceAlpha" type="matrix" values="0 0 0 0 0 0 0 0 0 0 0 0 0 0 0 0 0 0 127 0" result="hardAlpha"/>
<feOffset dx="10" dy="2"/>
<feGaussianBlur stdDeviation="15"/>
<feColorMatrix type="matrix" values="0 0 0 0 0.258824 0 0 0 0 0.627451 0 0 0 0 0.941176 0 0 0 0.596 0"/>
<feBlend mode="normal" in2="BackgroundImageFix" result="effect1_dropShadow_240_5572"/>
<feBlend mode="normal" in="SourceGraphic" in2="effect1_dropShadow_240_5572" result="shape"/>
</filter>
<linearGradient id="paint0_linear_240_5572" x1="201.698" y1="61.9395" x2="304.341" y2="310.103" gradientUnits="userSpaceOnUse">
<stop stop-color="white" stop-opacity="0.604"/>
<stop offset="1" stop-color="white" stop-opacity="0.2"/>
</linearGradient>
</defs>
</svg>
