<svg width="386" height="335" viewBox="0 0 386 335" fill="none" xmlns="http://www.w3.org/2000/svg">
<g filter="url(#filter0_f_240_4868)">
<path d="M172.632 205.299C173.263 205.317 179.667 230.547 179.667 240.351C179.667 250.155 176.517 258.104 172.632 258.104C168.747 258.104 165.597 250.156 165.597 240.352C165.597 230.548 171.997 205.282 172.632 205.299Z" fill="#42A0F0"/>
<path d="M171.559 234.72C172.587 235.077 172.899 237.298 172.257 239.681C171.615 242.065 170.261 243.706 169.233 243.35C168.206 242.994 167.892 240.773 168.535 238.39C169.178 236.006 170.53 234.364 171.559 234.72Z" fill="white"/>
<path d="M232.563 205.299C233.194 205.317 239.598 230.547 239.598 240.351C239.598 250.155 236.448 258.104 232.563 258.104C228.678 258.104 225.528 250.156 225.528 240.352C225.528 230.548 231.928 205.282 232.563 205.299Z" fill="#42A0F0"/>
<path d="M231.49 234.72C232.518 235.077 232.83 237.298 232.188 239.681C231.546 242.065 230.192 243.706 229.164 243.35C228.137 242.994 227.823 240.773 228.466 238.39C229.109 236.006 230.461 234.364 231.49 234.72Z" fill="white"/>
<path d="M292.494 202.299C293.125 202.317 299.529 227.547 299.529 237.351C299.529 247.155 296.379 255.104 292.494 255.104C288.609 255.104 285.459 247.156 285.459 237.352C285.459 227.548 291.859 202.282 292.494 202.299Z" fill="#42A0F0"/>
<path d="M291.421 231.72C292.449 232.077 292.761 234.298 292.119 236.681C291.477 239.065 290.123 240.706 289.095 240.35C288.068 239.994 287.754 237.773 288.397 235.39C289.04 233.006 290.392 231.364 291.421 231.72Z" fill="white"/>
<path d="M200.835 272.299C201.466 272.317 207.87 297.547 207.87 307.351C207.87 317.155 204.72 325.104 200.835 325.104C196.95 325.104 193.8 317.156 193.8 307.352C193.8 297.548 200.2 272.282 200.835 272.299Z" fill="#42A0F0"/>
<path d="M199.762 301.72C200.79 302.077 201.102 304.298 200.46 306.681C199.818 309.065 198.464 310.706 197.436 310.35C196.409 309.994 196.095 307.773 196.738 305.39C197.381 303.006 198.733 301.364 199.762 301.72Z" fill="white"/>
<path d="M260.766 272.299C261.397 272.317 267.801 297.547 267.801 307.351C267.801 317.155 264.651 325.104 260.766 325.104C256.881 325.104 253.731 317.156 253.731 307.352C253.731 297.548 260.131 272.282 260.766 272.299Z" fill="#42A0F0"/>
<path d="M259.693 301.72C260.721 302.077 261.033 304.298 260.391 306.681C259.749 309.065 258.395 310.706 257.367 310.35C256.34 309.994 256.026 307.773 256.669 305.39C257.312 303.006 258.664 301.364 259.693 301.72Z" fill="white"/>
<path d="M324.222 272.299C324.853 272.317 331.257 297.547 331.257 307.351C331.257 317.155 328.107 325.104 324.222 325.104C320.337 325.104 317.187 317.156 317.187 307.352C317.187 297.548 323.587 272.282 324.222 272.299Z" fill="#42A0F0"/>
<path d="M323.149 301.72C324.177 302.077 324.489 304.298 323.847 306.681C323.205 309.065 321.851 310.706 320.823 310.35C319.796 309.994 319.482 307.773 320.125 305.39C320.768 303.006 322.121 301.364 323.149 301.72Z" fill="white"/>
<path d="M100.8 232.424H141.211L117.982 266.535L145.142 267.049L88.134 334.524L101.947 283.08H76.66L100.8 232.424Z" fill="url(#paint0_linear_240_4868)"/>
<path d="M94.698 196.252C144.642 196.252 185.129 155.559 185.129 105.362C185.129 55.1648 144.642 14.4719 94.698 14.4719C44.7543 14.4719 4.267 55.1648 4.267 105.362C4.267 155.559 44.7543 196.252 94.698 196.252Z" fill="#FA9E42"/>
<g filter="url(#filter1_f_240_4868)">
<path d="M88.1638 92.4362C118.219 76.4727 135.029 49.3097 125.711 31.7658C116.393 14.222 84.4742 12.9409 54.4193 28.9044C24.3643 44.8679 7.55397 72.0309 16.8723 89.5748C26.1906 107.119 58.1089 108.4 88.1638 92.4362Z" fill="#F8E36F"/>
</g>
<g filter="url(#filter2_d_240_4868)">
<path d="M295.345 263.942H103.913C85.3426 263.928 67.4975 256.73 54.1136 243.857C40.7297 230.983 32.8447 213.431 32.1092 194.875C31.3736 176.319 37.8447 158.198 50.1676 144.306C62.4906 130.413 79.7099 121.826 98.221 120.342C100.861 101.702 109.278 84.3585 122.289 70.7518C135.299 57.1451 152.248 47.9598 170.752 44.4882C189.255 41.0166 208.381 43.4334 225.439 51.3986C242.497 59.3637 256.628 72.4764 265.845 88.8918C282.75 83.04 301.015 82.3561 318.31 86.9275C335.605 91.4989 351.146 101.118 362.952 114.559C374.757 127.999 382.292 144.652 384.594 162.392C386.896 180.132 383.862 198.156 375.879 214.165C371.194 228.63 362.047 241.238 349.751 250.181C337.455 259.124 322.641 263.941 307.437 263.942H295.345Z" fill="url(#paint1_linear_240_4868)"/>
<path d="M307.437 262.941C315.157 262.941 322.748 261.709 329.998 259.278C337.009 256.927 343.59 253.496 349.56 249.081C355.462 244.717 360.635 239.489 364.936 233.542C369.29 227.522 372.652 220.899 374.928 213.857L374.951 213.785L374.985 213.717C378.011 207.67 380.341 201.272 381.911 194.703C383.526 187.942 384.345 180.957 384.345 173.941C384.345 167.902 383.737 161.867 382.537 156.004C381.368 150.29 379.623 144.67 377.352 139.299C375.121 134.026 372.361 128.939 369.146 124.182C365.962 119.469 362.306 115.037 358.278 111.009C354.25 106.981 349.819 103.325 345.106 100.141C340.348 96.9263 335.262 94.1656 329.988 91.9351C324.617 89.6635 318.997 87.9188 313.283 86.7496C307.42 85.5498 301.385 84.9414 295.345 84.9414C285.346 84.9414 275.531 86.5871 266.172 89.8327L265.383 90.1065L264.973 89.3781C257.357 75.8362 246.279 64.4636 232.937 56.4898C226.189 52.4572 218.94 49.3409 211.391 47.2276C203.602 45.0473 195.512 43.9419 187.345 43.9419C176.361 43.9419 165.638 45.9189 155.475 49.8179C145.657 53.5846 136.65 59.0256 128.705 65.9899C120.806 72.9141 114.251 81.0841 109.221 90.2727C104.069 99.687 100.701 109.849 99.2113 120.477L99.0999 121.272L98.299 121.335C89.3408 122.036 80.7219 124.395 72.6818 128.345C64.8694 132.184 57.8932 137.375 51.947 143.776C39.7289 156.929 33 174.065 33 192.029C33 201.602 34.8748 210.889 38.5723 219.631C40.3495 223.832 42.5492 227.885 45.1103 231.676C47.6472 235.431 50.5608 238.962 53.7699 242.171C56.9791 245.381 60.5104 248.294 64.2655 250.831C68.0565 253.392 72.109 255.592 76.3107 257.369C85.0525 261.067 94.3392 262.941 103.913 262.941H295.345H307.437ZM307.437 263.941H295.345H103.913C64.1966 263.941 32 231.745 32 192.029C32 154.228 61.1647 123.239 98.221 120.338C104.35 76.5993 141.917 42.9419 187.345 42.9419C221.048 42.9419 250.422 61.4651 265.845 88.8879C275.087 85.6826 285.012 83.9414 295.345 83.9414C345.052 83.9414 385.345 124.236 385.345 173.941C385.345 188.398 381.936 202.06 375.879 214.165C366.544 243.05 339.431 263.941 307.437 263.941Z" fill="white" fill-opacity="0.5"/>
</g>
</g>
<defs>
<filter id="filter0_f_240_4868" x="0.266998" y="10.4719" width="389.078" height="328.052" filterUnits="userSpaceOnUse" color-interpolation-filters="sRGB">
<feFlood flood-opacity="0" result="BackgroundImageFix"/>
<feBlend mode="normal" in="SourceGraphic" in2="BackgroundImageFix" result="shape"/>
<feGaussianBlur stdDeviation="2" result="effect1_foregroundBlur_240_4868"/>
</filter>
<filter id="filter1_f_240_4868" x="-5.69846" y="-2.27808" width="153.98" height="125.897" filterUnits="userSpaceOnUse" color-interpolation-filters="sRGB">
<feFlood flood-opacity="0" result="BackgroundImageFix"/>
<feBlend mode="normal" in="SourceGraphic" in2="BackgroundImageFix" result="shape"/>
<feGaussianBlur stdDeviation="10" result="effect1_foregroundBlur_240_4868"/>
</filter>
<filter id="filter2_d_240_4868" x="12" y="14.9419" width="413.345" height="281" filterUnits="userSpaceOnUse" color-interpolation-filters="sRGB">
<feFlood flood-opacity="0" result="BackgroundImageFix"/>
<feColorMatrix in="SourceAlpha" type="matrix" values="0 0 0 0 0 0 0 0 0 0 0 0 0 0 0 0 0 0 127 0" result="hardAlpha"/>
<feOffset dx="10" dy="2"/>
<feGaussianBlur stdDeviation="15"/>
<feColorMatrix type="matrix" values="0 0 0 0 0.258824 0 0 0 0 0.627451 0 0 0 0 0.941176 0 0 0 0.596 0"/>
<feBlend mode="normal" in2="BackgroundImageFix" result="effect1_dropShadow_240_4868"/>
<feBlend mode="normal" in="SourceGraphic" in2="effect1_dropShadow_240_4868" result="shape"/>
</filter>
<linearGradient id="paint0_linear_240_4868" x1="104.601" y1="283.474" x2="72.6122" y2="271.747" gradientUnits="userSpaceOnUse">
<stop stop-color="#FFD100"/>
<stop offset="1" stop-color="#FFF0AA"/>
</linearGradient>
<linearGradient id="paint1_linear_240_4868" x1="208.698" y1="42.9443" x2="311.341" y2="291.108" gradientUnits="userSpaceOnUse">
<stop stop-color="white" stop-opacity="0.604"/>
<stop offset="1" stop-color="white" stop-opacity="0.2"/>
</linearGradient>
</defs>
</svg>
