<svg width="390" height="363" viewBox="0 0 390 363" fill="none" xmlns="http://www.w3.org/2000/svg">
<g filter="url(#filter0_f_240_4829)">
<path d="M180.37 189.299C181.086 189.317 188.352 214.547 188.352 224.351C188.352 234.155 184.778 242.104 180.37 242.104C175.962 242.104 172.388 234.156 172.388 224.352C172.388 214.548 179.654 189.282 180.37 189.299Z" fill="#42A0F0"/>
<path d="M176.513 227.351C177.679 227.708 179.215 226.065 179.944 223.682C180.672 221.299 180.318 219.078 179.151 218.721C177.985 218.365 176.449 220.008 175.721 222.391C174.992 224.774 175.347 226.995 176.513 227.351Z" fill="white"/>
<path d="M239.796 189.299C240.512 189.317 247.778 214.547 247.778 224.351C247.778 234.155 244.204 242.104 239.796 242.104C235.388 242.104 231.814 234.156 231.814 224.352C231.814 214.548 239.08 189.282 239.796 189.299Z" fill="#42A0F0"/>
<path d="M235.939 227.351C237.105 227.708 238.641 226.065 239.37 223.682C240.098 221.299 239.744 219.078 238.577 218.721C237.411 218.365 235.875 220.008 235.147 222.391C234.418 224.774 234.773 226.995 235.939 227.351Z" fill="white"/>
<path d="M294.683 186.299C295.399 186.317 302.665 211.547 302.665 221.351C302.665 231.155 299.091 239.104 294.683 239.104C290.275 239.104 286.701 231.156 286.701 221.352C286.701 211.548 293.967 186.282 294.683 186.299Z" fill="#42A0F0"/>
<path d="M290.826 224.351C291.992 224.708 293.528 223.065 294.257 220.682C294.985 218.299 294.631 216.078 293.464 215.721C292.298 215.365 290.762 217.008 290.034 219.391C289.305 221.774 289.66 223.995 290.826 224.351Z" fill="white"/>
<path d="M208.335 256.299C209.051 256.317 216.317 281.547 216.317 291.351C216.317 301.155 212.743 309.104 208.335 309.104C203.927 309.104 200.353 301.156 200.353 291.352C200.353 281.548 207.619 256.282 208.335 256.299Z" fill="#42A0F0"/>
<path d="M204.478 294.351C205.644 294.708 207.18 293.065 207.909 290.682C208.637 288.299 208.283 286.078 207.116 285.721C205.95 285.365 204.414 287.008 203.686 289.391C202.957 291.774 203.312 293.995 204.478 294.351Z" fill="white"/>
<path d="M267.761 256.299C268.477 256.317 275.743 281.547 275.743 291.351C275.743 301.155 272.169 309.104 267.761 309.104C263.353 309.104 259.779 301.156 259.779 291.352C259.779 281.548 267.045 256.282 267.761 256.299Z" fill="#42A0F0"/>
<path d="M263.904 294.351C265.07 294.708 266.606 293.065 267.335 290.682C268.063 288.299 267.709 286.078 266.542 285.721C265.376 285.365 263.84 287.008 263.112 289.391C262.383 291.774 262.738 293.995 263.904 294.351Z" fill="white"/>
<path d="M330.683 256.299C331.399 256.317 338.665 281.547 338.665 291.351C338.665 301.155 335.091 309.104 330.683 309.104C326.275 309.104 322.701 301.156 322.701 291.352C322.701 281.548 329.967 256.282 330.683 256.299Z" fill="#42A0F0"/>
<path d="M326.826 294.351C327.992 294.708 329.528 293.065 330.257 290.682C330.985 288.299 330.631 286.078 329.464 285.721C328.298 285.365 326.762 287.008 326.034 289.391C325.305 291.774 325.66 293.995 326.826 294.351Z" fill="white"/>
<path d="M180.37 309.299C181.086 309.317 188.352 334.547 188.352 344.351C188.352 354.155 184.778 362.104 180.37 362.104C175.962 362.104 172.388 354.156 172.388 344.352C172.388 334.548 179.654 309.282 180.37 309.299Z" fill="#42A0F0"/>
<path d="M176.513 347.351C177.679 347.708 179.215 346.065 179.944 343.682C180.672 341.299 180.318 339.078 179.151 338.721C177.985 338.365 176.449 340.008 175.721 342.391C174.992 344.774 175.347 346.995 176.513 347.351Z" fill="white"/>
<path d="M239.796 309.299C240.512 309.317 247.778 334.547 247.778 344.351C247.778 354.155 244.204 362.104 239.796 362.104C235.388 362.104 231.814 354.156 231.814 344.352C231.814 334.548 239.08 309.282 239.796 309.299Z" fill="#42A0F0"/>
<path d="M235.939 347.351C237.105 347.708 238.641 346.065 239.37 343.682C240.098 341.299 239.744 339.078 238.577 338.721C237.411 338.365 235.875 340.008 235.147 342.391C234.418 344.774 234.773 346.995 235.939 347.351Z" fill="white"/>
<path d="M294.683 309.299C295.399 309.317 302.665 334.547 302.665 344.351C302.665 354.155 299.091 362.104 294.683 362.104C290.275 362.104 286.701 354.156 286.701 344.352C286.701 334.548 293.967 309.282 294.683 309.299Z" fill="#42A0F0"/>
<path d="M290.826 347.351C291.992 347.708 293.528 346.065 294.257 343.682C294.985 341.299 294.631 339.078 293.464 338.721C292.298 338.365 290.762 340.008 290.034 342.391C289.305 344.774 289.66 346.995 290.826 347.351Z" fill="white"/>
<path d="M94.698 196.252C144.642 196.252 185.129 155.559 185.129 105.362C185.129 55.1648 144.642 14.4719 94.698 14.4719C44.7544 14.4719 4.26703 55.1648 4.26703 105.362C4.26703 155.559 44.7544 196.252 94.698 196.252Z" fill="#FA9E42"/>
<g filter="url(#filter1_f_240_4829)">
<path d="M88.1638 92.4362C118.219 76.4727 135.029 49.3097 125.711 31.7658C116.393 14.222 84.4742 12.9409 54.4193 28.9044C24.3643 44.8679 7.55397 72.0309 16.8723 89.5748C26.1906 107.119 58.1089 108.4 88.1638 92.4362Z" fill="#F8E36F"/>
</g>
<path d="M108.53 224.424H155.176L128.361 263.802L159.714 264.396L93.906 342.284L109.851 282.9H80.66L108.53 224.424Z" fill="url(#paint0_linear_240_4829)"/>
<g filter="url(#filter2_d_240_4829)">
<path d="M299.345 250.942H107.913C89.3426 250.928 71.4975 243.73 58.1136 230.857C44.7297 217.983 36.8447 200.431 36.1092 181.875C35.3736 163.319 41.8447 145.198 54.1676 131.306C66.4906 117.413 83.7099 108.826 102.221 107.342C104.861 88.7018 113.278 71.3585 126.289 57.7518C139.299 44.1451 156.248 34.9598 174.752 31.4882C193.255 28.0166 212.381 30.4334 229.439 38.3986C246.497 46.3637 260.628 59.4764 269.845 75.8918C286.75 70.04 305.015 69.3561 322.31 73.9275C339.605 78.4989 355.146 88.1183 366.952 101.559C378.757 114.999 386.292 131.652 388.594 149.392C390.896 167.132 387.862 185.156 379.879 201.165C375.194 215.63 366.047 228.238 353.751 237.181C341.455 246.124 326.641 250.941 311.437 250.942H299.345Z" fill="url(#paint1_linear_240_4829)"/>
<path d="M311.437 249.941C319.157 249.941 326.748 248.709 333.998 246.278C341.009 243.927 347.59 240.496 353.56 236.081C359.462 231.717 364.635 226.489 368.936 220.542C373.29 214.522 376.652 207.899 378.928 200.857L378.951 200.785L378.985 200.717C382.011 194.67 384.341 188.272 385.911 181.703C387.526 174.942 388.345 167.957 388.345 160.941C388.345 154.902 387.737 148.867 386.537 143.004C385.368 137.29 383.623 131.67 381.352 126.299C379.121 121.026 376.361 115.939 373.146 111.182C369.962 106.469 366.306 102.037 362.278 98.0091C358.25 93.9813 353.819 90.3247 349.106 87.1407C344.348 83.9263 339.261 81.1656 333.988 78.9351C328.617 76.6635 322.997 74.9188 317.283 73.7496C311.42 72.5498 305.385 71.9414 299.345 71.9414C289.346 71.9414 279.531 73.5871 270.172 76.8327L269.383 77.1065L268.973 76.3781C261.357 62.8362 250.279 51.4636 236.937 43.4898C230.189 39.4572 222.94 36.3409 215.391 34.2276C207.602 32.0473 199.512 30.9419 191.345 30.9419C180.361 30.9419 169.638 32.9189 159.475 36.8179C149.657 40.5846 140.65 46.0256 132.705 52.9899C124.806 59.9141 118.251 68.0841 113.221 77.2727C108.069 86.687 104.701 96.8492 103.211 107.477L103.1 108.272L102.299 108.335C93.3408 109.036 84.7219 111.395 76.6818 115.345C68.8694 119.184 61.8932 124.375 55.947 130.776C43.7289 143.929 37 161.065 37 179.029C37 188.602 38.8748 197.889 42.5723 206.631C44.3495 210.832 46.5491 214.885 49.1102 218.676C51.6472 222.431 54.5607 225.962 57.7699 229.171C60.9791 232.381 64.5104 235.294 68.2655 237.831C72.0565 240.392 76.109 242.592 80.3106 244.369C89.0525 248.067 98.3391 249.941 107.913 249.941H299.345H311.437ZM311.437 250.941H299.345H107.913C68.1966 250.941 36 218.745 36 179.029C36 141.228 65.1646 110.239 102.221 107.338C108.35 63.5993 145.917 29.9419 191.345 29.9419C225.048 29.9419 254.422 48.4651 269.845 75.8879C279.087 72.6826 289.012 70.9414 299.345 70.9414C349.051 70.9414 389.345 111.236 389.345 160.941C389.345 175.398 385.936 189.06 379.879 201.165C370.544 230.05 343.431 250.941 311.437 250.941Z" fill="white" fill-opacity="0.5"/>
</g>
</g>
<defs>
<filter id="filter0_f_240_4829" x="0.267029" y="10.4719" width="393.078" height="355.632" filterUnits="userSpaceOnUse" color-interpolation-filters="sRGB">
<feFlood flood-opacity="0" result="BackgroundImageFix"/>
<feBlend mode="normal" in="SourceGraphic" in2="BackgroundImageFix" result="shape"/>
<feGaussianBlur stdDeviation="2" result="effect1_foregroundBlur_240_4829"/>
</filter>
<filter id="filter1_f_240_4829" x="-5.69849" y="-2.27808" width="153.98" height="125.897" filterUnits="userSpaceOnUse" color-interpolation-filters="sRGB">
<feFlood flood-opacity="0" result="BackgroundImageFix"/>
<feBlend mode="normal" in="SourceGraphic" in2="BackgroundImageFix" result="shape"/>
<feGaussianBlur stdDeviation="10" result="effect1_foregroundBlur_240_4829"/>
</filter>
<filter id="filter2_d_240_4829" x="16" y="1.94189" width="413.345" height="281" filterUnits="userSpaceOnUse" color-interpolation-filters="sRGB">
<feFlood flood-opacity="0" result="BackgroundImageFix"/>
<feColorMatrix in="SourceAlpha" type="matrix" values="0 0 0 0 0 0 0 0 0 0 0 0 0 0 0 0 0 0 127 0" result="hardAlpha"/>
<feOffset dx="10" dy="2"/>
<feGaussianBlur stdDeviation="15"/>
<feColorMatrix type="matrix" values="0 0 0 0 0.258824 0 0 0 0 0.627451 0 0 0 0 0.941176 0 0 0 0.596 0"/>
<feBlend mode="normal" in2="BackgroundImageFix" result="effect1_dropShadow_240_4829"/>
<feBlend mode="normal" in="SourceGraphic" in2="effect1_dropShadow_240_4829" result="shape"/>
</filter>
<linearGradient id="paint0_linear_240_4829" x1="112.914" y1="283.354" x2="75.9875" y2="269.816" gradientUnits="userSpaceOnUse">
<stop stop-color="#FFD100"/>
<stop offset="1" stop-color="#FFF0AA"/>
</linearGradient>
<linearGradient id="paint1_linear_240_4829" x1="212.698" y1="29.9443" x2="315.341" y2="278.108" gradientUnits="userSpaceOnUse">
<stop stop-color="white" stop-opacity="0.604"/>
<stop offset="1" stop-color="white" stop-opacity="0.2"/>
</linearGradient>
</defs>
</svg>
