<svg width="333" height="168" viewBox="0 0 333 168" fill="none" xmlns="http://www.w3.org/2000/svg">
<g filter="url(#filter0_f_240_6676)">
<path d="M124.687 73.6389C124.687 73.6389 261.776 74.9529 291.457 66.3329C321.138 57.7129 321.1 12.9749 291.457 1.94693C261.814 -9.08107 251.683 30.3379 251.683 30.3379" stroke="#D0D0D0" stroke-width="20" stroke-linecap="round"/>
<path d="M158.709 120.656C158.709 120.656 259.317 111.566 303.67 120.656C348.023 129.746 333.9 155.823 312.88 157.015C291.86 158.207 272.463 144.395 272.463 144.395" stroke="#D0D0D0" stroke-width="20" stroke-linecap="round"/>
<path d="M49.846 17.589C49.846 17.589 80.365 20.119 116.528 20.119C152.691 20.119 201.708 15.373 201.708 15.373" stroke="#D0D0D0" stroke-width="20" stroke-linecap="round"/>
<path d="M17.818 114.089C19.418 114.107 35.636 139.43 35.636 149.271C35.636 153.997 33.7588 158.529 30.4172 161.87C27.0757 165.212 22.5436 167.089 17.818 167.089C13.0924 167.089 8.5603 165.212 5.21877 161.87C1.87725 158.529 0 153.997 0 149.271C0 139.431 16.219 114.071 17.818 114.089Z" fill="#42A0F0"/>
<path d="M4.23325 155.93C6.01366 156.475 8.27639 154.236 9.2872 150.93C10.298 147.623 9.67415 144.502 7.89375 143.958C6.11335 143.413 3.85061 145.652 2.8398 148.958C1.82898 152.265 2.45285 155.386 4.23325 155.93Z" fill="white"/>
<path d="M103.818 114.089C105.418 114.107 121.636 139.43 121.636 149.271C121.636 153.997 119.759 158.529 116.417 161.87C113.076 165.212 108.544 167.089 103.818 167.089C99.0924 167.089 94.5603 165.212 91.2188 161.87C87.8772 158.529 86 153.997 86 149.271C86 139.431 102.219 114.071 103.818 114.089Z" fill="#42A0F0"/>
<path d="M90.2333 155.93C92.0137 156.475 94.2764 154.236 95.2872 150.93C96.298 147.623 95.6741 144.502 93.8937 143.958C92.1133 143.413 89.8506 145.652 88.8398 148.958C87.829 152.265 88.4529 155.386 90.2333 155.93Z" fill="white"/>
<path d="M59.818 49.0889C61.418 49.1069 77.636 74.4299 77.636 84.2709C77.636 88.9965 75.7588 93.5286 72.4172 96.8701C69.0757 100.212 64.5436 102.089 59.818 102.089C55.0924 102.089 50.5603 100.212 47.2188 96.8701C43.8772 93.5286 42 88.9965 42 84.2709C42 74.4309 58.219 49.0709 59.818 49.0889Z" fill="#42A0F0"/>
<path d="M46.2333 90.9304C48.0137 91.4748 50.2764 89.2358 51.2872 85.9296C52.298 82.6233 51.6741 79.5018 49.8937 78.9575C48.1133 78.4132 45.8506 80.6522 44.8398 83.9584C43.829 87.2646 44.4529 90.3861 46.2333 90.9304Z" fill="white"/>
</g>
<defs>
<filter id="filter0_f_240_6676" x="-4" y="-14" width="350.825" height="185.089" filterUnits="userSpaceOnUse" color-interpolation-filters="sRGB">
<feFlood flood-opacity="0" result="BackgroundImageFix"/>
<feBlend mode="normal" in="SourceGraphic" in2="BackgroundImageFix" result="shape"/>
<feGaussianBlur stdDeviation="2" result="effect1_foregroundBlur_240_6676"/>
</filter>
</defs>
</svg>
