<svg width="252" height="164" viewBox="0 0 252 164" fill="none" xmlns="http://www.w3.org/2000/svg">
<g filter="url(#filter0_f_240_6243)">
<path d="M139.907 25.625C139.907 25.625 130.143 38.861 122.512 38.425C112.946 37.863 111.312 26.325 102.444 25.625C93.166 25.764 92.219 37.725 82.163 38.425C73.153 38.264 69.336 25.843 60.747 25.625C52.158 25.407 43.003 38.425 43.003 38.425" stroke="white" stroke-width="16" stroke-linecap="round"/>
<path d="M145.919 100.625C145.919 100.625 131.219 113.861 119.726 113.425C105.326 112.863 102.855 101.325 89.508 100.625C75.538 100.764 74.108 112.725 58.969 113.425C45.403 113.262 39.655 100.842 26.719 100.625C13.783 100.408 0 113.425 0 113.425" stroke="white" stroke-width="16" stroke-linecap="round"/>
<path d="M229.919 150.625C229.919 150.625 215.219 163.861 203.726 163.425C189.326 162.863 186.855 151.325 173.508 150.625C159.538 150.764 158.108 162.725 142.969 163.425C129.403 163.262 123.655 150.842 110.719 150.625C97.783 150.408 84 163.425 84 163.425" stroke="white" stroke-width="16" stroke-linecap="round"/>
<path d="M230.07 1.07159e-05C228.125 0.0220107 208.393 30.829 208.393 42.803C208.393 48.5522 210.677 54.066 214.742 58.1313C218.808 62.1966 224.321 64.4805 230.071 64.4805C235.82 64.4805 241.333 62.1966 245.399 58.1313C249.464 54.066 251.748 48.5522 251.748 42.803C251.748 30.829 232.015 -0.0209893 230.07 1.07159e-05Z" fill="#42A0F0"/>
<path d="M242.145 36.3396C239.979 37.0018 239.22 40.7994 240.45 44.8218C241.679 48.8443 244.432 51.5682 246.598 50.906C248.764 50.2438 249.523 46.4462 248.293 42.4238C247.064 38.4014 244.311 35.6774 242.145 36.3396Z" fill="white"/>
<path d="M186.316 55C184.931 55.016 170.884 76.948 170.884 85.471C170.884 89.5638 172.51 93.489 175.404 96.3831C178.298 99.2771 182.223 100.903 186.316 100.903C190.409 100.903 194.334 99.2771 197.228 96.3831C200.122 93.489 201.748 89.5638 201.748 85.471C201.748 76.948 187.7 54.985 186.316 55Z" fill="#42A0F0"/>
<path d="M194.911 80.8695C193.369 81.341 192.828 84.0447 193.704 86.9084C194.579 89.772 196.539 91.7112 198.082 91.2397C199.624 90.7682 200.164 88.0645 199.289 85.2009C198.413 82.3373 196.453 80.398 194.911 80.8695Z" fill="white"/>
</g>
<defs>
<filter id="filter0_f_240_6243" x="-12" y="-4" width="267.748" height="179.435" filterUnits="userSpaceOnUse" color-interpolation-filters="sRGB">
<feFlood flood-opacity="0" result="BackgroundImageFix"/>
<feBlend mode="normal" in="SourceGraphic" in2="BackgroundImageFix" result="shape"/>
<feGaussianBlur stdDeviation="2" result="effect1_foregroundBlur_240_6243"/>
</filter>
</defs>
</svg>
