<svg width="354" height="286" viewBox="0 0 354 286" fill="none" xmlns="http://www.w3.org/2000/svg">
<g filter="url(#filter0_f_240_4918)">
<path d="M191.43 202.186C191.43 202.186 261.556 204.346 289.456 196.244C319.137 187.624 319.099 142.886 289.456 131.858C259.813 120.83 249.682 160.249 249.682 160.249" stroke="#D0D0D0" stroke-width="20" stroke-linecap="round"/>
<path d="M148.13 245.848C148.13 245.848 178.318 240.478 222.671 249.567C267.024 258.656 252.901 284.734 231.881 285.926C210.861 287.118 191.464 273.306 191.464 273.306" stroke="#D0D0D0" stroke-width="20" stroke-linecap="round"/>
<path d="M291.846 249.5H331.846" stroke="#D0D0D0" stroke-width="20" stroke-linecap="round"/>
<path d="M112.763 234.292V262.5" stroke="#42A0F0" stroke-width="2" stroke-linecap="round"/>
<path d="M112.707 241.188L117.565 236.173" stroke="#42A0F0" stroke-width="2" stroke-linecap="round"/>
<path d="M112.707 241.188L107.692 236.173" stroke="#42A0F0" stroke-width="2" stroke-linecap="round"/>
<path d="M112.707 256.231L117.565 261.246" stroke="#42A0F0" stroke-width="2" stroke-linecap="round"/>
<path d="M112.707 256.231L107.692 261.246" stroke="#42A0F0" stroke-width="2" stroke-linecap="round"/>
<path d="M124.911 241.461L100.482 255.565" stroke="#42A0F0" stroke-width="2" stroke-linecap="round"/>
<path d="M118.91 244.86L125.682 246.56" stroke="#42A0F0" stroke-width="2" stroke-linecap="round"/>
<path d="M118.91 244.86L120.746 238.01" stroke="#42A0F0" stroke-width="2" stroke-linecap="round"/>
<path d="M105.883 252.382L103.969 259.096" stroke="#42A0F0" stroke-width="2" stroke-linecap="round"/>
<path d="M105.883 252.382L99.0321 250.546" stroke="#42A0F0" stroke-width="2" stroke-linecap="round"/>
<path d="M124.776 255.565L100.347 241.461" stroke="#42A0F0" stroke-width="2" stroke-linecap="round"/>
<path d="M118.831 252.068L120.746 258.783" stroke="#42A0F0" stroke-width="2" stroke-linecap="round"/>
<path d="M118.831 252.068L125.682 250.232" stroke="#42A0F0" stroke-width="2" stroke-linecap="round"/>
<path d="M105.804 244.547L99.0317 246.246" stroke="#42A0F0" stroke-width="2" stroke-linecap="round"/>
<path d="M105.804 244.547L103.968 237.696" stroke="#42A0F0" stroke-width="2" stroke-linecap="round"/>
<path d="M28.009 226.881L28.009 279.499" stroke="#42A0F0" stroke-width="4" stroke-linecap="round"/>
<path d="M27.9031 239.743L36.9651 230.389" stroke="#42A0F0" stroke-width="4" stroke-linecap="round"/>
<path d="M27.9031 239.743L18.5491 230.389" stroke="#42A0F0" stroke-width="4" stroke-linecap="round"/>
<path d="M27.9031 267.806L36.9651 277.16" stroke="#42A0F0" stroke-width="4" stroke-linecap="round"/>
<path d="M27.9031 267.806L18.5491 277.16" stroke="#42A0F0" stroke-width="4" stroke-linecap="round"/>
<path d="M50.668 240.254L5.09944 266.563" stroke="#42A0F0" stroke-width="4" stroke-linecap="round"/>
<path d="M39.4762 246.593L52.108 249.764" stroke="#42A0F0" stroke-width="4" stroke-linecap="round"/>
<path d="M39.4762 246.593L42.9 233.815" stroke="#42A0F0" stroke-width="4" stroke-linecap="round"/>
<path d="M15.1729 260.624L11.6031 273.149" stroke="#42A0F0" stroke-width="4" stroke-linecap="round"/>
<path d="M15.1728 260.624L2.39505 257.201" stroke="#42A0F0" stroke-width="4" stroke-linecap="round"/>
<path d="M50.416 266.563L4.84749 240.254" stroke="#42A0F0" stroke-width="4" stroke-linecap="round"/>
<path d="M39.3302 260.04L42.9 272.565" stroke="#42A0F0" stroke-width="4" stroke-linecap="round"/>
<path d="M39.3302 260.04L52.108 256.616" stroke="#42A0F0" stroke-width="4" stroke-linecap="round"/>
<path d="M15.0269 246.008L2.39505 249.179" stroke="#42A0F0" stroke-width="4" stroke-linecap="round"/>
<path d="M15.0269 246.008L11.6031 233.23" stroke="#42A0F0" stroke-width="4" stroke-linecap="round"/>
<path d="M66.009 161.881V214.499" stroke="#42A0F0" stroke-width="4" stroke-linecap="round"/>
<path d="M65.9031 174.743L74.9651 165.389" stroke="#42A0F0" stroke-width="4" stroke-linecap="round"/>
<path d="M65.9031 174.743L56.5491 165.389" stroke="#42A0F0" stroke-width="4" stroke-linecap="round"/>
<path d="M65.9031 202.806L74.9651 212.16" stroke="#42A0F0" stroke-width="4" stroke-linecap="round"/>
<path d="M65.9031 202.806L56.5491 212.16" stroke="#42A0F0" stroke-width="4" stroke-linecap="round"/>
<path d="M88.668 175.254L43.0994 201.563" stroke="#42A0F0" stroke-width="4" stroke-linecap="round"/>
<path d="M77.4762 181.593L90.108 184.764" stroke="#42A0F0" stroke-width="4" stroke-linecap="round"/>
<path d="M77.4762 181.593L80.9 168.815" stroke="#42A0F0" stroke-width="4" stroke-linecap="round"/>
<path d="M53.1729 195.624L49.6031 208.149" stroke="#42A0F0" stroke-width="4" stroke-linecap="round"/>
<path d="M53.1728 195.624L40.395 192.201" stroke="#42A0F0" stroke-width="4" stroke-linecap="round"/>
<path d="M88.416 201.563L42.8475 175.254" stroke="#42A0F0" stroke-width="4" stroke-linecap="round"/>
<path d="M77.3302 195.04L80.9 207.565" stroke="#42A0F0" stroke-width="4" stroke-linecap="round"/>
<path d="M77.3302 195.04L90.108 191.616" stroke="#42A0F0" stroke-width="4" stroke-linecap="round"/>
<path d="M53.0269 181.008L40.3951 184.179" stroke="#42A0F0" stroke-width="4" stroke-linecap="round"/>
<path d="M53.0269 181.008L49.6031 168.23" stroke="#42A0F0" stroke-width="4" stroke-linecap="round"/>
<g filter="url(#filter1_d_240_4918)">
<path d="M263.345 221H71.913C53.3426 220.986 35.4976 213.789 22.1137 200.915C8.72979 188.041 0.844732 170.489 0.109217 151.933C-0.626298 133.378 5.84476 115.257 18.1677 101.364C30.4906 87.4712 47.71 78.884 66.221 77.4001C68.8608 58.7601 77.2781 41.4167 90.2887 27.81C103.299 14.2033 120.248 5.01804 138.752 1.54644C157.255 -1.92516 176.381 0.491629 193.439 8.45679C210.497 16.422 224.628 29.5346 233.845 45.9501C250.75 40.0981 269.015 39.4143 286.311 43.986C303.606 48.5577 319.148 58.1776 330.953 71.6187C342.759 85.0598 350.293 101.713 352.594 119.453C354.896 137.194 351.861 155.218 343.877 171.227C339.192 185.691 330.045 198.298 317.749 207.24C305.453 216.182 290.641 220.999 275.437 221H263.345Z" fill="url(#paint0_linear_240_4918)"/>
<path d="M275.437 220C283.156 220 290.746 218.767 297.996 216.336C305.006 213.985 311.587 210.555 317.557 206.14C323.458 201.776 328.631 196.548 332.932 190.602C337.287 184.582 340.649 177.96 342.925 170.919L342.949 170.847L342.983 170.779C346.01 164.731 348.341 158.333 349.911 151.763C351.526 145.003 352.345 138.017 352.345 130.999C352.345 124.96 351.737 118.925 350.537 113.062C349.368 107.348 347.623 101.728 345.352 96.3572C343.121 91.0838 340.36 85.9975 337.146 81.2396C333.962 76.5267 330.305 72.0949 326.278 68.0672C322.25 64.0395 317.818 60.3828 313.105 57.1988C308.347 53.9845 303.261 51.2237 297.988 48.9932C292.617 46.7216 286.997 44.9769 281.283 43.8077C275.42 42.6079 269.384 41.9995 263.345 41.9995C253.346 41.9995 243.531 43.6451 234.172 46.8907L233.383 47.1645L232.973 46.4361C225.357 32.8942 214.279 21.5216 200.937 13.5478C194.189 9.51523 186.94 6.399 179.391 4.28568C171.602 2.10545 163.512 1 155.345 1C144.361 1 133.638 2.977 123.475 6.87605C113.657 10.6427 104.65 16.0837 96.7052 23.048C88.806 29.9722 82.2507 38.1422 77.2213 47.3308C72.0685 56.7451 68.7006 66.9073 67.2113 77.5349L67.0998 78.3304L66.299 78.3931C57.3408 79.0943 48.7219 81.4529 40.6818 85.4032C32.8694 89.2417 25.8932 94.4335 19.947 100.834C7.72886 113.987 1 131.123 1 149.087C1 158.66 2.87477 167.947 6.57227 176.689C8.34945 180.891 10.5491 184.943 13.1102 188.734C15.6472 192.489 18.5607 196.02 21.7699 199.23C24.9791 202.439 28.5104 205.352 32.2655 207.889C36.0565 210.45 40.109 212.65 44.3106 214.427C53.0525 218.125 62.3391 220 71.9127 220H263.345H275.437ZM275.437 221H263.345H71.9127C32.1966 221 0 188.803 0 149.087C0 111.286 29.1646 80.2967 66.221 77.3961C72.3504 33.6574 109.917 0 155.345 0C189.048 0 218.422 18.5231 233.845 45.9459C243.087 42.7406 253.012 40.9995 263.345 40.9995C313.051 40.9995 353.345 81.2943 353.345 130.999C353.345 145.459 349.936 159.121 343.877 171.227C334.54 200.109 307.427 221 275.437 221Z" fill="white" fill-opacity="0.5"/>
</g>
</g>
<defs>
<filter id="filter0_f_240_4918" x="-4" y="-4" width="361.345" height="303.999" filterUnits="userSpaceOnUse" color-interpolation-filters="sRGB">
<feFlood flood-opacity="0" result="BackgroundImageFix"/>
<feBlend mode="normal" in="SourceGraphic" in2="BackgroundImageFix" result="shape"/>
<feGaussianBlur stdDeviation="2" result="effect1_foregroundBlur_240_4918"/>
</filter>
<filter id="filter1_d_240_4918" x="-20" y="-28" width="413.345" height="281" filterUnits="userSpaceOnUse" color-interpolation-filters="sRGB">
<feFlood flood-opacity="0" result="BackgroundImageFix"/>
<feColorMatrix in="SourceAlpha" type="matrix" values="0 0 0 0 0 0 0 0 0 0 0 0 0 0 0 0 0 0 127 0" result="hardAlpha"/>
<feOffset dx="10" dy="2"/>
<feGaussianBlur stdDeviation="15"/>
<feColorMatrix type="matrix" values="0 0 0 0 0.258824 0 0 0 0 0.627451 0 0 0 0 0.941176 0 0 0 0.596 0"/>
<feBlend mode="normal" in2="BackgroundImageFix" result="effect1_dropShadow_240_4918"/>
<feBlend mode="normal" in="SourceGraphic" in2="effect1_dropShadow_240_4918" result="shape"/>
</filter>
<linearGradient id="paint0_linear_240_4918" x1="176.698" y1="0.00256348" x2="279.341" y2="248.166" gradientUnits="userSpaceOnUse">
<stop stop-color="white" stop-opacity="0.604"/>
<stop offset="1" stop-color="white" stop-opacity="0.2"/>
</linearGradient>
</defs>
</svg>
