<svg width="387" height="278" viewBox="0 0 387 278" fill="none" xmlns="http://www.w3.org/2000/svg">
<g filter="url(#filter0_f_240_5936)">
<path d="M103.148 213.763C157.548 213.763 201.648 169.439 201.648 114.763C201.648 60.0868 157.548 15.763 103.148 15.763C48.7479 15.763 4.64795 60.0868 4.64795 114.763C4.64795 169.439 48.7479 213.763 103.148 213.763Z" fill="#FA9E42"/>
<g filter="url(#filter1_f_240_5936)">
<path d="M96.0304 100.684C128.767 83.2964 147.077 53.7096 136.928 34.6004C126.778 15.4911 92.0115 14.0957 59.2749 31.4835C26.5383 48.8714 8.22801 78.4581 18.3778 97.5674C28.5275 116.677 63.2938 118.072 96.0304 100.684Z" fill="#F8E36F"/>
</g>
<g filter="url(#filter2_d_240_5936)">
<path d="M296.993 277.763H105.561C86.9906 277.749 69.1455 270.552 55.7616 257.678C42.3777 244.804 34.4927 227.252 33.7572 208.696C33.0217 190.14 39.4927 172.019 51.8156 158.127C64.1386 144.234 81.358 135.647 99.869 134.163C102.509 115.523 110.926 98.1797 123.937 84.573C136.947 70.9663 153.896 61.781 172.4 58.3094C190.903 54.8378 210.029 57.2546 227.087 65.2197C244.145 73.1849 258.276 86.2976 267.493 102.713C284.398 96.861 302.663 96.1773 319.959 100.749C337.254 105.321 352.796 114.941 364.601 128.382C376.406 141.823 383.941 158.476 386.242 176.216C388.544 193.957 385.509 211.981 377.525 227.99C372.839 242.453 363.692 255.061 351.397 264.003C339.101 272.945 324.289 277.762 309.085 277.763H296.993Z" fill="url(#paint0_linear_240_5936)"/>
<path d="M309.085 276.763C316.804 276.763 324.394 275.53 331.644 273.099C338.654 270.748 345.235 267.318 351.205 262.903C357.106 258.539 362.279 253.311 366.58 247.365C370.935 241.345 374.297 234.723 376.573 227.682L376.597 227.61L376.631 227.542C379.658 221.494 381.989 215.096 383.559 208.526C385.174 201.766 385.993 194.78 385.993 187.762C385.993 181.723 385.385 175.688 384.185 169.825C383.016 164.111 381.271 158.491 379 153.12C376.769 147.847 374.008 142.76 370.794 138.003C367.61 133.29 363.953 128.858 359.926 124.83C355.898 120.802 351.466 117.146 346.753 113.962C341.995 110.747 336.909 107.987 331.636 105.756C326.265 103.485 320.645 101.74 314.931 100.571C309.067 99.3708 303.032 98.7625 296.993 98.7625C286.994 98.7625 277.178 100.408 267.82 103.654L267.031 103.928L266.621 103.199C259.005 89.6572 247.927 78.2846 234.585 70.3108C227.837 66.2782 220.588 63.162 213.039 61.0487C205.25 58.8684 197.16 57.763 188.993 57.763C178.009 57.763 167.286 59.74 157.123 63.639C147.305 67.4057 138.298 72.8467 130.353 79.811C122.454 86.7352 115.899 94.9052 110.869 104.094C105.716 113.508 102.349 123.67 100.859 134.298L100.748 135.093L99.947 135.156C90.9887 135.857 82.3699 138.216 74.3297 142.166C66.5173 146.005 59.5411 151.197 53.5949 157.597C41.3768 170.75 34.6479 187.886 34.6479 205.85C34.6479 215.423 36.5227 224.71 40.2202 233.452C41.9974 237.653 44.1971 241.706 46.7582 245.497C49.2951 249.252 52.2087 252.783 55.4179 255.993C58.627 259.202 62.1583 262.115 65.9135 264.652C69.7044 267.213 73.757 269.413 77.9586 271.19C86.7004 274.888 95.9871 276.763 105.561 276.763H296.993H309.085ZM309.085 277.763H296.993H105.561C65.8445 277.763 33.6479 245.566 33.6479 205.85C33.6479 168.049 62.8126 137.06 99.8689 134.159C105.998 90.4203 143.565 56.763 188.993 56.763C222.695 56.763 252.07 75.2861 267.492 102.709C276.735 99.5036 286.66 97.7625 296.993 97.7625C346.699 97.7625 386.993 138.057 386.993 187.762C386.993 202.222 383.584 215.884 377.525 227.99C368.188 256.872 341.075 277.763 309.085 277.763Z" fill="white" fill-opacity="0.5"/>
</g>
</g>
<defs>
<filter id="filter0_f_240_5936" x="0.647949" y="11.763" width="390.345" height="270" filterUnits="userSpaceOnUse" color-interpolation-filters="sRGB">
<feFlood flood-opacity="0" result="BackgroundImageFix"/>
<feBlend mode="normal" in="SourceGraphic" in2="BackgroundImageFix" result="shape"/>
<feGaussianBlur stdDeviation="2" result="effect1_foregroundBlur_240_5936"/>
</filter>
<filter id="filter1_f_240_5936" x="-4.42236" y="-0.696747" width="164.15" height="133.561" filterUnits="userSpaceOnUse" color-interpolation-filters="sRGB">
<feFlood flood-opacity="0" result="BackgroundImageFix"/>
<feBlend mode="normal" in="SourceGraphic" in2="BackgroundImageFix" result="shape"/>
<feGaussianBlur stdDeviation="10" result="effect1_foregroundBlur_240_5936"/>
</filter>
<filter id="filter2_d_240_5936" x="13.6479" y="28.763" width="413.345" height="281" filterUnits="userSpaceOnUse" color-interpolation-filters="sRGB">
<feFlood flood-opacity="0" result="BackgroundImageFix"/>
<feColorMatrix in="SourceAlpha" type="matrix" values="0 0 0 0 0 0 0 0 0 0 0 0 0 0 0 0 0 0 127 0" result="hardAlpha"/>
<feOffset dx="10" dy="2"/>
<feGaussianBlur stdDeviation="15"/>
<feColorMatrix type="matrix" values="0 0 0 0 0.258824 0 0 0 0 0.627451 0 0 0 0 0.941176 0 0 0 0.596 0"/>
<feBlend mode="normal" in2="BackgroundImageFix" result="effect1_dropShadow_240_5936"/>
<feBlend mode="normal" in="SourceGraphic" in2="effect1_dropShadow_240_5936" result="shape"/>
</filter>
<linearGradient id="paint0_linear_240_5936" x1="210.346" y1="56.7655" x2="312.989" y2="304.929" gradientUnits="userSpaceOnUse">
<stop stop-color="white" stop-opacity="0.604"/>
<stop offset="1" stop-color="white" stop-opacity="0.2"/>
</linearGradient>
</defs>
</svg>
