<svg width="354" height="292" viewBox="0 0 354 292" fill="none" xmlns="http://www.w3.org/2000/svg">
<g filter="url(#filter0_f_240_5057)">
<path d="M140.632 162.357C141.263 162.375 147.667 187.605 147.667 197.409C147.667 207.213 144.517 215.162 140.632 215.162C136.747 215.162 133.597 207.214 133.597 197.41C133.597 187.606 139.997 162.34 140.632 162.357Z" fill="#42A0F0"/>
<path d="M139.559 191.779C140.587 192.136 140.899 194.356 140.257 196.739C139.615 199.123 138.261 200.765 137.233 200.409C136.206 200.053 135.892 197.831 136.535 195.448C137.178 193.065 138.53 191.422 139.559 191.779Z" fill="white"/>
<path d="M200.563 162.357C201.194 162.375 207.598 187.605 207.598 197.409C207.598 207.213 204.448 215.162 200.563 215.162C196.678 215.162 193.528 207.214 193.528 197.41C193.528 187.606 199.928 162.34 200.563 162.357Z" fill="#42A0F0"/>
<path d="M199.49 191.779C200.518 192.136 200.83 194.356 200.188 196.739C199.546 199.123 198.192 200.765 197.164 200.409C196.137 200.053 195.823 197.831 196.466 195.448C197.109 193.065 198.461 191.422 199.49 191.779Z" fill="white"/>
<path d="M260.494 159.357C261.125 159.375 267.529 184.605 267.529 194.409C267.529 204.213 264.379 212.162 260.494 212.162C256.609 212.162 253.459 204.214 253.459 194.41C253.459 184.606 259.859 159.34 260.494 159.357Z" fill="#42A0F0"/>
<path d="M259.421 188.779C260.449 189.136 260.761 191.356 260.119 193.739C259.477 196.123 258.123 197.765 257.095 197.409C256.068 197.053 255.754 194.831 256.397 192.448C257.04 190.065 258.392 188.422 259.421 188.779Z" fill="white"/>
<path d="M168.835 229.357C169.466 229.375 175.87 254.605 175.87 264.409C175.87 274.213 172.72 282.162 168.835 282.162C164.95 282.162 161.8 274.214 161.8 264.41C161.8 254.606 168.2 229.34 168.835 229.357Z" fill="#42A0F0"/>
<path d="M167.762 258.779C168.79 259.136 169.102 261.356 168.46 263.739C167.818 266.123 166.464 267.765 165.436 267.409C164.409 267.053 164.095 264.831 164.738 262.448C165.381 260.065 166.733 258.422 167.762 258.779Z" fill="white"/>
<path d="M228.766 229.357C229.397 229.375 235.801 254.605 235.801 264.409C235.801 274.213 232.651 282.162 228.766 282.162C224.881 282.162 221.731 274.214 221.731 264.41C221.731 254.606 228.131 229.34 228.766 229.357Z" fill="#42A0F0"/>
<path d="M227.693 258.779C228.721 259.136 229.033 261.356 228.391 263.739C227.749 266.123 226.395 267.765 225.367 267.409C224.34 267.053 224.026 264.831 224.669 262.448C225.312 260.065 226.664 258.422 227.693 258.779Z" fill="white"/>
<path d="M292.222 229.357C292.853 229.375 299.257 254.605 299.257 264.409C299.257 274.213 296.107 282.162 292.222 282.162C288.337 282.162 285.187 274.214 285.187 264.41C285.187 254.606 291.587 229.34 292.222 229.357Z" fill="#42A0F0"/>
<path d="M291.149 258.779C292.177 259.136 292.489 261.356 291.847 263.739C291.205 266.123 289.851 267.765 288.823 267.409C287.796 267.053 287.482 264.831 288.125 262.448C288.768 260.065 290.12 258.422 291.149 258.779Z" fill="white"/>
<path d="M68.8 189.482H109.211L85.982 223.593L113.142 224.107L56.134 291.582L69.947 240.138H44.66L68.8 189.482Z" fill="url(#paint0_linear_240_5057)"/>
<g filter="url(#filter1_d_240_5057)">
<path d="M263.345 221H71.913C53.3426 220.986 35.4975 213.789 22.1136 200.915C8.72974 188.041 0.844686 170.489 0.109171 151.933C-0.626344 133.378 5.84471 115.257 18.1676 101.364C30.4906 87.4712 47.71 78.884 66.221 77.4001C68.8608 58.7601 77.2781 41.4167 90.2887 27.81C103.299 14.2033 120.248 5.01804 138.752 1.54644C157.255 -1.92516 176.381 0.491629 193.439 8.45679C210.497 16.422 224.628 29.5346 233.845 45.9501C250.75 40.0982 269.015 39.4144 286.31 43.9857C303.605 48.5571 319.146 58.1765 330.952 71.617C342.757 85.0575 350.292 101.71 352.594 119.45C354.896 137.19 351.862 155.214 343.879 171.223C339.194 185.688 330.047 198.296 317.751 207.239C305.455 216.182 290.641 221 275.437 221H263.345Z" fill="url(#paint1_linear_240_5057)"/>
<path d="M275.437 220C283.157 220 290.748 218.767 297.998 216.336C305.009 213.985 311.59 210.554 317.56 206.139C323.462 201.775 328.635 196.547 332.936 190.6C337.29 184.58 340.652 177.957 342.928 170.915L342.951 170.843L342.985 170.775C346.011 164.728 348.341 158.33 349.911 151.761C351.526 145 352.345 138.015 352.345 130.999C352.345 124.96 351.737 118.925 350.537 113.062C349.368 107.348 347.623 101.728 345.352 96.3572C343.121 91.0838 340.361 85.9975 337.146 81.2396C333.962 76.5267 330.306 72.0949 326.278 68.0672C322.25 64.0395 317.819 60.3828 313.106 57.1988C308.348 53.9845 303.261 51.2237 297.988 48.9932C292.617 46.7216 286.997 44.9769 281.283 43.8077C275.42 42.6079 269.385 41.9995 263.345 41.9995C253.346 41.9995 243.531 43.6452 234.172 46.8908L233.383 47.1646L232.973 46.4362C225.357 32.8943 214.279 21.5217 200.937 13.5479C194.189 9.51527 186.94 6.39905 179.391 4.28573C171.602 2.10545 163.512 1 155.345 1C144.361 1 133.638 2.977 123.475 6.87605C113.657 10.6427 104.65 16.0837 96.7052 23.048C88.806 29.9722 82.2507 38.1422 77.2213 47.3308C72.0685 56.7451 68.7006 66.9073 67.2113 77.5349L67.0998 78.3304L66.299 78.3931C57.3408 79.0943 48.7219 81.4529 40.6818 85.4032C32.8694 89.2417 25.8932 94.4335 19.947 100.834C7.72888 113.987 1.00002 131.123 1.00002 149.087C1.00002 158.66 2.87479 167.947 6.57229 176.689C8.34947 180.891 10.5492 184.943 13.1102 188.734C15.6472 192.489 18.5607 196.02 21.7699 199.23C24.9791 202.439 28.5104 205.352 32.2655 207.889C36.0565 210.45 40.109 212.65 44.3107 214.427C53.0525 218.125 62.3392 220 71.9127 220H263.345H275.437ZM275.437 221H263.345H71.9127C32.1966 221 1.52588e-05 188.803 1.52588e-05 149.087C1.52588e-05 111.286 29.1647 80.2967 66.221 77.3961C72.3504 33.6574 109.917 0 155.345 0C189.048 0 218.422 18.5232 233.845 45.946C243.087 42.7407 253.012 40.9995 263.345 40.9995C313.051 40.9995 353.345 81.2943 353.345 130.999C353.345 145.456 349.936 159.118 343.879 171.223C334.544 200.108 307.431 221 275.437 221Z" fill="white" fill-opacity="0.5"/>
</g>
</g>
<defs>
<filter id="filter0_f_240_5057" x="-3.99998" y="-4" width="361.345" height="299.582" filterUnits="userSpaceOnUse" color-interpolation-filters="sRGB">
<feFlood flood-opacity="0" result="BackgroundImageFix"/>
<feBlend mode="normal" in="SourceGraphic" in2="BackgroundImageFix" result="shape"/>
<feGaussianBlur stdDeviation="2" result="effect1_foregroundBlur_240_5057"/>
</filter>
<filter id="filter1_d_240_5057" x="-20" y="-28" width="413.345" height="281" filterUnits="userSpaceOnUse" color-interpolation-filters="sRGB">
<feFlood flood-opacity="0" result="BackgroundImageFix"/>
<feColorMatrix in="SourceAlpha" type="matrix" values="0 0 0 0 0 0 0 0 0 0 0 0 0 0 0 0 0 0 127 0" result="hardAlpha"/>
<feOffset dx="10" dy="2"/>
<feGaussianBlur stdDeviation="15"/>
<feColorMatrix type="matrix" values="0 0 0 0 0.258824 0 0 0 0 0.627451 0 0 0 0 0.941176 0 0 0 0.596 0"/>
<feBlend mode="normal" in2="BackgroundImageFix" result="effect1_dropShadow_240_5057"/>
<feBlend mode="normal" in="SourceGraphic" in2="effect1_dropShadow_240_5057" result="shape"/>
</filter>
<linearGradient id="paint0_linear_240_5057" x1="72.6007" y1="240.532" x2="40.6122" y2="228.805" gradientUnits="userSpaceOnUse">
<stop stop-color="#FFD100"/>
<stop offset="1" stop-color="#FFF0AA"/>
</linearGradient>
<linearGradient id="paint1_linear_240_5057" x1="176.698" y1="0.00256348" x2="279.341" y2="248.166" gradientUnits="userSpaceOnUse">
<stop stop-color="white" stop-opacity="0.604"/>
<stop offset="1" stop-color="white" stop-opacity="0.2"/>
</linearGradient>
</defs>
</svg>
