<svg width="393" height="363" viewBox="0 0 393 363" fill="none" xmlns="http://www.w3.org/2000/svg">
<g filter="url(#filter0_f_240_5208)">
<path d="M172.613 199.467C176.526 199.511 216.226 261.496 216.226 285.583C216.226 297.15 211.631 308.243 203.452 316.422C195.273 324.601 184.18 329.196 172.613 329.196C161.046 329.196 149.953 324.601 141.774 316.422C133.595 308.243 129 297.15 129 285.583C129 261.496 168.7 199.424 172.613 199.467Z" fill="#42A0F0"/>
<path d="M139.36 301.886C143.718 303.219 149.256 297.738 151.731 289.644C154.205 281.551 152.678 273.91 148.32 272.578C143.963 271.245 138.424 276.726 135.95 284.82C133.475 292.913 135.002 300.554 139.36 301.886Z" fill="white"/>
<path d="M275.359 281.209C277.824 281.238 302.839 320.293 302.839 335.47C302.795 342.73 299.881 349.677 294.732 354.795C289.583 359.913 282.618 362.785 275.358 362.785C268.099 362.785 261.134 359.913 255.985 354.795C250.836 349.677 247.922 342.73 247.878 335.47C247.878 320.293 272.893 281.182 275.359 281.209Z" fill="#42A0F0"/>
<path d="M254.406 345.742C257.152 346.582 260.642 343.129 262.201 338.029C263.76 332.93 262.798 328.116 260.052 327.276C257.306 326.437 253.816 329.89 252.257 334.989C250.698 340.089 251.66 344.903 254.406 345.742Z" fill="white"/>
<path d="M103.268 5.72324C110.278 5.72148 117.27 6.42975 124.137 7.83723C137.39 10.5669 149.974 15.8889 161.164 23.4972C176.667 34.0049 189.053 48.4947 197.021 65.4437C204.989 82.3927 208.244 101.175 206.444 119.817C204.644 138.459 197.856 156.271 186.793 171.383C175.73 186.495 160.801 198.347 143.574 205.695C137.312 208.356 130.8 210.388 124.136 211.76C109.685 214.69 94.7754 214.508 80.4005 211.224C66.0257 207.941 52.5155 201.632 40.77 192.718C29.0244 183.804 19.3132 172.489 12.2832 159.528C5.25319 146.566 1.06578 132.256 -7.62939e-05 117.549C11.3314 120.201 23.1023 120.372 34.5059 118.049C44.7389 115.954 54.4592 111.863 63.1119 106.012C75.9742 97.329 86.0422 85.1018 92.0959 70.8122C94.1414 65.9727 95.7027 60.9425 96.7569 55.7952C99.004 44.7666 98.9209 33.3899 96.5129 22.3952C95.3016 16.8975 93.5102 11.5439 91.1689 6.42424C95.185 5.95689 99.2248 5.72282 103.268 5.72324Z" fill="#713FFD"/>
<g filter="url(#filter1_f_240_5208)">
<path d="M173.339 37.8963C150.095 16.9668 119.644 12.8915 105.325 28.7939C91.0065 44.6964 98.2424 74.5545 121.487 95.484C144.732 116.414 175.182 120.489 189.501 104.586C203.82 88.6839 196.584 58.8258 173.339 37.8963Z" fill="#A586FC"/>
</g>
<g filter="url(#filter2_d_240_5208)">
<path d="M302.346 281.002H110.914C92.3436 280.988 74.4986 273.791 61.1147 260.917C47.7308 248.043 39.8457 230.491 39.1102 211.936C38.3747 193.38 44.8457 175.259 57.1687 161.366C69.4916 147.473 86.711 138.886 105.222 137.402C107.862 118.762 116.279 101.419 129.29 87.8122C142.3 74.2055 159.249 65.0202 177.753 61.5486C196.256 58.077 215.382 60.4938 232.44 68.459C249.498 76.4242 263.629 89.5368 272.846 105.952C289.751 100.1 308.016 99.4165 325.311 103.988C342.606 108.559 358.147 118.179 369.953 131.619C381.758 145.06 389.293 161.712 391.595 179.452C393.897 197.192 390.863 215.216 382.88 231.225C378.195 245.69 369.048 258.299 356.752 267.242C344.456 276.184 329.642 281.002 314.438 281.002H302.346Z" fill="url(#paint0_linear_240_5208)"/>
<path d="M314.438 280.002C322.158 280.002 329.749 278.769 336.999 276.338C344.01 273.987 350.591 270.556 356.561 266.141C362.463 261.777 367.636 256.549 371.937 250.603C376.291 244.582 379.653 237.959 381.928 230.917L381.952 230.845L381.986 230.777C385.012 224.73 387.342 218.333 388.912 211.763C390.527 205.002 391.346 198.017 391.346 191.002C391.346 184.963 390.738 178.928 389.538 173.064C388.369 167.35 386.624 161.73 384.353 156.359C382.122 151.086 379.362 146 376.147 141.242C372.963 136.529 369.307 132.097 365.279 128.069C361.251 124.042 356.82 120.385 352.107 117.201C347.349 113.987 342.262 111.226 336.989 108.995C331.618 106.724 325.998 104.979 320.284 103.81C314.421 102.61 308.386 102.002 302.346 102.002C292.347 102.002 282.532 103.647 273.173 106.893L272.384 107.167L271.974 106.438C264.358 92.8965 253.28 81.5239 239.938 73.5501C233.19 69.5175 225.941 66.4012 218.392 64.2879C210.603 62.1077 202.513 61.0022 194.346 61.0022C183.362 61.0022 172.639 62.9792 162.476 66.8782C152.658 70.6449 143.651 76.0859 135.706 83.0502C127.807 89.9744 121.252 98.1444 116.222 107.333C111.069 116.747 107.702 126.909 106.212 137.537L106.101 138.333L105.3 138.395C96.3418 139.096 87.7229 141.455 79.6828 145.405C71.8703 149.244 64.8942 154.436 58.948 160.837C46.7298 173.989 40.001 191.125 40.001 209.089C40.001 218.663 41.8757 227.949 45.5732 236.691C47.3504 240.893 49.5501 244.945 52.1112 248.736C54.6482 252.491 57.5617 256.023 60.7709 259.232C63.9801 262.441 67.5113 265.355 71.2665 267.892C75.0574 270.453 79.11 272.652 83.3116 274.429C92.0534 278.127 101.34 280.002 110.914 280.002H302.346H314.438ZM314.438 281.002H302.346H110.914C71.1976 281.002 39.001 248.805 39.001 209.089C39.001 171.288 68.1656 140.299 105.222 137.398C111.351 93.6596 148.918 60.0022 194.346 60.0022C228.048 60.0022 257.423 78.5254 272.846 105.948C282.088 102.743 292.013 101.002 302.346 101.002C352.052 101.002 392.346 141.297 392.346 191.002C392.346 205.458 388.937 219.121 382.88 231.225C373.545 260.11 346.432 281.002 314.438 281.002Z" fill="white" fill-opacity="0.5"/>
</g>
</g>
<defs>
<filter id="filter0_f_240_5208" x="-4.00012" y="1.72327" width="400.347" height="365.062" filterUnits="userSpaceOnUse" color-interpolation-filters="sRGB">
<feFlood flood-opacity="0" result="BackgroundImageFix"/>
<feBlend mode="normal" in="SourceGraphic" in2="BackgroundImageFix" result="shape"/>
<feGaussianBlur stdDeviation="2" result="effect1_foregroundBlur_240_5208"/>
</filter>
<filter id="filter1_f_240_5208" x="77.9736" y="-0.906616" width="138.879" height="135.194" filterUnits="userSpaceOnUse" color-interpolation-filters="sRGB">
<feFlood flood-opacity="0" result="BackgroundImageFix"/>
<feBlend mode="normal" in="SourceGraphic" in2="BackgroundImageFix" result="shape"/>
<feGaussianBlur stdDeviation="10" result="effect1_foregroundBlur_240_5208"/>
</filter>
<filter id="filter2_d_240_5208" x="19.001" y="32.0022" width="413.345" height="281" filterUnits="userSpaceOnUse" color-interpolation-filters="sRGB">
<feFlood flood-opacity="0" result="BackgroundImageFix"/>
<feColorMatrix in="SourceAlpha" type="matrix" values="0 0 0 0 0 0 0 0 0 0 0 0 0 0 0 0 0 0 127 0" result="hardAlpha"/>
<feOffset dx="10" dy="2"/>
<feGaussianBlur stdDeviation="15"/>
<feColorMatrix type="matrix" values="0 0 0 0 0.258824 0 0 0 0 0.627451 0 0 0 0 0.941176 0 0 0 0.596 0"/>
<feBlend mode="normal" in2="BackgroundImageFix" result="effect1_dropShadow_240_5208"/>
<feBlend mode="normal" in="SourceGraphic" in2="effect1_dropShadow_240_5208" result="shape"/>
</filter>
<linearGradient id="paint0_linear_240_5208" x1="215.699" y1="60.0048" x2="318.342" y2="308.169" gradientUnits="userSpaceOnUse">
<stop stop-color="white" stop-opacity="0.604"/>
<stop offset="1" stop-color="white" stop-opacity="0.2"/>
</linearGradient>
</defs>
</svg>
