<svg width="354" height="268" viewBox="0 0 354 268" fill="none" xmlns="http://www.w3.org/2000/svg">
<g filter="url(#filter0_f_240_5917)">
<path d="M269.8 151.377C269.8 151.377 251.038 168.269 236.374 167.71C217.992 166.993 214.844 152.271 197.81 151.377C179.981 151.554 178.162 166.824 158.837 167.71C141.522 167.504 134.187 151.653 117.683 151.377C101.179 151.101 83.583 167.71 83.583 167.71" stroke="white" stroke-width="20" stroke-linecap="round"/>
<path d="M205.8 205.377C205.8 205.377 187.038 222.269 172.374 221.71C153.992 220.993 150.844 206.271 133.81 205.377C115.981 205.554 114.162 220.824 94.837 221.71C77.522 221.504 70.187 205.653 53.683 205.377C37.179 205.101 19.583 221.71 19.583 221.71" stroke="white" stroke-width="20" stroke-linecap="round"/>
<path d="M303.8 251.377C303.8 251.377 285.038 268.269 270.374 267.71C251.992 266.993 248.844 252.271 231.81 251.377C213.981 251.554 212.162 266.824 192.837 267.71C175.522 267.504 168.187 251.653 151.683 251.377C135.179 251.101 117.583 267.71 117.583 267.71" stroke="white" stroke-width="20" stroke-linecap="round"/>
<g filter="url(#filter1_d_240_5917)">
<path d="M263.345 221H71.913C53.3426 220.986 35.4976 213.789 22.1137 200.915C8.72979 188.041 0.844732 170.489 0.109217 151.933C-0.626298 133.377 5.84476 115.256 18.1677 101.364C30.4906 87.4711 47.71 78.884 66.221 77.4C68.8608 58.76 77.2781 41.4167 90.2887 27.81C103.299 14.2033 120.248 5.01798 138.752 1.54638C157.255 -1.92522 176.381 0.491568 193.439 8.45673C210.497 16.4219 224.628 29.5346 233.845 45.95C250.75 40.098 269.015 39.4143 286.311 43.986C303.606 48.5577 319.148 58.1776 330.953 71.6186C342.759 85.0597 350.293 101.713 352.594 119.453C354.896 137.194 351.861 155.218 343.877 171.227C339.192 185.69 330.045 198.298 317.749 207.24C305.453 216.182 290.641 220.999 275.437 221H263.345Z" fill="url(#paint0_linear_240_5917)"/>
<path d="M275.437 220C283.156 220 290.746 218.767 297.996 216.336C305.006 213.985 311.587 210.555 317.557 206.14C323.458 201.776 328.631 196.548 332.932 190.602C337.287 184.582 340.649 177.96 342.925 170.919L342.949 170.847L342.983 170.779C346.01 164.731 348.341 158.333 349.911 151.763C351.526 145.003 352.345 138.017 352.345 130.999C352.345 124.96 351.737 118.925 350.537 113.062C349.368 107.348 347.623 101.728 345.352 96.3571C343.121 91.0837 340.36 85.9975 337.146 81.2396C333.962 76.5267 330.305 72.0948 326.278 68.0671C322.25 64.0394 317.818 60.3828 313.105 57.1988C308.347 53.9844 303.261 51.2236 297.988 48.9932C292.617 46.7216 286.997 44.9769 281.283 43.8077C275.42 42.6078 269.384 41.9995 263.345 41.9995C253.346 41.9995 243.531 43.6451 234.172 46.8906L233.383 47.1645L232.973 46.4361C225.357 32.8942 214.279 21.5216 200.937 13.5478C194.189 9.5152 186.94 6.39897 179.391 4.28565C171.602 2.10542 163.512 0.999969 155.345 0.999969C144.361 0.999969 133.638 2.97697 123.475 6.87601C113.657 10.6427 104.65 16.0837 96.7052 23.048C88.806 29.9722 82.2507 38.1422 77.2213 47.3308C72.0685 56.7451 68.7006 66.9072 67.2113 77.5349L67.0998 78.3304L66.299 78.3931C57.3408 79.0942 48.7219 81.4528 40.6818 85.4032C32.8694 89.2417 25.8932 94.4335 19.947 100.834C7.72886 113.987 1 131.123 1 149.087C1 158.66 2.87477 167.947 6.57227 176.689C8.34945 180.89 10.5491 184.943 13.1102 188.734C15.6472 192.489 18.5607 196.02 21.7699 199.23C24.9791 202.439 28.5104 205.352 32.2655 207.889C36.0565 210.45 40.109 212.65 44.3106 214.427C53.0525 218.125 62.3391 220 71.9127 220H263.345H275.437ZM275.437 221H263.345H71.9127C32.1966 221 0 188.803 0 149.087C0 111.286 29.1646 80.2967 66.221 77.3961C72.3504 33.6573 109.917 -3.05176e-05 155.345 -3.05176e-05C189.048 -3.05176e-05 218.422 18.5231 233.845 45.9459C243.087 42.7406 253.012 40.9995 263.345 40.9995C313.051 40.9995 353.345 81.2943 353.345 130.999C353.345 145.459 349.936 159.121 343.877 171.227C334.54 200.109 307.427 221 275.437 221Z" fill="white" fill-opacity="0.5"/>
</g>
</g>
<defs>
<filter id="filter0_f_240_5917" x="-4" y="-4.00003" width="361.345" height="285.723" filterUnits="userSpaceOnUse" color-interpolation-filters="sRGB">
<feFlood flood-opacity="0" result="BackgroundImageFix"/>
<feBlend mode="normal" in="SourceGraphic" in2="BackgroundImageFix" result="shape"/>
<feGaussianBlur stdDeviation="2" result="effect1_foregroundBlur_240_5917"/>
</filter>
<filter id="filter1_d_240_5917" x="-20" y="-28" width="413.345" height="281" filterUnits="userSpaceOnUse" color-interpolation-filters="sRGB">
<feFlood flood-opacity="0" result="BackgroundImageFix"/>
<feColorMatrix in="SourceAlpha" type="matrix" values="0 0 0 0 0 0 0 0 0 0 0 0 0 0 0 0 0 0 127 0" result="hardAlpha"/>
<feOffset dx="10" dy="2"/>
<feGaussianBlur stdDeviation="15"/>
<feColorMatrix type="matrix" values="0 0 0 0 0.258824 0 0 0 0 0.627451 0 0 0 0 0.941176 0 0 0 0.596 0"/>
<feBlend mode="normal" in2="BackgroundImageFix" result="effect1_dropShadow_240_5917"/>
<feBlend mode="normal" in="SourceGraphic" in2="effect1_dropShadow_240_5917" result="shape"/>
</filter>
<linearGradient id="paint0_linear_240_5917" x1="176.698" y1="0.00250244" x2="279.341" y2="248.166" gradientUnits="userSpaceOnUse">
<stop stop-color="white" stop-opacity="0.604"/>
<stop offset="1" stop-color="white" stop-opacity="0.2"/>
</linearGradient>
</defs>
</svg>
