<svg width="401" height="379" viewBox="0 0 401 379" fill="none" xmlns="http://www.w3.org/2000/svg">
<g filter="url(#filter0_f_240_5419)">
<path d="M206.333 207.001H274.405L235.272 264.467L281.027 265.333L184.99 379.001L208.26 292.338H165.66L206.333 207.001Z" fill="url(#paint0_linear_240_5419)"/>
<path d="M311.518 267.484H341.405L324.224 292.715L344.313 293.095L302.147 343.001L312.364 304.952H293.664L311.518 267.484Z" fill="url(#paint1_linear_240_5419)"/>
<path d="M104.518 293.001H134.405L117.224 318.232L137.313 318.612L95.147 368.518L105.364 330.469H86.664L104.518 293.001Z" fill="url(#paint2_linear_240_5419)"/>
<path d="M103.268 5.72324C110.278 5.72148 117.27 6.42975 124.137 7.83723C137.39 10.5669 149.974 15.8889 161.164 23.4972C176.667 34.0049 189.053 48.4947 197.021 65.4437C204.989 82.3927 208.244 101.175 206.444 119.817C204.645 138.459 197.856 156.271 186.793 171.383C175.73 186.495 160.801 198.347 143.574 205.695C137.312 208.356 130.8 210.388 124.136 211.76C109.685 214.69 94.7755 214.508 80.4006 211.224C66.0257 207.941 52.5155 201.632 40.77 192.718C29.0245 183.804 19.3133 172.489 12.2833 159.528C5.25325 146.566 1.06584 132.256 -1.52588e-05 117.549C11.3315 120.201 23.1024 120.372 34.506 118.049C44.739 115.954 54.4592 111.863 63.112 106.012C75.9743 97.329 86.0423 85.1018 92.096 70.8122C94.1415 65.9727 95.7028 60.9425 96.757 55.7952C99.0041 44.7666 98.921 33.3899 96.513 22.3952C95.3017 16.8975 93.5103 11.5439 91.169 6.42424C95.1851 5.95689 99.2248 5.72282 103.268 5.72324Z" fill="#713FFD"/>
<g filter="url(#filter1_f_240_5419)">
<path d="M173.339 37.8963C150.095 16.9668 119.644 12.8915 105.325 28.7939C91.0065 44.6964 98.2424 74.5545 121.487 95.484C144.732 116.414 175.183 120.489 189.501 104.586C203.82 88.6839 196.584 58.8258 173.339 37.8963Z" fill="#A586FC"/>
</g>
<g filter="url(#filter2_d_240_5419)">
<path d="M310.345 281.002H118.913C100.343 280.988 82.4975 273.791 69.1136 260.917C55.7297 248.043 47.8447 230.491 47.1092 211.936C46.3736 193.38 52.8447 175.259 65.1676 161.366C77.4906 147.473 94.7099 138.886 113.221 137.402C115.861 118.762 124.278 101.419 137.289 87.8122C150.299 74.2055 167.248 65.0202 185.752 61.5486C204.255 58.077 223.381 60.4938 240.439 68.459C257.497 76.4242 271.628 89.5368 280.845 105.952C297.75 100.1 316.015 99.4165 333.311 103.988C350.606 108.56 366.148 118.18 377.953 131.621C389.758 145.062 397.293 161.715 399.594 179.456C401.896 197.196 398.861 215.221 390.877 231.229C386.191 245.693 377.044 258.3 364.749 267.242C352.453 276.184 337.641 281.001 322.437 281.002H310.345Z" fill="url(#paint3_linear_240_5419)"/>
<path d="M322.437 280.002C330.156 280.002 337.746 278.769 344.996 276.338C352.006 273.987 358.588 270.557 364.557 266.142C370.458 261.778 375.631 256.55 379.932 250.605C384.287 244.585 387.649 237.962 389.925 230.921L389.949 230.849L389.983 230.781C393.01 224.733 395.341 218.335 396.911 211.765C398.526 205.005 399.345 198.019 399.345 191.002C399.345 184.963 398.737 178.928 397.537 173.064C396.368 167.35 394.623 161.73 392.352 156.359C390.121 151.086 387.36 146 384.146 141.242C380.962 136.529 377.305 132.097 373.278 128.069C369.25 124.042 364.818 120.385 360.105 117.201C355.347 113.987 350.261 111.226 344.988 108.995C339.617 106.724 333.997 104.979 328.283 103.81C322.42 102.61 316.385 102.002 310.345 102.002C300.346 102.002 290.531 103.647 281.172 106.893L280.383 107.167L279.973 106.438C272.357 92.8964 261.279 81.5238 247.937 73.55C241.189 69.5174 233.94 66.4012 226.391 64.2879C218.602 62.1077 210.512 61.0022 202.345 61.0022C191.361 61.0022 180.638 62.9792 170.475 66.8782C160.657 70.6449 151.65 76.0859 143.705 83.0502C135.806 89.9744 129.251 98.1444 124.221 107.333C119.069 116.747 115.701 126.909 114.211 137.537L114.1 138.333L113.299 138.395C104.341 139.096 95.7219 141.455 87.6818 145.405C79.8694 149.244 72.8932 154.436 66.947 160.837C54.7289 173.989 48 191.125 48 209.089C48 218.663 49.8748 227.949 53.5723 236.691C55.3495 240.893 57.5492 244.945 60.1103 248.736C62.6472 252.491 65.5608 256.023 68.7699 259.232C71.9791 262.441 75.5104 265.355 79.2655 267.892C83.0565 270.453 87.109 272.652 91.3107 274.429C100.052 278.127 109.339 280.002 118.913 280.002H310.345H322.437ZM322.437 281.002H310.345H118.913C79.1966 281.002 47 248.805 47 209.089C47 171.288 76.1647 140.299 113.221 137.398C119.35 93.6596 156.917 60.0022 202.345 60.0022C236.048 60.0022 265.422 78.5253 280.845 105.948C290.087 102.743 300.012 101.002 310.345 101.002C360.051 101.002 400.345 141.297 400.345 191.002C400.345 205.461 396.936 219.123 390.877 231.229C381.54 260.111 354.427 281.002 322.437 281.002Z" fill="white" fill-opacity="0.5"/>
</g>
</g>
<defs>
<filter id="filter0_f_240_5419" x="-4" y="1.72327" width="408.345" height="381.278" filterUnits="userSpaceOnUse" color-interpolation-filters="sRGB">
<feFlood flood-opacity="0" result="BackgroundImageFix"/>
<feBlend mode="normal" in="SourceGraphic" in2="BackgroundImageFix" result="shape"/>
<feGaussianBlur stdDeviation="2" result="effect1_foregroundBlur_240_5419"/>
</filter>
<filter id="filter1_f_240_5419" x="77.9738" y="-0.906616" width="138.879" height="135.194" filterUnits="userSpaceOnUse" color-interpolation-filters="sRGB">
<feFlood flood-opacity="0" result="BackgroundImageFix"/>
<feBlend mode="normal" in="SourceGraphic" in2="BackgroundImageFix" result="shape"/>
<feGaussianBlur stdDeviation="10" result="effect1_foregroundBlur_240_5419"/>
</filter>
<filter id="filter2_d_240_5419" x="27" y="32.0022" width="413.345" height="281" filterUnits="userSpaceOnUse" color-interpolation-filters="sRGB">
<feFlood flood-opacity="0" result="BackgroundImageFix"/>
<feColorMatrix in="SourceAlpha" type="matrix" values="0 0 0 0 0 0 0 0 0 0 0 0 0 0 0 0 0 0 127 0" result="hardAlpha"/>
<feOffset dx="10" dy="2"/>
<feGaussianBlur stdDeviation="15"/>
<feColorMatrix type="matrix" values="0 0 0 0 0.258824 0 0 0 0 0.627451 0 0 0 0 0.941176 0 0 0 0.596 0"/>
<feBlend mode="normal" in2="BackgroundImageFix" result="effect1_dropShadow_240_5419"/>
<feBlend mode="normal" in="SourceGraphic" in2="effect1_dropShadow_240_5419" result="shape"/>
</filter>
<linearGradient id="paint0_linear_240_5419" x1="212.73" y1="293.001" x2="158.841" y2="273.245" gradientUnits="userSpaceOnUse">
<stop stop-color="#FFD100"/>
<stop offset="1" stop-color="#FFF0AA"/>
</linearGradient>
<linearGradient id="paint1_linear_240_5419" x1="314.329" y1="305.243" x2="290.67" y2="296.57" gradientUnits="userSpaceOnUse">
<stop stop-color="#FFD100"/>
<stop offset="1" stop-color="#FFF0AA"/>
</linearGradient>
<linearGradient id="paint2_linear_240_5419" x1="107.329" y1="330.76" x2="83.67" y2="322.087" gradientUnits="userSpaceOnUse">
<stop stop-color="#FFD100"/>
<stop offset="1" stop-color="#FFF0AA"/>
</linearGradient>
<linearGradient id="paint3_linear_240_5419" x1="223.698" y1="60.0048" x2="326.341" y2="308.169" gradientUnits="userSpaceOnUse">
<stop stop-color="white" stop-opacity="0.604"/>
<stop offset="1" stop-color="white" stop-opacity="0.2"/>
</linearGradient>
</defs>
</svg>
