<svg width="354" height="221" viewBox="0 0 354 221" fill="none" xmlns="http://www.w3.org/2000/svg">
<g filter="url(#filter0_f_240_6192)">
<g filter="url(#filter1_d_240_6192)">
<path d="M263.345 221H71.913C53.3426 220.986 35.4975 213.789 22.1136 200.915C8.72974 188.041 0.844686 170.489 0.109171 151.933C-0.626344 133.377 5.84471 115.256 18.1676 101.364C30.4906 87.4711 47.71 78.884 66.221 77.4C68.8608 58.76 77.2781 41.4167 90.2887 27.81C103.299 14.2033 120.248 5.01798 138.752 1.54638C157.255 -1.92522 176.381 0.491568 193.439 8.45673C210.497 16.4219 224.628 29.5346 233.845 45.95C250.75 40.0981 269.015 39.4143 286.31 43.9857C303.605 48.5571 319.146 58.1765 330.952 71.617C342.757 85.0574 350.292 101.71 352.594 119.45C354.896 137.19 351.862 155.214 343.879 171.223C339.194 185.688 330.047 198.296 317.751 207.239C305.455 216.182 290.641 221 275.437 221H263.345Z" fill="url(#paint0_linear_240_6192)"/>
<path d="M275.437 220C283.157 220 290.748 218.767 297.998 216.336C305.009 213.985 311.59 210.554 317.56 206.139C323.462 201.775 328.635 196.547 332.936 190.6C337.29 184.58 340.652 177.957 342.928 170.915L342.951 170.843L342.985 170.775C346.011 164.728 348.341 158.33 349.911 151.761C351.526 145 352.345 138.015 352.345 130.999C352.345 124.96 351.737 118.925 350.537 113.062C349.368 107.348 347.623 101.728 345.352 96.3571C343.121 91.0837 340.361 85.9975 337.146 81.2396C333.962 76.5267 330.306 72.0948 326.278 68.0671C322.25 64.0394 317.819 60.3828 313.106 57.1988C308.348 53.9844 303.261 51.2236 297.988 48.9932C292.617 46.7216 286.997 44.9769 281.283 43.8077C275.42 42.6078 269.385 41.9995 263.345 41.9995C253.346 41.9995 243.531 43.6451 234.172 46.8907L233.383 47.1646L232.973 46.4361C225.357 32.8943 214.279 21.5217 200.937 13.5478C194.189 9.51524 186.94 6.39901 179.391 4.2857C171.602 2.10542 163.512 0.999969 155.345 0.999969C144.361 0.999969 133.638 2.97697 123.475 6.87601C113.657 10.6427 104.65 16.0837 96.7052 23.048C88.806 29.9722 82.2507 38.1422 77.2213 47.3308C72.0685 56.7451 68.7006 66.9072 67.2113 77.5349L67.0998 78.3304L66.299 78.3931C57.3408 79.0942 48.7219 81.4528 40.6818 85.4032C32.8694 89.2417 25.8932 94.4335 19.947 100.834C7.72888 113.987 1.00002 131.123 1.00002 149.087C1.00002 158.66 2.87479 167.947 6.57229 176.689C8.34947 180.89 10.5492 184.943 13.1102 188.734C15.6472 192.489 18.5607 196.02 21.7699 199.23C24.9791 202.439 28.5104 205.352 32.2655 207.889C36.0565 210.45 40.109 212.65 44.3107 214.427C53.0525 218.125 62.3392 220 71.9127 220H263.345H275.437ZM275.437 221H263.345H71.9127C32.1966 221 1.52588e-05 188.803 1.52588e-05 149.087C1.52588e-05 111.286 29.1647 80.2967 66.221 77.3961C72.3504 33.6573 109.917 -3.05176e-05 155.345 -3.05176e-05C189.048 -3.05176e-05 218.422 18.5232 233.845 45.946C243.087 42.7407 253.012 40.9995 263.345 40.9995C313.051 40.9995 353.345 81.2943 353.345 130.999C353.345 145.456 349.936 159.118 343.879 171.223C334.544 200.108 307.431 221 275.437 221Z" fill="white" fill-opacity="0.5"/>
</g>
</g>
<defs>
<filter id="filter0_f_240_6192" x="-3.99998" y="-4.00003" width="361.345" height="229" filterUnits="userSpaceOnUse" color-interpolation-filters="sRGB">
<feFlood flood-opacity="0" result="BackgroundImageFix"/>
<feBlend mode="normal" in="SourceGraphic" in2="BackgroundImageFix" result="shape"/>
<feGaussianBlur stdDeviation="2" result="effect1_foregroundBlur_240_6192"/>
</filter>
<filter id="filter1_d_240_6192" x="-20" y="-28" width="413.345" height="281" filterUnits="userSpaceOnUse" color-interpolation-filters="sRGB">
<feFlood flood-opacity="0" result="BackgroundImageFix"/>
<feColorMatrix in="SourceAlpha" type="matrix" values="0 0 0 0 0 0 0 0 0 0 0 0 0 0 0 0 0 0 127 0" result="hardAlpha"/>
<feOffset dx="10" dy="2"/>
<feGaussianBlur stdDeviation="15"/>
<feColorMatrix type="matrix" values="0 0 0 0 0.258824 0 0 0 0 0.627451 0 0 0 0 0.941176 0 0 0 0.596 0"/>
<feBlend mode="normal" in2="BackgroundImageFix" result="effect1_dropShadow_240_6192"/>
<feBlend mode="normal" in="SourceGraphic" in2="effect1_dropShadow_240_6192" result="shape"/>
</filter>
<linearGradient id="paint0_linear_240_6192" x1="176.698" y1="0.00250244" x2="279.341" y2="248.166" gradientUnits="userSpaceOnUse">
<stop stop-color="white" stop-opacity="0.604"/>
<stop offset="1" stop-color="white" stop-opacity="0.2"/>
</linearGradient>
</defs>
</svg>
