<svg width="446" height="397" viewBox="0 0 446 397" fill="none" xmlns="http://www.w3.org/2000/svg">
<g filter="url(#filter0_f_240_5812)">
<path d="M303.804 192.961C299.44 165.024 279.339 143.415 247.428 143.006C215.517 142.598 204.931 164.974 204.931 164.974" stroke="#9832E1" stroke-width="14.0073" stroke-linecap="round"/>
<path d="M314.05 200.323C312.666 181.762 311.442 155.574 278.174 138.549C244.905 121.525 208.24 134.595 194.746 160.048" stroke="#486BF3" stroke-width="14" stroke-linecap="round" stroke-linejoin="round"/>
<path d="M324.296 207.686C330.95 169.41 306.094 131.246 264.175 122.339C222.256 113.432 199.833 132.177 185.42 152.967" stroke="#74D248" stroke-width="14.0028" stroke-linecap="round"/>
<path d="M334.099 215.482C343.677 167.857 312.835 121.485 265.209 111.906C217.584 102.328 187.477 125.783 175.814 146.808" stroke="#EDF000" stroke-width="14.0056" stroke-linecap="round"/>
<path d="M341.492 224.629C357.383 177.888 329.107 123.529 278.558 106.564C228.009 89.5989 185.766 106.315 164.206 145.882" stroke="#F18431" stroke-width="14" stroke-linecap="round"/>
<path d="M346.362 236.395C371.516 183.784 345.994 127.974 293.383 102.821C240.771 77.6672 178.924 90.4853 153.771 143.097" stroke="#DD3930" stroke-width="13" stroke-linecap="round"/>
</g>
<g filter="url(#filter1_f_240_5812)">
<g filter="url(#filter2_d_240_5812)">
<path d="M263.345 367.473H71.913C53.3426 367.459 35.4975 360.262 22.1136 347.388C8.72973 334.514 0.844671 316.962 0.109156 298.406C-0.626359 279.85 5.84469 261.729 18.1676 247.837C30.4906 233.944 47.7099 225.357 66.221 223.873C68.8608 205.233 77.278 187.89 90.2887 174.283C103.299 160.676 120.248 151.491 138.752 148.019C157.255 144.548 176.381 146.965 193.439 154.93C210.497 162.895 224.628 176.008 233.845 192.423C250.75 186.571 269.015 185.887 286.311 190.459C303.606 195.031 319.148 204.651 330.953 218.092C342.758 231.533 350.293 248.186 352.594 265.926C354.896 283.667 351.861 301.691 343.877 317.7C339.191 332.163 330.044 344.771 317.749 353.713C305.453 362.655 290.641 367.472 275.437 367.473H263.345Z" fill="url(#paint0_linear_240_5812)"/>
<path d="M275.437 366.473C283.156 366.473 290.746 365.24 297.996 362.809C305.006 360.458 311.587 357.028 317.557 352.613C323.458 348.249 328.631 343.021 332.932 337.075C337.287 331.055 340.649 324.433 342.925 317.392L342.949 317.32L342.983 317.252C346.01 311.204 348.341 304.806 349.911 298.236C351.526 291.476 352.345 284.49 352.345 277.472C352.345 271.433 351.737 265.398 350.537 259.535C349.368 253.821 347.623 248.201 345.352 242.83C343.121 237.557 340.36 232.47 337.146 227.713C333.962 223 330.305 218.568 326.278 214.54C322.25 210.512 317.818 206.856 313.105 203.672C308.347 200.457 303.261 197.697 297.988 195.466C292.617 193.195 286.997 191.45 281.283 190.281C275.42 189.081 269.384 188.472 263.345 188.472C253.346 188.472 243.531 190.118 234.172 193.364L233.383 193.638L232.973 192.909C225.357 179.367 214.279 167.995 200.937 160.021C194.189 155.988 186.94 152.872 179.391 150.759C171.602 148.578 163.512 147.473 155.345 147.473C144.361 147.473 133.638 149.45 123.475 153.349C113.657 157.116 104.65 162.557 96.7052 169.521C88.806 176.445 82.2507 184.615 77.2213 193.804C72.0685 203.218 68.7006 213.38 67.2113 224.008L67.0998 224.803L66.299 224.866C57.3408 225.567 48.7219 227.926 40.6818 231.876C32.8694 235.715 25.8932 240.907 19.947 247.307C7.72886 260.46 1 277.596 1 295.56C1 305.133 2.87477 314.42 6.57227 323.162C8.34945 327.363 10.5491 331.416 13.1102 335.207C15.6472 338.962 18.5607 342.493 21.7699 345.703C24.9791 348.912 28.5104 351.825 32.2655 354.362C36.0565 356.923 40.109 359.123 44.3106 360.9C53.0525 364.598 62.3391 366.473 71.9127 366.473H263.345H275.437ZM275.437 367.473H263.345H71.9127C32.1966 367.473 0 335.276 0 295.56C0 257.759 29.1646 226.77 66.221 223.869C72.3504 180.13 109.917 146.473 155.345 146.473C189.048 146.473 218.422 164.996 233.845 192.419C243.087 189.214 253.012 187.472 263.345 187.472C313.051 187.472 353.345 227.767 353.345 277.472C353.345 291.932 349.936 305.594 343.877 317.7C334.54 346.582 307.427 367.473 275.437 367.473Z" fill="white" fill-opacity="0.5"/>
</g>
</g>
<defs>
<filter id="filter0_f_240_5812" x="143.27" y="79.9185" width="223.377" height="166.978" filterUnits="userSpaceOnUse" color-interpolation-filters="sRGB">
<feFlood flood-opacity="0" result="BackgroundImageFix"/>
<feBlend mode="normal" in="SourceGraphic" in2="BackgroundImageFix" result="shape"/>
<feGaussianBlur stdDeviation="2" result="effect1_foregroundBlur_240_5812"/>
</filter>
<filter id="filter1_f_240_5812" x="-4" y="142.473" width="361.345" height="229" filterUnits="userSpaceOnUse" color-interpolation-filters="sRGB">
<feFlood flood-opacity="0" result="BackgroundImageFix"/>
<feBlend mode="normal" in="SourceGraphic" in2="BackgroundImageFix" result="shape"/>
<feGaussianBlur stdDeviation="2" result="effect1_foregroundBlur_240_5812"/>
</filter>
<filter id="filter2_d_240_5812" x="-20" y="118.473" width="413.345" height="281" filterUnits="userSpaceOnUse" color-interpolation-filters="sRGB">
<feFlood flood-opacity="0" result="BackgroundImageFix"/>
<feColorMatrix in="SourceAlpha" type="matrix" values="0 0 0 0 0 0 0 0 0 0 0 0 0 0 0 0 0 0 127 0" result="hardAlpha"/>
<feOffset dx="10" dy="2"/>
<feGaussianBlur stdDeviation="15"/>
<feColorMatrix type="matrix" values="0 0 0 0 0.258824 0 0 0 0 0.627451 0 0 0 0 0.941176 0 0 0 0.596 0"/>
<feBlend mode="normal" in2="BackgroundImageFix" result="effect1_dropShadow_240_5812"/>
<feBlend mode="normal" in="SourceGraphic" in2="effect1_dropShadow_240_5812" result="shape"/>
</filter>
<linearGradient id="paint0_linear_240_5812" x1="176.698" y1="146.476" x2="279.341" y2="394.639" gradientUnits="userSpaceOnUse">
<stop stop-color="white" stop-opacity="0.604"/>
<stop offset="1" stop-color="white" stop-opacity="0.2"/>
</linearGradient>
</defs>
</svg>
