<svg width="340" height="177" viewBox="0 0 340 177" fill="none" xmlns="http://www.w3.org/2000/svg">
<g filter="url(#filter0_f_240_6638)">
<path d="M131.687 73.6389C131.687 73.6389 268.776 74.9529 298.457 66.3329C328.138 57.7129 328.1 12.9749 298.457 1.94693C268.814 -9.08107 258.683 30.3379 258.683 30.3379" stroke="#D0D0D0" stroke-width="20" stroke-linecap="round"/>
<path d="M165.709 120.656C165.709 120.656 266.317 111.566 310.67 120.656C355.023 129.746 340.9 155.823 319.88 157.015C298.86 158.207 279.463 144.395 279.463 144.395" stroke="#D0D0D0" stroke-width="20" stroke-linecap="round"/>
<path d="M56.8459 17.589C56.8459 17.589 87.3649 20.119 123.528 20.119C159.691 20.119 208.708 15.373 208.708 15.373" stroke="#D0D0D0" stroke-width="20" stroke-linecap="round"/>
<path d="M58.293 176.931C89.0364 176.931 113.959 151.882 113.959 120.982C113.959 90.0822 89.0364 65.033 58.293 65.033C27.5495 65.033 2.62695 90.0822 2.62695 120.982C2.62695 151.882 27.5495 176.931 58.293 176.931Z" fill="#FA9E42"/>
<g filter="url(#filter1_f_240_6638)">
<path d="M54.2704 113.026C72.771 103.199 83.1188 86.4785 77.3827 75.6791C71.6467 64.8797 51.999 64.091 33.4984 73.9175C14.9977 83.744 4.64997 100.465 10.386 111.264C16.122 122.063 35.7697 122.852 54.2704 113.026Z" fill="#F8E36F"/>
</g>
</g>
<defs>
<filter id="filter0_f_240_6638" x="-1.37305" y="-14" width="355.198" height="194.931" filterUnits="userSpaceOnUse" color-interpolation-filters="sRGB">
<feFlood flood-opacity="0" result="BackgroundImageFix"/>
<feBlend mode="normal" in="SourceGraphic" in2="BackgroundImageFix" result="shape"/>
<feGaussianBlur stdDeviation="2" result="effect1_foregroundBlur_240_6638"/>
</filter>
<filter id="filter1_f_240_6638" x="-11.1964" y="47.0339" width="110.162" height="92.875" filterUnits="userSpaceOnUse" color-interpolation-filters="sRGB">
<feFlood flood-opacity="0" result="BackgroundImageFix"/>
<feBlend mode="normal" in="SourceGraphic" in2="BackgroundImageFix" result="shape"/>
<feGaussianBlur stdDeviation="10" result="effect1_foregroundBlur_240_6638"/>
</filter>
</defs>
</svg>
