<svg width="171" height="282" viewBox="0 0 171 282" fill="none" xmlns="http://www.w3.org/2000/svg">
<g filter="url(#filter0_f_240_6704)">
<path d="M62.239 39.0979L62.239 157.582" stroke="#42A0F0" stroke-width="10" stroke-linecap="round"/>
<path d="M62.0022 68.0608L82.4082 46.9968" stroke="#42A0F0" stroke-width="10" stroke-linecap="round"/>
<path d="M62.0021 68.0608L40.9381 46.9968" stroke="#42A0F0" stroke-width="10" stroke-linecap="round"/>
<path d="M62.0022 131.252L82.4082 152.316" stroke="#42A0F0" stroke-width="10" stroke-linecap="round"/>
<path d="M62.0021 131.252L40.9381 152.316" stroke="#42A0F0" stroke-width="10" stroke-linecap="round"/>
<path d="M113.26 69.2092L10.6503 128.451" stroke="#42A0F0" stroke-width="10" stroke-linecap="round"/>
<path d="M88.0593 83.4854L116.504 90.6255" stroke="#42A0F0" stroke-width="10" stroke-linecap="round"/>
<path d="M88.0593 83.4854L95.7693 54.7114" stroke="#42A0F0" stroke-width="10" stroke-linecap="round"/>
<path d="M33.3344 115.081L25.2954 143.285" stroke="#42A0F0" stroke-width="10" stroke-linecap="round"/>
<path d="M33.3344 115.081L4.56041 107.371" stroke="#42A0F0" stroke-width="10" stroke-linecap="round"/>
<path d="M112.695 128.451L10.0847 69.2092" stroke="#42A0F0" stroke-width="10" stroke-linecap="round"/>
<path d="M87.7305 113.764L95.7694 141.969" stroke="#42A0F0" stroke-width="10" stroke-linecap="round"/>
<path d="M87.7304 113.764L116.504 106.054" stroke="#42A0F0" stroke-width="10" stroke-linecap="round"/>
<path d="M33.0055 82.1689L4.56054 89.3091" stroke="#42A0F0" stroke-width="10" stroke-linecap="round"/>
<path d="M33.0055 82.169L25.2955 53.395" stroke="#42A0F0" stroke-width="10" stroke-linecap="round"/>
</g>
<g filter="url(#filter1_f_240_6704)">
<g filter="url(#filter2_d_240_6704)">
<path d="M77.4001 171.055L77.4001 35C77.4001 25.7174 81.0875 16.815 87.6513 10.2513C94.2151 3.68749 103.117 0 112.4 0C121.683 0 130.585 3.68749 137.149 10.2513C143.713 16.815 147.4 25.7174 147.4 35L147.4 173.97C156.477 181.088 163.309 190.672 167.08 201.573C170.851 212.475 171.4 224.232 168.662 235.437C165.923 246.642 160.014 256.821 151.64 264.755C143.266 272.688 132.784 278.04 121.447 280.17C117.332 281.261 113.054 281.6 108.819 281.17C96.047 280.837 83.7145 276.437 73.617 268.609C63.5194 260.781 56.1839 249.935 52.6783 237.649C49.1728 225.363 49.6802 212.278 54.1267 200.301C58.5732 188.323 66.7266 178.077 77.4001 171.055Z" fill="url(#paint0_linear_240_6704)"/>
<path d="M51.3754 221.189C51.3754 229.029 52.8882 236.644 55.8717 243.821C58.7537 250.754 62.8867 257.005 68.1558 262.402C70.7512 265.061 73.61 267.485 76.6529 269.609C79.7222 271.75 83.0073 273.605 86.4172 275.122C93.4989 278.273 101.045 279.971 108.845 280.169L108.883 280.17L108.92 280.174C110.068 280.291 111.238 280.35 112.4 280.35C115.381 280.35 118.338 279.964 121.189 279.203L121.226 279.193L121.264 279.186C128.003 277.929 134.419 275.521 140.332 272.029C146.123 268.61 151.256 264.258 155.589 259.096C159.954 253.896 163.359 248.046 165.709 241.71C168.142 235.153 169.376 228.248 169.376 221.189C169.376 216.564 168.839 211.958 167.78 207.501C166.751 203.169 165.223 198.949 163.238 194.957C161.289 191.036 158.893 187.323 156.116 183.919C153.356 180.536 150.216 177.453 146.782 174.757L146.4 174.457V173.97L146.4 35.0001C146.4 30.4096 145.501 25.957 143.728 21.766C142.016 17.7174 139.564 14.0811 136.442 10.9583C133.319 7.8355 129.683 5.38386 125.634 3.67146C121.443 1.89882 116.99 1 112.4 1C107.809 1 103.357 1.89882 99.1657 3.67146C95.1171 5.38386 91.4808 7.8355 88.358 10.9583C85.2352 14.0811 82.7835 17.7174 81.0712 21.766C79.2985 25.957 78.3997 30.4096 78.3997 35.0001L78.3997 171.055V171.593L77.95 171.89C69.9464 177.164 63.2754 184.384 58.6579 192.769C56.3107 197.031 54.4999 201.575 53.276 206.275C52.0149 211.117 51.3754 216.135 51.3754 221.189ZM50.3754 221.189C50.3754 200.231 61.1183 181.785 77.3997 171.055L77.3997 35.0001C77.3997 15.6699 93.0696 0 112.4 0C131.73 0 147.4 15.6699 147.4 35.0001L147.4 173.97C161.389 184.955 170.376 202.023 170.376 221.189C170.376 250.543 149.296 274.975 121.447 280.169C118.561 280.94 115.529 281.35 112.4 281.35C111.19 281.35 109.997 281.289 108.819 281.169C76.4006 280.344 50.3754 253.806 50.3754 221.189Z" fill="white" fill-opacity="0.5"/>
</g>
<path d="M111.638 222.559C137.043 222.559 157.638 197.154 157.638 222.559C157.638 234.759 152.792 246.459 144.165 255.086C135.538 263.713 123.838 268.559 111.638 268.559C99.438 268.559 87.7377 263.713 79.111 255.086C70.4844 246.459 65.6379 234.759 65.6379 222.559C65.6379 197.154 86.2329 222.559 111.638 222.559Z" fill="white"/>
</g>
<defs>
<filter id="filter0_f_240_6704" x="-4.4408" y="30.0979" width="129.946" height="136.484" filterUnits="userSpaceOnUse" color-interpolation-filters="sRGB">
<feFlood flood-opacity="0" result="BackgroundImageFix"/>
<feBlend mode="normal" in="SourceGraphic" in2="BackgroundImageFix" result="shape"/>
<feGaussianBlur stdDeviation="2" result="effect1_foregroundBlur_240_6704"/>
</filter>
<filter id="filter1_f_240_6704" x="46.3754" y="-4" width="128.002" height="289.351" filterUnits="userSpaceOnUse" color-interpolation-filters="sRGB">
<feFlood flood-opacity="0" result="BackgroundImageFix"/>
<feBlend mode="normal" in="SourceGraphic" in2="BackgroundImageFix" result="shape"/>
<feGaussianBlur stdDeviation="2" result="effect1_foregroundBlur_240_6704"/>
</filter>
<filter id="filter2_d_240_6704" x="30.3754" y="-28" width="180.002" height="341.351" filterUnits="userSpaceOnUse" color-interpolation-filters="sRGB">
<feFlood flood-opacity="0" result="BackgroundImageFix"/>
<feColorMatrix in="SourceAlpha" type="matrix" values="0 0 0 0 0 0 0 0 0 0 0 0 0 0 0 0 0 0 127 0" result="hardAlpha"/>
<feOffset dx="10" dy="2"/>
<feGaussianBlur stdDeviation="15"/>
<feColorMatrix type="matrix" values="0 0 0 0 0.258824 0 0 0 0 0.627451 0 0 0 0 0.941176 0 0 0 0.596 0"/>
<feBlend mode="normal" in2="BackgroundImageFix" result="effect1_dropShadow_240_6704"/>
<feBlend mode="normal" in="SourceGraphic" in2="effect1_dropShadow_240_6704" result="shape"/>
</filter>
<linearGradient id="paint0_linear_240_6704" x1="155.257" y1="113.947" x2="37.2074" y2="141.913" gradientUnits="userSpaceOnUse">
<stop stop-color="white" stop-opacity="0.596"/>
<stop offset="1" stop-color="#F7F7F7" stop-opacity="0.204"/>
</linearGradient>
</defs>
</svg>
