<svg width="379" height="343" viewBox="0 0 379 343" fill="none" xmlns="http://www.w3.org/2000/svg">
<g filter="url(#filter0_f_240_5510)">
<path d="M103.148 213.763C157.548 213.763 201.648 169.439 201.648 114.763C201.648 60.0868 157.548 15.763 103.148 15.763C48.7479 15.763 4.64795 60.0868 4.64795 114.763C4.64795 169.439 48.7479 213.763 103.148 213.763Z" fill="#FA9E42"/>
<g filter="url(#filter1_f_240_5510)">
<path d="M96.0304 100.684C128.767 83.2963 147.077 53.7096 136.928 34.6003C126.778 15.4911 92.0115 14.0956 59.2749 31.4835C26.5383 48.8713 8.22801 78.4581 18.3778 97.5673C28.5275 116.677 63.2938 118.072 96.0304 100.684Z" fill="#F8E36F"/>
</g>
<path d="M109.701 219.294C110.332 219.312 116.736 244.542 116.736 254.346C116.736 264.15 113.586 272.099 109.701 272.099C105.816 272.099 102.666 264.151 102.666 254.347C102.666 244.543 109.066 219.277 109.701 219.294Z" fill="#42A0F0"/>
<path d="M108.628 248.716C109.656 249.073 109.968 251.293 109.326 253.676C108.684 256.06 107.33 257.702 106.302 257.346C105.274 256.99 104.961 254.768 105.604 252.385C106.247 250.002 107.599 248.359 108.628 248.716Z" fill="white"/>
<path d="M169.632 219.294C170.263 219.312 176.667 244.542 176.667 254.346C176.667 264.15 173.517 272.099 169.632 272.099C165.747 272.099 162.597 264.151 162.597 254.347C162.597 244.543 168.997 219.277 169.632 219.294Z" fill="#42A0F0"/>
<path d="M168.559 248.716C169.587 249.073 169.899 251.293 169.257 253.676C168.615 256.06 167.261 257.702 166.233 257.346C165.206 256.99 164.892 254.768 165.535 252.385C166.178 250.002 167.53 248.359 168.559 248.716Z" fill="white"/>
<path d="M229.563 219.294C230.194 219.312 236.598 244.542 236.598 254.346C236.598 264.15 233.448 272.099 229.563 272.099C225.678 272.099 222.528 264.151 222.528 254.347C222.528 244.543 228.928 219.277 229.563 219.294Z" fill="#42A0F0"/>
<path d="M228.49 248.716C229.518 249.073 229.83 251.293 229.188 253.676C228.546 256.06 227.192 257.702 226.164 257.346C225.137 256.99 224.823 254.768 225.466 252.385C226.109 250.002 227.461 248.359 228.49 248.716Z" fill="white"/>
<path d="M289.494 216.294C290.125 216.312 296.529 241.542 296.529 251.346C296.529 261.15 293.379 269.099 289.494 269.099C285.609 269.099 282.459 261.151 282.459 251.347C282.459 241.543 288.859 216.277 289.494 216.294Z" fill="#42A0F0"/>
<path d="M288.421 245.716C289.449 246.073 289.761 248.293 289.119 250.676C288.477 253.06 287.123 254.702 286.095 254.346C285.068 253.99 284.755 251.768 285.397 249.385C286.04 247.002 287.393 245.359 288.421 245.716Z" fill="white"/>
<path d="M197.834 286.294C198.465 286.312 204.869 311.542 204.869 321.346C204.869 331.15 201.719 339.099 197.834 339.099C193.949 339.099 190.799 331.151 190.799 321.347C190.799 311.543 197.199 286.277 197.834 286.294Z" fill="#42A0F0"/>
<path d="M196.761 315.716C197.789 316.073 198.101 318.293 197.459 320.676C196.817 323.06 195.463 324.702 194.435 324.346C193.408 323.99 193.094 321.768 193.737 319.385C194.38 317.002 195.732 315.359 196.761 315.716Z" fill="white"/>
<path d="M257.765 286.294C258.396 286.312 264.8 311.542 264.8 321.346C264.8 331.15 261.65 339.099 257.765 339.099C253.88 339.099 250.73 331.151 250.73 321.347C250.73 311.543 257.13 286.277 257.765 286.294Z" fill="#42A0F0"/>
<path d="M256.692 315.716C257.72 316.073 258.032 318.293 257.39 320.676C256.748 323.06 255.394 324.702 254.366 324.346C253.339 323.99 253.026 321.768 253.668 319.385C254.311 317.002 255.664 315.359 256.692 315.716Z" fill="white"/>
<path d="M321.222 286.294C321.853 286.312 328.257 311.542 328.257 321.346C328.257 331.15 325.107 339.099 321.222 339.099C317.337 339.099 314.187 331.151 314.187 321.347C314.187 311.543 320.587 286.277 321.222 286.294Z" fill="#42A0F0"/>
<path d="M320.149 315.716C321.177 316.073 321.489 318.293 320.847 320.676C320.206 323.06 318.851 324.702 317.824 324.346C316.796 323.99 316.483 321.768 317.125 319.385C317.768 317.002 319.121 315.359 320.149 315.716Z" fill="white"/>
<path d="M137.904 289.294C138.535 289.312 144.939 314.542 144.939 324.346C144.939 334.15 141.789 342.099 137.904 342.099C134.019 342.099 130.869 334.151 130.869 324.347C130.869 314.543 137.269 289.277 137.904 289.294Z" fill="#42A0F0"/>
<path d="M136.831 318.716C137.859 319.073 138.171 321.293 137.529 323.676C136.887 326.06 135.533 327.702 134.505 327.346C133.478 326.99 133.164 324.768 133.807 322.385C134.45 320.002 135.802 318.359 136.831 318.716Z" fill="white"/>
<path d="M81.4979 286.294C82.1289 286.312 88.5329 311.542 88.5329 321.346C88.5329 331.15 85.3829 339.099 81.4979 339.099C77.6129 339.099 74.4629 331.151 74.4629 321.347C74.4629 311.543 80.8629 286.277 81.4979 286.294Z" fill="#42A0F0"/>
<path d="M80.4252 315.716C81.4527 316.073 81.7652 318.293 81.1233 320.676C80.4814 323.06 79.1272 324.702 78.0994 324.346C77.0716 323.99 76.7584 321.768 77.4013 319.385C78.0442 317.002 79.3964 315.359 80.4252 315.716Z" fill="white"/>
<g filter="url(#filter2_d_240_5510)">
<path d="M288.345 278.937H96.913C78.3426 278.923 60.4976 271.726 47.1137 258.852C33.7298 245.978 25.8447 228.426 25.1092 209.87C24.3737 191.314 30.8448 173.193 43.1677 159.301C55.4906 145.408 72.71 136.821 91.221 135.337C93.8608 116.697 102.278 99.3537 115.289 85.747C128.299 72.1403 145.248 62.955 163.752 59.4834C182.255 56.0118 201.381 58.4286 218.439 66.3937C235.497 74.3589 249.628 87.4716 258.845 103.887C275.75 98.0352 294.015 97.3513 311.31 101.923C328.605 106.494 344.146 116.113 355.952 129.554C367.757 142.994 375.292 159.647 377.594 177.387C379.896 195.127 376.862 213.151 368.879 229.16C364.194 243.625 355.047 256.233 342.751 265.176C330.455 274.119 315.641 278.937 300.437 278.937H288.345Z" fill="url(#paint0_linear_240_5510)"/>
<path d="M300.437 277.937C308.157 277.937 315.748 276.704 322.998 274.273C330.009 271.922 336.59 268.491 342.56 264.076C348.462 259.712 353.635 254.484 357.936 248.537C362.29 242.517 365.652 235.894 367.928 228.852L367.951 228.78L367.985 228.712C371.011 222.665 373.341 216.267 374.911 209.698C376.526 202.937 377.345 195.952 377.345 188.937C377.345 182.897 376.737 176.862 375.537 170.999C374.368 165.285 372.623 159.665 370.352 154.294C368.121 149.021 365.361 143.935 362.146 139.177C358.962 134.464 355.306 130.032 351.278 126.004C347.25 121.976 342.819 118.32 338.106 115.136C333.348 111.921 328.261 109.161 322.988 106.93C317.617 104.659 311.997 102.914 306.283 101.745C300.42 100.545 294.385 99.9365 288.345 99.9365C278.346 99.9365 268.531 101.582 259.172 104.828L258.383 105.102L257.973 104.373C250.357 90.8313 239.279 79.4587 225.937 71.4849C219.189 67.4523 211.94 64.3361 204.391 62.2227C196.602 60.0425 188.512 58.937 180.345 58.937C169.361 58.937 158.638 60.914 148.475 64.8131C138.657 68.5797 129.65 74.0207 121.705 80.985C113.806 87.9092 107.251 96.0792 102.221 105.268C97.0685 114.682 93.7006 124.844 92.2113 135.472L92.0998 136.267L91.299 136.33C82.3408 137.031 73.7219 139.39 65.6818 143.34C57.8694 147.179 50.8932 152.371 44.947 158.771C32.7289 171.924 26 189.06 26 207.024C26 216.597 27.8748 225.884 31.5723 234.626C33.3495 238.828 35.5491 242.88 38.1102 246.671C40.6472 250.426 43.5607 253.957 46.7699 257.167C49.9791 260.376 53.5104 263.289 57.2655 265.826C61.0565 268.387 65.109 270.587 69.3106 272.364C78.0525 276.062 87.3391 277.937 96.9127 277.937H288.345H300.437ZM300.437 278.937H288.345H96.9127C57.1966 278.937 25 246.74 25 207.024C25 169.223 54.1646 138.234 91.221 135.333C97.3504 91.5944 134.917 57.937 180.345 57.937C214.048 57.937 243.422 76.4602 258.845 103.883C268.087 100.678 278.012 98.9365 288.345 98.9365C338.051 98.9365 378.345 139.231 378.345 188.937C378.345 203.393 374.936 217.055 368.879 229.16C359.544 258.045 332.431 278.937 300.437 278.937Z" fill="white" fill-opacity="0.5"/>
</g>
</g>
<defs>
<filter id="filter0_f_240_5510" x="0.647949" y="11.763" width="381.698" height="334.336" filterUnits="userSpaceOnUse" color-interpolation-filters="sRGB">
<feFlood flood-opacity="0" result="BackgroundImageFix"/>
<feBlend mode="normal" in="SourceGraphic" in2="BackgroundImageFix" result="shape"/>
<feGaussianBlur stdDeviation="2" result="effect1_foregroundBlur_240_5510"/>
</filter>
<filter id="filter1_f_240_5510" x="-4.42236" y="-0.696777" width="164.15" height="133.561" filterUnits="userSpaceOnUse" color-interpolation-filters="sRGB">
<feFlood flood-opacity="0" result="BackgroundImageFix"/>
<feBlend mode="normal" in="SourceGraphic" in2="BackgroundImageFix" result="shape"/>
<feGaussianBlur stdDeviation="10" result="effect1_foregroundBlur_240_5510"/>
</filter>
<filter id="filter2_d_240_5510" x="5" y="29.937" width="413.345" height="281" filterUnits="userSpaceOnUse" color-interpolation-filters="sRGB">
<feFlood flood-opacity="0" result="BackgroundImageFix"/>
<feColorMatrix in="SourceAlpha" type="matrix" values="0 0 0 0 0 0 0 0 0 0 0 0 0 0 0 0 0 0 127 0" result="hardAlpha"/>
<feOffset dx="10" dy="2"/>
<feGaussianBlur stdDeviation="15"/>
<feColorMatrix type="matrix" values="0 0 0 0 0.258824 0 0 0 0 0.627451 0 0 0 0 0.941176 0 0 0 0.596 0"/>
<feBlend mode="normal" in2="BackgroundImageFix" result="effect1_dropShadow_240_5510"/>
<feBlend mode="normal" in="SourceGraphic" in2="effect1_dropShadow_240_5510" result="shape"/>
</filter>
<linearGradient id="paint0_linear_240_5510" x1="201.698" y1="57.9395" x2="304.341" y2="306.103" gradientUnits="userSpaceOnUse">
<stop stop-color="white" stop-opacity="0.604"/>
<stop offset="1" stop-color="white" stop-opacity="0.2"/>
</linearGradient>
</defs>
</svg>
