<svg width="393" height="377" viewBox="0 0 393 377" fill="none" xmlns="http://www.w3.org/2000/svg">
<g filter="url(#filter0_f_240_5097)">
<path d="M135.979 203.359C136.695 203.377 143.961 228.607 143.961 238.411C143.961 248.215 140.387 256.164 135.979 256.164C131.571 256.164 127.997 248.216 127.997 238.412C127.997 228.608 135.263 203.342 135.979 203.359Z" fill="#42A0F0"/>
<path d="M132.122 241.411C133.288 241.768 134.824 240.125 135.553 237.742C136.282 235.359 135.927 233.138 134.761 232.782C133.595 232.425 132.059 234.068 131.33 236.451C130.601 238.834 130.956 241.055 132.122 241.411Z" fill="white"/>
<path d="M191.37 203.359C192.086 203.377 199.352 228.607 199.352 238.411C199.352 248.215 195.778 256.164 191.37 256.164C186.962 256.164 183.388 248.216 183.388 238.412C183.388 228.608 190.654 203.342 191.37 203.359Z" fill="#42A0F0"/>
<path d="M187.513 241.411C188.68 241.768 190.216 240.125 190.944 237.742C191.673 235.359 191.318 233.138 190.152 232.782C188.986 232.425 187.45 234.068 186.721 236.451C185.993 238.834 186.347 241.055 187.513 241.411Z" fill="white"/>
<path d="M250.797 203.359C251.513 203.377 258.779 228.607 258.779 238.411C258.779 248.215 255.205 256.164 250.797 256.164C246.389 256.164 242.815 248.216 242.815 238.412C242.815 228.608 250.081 203.342 250.797 203.359Z" fill="#42A0F0"/>
<path d="M246.94 241.411C248.106 241.768 249.642 240.125 250.371 237.742C251.099 235.359 250.745 233.138 249.579 232.782C248.412 232.425 246.876 234.068 246.148 236.451C245.419 238.834 245.774 241.055 246.94 241.411Z" fill="white"/>
<path d="M305.684 200.359C306.4 200.377 313.666 225.607 313.666 235.411C313.666 245.215 310.092 253.164 305.684 253.164C301.276 253.164 297.702 245.216 297.702 235.412C297.702 225.608 304.968 200.342 305.684 200.359Z" fill="#42A0F0"/>
<path d="M301.827 238.411C302.994 238.768 304.53 237.125 305.258 234.742C305.987 232.359 305.632 230.138 304.466 229.782C303.3 229.425 301.764 231.068 301.035 233.451C300.307 235.834 300.661 238.055 301.827 238.411Z" fill="white"/>
<path d="M219.336 270.359C220.052 270.377 227.318 295.607 227.318 305.411C227.318 315.215 223.744 323.164 219.336 323.164C214.928 323.164 211.354 315.216 211.354 305.412C211.354 295.608 218.62 270.342 219.336 270.359Z" fill="#42A0F0"/>
<path d="M215.479 308.411C216.645 308.768 218.181 307.125 218.91 304.742C219.639 302.359 219.284 300.138 218.118 299.782C216.951 299.425 215.415 301.068 214.687 303.451C213.958 305.834 214.313 308.055 215.479 308.411Z" fill="white"/>
<path d="M278.762 270.359C279.478 270.377 286.744 295.607 286.744 305.411C286.744 315.215 283.17 323.164 278.762 323.164C274.354 323.164 270.78 315.216 270.78 305.412C270.78 295.608 278.046 270.342 278.762 270.359Z" fill="#42A0F0"/>
<path d="M274.905 308.411C276.071 308.768 277.607 307.125 278.336 304.742C279.065 302.359 278.71 300.138 277.544 299.782C276.377 299.425 274.842 301.068 274.113 303.451C273.384 305.834 273.739 308.055 274.905 308.411Z" fill="white"/>
<path d="M341.684 270.359C342.4 270.377 349.666 295.607 349.666 305.411C349.666 315.215 346.092 323.164 341.684 323.164C337.276 323.164 333.702 315.216 333.702 305.412C333.702 295.608 340.968 270.342 341.684 270.359Z" fill="#42A0F0"/>
<path d="M337.827 308.411C338.994 308.768 340.53 307.125 341.258 304.742C341.987 302.359 341.632 300.138 340.466 299.782C339.3 299.425 337.764 301.068 337.035 303.451C336.307 305.834 336.661 308.055 337.827 308.411Z" fill="white"/>
<path d="M159.91 273.359C160.626 273.377 167.892 298.607 167.892 308.411C167.892 318.215 164.318 326.164 159.91 326.164C155.502 326.164 151.928 318.216 151.928 308.412C151.928 298.608 159.194 273.342 159.91 273.359Z" fill="#42A0F0"/>
<path d="M156.053 311.411C157.219 311.768 158.755 310.125 159.484 307.742C160.213 305.359 159.858 303.138 158.692 302.782C157.525 302.425 155.989 304.068 155.261 306.451C154.532 308.834 154.887 311.055 156.053 311.411Z" fill="white"/>
<path d="M103.979 270.359C104.695 270.377 111.961 295.607 111.961 305.411C111.961 315.215 108.387 323.164 103.979 323.164C99.5711 323.164 95.9971 315.216 95.9971 305.412C95.9971 295.608 103.263 270.342 103.979 270.359Z" fill="#42A0F0"/>
<path d="M100.122 308.411C101.288 308.768 102.824 307.125 103.553 304.742C104.282 302.359 103.927 300.138 102.761 299.782C101.595 299.425 100.059 301.068 99.33 303.451C98.6014 305.834 98.9562 308.055 100.122 308.411Z" fill="white"/>
<path d="M135.979 323.359C136.695 323.377 143.961 348.607 143.961 358.411C143.961 368.215 140.387 376.164 135.979 376.164C131.571 376.164 127.997 368.216 127.997 358.412C127.997 348.608 135.263 323.342 135.979 323.359Z" fill="#42A0F0"/>
<path d="M132.122 361.411C133.288 361.768 134.824 360.125 135.553 357.742C136.282 355.359 135.927 353.138 134.761 352.782C133.595 352.425 132.059 354.068 131.33 356.451C130.601 358.834 130.956 361.055 132.122 361.411Z" fill="white"/>
<path d="M191.37 323.359C192.086 323.377 199.352 348.607 199.352 358.411C199.352 368.215 195.778 376.164 191.37 376.164C186.962 376.164 183.388 368.216 183.388 358.412C183.388 348.608 190.654 323.342 191.37 323.359Z" fill="#42A0F0"/>
<path d="M187.513 361.411C188.68 361.768 190.216 360.125 190.944 357.742C191.673 355.359 191.318 353.138 190.152 352.782C188.986 352.425 187.45 354.068 186.721 356.451C185.993 358.834 186.347 361.055 187.513 361.411Z" fill="white"/>
<path d="M250.797 323.359C251.513 323.377 258.779 348.607 258.779 358.411C258.779 368.215 255.205 376.164 250.797 376.164C246.389 376.164 242.815 368.216 242.815 358.412C242.815 348.608 250.081 323.342 250.797 323.359Z" fill="#42A0F0"/>
<path d="M246.94 361.411C248.106 361.768 249.642 360.125 250.371 357.742C251.099 355.359 250.745 353.138 249.579 352.782C248.412 352.425 246.876 354.068 246.148 356.451C245.419 358.834 245.774 361.055 246.94 361.411Z" fill="white"/>
<path d="M305.684 323.359C306.4 323.377 313.666 348.607 313.666 358.411C313.666 368.215 310.092 376.164 305.684 376.164C301.276 376.164 297.702 368.216 297.702 358.412C297.702 348.608 304.968 323.342 305.684 323.359Z" fill="#42A0F0"/>
<path d="M301.827 361.411C302.994 361.768 304.53 360.125 305.258 357.742C305.987 355.359 305.632 353.138 304.466 352.782C303.3 352.425 301.764 354.068 301.035 356.451C300.307 358.834 300.661 361.055 301.827 361.411Z" fill="white"/>
<path d="M103.268 5.72324C110.278 5.72148 117.27 6.42975 124.137 7.83723C137.39 10.5669 149.974 15.8889 161.164 23.4972C176.667 34.0049 189.053 48.4947 197.021 65.4437C204.989 82.3927 208.244 101.175 206.444 119.817C204.644 138.459 197.856 156.271 186.793 171.383C175.73 186.495 160.801 198.347 143.574 205.695C137.312 208.356 130.8 210.388 124.136 211.76C109.685 214.69 94.7754 214.508 80.4005 211.224C66.0257 207.941 52.5155 201.632 40.77 192.718C29.0244 183.804 19.3132 172.489 12.2832 159.528C5.25319 146.566 1.06578 132.256 -7.62939e-05 117.549C11.3314 120.201 23.1023 120.372 34.5059 118.049C44.7389 115.954 54.4592 111.863 63.1119 106.012C75.9742 97.329 86.0422 85.1018 92.0959 70.8122C94.1414 65.9727 95.7027 60.9425 96.7569 55.7952C99.004 44.7666 98.9209 33.3899 96.5129 22.3952C95.3016 16.8975 93.5102 11.5439 91.1689 6.42424C95.185 5.95689 99.2248 5.72282 103.268 5.72324Z" fill="#713FFD"/>
<g filter="url(#filter1_f_240_5097)">
<path d="M173.339 37.8963C150.095 16.9668 119.644 12.8915 105.325 28.7939C91.0065 44.6964 98.2424 74.5545 121.487 95.484C144.732 116.414 175.182 120.489 189.501 104.586C203.82 88.6839 196.584 58.8258 173.339 37.8963Z" fill="#A586FC"/>
</g>
<g filter="url(#filter2_d_240_5097)">
<path d="M302.346 281.002H110.914C92.3436 280.988 74.4986 273.791 61.1147 260.917C47.7308 248.043 39.8457 230.491 39.1102 211.936C38.3747 193.38 44.8457 175.259 57.1687 161.366C69.4916 147.473 86.711 138.886 105.222 137.402C107.862 118.762 116.279 101.419 129.29 87.8122C142.3 74.2055 159.249 65.0202 177.753 61.5486C196.256 58.077 215.382 60.4938 232.44 68.459C249.498 76.4242 263.629 89.5368 272.846 105.952C289.751 100.1 308.016 99.4165 325.311 103.988C342.606 108.559 358.147 118.179 369.953 131.619C381.758 145.06 389.293 161.712 391.595 179.452C393.897 197.192 390.863 215.216 382.88 231.225C378.195 245.69 369.048 258.299 356.752 267.242C344.456 276.184 329.642 281.002 314.438 281.002H302.346Z" fill="url(#paint0_linear_240_5097)"/>
<path d="M314.438 280.002C322.158 280.002 329.749 278.769 336.999 276.338C344.01 273.987 350.591 270.556 356.561 266.141C362.463 261.777 367.636 256.549 371.937 250.603C376.291 244.582 379.653 237.959 381.928 230.917L381.952 230.845L381.986 230.777C385.012 224.73 387.342 218.333 388.912 211.763C390.527 205.002 391.346 198.017 391.346 191.002C391.346 184.963 390.738 178.928 389.538 173.064C388.369 167.35 386.624 161.73 384.353 156.359C382.122 151.086 379.362 146 376.147 141.242C372.963 136.529 369.307 132.097 365.279 128.069C361.251 124.042 356.82 120.385 352.107 117.201C347.349 113.987 342.262 111.226 336.989 108.995C331.618 106.724 325.998 104.979 320.284 103.81C314.421 102.61 308.386 102.002 302.346 102.002C292.347 102.002 282.532 103.647 273.173 106.893L272.384 107.167L271.974 106.438C264.358 92.8965 253.28 81.5239 239.938 73.5501C233.19 69.5175 225.941 66.4012 218.392 64.2879C210.603 62.1077 202.513 61.0022 194.346 61.0022C183.362 61.0022 172.639 62.9792 162.476 66.8782C152.658 70.6449 143.651 76.0859 135.706 83.0502C127.807 89.9744 121.252 98.1444 116.222 107.333C111.069 116.747 107.702 126.909 106.212 137.537L106.101 138.333L105.3 138.395C96.3418 139.096 87.7229 141.455 79.6828 145.405C71.8703 149.244 64.8942 154.436 58.948 160.837C46.7298 173.989 40.001 191.125 40.001 209.089C40.001 218.663 41.8757 227.949 45.5732 236.691C47.3504 240.893 49.5501 244.945 52.1112 248.736C54.6482 252.491 57.5617 256.023 60.7709 259.232C63.9801 262.441 67.5113 265.355 71.2665 267.892C75.0574 270.453 79.11 272.652 83.3116 274.429C92.0534 278.127 101.34 280.002 110.914 280.002H302.346H314.438ZM314.438 281.002H302.346H110.914C71.1976 281.002 39.001 248.805 39.001 209.089C39.001 171.288 68.1656 140.299 105.222 137.398C111.351 93.6596 148.918 60.0022 194.346 60.0022C228.048 60.0022 257.423 78.5254 272.846 105.948C282.088 102.743 292.013 101.002 302.346 101.002C352.052 101.002 392.346 141.297 392.346 191.002C392.346 205.458 388.937 219.121 382.88 231.225C373.545 260.11 346.432 281.002 314.438 281.002Z" fill="white" fill-opacity="0.5"/>
</g>
</g>
<defs>
<filter id="filter0_f_240_5097" x="-4" y="1.72327" width="400.346" height="378.441" filterUnits="userSpaceOnUse" color-interpolation-filters="sRGB">
<feFlood flood-opacity="0" result="BackgroundImageFix"/>
<feBlend mode="normal" in="SourceGraphic" in2="BackgroundImageFix" result="shape"/>
<feGaussianBlur stdDeviation="2" result="effect1_foregroundBlur_240_5097"/>
</filter>
<filter id="filter1_f_240_5097" x="77.9736" y="-0.906616" width="138.879" height="135.194" filterUnits="userSpaceOnUse" color-interpolation-filters="sRGB">
<feFlood flood-opacity="0" result="BackgroundImageFix"/>
<feBlend mode="normal" in="SourceGraphic" in2="BackgroundImageFix" result="shape"/>
<feGaussianBlur stdDeviation="10" result="effect1_foregroundBlur_240_5097"/>
</filter>
<filter id="filter2_d_240_5097" x="19.001" y="32.0022" width="413.345" height="281" filterUnits="userSpaceOnUse" color-interpolation-filters="sRGB">
<feFlood flood-opacity="0" result="BackgroundImageFix"/>
<feColorMatrix in="SourceAlpha" type="matrix" values="0 0 0 0 0 0 0 0 0 0 0 0 0 0 0 0 0 0 127 0" result="hardAlpha"/>
<feOffset dx="10" dy="2"/>
<feGaussianBlur stdDeviation="15"/>
<feColorMatrix type="matrix" values="0 0 0 0 0.258824 0 0 0 0 0.627451 0 0 0 0 0.941176 0 0 0 0.596 0"/>
<feBlend mode="normal" in2="BackgroundImageFix" result="effect1_dropShadow_240_5097"/>
<feBlend mode="normal" in="SourceGraphic" in2="effect1_dropShadow_240_5097" result="shape"/>
</filter>
<linearGradient id="paint0_linear_240_5097" x1="215.699" y1="60.0048" x2="318.342" y2="308.169" gradientUnits="userSpaceOnUse">
<stop stop-color="white" stop-opacity="0.604"/>
<stop offset="1" stop-color="white" stop-opacity="0.2"/>
</linearGradient>
</defs>
</svg>
