<svg width="354" height="285" viewBox="0 0 354 285" fill="none" xmlns="http://www.w3.org/2000/svg">
<g filter="url(#filter0_f_240_5883)">
<path d="M84.701 161.357C85.332 161.375 91.736 186.605 91.736 196.409C91.736 206.213 88.586 214.162 84.701 214.162C80.816 214.162 77.666 206.214 77.666 196.41C77.666 186.606 84.066 161.34 84.701 161.357Z" fill="#42A0F0"/>
<path d="M83.6283 190.779C84.6558 191.136 84.9683 193.356 84.3263 195.739C83.6844 198.123 82.3302 199.765 81.3024 199.409C80.2746 199.053 79.9615 196.831 80.6044 194.448C81.2472 192.065 82.5995 190.422 83.6283 190.779Z" fill="white"/>
<path d="M144.632 161.357C145.263 161.375 151.667 186.605 151.667 196.409C151.667 206.213 148.517 214.162 144.632 214.162C140.747 214.162 137.597 206.214 137.597 196.41C137.597 186.606 143.997 161.34 144.632 161.357Z" fill="#42A0F0"/>
<path d="M143.559 190.779C144.587 191.136 144.899 193.356 144.257 195.739C143.615 198.123 142.261 199.765 141.233 199.409C140.206 199.053 139.892 196.831 140.535 194.448C141.178 192.065 142.53 190.422 143.559 190.779Z" fill="white"/>
<path d="M204.563 161.357C205.194 161.375 211.598 186.605 211.598 196.409C211.598 206.213 208.448 214.162 204.563 214.162C200.678 214.162 197.528 206.214 197.528 196.41C197.528 186.606 203.928 161.34 204.563 161.357Z" fill="#42A0F0"/>
<path d="M203.49 190.779C204.518 191.136 204.83 193.356 204.188 195.739C203.546 198.123 202.192 199.765 201.164 199.409C200.137 199.053 199.823 196.831 200.466 194.448C201.109 192.065 202.461 190.422 203.49 190.779Z" fill="white"/>
<path d="M264.494 158.357C265.125 158.375 271.529 183.605 271.529 193.409C271.529 203.213 268.379 211.162 264.494 211.162C260.609 211.162 257.459 203.214 257.459 193.41C257.459 183.606 263.859 158.34 264.494 158.357Z" fill="#42A0F0"/>
<path d="M263.421 187.779C264.449 188.136 264.761 190.356 264.119 192.739C263.477 195.123 262.123 196.765 261.095 196.409C260.068 196.053 259.754 193.831 260.397 191.448C261.04 189.065 262.392 187.422 263.421 187.779Z" fill="white"/>
<path d="M172.834 228.357C173.465 228.375 179.869 253.605 179.869 263.409C179.869 273.213 176.719 281.162 172.834 281.162C168.949 281.162 165.799 273.214 165.799 263.41C165.799 253.606 172.199 228.34 172.834 228.357Z" fill="#42A0F0"/>
<path d="M171.761 257.779C172.789 258.136 173.101 260.356 172.459 262.739C171.817 265.123 170.463 266.765 169.435 266.409C168.408 266.053 168.094 263.831 168.737 261.448C169.38 259.065 170.732 257.422 171.761 257.779Z" fill="white"/>
<path d="M232.765 228.357C233.396 228.375 239.8 253.605 239.8 263.409C239.8 273.213 236.65 281.162 232.765 281.162C228.88 281.162 225.73 273.214 225.73 263.41C225.73 253.606 232.13 228.34 232.765 228.357Z" fill="#42A0F0"/>
<path d="M231.692 257.779C232.72 258.136 233.032 260.356 232.39 262.739C231.748 265.123 230.394 266.765 229.366 266.409C228.339 266.053 228.025 263.831 228.668 261.448C229.311 259.065 230.663 257.422 231.692 257.779Z" fill="white"/>
<path d="M296.222 228.357C296.853 228.375 303.257 253.605 303.257 263.409C303.257 273.213 300.107 281.162 296.222 281.162C292.337 281.162 289.187 273.214 289.187 263.41C289.187 253.606 295.587 228.34 296.222 228.357Z" fill="#42A0F0"/>
<path d="M295.149 257.779C296.177 258.136 296.489 260.356 295.847 262.739C295.205 265.123 293.851 266.765 292.823 266.409C291.796 266.053 291.482 263.831 292.125 261.448C292.768 259.065 294.12 257.422 295.149 257.779Z" fill="white"/>
<path d="M112.904 231.357C113.535 231.375 119.939 256.605 119.939 266.409C119.939 276.213 116.789 284.162 112.904 284.162C109.019 284.162 105.869 276.214 105.869 266.41C105.869 256.606 112.269 231.34 112.904 231.357Z" fill="#42A0F0"/>
<path d="M111.831 260.779C112.859 261.136 113.171 263.356 112.529 265.739C111.887 268.123 110.533 269.765 109.505 269.409C108.478 269.053 108.164 266.831 108.807 264.448C109.45 262.065 110.802 260.422 111.831 260.779Z" fill="white"/>
<path d="M56.498 228.357C57.129 228.375 63.533 253.605 63.533 263.409C63.533 273.213 60.383 281.162 56.498 281.162C52.613 281.162 49.463 273.214 49.463 263.41C49.463 253.606 55.863 228.34 56.498 228.357Z" fill="#42A0F0"/>
<path d="M55.4253 257.779C56.4528 258.136 56.7652 260.356 56.1233 262.739C55.4814 265.123 54.1272 266.765 53.0994 266.409C52.0716 266.053 51.7585 263.831 52.4013 261.448C53.0442 259.065 54.3965 257.422 55.4253 257.779Z" fill="white"/>
<g filter="url(#filter1_d_240_5883)">
<path d="M263.345 221H71.913C53.3426 220.986 35.4975 213.789 22.1136 200.915C8.72974 188.041 0.844686 170.489 0.109171 151.933C-0.626344 133.377 5.84471 115.256 18.1676 101.364C30.4906 87.4711 47.71 78.884 66.221 77.4C68.8608 58.76 77.2781 41.4167 90.2887 27.81C103.299 14.2033 120.248 5.01799 138.752 1.54639C157.255 -1.92521 176.381 0.491575 193.439 8.45674C210.497 16.4219 224.628 29.5346 233.845 45.95C250.75 40.0981 269.015 39.4143 286.31 43.9857C303.605 48.5571 319.146 58.1765 330.952 71.617C342.757 85.0574 350.292 101.71 352.594 119.45C354.896 137.19 351.862 155.214 343.879 171.223C339.194 185.688 330.047 198.296 317.751 207.239C305.455 216.182 290.641 221 275.437 221H263.345Z" fill="url(#paint0_linear_240_5883)"/>
<path d="M275.437 220C283.157 220 290.748 218.767 297.998 216.336C305.009 213.985 311.59 210.554 317.56 206.139C323.462 201.775 328.635 196.547 332.936 190.6C337.29 184.58 340.652 177.957 342.928 170.915L342.951 170.843L342.985 170.775C346.011 164.728 348.341 158.33 349.911 151.761C351.526 145 352.345 138.015 352.345 130.999C352.345 124.96 351.737 118.925 350.537 113.062C349.368 107.348 347.623 101.728 345.352 96.3572C343.121 91.0838 340.361 85.9975 337.146 81.2396C333.962 76.5267 330.306 72.0948 326.278 68.0672C322.25 64.0394 317.819 60.3828 313.106 57.1988C308.348 53.9844 303.261 51.2237 297.988 48.9932C292.617 46.7216 286.997 44.9769 281.283 43.8077C275.42 42.6078 269.385 41.9995 263.345 41.9995C253.346 41.9995 243.531 43.6452 234.172 46.8908L233.383 47.1646L232.973 46.4362C225.357 32.8943 214.279 21.5217 200.937 13.5478C194.189 9.51526 186.94 6.39903 179.391 4.28571C171.602 2.10544 163.512 0.999985 155.345 0.999985C144.361 0.999985 133.638 2.97698 123.475 6.87603C113.657 10.6427 104.65 16.0837 96.7052 23.048C88.806 29.9722 82.2507 38.1422 77.2213 47.3308C72.0685 56.7451 68.7006 66.9073 67.2113 77.5349L67.0998 78.3304L66.299 78.3931C57.3408 79.0943 48.7219 81.4529 40.6818 85.4032C32.8694 89.2417 25.8932 94.4335 19.947 100.834C7.72888 113.987 1.00002 131.123 1.00002 149.087C1.00002 158.66 2.87479 167.947 6.57229 176.689C8.34947 180.89 10.5492 184.943 13.1102 188.734C15.6472 192.489 18.5607 196.02 21.7699 199.23C24.9791 202.439 28.5104 205.352 32.2655 207.889C36.0565 210.45 40.109 212.65 44.3107 214.427C53.0525 218.125 62.3392 220 71.9127 220H263.345H275.437ZM275.437 221H263.345H71.9127C32.1966 221 1.52588e-05 188.803 1.52588e-05 149.087C1.52588e-05 111.286 29.1647 80.2967 66.221 77.3961C72.3504 33.6573 109.917 -1.52588e-05 155.345 -1.52588e-05C189.048 -1.52588e-05 218.422 18.5232 233.845 45.946C243.087 42.7407 253.012 40.9995 263.345 40.9995C313.051 40.9995 353.345 81.2943 353.345 130.999C353.345 145.456 349.936 159.118 343.879 171.223C334.544 200.108 307.431 221 275.437 221Z" fill="white" fill-opacity="0.5"/>
</g>
</g>
<defs>
<filter id="filter0_f_240_5883" x="-3.99998" y="-4.00002" width="361.345" height="292.162" filterUnits="userSpaceOnUse" color-interpolation-filters="sRGB">
<feFlood flood-opacity="0" result="BackgroundImageFix"/>
<feBlend mode="normal" in="SourceGraphic" in2="BackgroundImageFix" result="shape"/>
<feGaussianBlur stdDeviation="2" result="effect1_foregroundBlur_240_5883"/>
</filter>
<filter id="filter1_d_240_5883" x="-20" y="-28" width="413.345" height="281" filterUnits="userSpaceOnUse" color-interpolation-filters="sRGB">
<feFlood flood-opacity="0" result="BackgroundImageFix"/>
<feColorMatrix in="SourceAlpha" type="matrix" values="0 0 0 0 0 0 0 0 0 0 0 0 0 0 0 0 0 0 127 0" result="hardAlpha"/>
<feOffset dx="10" dy="2"/>
<feGaussianBlur stdDeviation="15"/>
<feColorMatrix type="matrix" values="0 0 0 0 0.258824 0 0 0 0 0.627451 0 0 0 0 0.941176 0 0 0 0.596 0"/>
<feBlend mode="normal" in2="BackgroundImageFix" result="effect1_dropShadow_240_5883"/>
<feBlend mode="normal" in="SourceGraphic" in2="effect1_dropShadow_240_5883" result="shape"/>
</filter>
<linearGradient id="paint0_linear_240_5883" x1="176.698" y1="0.00251007" x2="279.341" y2="248.166" gradientUnits="userSpaceOnUse">
<stop stop-color="white" stop-opacity="0.604"/>
<stop offset="1" stop-color="white" stop-opacity="0.2"/>
</linearGradient>
</defs>
</svg>
