<svg width="351" height="168" viewBox="0 0 351 168" fill="none" xmlns="http://www.w3.org/2000/svg">
<g filter="url(#filter0_f_240_6603)">
<path d="M135.687 73.6389C135.687 73.6389 272.776 74.9529 302.457 66.3329C332.138 57.7129 332.1 12.9749 302.457 1.94693C272.814 -9.08107 262.683 30.3379 262.683 30.3379" stroke="#D0D0D0" stroke-width="20" stroke-linecap="round"/>
<path d="M145.709 120.656C145.709 120.656 208.256 111.566 235.831 120.656C263.406 129.746 254.625 155.823 241.557 157.015C228.489 158.207 216.431 144.395 216.431 144.395" stroke="#D0D0D0" stroke-width="20" stroke-linecap="round"/>
<path d="M60.8459 17.589C60.8459 17.589 91.3649 20.119 127.528 20.119C163.691 20.119 212.708 15.373 212.708 15.373" stroke="#D0D0D0" stroke-width="20" stroke-linecap="round"/>
<path d="M320.456 97.5559H348.046L332.185 120.847L350.73 121.198L311.806 167.268L321.237 132.143H303.971L320.456 97.5559Z" fill="url(#paint0_linear_240_6603)"/>
<path d="M17.818 114.089C19.418 114.107 35.636 139.43 35.636 149.271C35.636 153.997 33.7588 158.529 30.4172 161.87C27.0757 165.212 22.5436 167.089 17.818 167.089C13.0924 167.089 8.5603 165.212 5.21877 161.87C1.87725 158.529 0 153.997 0 149.271C0 139.431 16.219 114.071 17.818 114.089Z" fill="#42A0F0"/>
<path d="M4.23313 155.93C6.01353 156.475 8.27626 154.236 9.28708 150.93C10.2979 147.623 9.67403 144.502 7.89363 143.958C6.11322 143.413 3.85049 145.652 2.83968 148.958C1.82886 152.265 2.45273 155.386 4.23313 155.93Z" fill="white"/>
<path d="M103.818 114.089C105.418 114.107 121.636 139.43 121.636 149.271C121.636 153.997 119.759 158.529 116.417 161.87C113.076 165.212 108.544 167.089 103.818 167.089C99.0924 167.089 94.5603 165.212 91.2188 161.87C87.8772 158.529 86 153.997 86 149.271C86 139.431 102.219 114.071 103.818 114.089Z" fill="#42A0F0"/>
<path d="M90.2331 155.93C92.0135 156.475 94.2763 154.236 95.2871 150.93C96.2979 147.623 95.674 144.502 93.8936 143.958C92.1132 143.413 89.8505 145.652 88.8397 148.958C87.8289 152.265 88.4527 155.386 90.2331 155.93Z" fill="white"/>
<path d="M59.818 49.0889C61.418 49.1069 77.636 74.4299 77.636 84.2709C77.636 88.9965 75.7588 93.5286 72.4172 96.8701C69.0757 100.212 64.5436 102.089 59.818 102.089C55.0924 102.089 50.5603 100.212 47.2188 96.8701C43.8772 93.5286 42 88.9965 42 84.2709C42 74.4309 58.219 49.0709 59.818 49.0889Z" fill="#42A0F0"/>
<path d="M46.2331 90.9304C48.0135 91.4748 50.2763 89.2358 51.2871 85.9296C52.2979 82.6233 51.674 79.5018 49.8936 78.9575C48.1132 78.4132 45.8505 80.6522 44.8397 83.9584C43.8289 87.2646 44.4527 90.3861 46.2331 90.9304Z" fill="white"/>
</g>
<defs>
<filter id="filter0_f_240_6603" x="-4" y="-14" width="358.73" height="185.268" filterUnits="userSpaceOnUse" color-interpolation-filters="sRGB">
<feFlood flood-opacity="0" result="BackgroundImageFix"/>
<feBlend mode="normal" in="SourceGraphic" in2="BackgroundImageFix" result="shape"/>
<feGaussianBlur stdDeviation="2" result="effect1_foregroundBlur_240_6603"/>
</filter>
<linearGradient id="paint0_linear_240_6603" x1="323.049" y1="132.412" x2="301.207" y2="124.405" gradientUnits="userSpaceOnUse">
<stop stop-color="#FFD100"/>
<stop offset="1" stop-color="#FFF0AA"/>
</linearGradient>
</defs>
</svg>
