<svg width="2047" height="392" viewBox="0 0 2047 392" fill="none" xmlns="http://www.w3.org/2000/svg">
<g filter="url(#filter0_f_240_4611)">
<path d="M186.37 192.299C187.086 192.317 194.352 217.547 194.352 227.351C194.352 237.155 190.778 245.104 186.37 245.104C181.962 245.104 178.388 237.156 178.388 227.352C178.388 217.548 185.654 192.282 186.37 192.299Z" fill="#42A0F0"/>
<path d="M182.513 230.351C183.679 230.708 185.215 229.065 185.944 226.682C186.672 224.299 186.318 222.078 185.152 221.721C183.985 221.365 182.449 223.008 181.721 225.391C180.992 227.774 181.347 229.995 182.513 230.351Z" fill="white"/>
<path d="M245.796 192.299C246.512 192.317 253.778 217.547 253.778 227.351C253.778 237.155 250.204 245.104 245.796 245.104C241.388 245.104 237.814 237.156 237.814 227.352C237.814 217.548 245.08 192.282 245.796 192.299Z" fill="#42A0F0"/>
<path d="M241.939 230.351C243.105 230.708 244.641 229.065 245.37 226.682C246.098 224.299 245.744 222.078 244.577 221.721C243.411 221.365 241.875 223.008 241.147 225.391C240.418 227.774 240.773 229.995 241.939 230.351Z" fill="white"/>
<path d="M300.683 189.299C301.399 189.317 308.665 214.547 308.665 224.351C308.665 234.155 305.091 242.104 300.683 242.104C296.275 242.104 292.701 234.156 292.701 224.352C292.701 214.548 299.967 189.282 300.683 189.299Z" fill="#42A0F0"/>
<path d="M296.826 227.351C297.992 227.708 299.528 226.065 300.257 223.682C300.985 221.299 300.631 219.078 299.465 218.721C298.298 218.365 296.762 220.008 296.034 222.391C295.305 224.774 295.66 226.995 296.826 227.351Z" fill="white"/>
<path d="M214.335 259.299C215.051 259.317 222.317 284.547 222.317 294.351C222.317 304.155 218.743 312.104 214.335 312.104C209.927 312.104 206.353 304.156 206.353 294.352C206.353 284.548 213.619 259.282 214.335 259.299Z" fill="#42A0F0"/>
<path d="M210.478 297.351C211.644 297.708 213.18 296.065 213.909 293.682C214.637 291.299 214.283 289.078 213.116 288.721C211.95 288.365 210.414 290.008 209.686 292.391C208.957 294.774 209.312 296.995 210.478 297.351Z" fill="white"/>
<path d="M273.761 259.299C274.477 259.317 281.743 284.547 281.743 294.351C281.743 304.155 278.169 312.104 273.761 312.104C269.353 312.104 265.779 304.156 265.779 294.352C265.779 284.548 273.045 259.282 273.761 259.299Z" fill="#42A0F0"/>
<path d="M269.904 297.351C271.07 297.708 272.606 296.065 273.335 293.682C274.064 291.299 273.709 289.078 272.543 288.721C271.377 288.365 269.841 290.008 269.112 292.391C268.383 294.774 268.738 296.995 269.904 297.351Z" fill="white"/>
<path d="M336.683 259.299C337.399 259.317 344.665 284.547 344.665 294.351C344.665 304.155 341.091 312.104 336.683 312.104C332.275 312.104 328.701 304.156 328.701 294.352C328.701 284.548 335.967 259.282 336.683 259.299Z" fill="#42A0F0"/>
<path d="M332.826 297.351C333.992 297.708 335.528 296.065 336.257 293.682C336.985 291.299 336.631 289.078 335.465 288.721C334.298 288.365 332.762 290.008 332.034 292.391C331.305 294.774 331.66 296.995 332.826 297.351Z" fill="white"/>
<path d="M186.37 312.299C187.086 312.317 194.352 337.547 194.352 347.351C194.352 357.155 190.778 365.104 186.37 365.104C181.962 365.104 178.388 357.156 178.388 347.352C178.388 337.548 185.654 312.282 186.37 312.299Z" fill="#42A0F0"/>
<path d="M182.513 350.351C183.679 350.708 185.215 349.065 185.944 346.682C186.672 344.299 186.318 342.078 185.152 341.721C183.985 341.365 182.449 343.008 181.721 345.391C180.992 347.774 181.347 349.995 182.513 350.351Z" fill="white"/>
<path d="M245.796 312.299C246.512 312.317 253.778 337.547 253.778 347.351C253.778 357.155 250.204 365.104 245.796 365.104C241.388 365.104 237.814 357.156 237.814 347.352C237.814 337.548 245.08 312.282 245.796 312.299Z" fill="#42A0F0"/>
<path d="M241.939 350.351C243.105 350.708 244.641 349.065 245.37 346.682C246.098 344.299 245.744 342.078 244.577 341.721C243.411 341.365 241.875 343.008 241.147 345.391C240.418 347.774 240.773 349.995 241.939 350.351Z" fill="white"/>
<path d="M300.683 312.299C301.399 312.317 308.665 337.547 308.665 347.351C308.665 357.155 305.091 365.104 300.683 365.104C296.275 365.104 292.701 357.156 292.701 347.352C292.701 337.548 299.967 312.282 300.683 312.299Z" fill="#42A0F0"/>
<path d="M296.826 350.351C297.992 350.708 299.528 349.065 300.257 346.682C300.985 344.299 300.631 342.078 299.465 341.721C298.298 341.365 296.762 343.008 296.034 345.391C295.305 347.774 295.66 349.995 296.826 350.351Z" fill="white"/>
<path d="M100.698 199.252C150.642 199.252 191.129 158.559 191.129 108.362C191.129 58.1648 150.642 17.4719 100.698 17.4719C50.7544 17.4719 10.2671 58.1648 10.2671 108.362C10.2671 158.559 50.7544 199.252 100.698 199.252Z" fill="#FA9E42"/>
<g filter="url(#filter1_f_240_4611)">
<path d="M94.1638 95.4362C124.219 79.4727 141.029 52.3097 131.711 34.7658C122.393 17.222 90.4742 15.9409 60.4193 31.9044C30.3643 47.8679 13.554 75.0309 22.8723 92.5748C32.1906 110.119 64.1089 111.4 94.1638 95.4362Z" fill="#F8E36F"/>
</g>
<path d="M114.53 227.424H161.176L134.361 266.802L165.714 267.396L99.9062 345.284L115.851 285.9H86.6602L114.53 227.424Z" fill="url(#paint0_linear_240_4611)"/>
<g filter="url(#filter2_d_240_4611)">
<path d="M305.345 253.942H113.913C95.3426 253.928 77.4976 246.73 64.1137 233.857C50.7298 220.983 42.8447 203.431 42.1092 184.875C41.3737 166.319 47.8448 148.198 60.1677 134.306C72.4906 120.413 89.71 111.826 108.221 110.342C110.861 91.7018 119.278 74.3585 132.289 60.7518C145.299 47.1451 162.248 37.9598 180.752 34.4882C199.255 31.0166 218.381 33.4334 235.439 41.3986C252.497 49.3637 266.628 62.4764 275.845 78.8918C292.75 73.04 311.015 72.3561 328.31 76.9275C345.605 81.4989 361.146 91.1183 372.952 104.559C384.757 117.999 392.292 134.652 394.594 152.392C396.896 170.132 393.862 188.156 385.879 204.165C381.194 218.63 372.047 231.238 359.751 240.181C347.455 249.124 332.641 253.941 317.437 253.942H305.345Z" fill="url(#paint1_linear_240_4611)"/>
<path d="M317.437 252.941C325.157 252.941 332.748 251.709 339.998 249.278C347.009 246.927 353.59 243.496 359.56 239.081C365.462 234.717 370.635 229.489 374.936 223.542C379.29 217.522 382.652 210.899 384.928 203.857L384.951 203.785L384.985 203.717C388.011 197.67 390.341 191.272 391.911 184.703C393.526 177.942 394.345 170.957 394.345 163.941C394.345 157.902 393.737 151.867 392.537 146.004C391.368 140.29 389.623 134.67 387.352 129.299C385.121 124.026 382.361 118.939 379.146 114.182C375.962 109.469 372.306 105.037 368.278 101.009C364.25 96.9813 359.819 93.3247 355.106 90.1407C350.348 86.9263 345.261 84.1656 339.988 81.9351C334.617 79.6635 328.997 77.9188 323.283 76.7496C317.42 75.5498 311.385 74.9414 305.345 74.9414C295.346 74.9414 285.531 76.5871 276.172 79.8327L275.383 80.1065L274.973 79.3781C267.357 65.8362 256.279 54.4636 242.937 46.4898C236.189 42.4572 228.94 39.3409 221.391 37.2276C213.602 35.0473 205.512 33.9419 197.345 33.9419C186.361 33.9419 175.638 35.9189 165.475 39.8179C155.657 43.5846 146.65 49.0256 138.705 55.9899C130.806 62.9141 124.251 71.0841 119.221 80.2727C114.069 89.687 110.701 99.8492 109.211 110.477L109.1 111.272L108.299 111.335C99.3408 112.036 90.7219 114.395 82.6818 118.345C74.8694 122.184 67.8932 127.375 61.947 133.776C49.7289 146.929 43 164.065 43 182.029C43 191.602 44.8748 200.889 48.5723 209.631C50.3495 213.832 52.5491 217.885 55.1102 221.676C57.6472 225.431 60.5607 228.962 63.7699 232.171C66.9791 235.381 70.5104 238.294 74.2655 240.831C78.0565 243.392 82.109 245.592 86.3106 247.369C95.0525 251.067 104.339 252.941 113.913 252.941H305.345H317.437ZM317.437 253.941H305.345H113.913C74.1966 253.941 42 221.745 42 182.029C42 144.228 71.1646 113.239 108.221 110.338C114.35 66.5993 151.917 32.9419 197.345 32.9419C231.048 32.9419 260.422 51.4651 275.845 78.8879C285.087 75.6826 295.012 73.9414 305.345 73.9414C355.051 73.9414 395.345 114.236 395.345 163.941C395.345 178.398 391.936 192.06 385.879 204.165C376.544 233.05 349.431 253.941 317.437 253.941Z" fill="white" fill-opacity="0.5"/>
</g>
<path d="M1797.09 214.426C1797.81 214.444 1805.07 239.674 1805.07 249.478C1805.07 259.282 1801.5 267.231 1797.09 267.231C1792.68 267.231 1789.11 259.283 1789.11 249.479C1789.11 239.675 1796.37 214.409 1797.09 214.426Z" fill="#42A0F0"/>
<path d="M1793.23 252.478C1794.4 252.834 1795.94 251.192 1796.66 248.809C1797.39 246.426 1797.04 244.205 1795.87 243.848C1794.71 243.492 1793.17 245.134 1792.44 247.517C1791.71 249.901 1792.07 252.121 1793.23 252.478Z" fill="white"/>
<path d="M1856.52 214.426C1857.23 214.444 1864.5 239.674 1864.5 249.478C1864.5 259.282 1860.92 267.231 1856.52 267.231C1852.11 267.231 1848.53 259.283 1848.53 249.479C1848.53 239.675 1855.8 214.409 1856.52 214.426Z" fill="#42A0F0"/>
<path d="M1852.66 252.478C1853.83 252.834 1855.36 251.192 1856.09 248.809C1856.82 246.426 1856.46 244.205 1855.3 243.848C1854.13 243.492 1852.6 245.134 1851.87 247.517C1851.14 249.901 1851.49 252.121 1852.66 252.478Z" fill="white"/>
<path d="M1911.4 211.426C1912.12 211.444 1919.38 236.674 1919.38 246.478C1919.38 256.282 1915.81 264.231 1911.4 264.231C1906.99 264.231 1903.42 256.283 1903.42 246.479C1903.42 236.675 1910.69 211.409 1911.4 211.426Z" fill="#42A0F0"/>
<path d="M1907.55 249.478C1908.71 249.834 1910.25 248.192 1910.98 245.809C1911.71 243.426 1911.35 241.205 1910.18 240.848C1909.02 240.492 1907.48 242.134 1906.75 244.517C1906.03 246.901 1906.38 249.121 1907.55 249.478Z" fill="white"/>
<path d="M1825.05 281.426C1825.77 281.444 1833.04 306.674 1833.04 316.478C1833.04 326.282 1829.46 334.231 1825.05 334.231C1820.65 334.231 1817.07 326.283 1817.07 316.479C1817.07 306.675 1824.34 281.409 1825.05 281.426Z" fill="#42A0F0"/>
<path d="M1821.2 319.478C1822.36 319.834 1823.9 318.192 1824.63 315.809C1825.36 313.426 1825 311.205 1823.84 310.848C1822.67 310.492 1821.13 312.134 1820.41 314.517C1819.68 316.901 1820.03 319.121 1821.2 319.478Z" fill="white"/>
<path d="M1884.48 281.426C1885.2 281.444 1892.46 306.674 1892.46 316.478C1892.46 326.282 1888.89 334.231 1884.48 334.231C1880.07 334.231 1876.5 326.283 1876.5 316.479C1876.5 306.675 1883.77 281.409 1884.48 281.426Z" fill="#42A0F0"/>
<path d="M1880.62 319.478C1881.79 319.834 1883.33 318.192 1884.05 315.809C1884.78 313.426 1884.43 311.205 1883.26 310.848C1882.1 310.492 1880.56 312.134 1879.83 314.517C1879.1 316.901 1879.46 319.121 1880.62 319.478Z" fill="white"/>
<path d="M1947.4 281.426C1948.12 281.444 1955.38 306.674 1955.38 316.478C1955.38 326.282 1951.81 334.231 1947.4 334.231C1942.99 334.231 1939.42 326.283 1939.42 316.479C1939.42 306.675 1946.69 281.409 1947.4 281.426Z" fill="#42A0F0"/>
<path d="M1943.55 319.478C1944.71 319.834 1946.25 318.192 1946.98 315.809C1947.71 313.426 1947.35 311.205 1946.18 310.848C1945.02 310.492 1943.48 312.134 1942.75 314.517C1942.03 316.901 1942.38 319.121 1943.55 319.478Z" fill="white"/>
<path d="M1797.09 334.426C1797.81 334.444 1805.07 359.674 1805.07 369.478C1805.07 379.282 1801.5 387.231 1797.09 387.231C1792.68 387.231 1789.11 379.283 1789.11 369.479C1789.11 359.675 1796.37 334.409 1797.09 334.426Z" fill="#42A0F0"/>
<path d="M1793.23 372.478C1794.4 372.834 1795.94 371.192 1796.66 368.809C1797.39 366.426 1797.04 364.205 1795.87 363.848C1794.71 363.492 1793.17 365.134 1792.44 367.517C1791.71 369.901 1792.07 372.121 1793.23 372.478Z" fill="white"/>
<path d="M1856.52 334.426C1857.23 334.444 1864.5 359.674 1864.5 369.478C1864.5 379.282 1860.92 387.231 1856.52 387.231C1852.11 387.231 1848.53 379.283 1848.53 369.479C1848.53 359.675 1855.8 334.409 1856.52 334.426Z" fill="#42A0F0"/>
<path d="M1852.66 372.478C1853.83 372.834 1855.36 371.192 1856.09 368.809C1856.82 366.426 1856.46 364.205 1855.3 363.848C1854.13 363.492 1852.6 365.134 1851.87 367.517C1851.14 369.901 1851.49 372.121 1852.66 372.478Z" fill="white"/>
<path d="M1911.4 334.426C1912.12 334.444 1919.38 359.674 1919.38 369.478C1919.38 379.282 1915.81 387.231 1911.4 387.231C1906.99 387.231 1903.42 379.283 1903.42 369.479C1903.42 359.675 1910.69 334.409 1911.4 334.426Z" fill="#42A0F0"/>
<path d="M1907.55 372.478C1908.71 372.834 1910.25 371.192 1910.98 368.809C1911.71 366.426 1911.35 364.205 1910.18 363.848C1909.02 363.492 1907.48 365.134 1906.75 367.517C1906.03 369.901 1906.38 372.121 1907.55 372.478Z" fill="white"/>
<path d="M1725.25 249.551H1771.9L1745.08 288.929L1776.43 289.523L1710.63 367.411L1726.57 308.027H1697.38L1725.25 249.551Z" fill="url(#paint2_linear_240_4611)"/>
<path d="M1714.54 16.3486C1721.1 16.3472 1727.63 17.0096 1734.05 18.3256C1746.44 20.8776 1758.21 25.8529 1768.67 32.9656C1783.16 42.7889 1794.74 56.3349 1802.19 72.18C1809.64 88.0251 1812.68 105.584 1811 123.012C1809.31 140.439 1802.97 157.091 1792.63 171.219C1782.28 185.346 1768.33 196.426 1752.22 203.295C1746.37 205.782 1740.28 207.681 1734.05 208.964C1720.54 211.704 1706.6 211.534 1693.16 208.465C1679.72 205.396 1667.09 199.498 1656.11 191.165C1645.13 182.831 1636.05 172.253 1629.48 160.136C1622.91 148.018 1619 134.639 1618 120.891C1623.63 122.211 1629.4 122.877 1635.19 122.875C1650.09 122.898 1664.65 118.449 1677 110.102C1689.02 101.986 1698.44 90.5582 1704.1 77.2016C1708 67.9922 1710 58.0908 1709.98 48.0906C1709.98 42.6599 1709.39 37.245 1708.23 31.9406C1707.09 26.8007 1705.42 21.7957 1703.23 17.0096C1706.98 16.5705 1710.76 16.3498 1714.54 16.3486Z" fill="#713FFD"/>
<path d="M1780.05 46.4272C1758.32 26.8613 1729.85 23.0517 1716.46 37.9182C1703.08 52.7847 1709.84 80.6977 1731.57 100.264C1753.3 119.829 1781.77 123.639 1795.16 108.772C1808.54 93.906 1801.78 65.993 1780.05 46.4272Z" fill="#A586FC"/>
<g filter="url(#filter3_d_240_4611)">
<path d="M1916.07 276.069H1724.63C1706.06 276.054 1688.22 268.857 1674.83 255.983C1661.45 243.11 1653.56 225.558 1652.83 207.002C1652.09 188.446 1658.56 170.325 1670.89 156.432C1683.21 142.54 1700.43 133.952 1718.94 132.469C1721.58 113.829 1730 96.4852 1743.01 82.8785C1756.02 69.2718 1772.97 60.0865 1791.47 56.6149C1809.97 53.1433 1829.1 55.5601 1846.16 63.5253C1863.22 71.4904 1877.35 84.6031 1886.57 101.019C1903.47 95.1667 1921.73 94.4828 1939.03 99.0542C1956.32 103.626 1971.87 113.245 1983.67 126.685C1995.48 140.126 2003.01 156.778 2005.31 174.519C2007.62 192.259 2004.58 210.283 1996.6 226.292C1991.91 240.756 1982.77 253.365 1970.47 262.308C1958.18 271.251 1943.36 276.068 1928.16 276.069H1916.07Z" fill="url(#paint3_linear_240_4611)"/>
<path d="M1928.16 275.068C1935.88 275.068 1943.47 273.836 1950.72 271.404C1957.73 269.054 1964.31 265.623 1970.28 261.208C1976.18 256.843 1981.35 251.615 1985.66 245.669C1990.01 239.648 1993.37 233.025 1995.65 225.984L1995.67 225.912L1995.71 225.844C1998.73 219.796 2001.06 213.399 2002.63 206.829C2004.25 200.069 2005.07 193.084 2005.07 186.068C2005.07 180.029 2004.46 173.994 2003.26 168.131C2002.09 162.417 2000.34 156.796 1998.07 151.426C1995.84 146.152 1993.08 141.066 1989.87 136.308C1986.68 131.595 1983.03 127.163 1979 123.136C1974.97 119.108 1970.54 115.451 1965.83 112.267C1961.07 109.053 1955.98 106.292 1950.71 104.062C1945.34 101.79 1939.72 100.046 1934 98.8763C1928.14 97.6765 1922.1 97.0681 1916.07 97.0681C1906.07 97.0681 1896.25 98.7138 1886.89 101.959L1886.1 102.233L1885.69 101.505C1878.08 87.9629 1867 76.5903 1853.66 68.6165C1846.91 64.5839 1839.66 61.4676 1832.11 59.3543C1824.32 57.1741 1816.23 56.0686 1808.07 56.0686C1797.08 56.0686 1786.36 58.0456 1776.19 61.9446C1766.38 65.7113 1757.37 71.1523 1749.43 78.1166C1741.53 85.0408 1734.97 93.2108 1729.94 102.399C1724.79 111.814 1721.42 121.976 1719.93 132.604L1719.82 133.399L1719.02 133.462C1710.06 134.163 1701.44 136.521 1693.4 140.472C1685.59 144.31 1678.61 149.502 1672.67 155.903C1660.45 169.055 1653.72 186.192 1653.72 204.155C1653.72 213.729 1655.59 223.016 1659.29 231.757C1661.07 235.959 1663.27 240.012 1665.83 243.803C1668.37 247.558 1671.28 251.089 1674.49 254.298C1677.7 257.507 1681.23 260.421 1684.99 262.958C1688.78 265.519 1692.83 267.719 1697.03 269.496C1705.77 273.193 1715.06 275.068 1724.63 275.068H1916.07H1928.16ZM1928.16 276.068H1916.07H1724.63C1684.92 276.068 1652.72 243.872 1652.72 204.155C1652.72 166.354 1681.88 135.365 1718.94 132.465C1725.07 88.726 1762.64 55.0686 1808.07 55.0686C1841.77 55.0686 1871.14 73.5918 1886.56 101.015C1895.81 97.8093 1905.73 96.0681 1916.07 96.0681C1965.77 96.0681 2006.07 136.363 2006.07 186.068C2006.07 200.524 2002.66 214.187 1996.6 226.291C1987.26 255.177 1960.15 276.068 1928.16 276.068Z" fill="white" fill-opacity="0.5"/>
</g>
</g>
<defs>
<filter id="filter0_f_240_4611" x="6.26709" y="12.3486" width="2003.8" height="378.882" filterUnits="userSpaceOnUse" color-interpolation-filters="sRGB">
<feFlood flood-opacity="0" result="BackgroundImageFix"/>
<feBlend mode="normal" in="SourceGraphic" in2="BackgroundImageFix" result="shape"/>
<feGaussianBlur stdDeviation="2" result="effect1_foregroundBlur_240_4611"/>
</filter>
<filter id="filter1_f_240_4611" x="0.301758" y="0.721924" width="153.98" height="125.897" filterUnits="userSpaceOnUse" color-interpolation-filters="sRGB">
<feFlood flood-opacity="0" result="BackgroundImageFix"/>
<feBlend mode="normal" in="SourceGraphic" in2="BackgroundImageFix" result="shape"/>
<feGaussianBlur stdDeviation="10" result="effect1_foregroundBlur_240_4611"/>
</filter>
<filter id="filter2_d_240_4611" x="22" y="4.94189" width="413.345" height="281" filterUnits="userSpaceOnUse" color-interpolation-filters="sRGB">
<feFlood flood-opacity="0" result="BackgroundImageFix"/>
<feColorMatrix in="SourceAlpha" type="matrix" values="0 0 0 0 0 0 0 0 0 0 0 0 0 0 0 0 0 0 127 0" result="hardAlpha"/>
<feOffset dx="10" dy="2"/>
<feGaussianBlur stdDeviation="15"/>
<feColorMatrix type="matrix" values="0 0 0 0 0.501961 0 0 0 0 0.501961 0 0 0 0 0.501961 0 0 0 0.302 0"/>
<feBlend mode="normal" in2="BackgroundImageFix" result="effect1_dropShadow_240_4611"/>
<feBlend mode="normal" in="SourceGraphic" in2="effect1_dropShadow_240_4611" result="shape"/>
</filter>
<filter id="filter3_d_240_4611" x="1632.72" y="27.0686" width="413.345" height="281" filterUnits="userSpaceOnUse" color-interpolation-filters="sRGB">
<feFlood flood-opacity="0" result="BackgroundImageFix"/>
<feColorMatrix in="SourceAlpha" type="matrix" values="0 0 0 0 0 0 0 0 0 0 0 0 0 0 0 0 0 0 127 0" result="hardAlpha"/>
<feOffset dx="10" dy="2"/>
<feGaussianBlur stdDeviation="15"/>
<feColorMatrix type="matrix" values="0 0 0 0 0.501961 0 0 0 0 0.501961 0 0 0 0 0.501961 0 0 0 0.302 0"/>
<feBlend mode="normal" in2="BackgroundImageFix" result="effect1_dropShadow_240_4611"/>
<feBlend mode="normal" in="SourceGraphic" in2="effect1_dropShadow_240_4611" result="shape"/>
</filter>
<linearGradient id="paint0_linear_240_4611" x1="118.914" y1="286.354" x2="81.9877" y2="272.816" gradientUnits="userSpaceOnUse">
<stop stop-color="#FFD100"/>
<stop offset="1" stop-color="#FFF0AA"/>
</linearGradient>
<linearGradient id="paint1_linear_240_4611" x1="218.698" y1="32.9443" x2="321.341" y2="281.108" gradientUnits="userSpaceOnUse">
<stop stop-color="white" stop-opacity="0.604"/>
<stop offset="1" stop-color="white" stop-opacity="0.2"/>
</linearGradient>
<linearGradient id="paint2_linear_240_4611" x1="1729.63" y1="308.481" x2="1692.71" y2="294.943" gradientUnits="userSpaceOnUse">
<stop stop-color="#FFD100"/>
<stop offset="1" stop-color="#FFF0AA"/>
</linearGradient>
<linearGradient id="paint3_linear_240_4611" x1="1829.42" y1="55.071" x2="1932.06" y2="303.235" gradientUnits="userSpaceOnUse">
<stop stop-color="white" stop-opacity="0.604"/>
<stop offset="1" stop-color="white" stop-opacity="0.2"/>
</linearGradient>
</defs>
</svg>
